<svg width="19" height="18" viewBox="0 0 19 18" fill="none" xmlns="http://www.w3.org/2000/svg">
<path d="M10.5428 3.23341H3.18945C3.47226 2.5305 5.87624 0.140583 10.1185 0C16.6234 0.42175 20.3001 6.04508 18.4617 12.3713H15.9163L13.2296 7.59149H9.83572L12.5225 12.3713H9.41149L10.1185 10.9655H6.86611L5.02778 13.3554L6.86611 16.0265H10.1185L9.41149 14.7612H16.9062C14.3608 18.2758 10.1185 17.9946 10.1185 17.9946C1.77535 17.8541 -0.20439 9.41908 1.49253 5.62333H4.03791L6.7247 10.4032H10.1185L7.57316 5.62333H10.6842L9.69431 7.02916H12.9467L14.7851 4.49866L12.9467 1.82758H9.69431L10.5428 3.23341Z" fill="white"/>
</svg>
