<svg width="21" height="15" viewBox="0 0 21 15" fill="none" xmlns="http://www.w3.org/2000/svg">
<path fill-rule="evenodd" clip-rule="evenodd" d="M20.6002 3.04415C19.7748 1.60082 18.0911 0.590997 15.9467 0.21968C13.7889 -0.153949 11.1655 0.119156 8.48286 1.24772C5.80026 2.37628 3.59566 3.99416 2.27556 5.75373C0.954916 7.514 0.52013 9.41511 1.37522 11.1098C2.1835 12.7118 3.96009 13.6614 6.17652 13.9405C8.39241 14.2195 11.0474 13.8283 13.6119 12.7494C16.2945 11.6209 18.3795 10.0177 19.6268 8.28859C20.8668 6.56974 21.2789 4.72701 20.6281 3.10185L20.6162 3.07203L20.6002 3.04415ZM9.35944 1.89379C11.7105 1.0029 13.9578 0.814497 15.7888 1.13155C16.7595 1.29963 17.5901 1.6038 18.2604 2.00445C18.8659 2.40129 19.3149 2.90009 19.5538 3.48398C20.0976 4.81306 19.694 6.39347 18.6013 7.87435C18.0571 8.6119 17.3419 9.32472 16.4879 9.9694C16.4351 9.92463 16.3897 9.8736 16.3679 9.84315L14.5305 2.8381C14.2366 2.01838 13.626 1.74399 13.0606 1.90657L6.9607 11.8924C6.79268 12.1149 6.57198 12.2427 6.37421 12.2595C5.12498 11.9056 4.12059 11.2365 3.53975 10.221C2.99595 8.89186 3.12536 7.48238 3.91905 6.13124C4.71274 4.78009 6.17064 3.4872 8.28359 2.39103C8.63897 2.20666 8.9983 2.04114 9.35944 1.89379ZM13.7404 11.5697C13.9094 11.3832 13.9188 11.0558 13.7956 10.4393L13.5383 9.35877H9.67996C9.36339 9.86684 8.78933 10.7907 8.46731 11.4081C8.02008 12.2656 8.10667 12.4262 8.20474 12.5492C9.84964 12.6351 11.71 12.325 13.5161 11.6662C13.5913 11.6346 13.6662 11.6023 13.7404 11.5697ZM8.02407 13.0947C8.00112 13.0955 7.97821 13.0962 7.95533 13.0969C7.95144 13.0943 7.94753 13.0916 7.94359 13.089C7.97036 13.091 7.99719 13.0929 8.02407 13.0947ZM13.318 8.42694H10.3782L12.4728 4.84992L13.318 8.42694Z" fill="white"/>
</svg>
