<svg width="25" height="24" viewBox="0 0 25 24" fill="none" xmlns="http://www.w3.org/2000/svg">
<path d="M0.93457 3.6C0.93457 1.61177 2.54635 0 4.53457 0H21.3346C23.3228 0 24.9346 1.61178 24.9346 3.6V20.4C24.9346 22.3882 23.3228 24 21.3346 24H4.53457C2.54634 24 0.93457 22.3882 0.93457 20.4V3.6Z" fill="#E10000"/>
<path d="M7.80222 8.94693L7.22675 11.241H11.2455L10.632 13.5397H6.62271L5.42279 17.9747H2.13457L5.07995 7.24129V7.2367C5.17518 6.53636 5.7112 6 6.35878 6H7.58455C7.61312 6 7.64168 6.00153 7.67025 6.00307V6H12.6835L11.8754 8.91628H7.81038L7.80222 8.94693Z" fill="white"/>
<path d="M22.5346 6L21.7306 8.92394H19.1239L16.6397 17.9747H13.4576L15.9405 8.92394H12.9556L13.3257 7.18919L13.3515 7.06353L13.3542 7.05127C13.5121 6.44441 14.01 6 14.5991 6H22.5346Z" fill="white"/>
</svg>
