<svg width="18" height="18" viewBox="0 0 18 18" fill="none" xmlns="http://www.w3.org/2000/svg">
<path d="M8.76912 5.92547L0.485636 2.57143L8.76912 0L17.0526 2.57143L8.76912 5.92547Z" fill="white"/>
<path fill-rule="evenodd" clip-rule="evenodd" d="M0.154297 3.57764V13.7516L8.43778 18V6.81988L0.154297 3.57764ZM1.87721 9.60609C2.46548 9.11035 3.36913 8.87293 4.40182 9.10522C4.8732 9.21124 5.26583 9.52602 5.56057 9.88643C5.85749 10.2495 6.02815 10.6259 6.0714 10.8014C6.10833 10.9511 6.2582 11.0423 6.40616 11.0049C6.55412 10.9675 6.64413 10.8158 6.6072 10.666C6.54001 10.3935 6.32411 9.94345 5.98596 9.52996C5.64563 9.11381 5.15469 8.70192 4.52161 8.55952C3.34536 8.29495 2.26098 8.55533 1.52389 9.17647C1.4067 9.27523 1.39078 9.45147 1.48835 9.57011C1.58591 9.68874 1.76001 9.70485 1.87721 9.60609ZM2.64852 11.0628C2.79883 10.9383 3.02008 10.8536 3.2794 10.8224C3.53679 10.7914 3.81135 10.8159 4.05038 10.8891C4.52623 11.0349 4.90068 11.3668 5.08891 11.8432C5.14554 11.9865 5.30623 12.0562 5.44782 11.9989C5.58941 11.9416 5.65829 11.7789 5.60166 11.6356C5.3481 10.9939 4.83897 10.5467 4.21037 10.3541C3.89716 10.2581 3.54587 10.2273 3.2142 10.2673C2.88448 10.3069 2.55349 10.4192 2.29883 10.6302C2.18081 10.7279 2.16341 10.904 2.25998 11.0235C2.35654 11.1429 2.5305 11.1606 2.64852 11.0628ZM3.2579 12.5468C3.44023 12.4563 3.56394 12.4405 3.69553 12.4797C3.81337 12.5148 3.92935 12.6391 3.99994 12.7667C4.07449 12.9013 4.24276 12.9493 4.3758 12.8739C4.50883 12.7984 4.55624 12.6281 4.4817 12.4934C4.38238 12.314 4.17235 12.0391 3.85156 11.9435C3.54453 11.8519 3.27427 11.9161 3.01482 12.0449C2.87789 12.1128 2.8213 12.2803 2.88843 12.4189C2.95555 12.5575 3.12097 12.6147 3.2579 12.5468Z" fill="white"/>
<path d="M14.7629 15.5404C14.4996 15.5404 14.2231 15.5195 13.9335 15.4776C13.6504 15.4428 13.3805 15.387 13.1238 15.3103C12.8671 15.2336 12.6367 15.143 12.4326 15.0384C12.2549 14.9478 12.1298 14.8293 12.0574 14.6829C11.985 14.5295 11.9587 14.3692 11.9784 14.2018C11.9982 14.0345 12.0541 13.8881 12.1463 13.7626C12.2384 13.6302 12.3602 13.543 12.5116 13.5012C12.663 13.4524 12.8342 13.4733 13.0251 13.5639C13.2752 13.6894 13.5583 13.787 13.8742 13.8567C14.1902 13.9265 14.4864 13.9613 14.7629 13.9613C15.1974 13.9613 15.5002 13.9021 15.6713 13.7835C15.8491 13.6581 15.9379 13.5047 15.9379 13.3234C15.9379 13.1631 15.8754 13.0341 15.7503 12.9365C15.6318 12.8389 15.4179 12.7552 15.1085 12.6855L13.9532 12.4241C13.3213 12.2847 12.8506 12.0407 12.5412 11.6921C12.2318 11.3435 12.0772 10.8938 12.0772 10.3431C12.0772 9.98056 12.1463 9.65289 12.2845 9.36009C12.4293 9.06031 12.6301 8.80585 12.8868 8.5967C13.1501 8.38755 13.4595 8.22721 13.815 8.11566C14.177 7.99715 14.5786 7.93789 15.0196 7.93789C15.3619 7.93789 15.7075 7.97972 16.0564 8.06338C16.4119 8.14006 16.718 8.25858 16.9747 8.41893C17.1261 8.50258 17.2347 8.61761 17.3006 8.76402C17.3664 8.91042 17.3927 9.0638 17.3796 9.22414C17.3664 9.37751 17.3137 9.51346 17.2216 9.63198C17.136 9.75049 17.0175 9.83067 16.8661 9.8725C16.7213 9.90735 16.5468 9.87947 16.3428 9.78884C16.1519 9.69821 15.9346 9.63198 15.6911 9.59015C15.4541 9.54135 15.2237 9.51695 14.9999 9.51695C14.7563 9.51695 14.549 9.54832 14.3778 9.61106C14.2067 9.66683 14.075 9.75049 13.9829 9.86204C13.8973 9.97358 13.8545 10.1026 13.8545 10.249C13.8545 10.3954 13.9104 10.5209 14.0224 10.6254C14.1408 10.723 14.3548 10.8067 14.6642 10.8764L15.8096 11.1378C16.4481 11.2842 16.9253 11.5248 17.2413 11.8594C17.5573 12.194 17.7153 12.6297 17.7153 13.1666C17.7153 13.5291 17.6462 13.8567 17.5079 14.1495C17.3697 14.4424 17.1722 14.6933 16.9155 14.9025C16.6587 15.1047 16.3494 15.2615 15.9873 15.3731C15.6253 15.4846 15.2171 15.5404 14.7629 15.5404Z" fill="white"/>
</svg>
