<svg width="17" height="16" viewBox="0 0 17 16" fill="none" xmlns="http://www.w3.org/2000/svg">
<path d="M13.0359 12.9861H11.1844V15.7461H9.17383V9.48299L13.7778 6.34912C13.9026 6.60309 12.8454 8.63506 12.9039 8.63506C15.6504 8.63506 15.7752 9.01577 15.9 9.14275C16.5256 9.47254 16.655 10.3062 16.655 10.9085C16.655 11.3358 16.5098 11.6928 16.2193 11.9796C15.9334 12.2635 15.4978 12.49 14.9124 12.6592L16.9346 15.6859V15.7461H14.7765L13.0359 12.9861ZM11.1844 11.5554H12.7791C13.284 11.5554 14.125 11.5919 14.402 11.4284C14.679 11.2621 14.7765 11.0832 14.7765 10.7935C14.7765 10.4982 14.7904 10.2008 14.5268 10.0316C14.2677 9.86243 13.8191 9.90465 13.2785 9.90465H11.1844V11.5554Z" fill="white"/>
<path d="M6.67725 7.11105V5.07932L13.9178 0C13.9178 1.14285 12.5446 3.04759 12.5446 3.04759L6.67725 7.11105Z" fill="white"/>
<path d="M8.6944 8.7616V13.4601C8.6944 14.1455 8.33399 15.0032 7.66379 15.4018C6.99806 15.8005 6.08658 15.9998 4.92937 15.9998C3.79003 15.9998 2.88526 15.8062 2.21505 15.4191C1.54485 15.0319 0.947974 14.4382 0.93457 13.7614V8.63476H2.94517V13.7227C2.94517 14.095 4.2639 14.349 4.80453 14.349C5.93494 14.349 6.65922 14.2659 6.67709 13.5031V8.63476V8.12658L13.9177 3.04736C13.7928 4.19021 12.5445 6.22194 12.5445 6.22194L8.6944 8.7616Z" fill="white"/>
</svg>
