<svg width="140" height="126" viewBox="0 0 140 126" fill="none" xmlns="http://www.w3.org/2000/svg">
<mask id="mask0_2894_6785" style="mask-type:luminance" maskUnits="userSpaceOnUse" x="9" y="54" width="122" height="19">
<path d="M131 54H9V72.3919H131V54Z" fill="white"/>
</mask>
<g mask="url(#mask0_2894_6785)">
<path fill-rule="evenodd" clip-rule="evenodd" d="M21.2086 63.9563C21.2086 63.9563 21.309 63.282 20.52 63.282H14.7815C13.9781 63.282 14.1072 62.6077 14.1072 62.6077L14.3511 61.2735C14.3797 61.0679 14.4868 60.8814 14.65 60.753C14.8131 60.6247 15.0196 60.5644 15.2262 60.5849H21.7824C22.3563 60.5849 22.471 59.9106 22.471 59.9106L22.7149 58.806C22.7149 58.806 22.8297 58.1174 22.0263 58.1174H12.0987C11.8943 58.0965 11.6896 58.1548 11.5269 58.2802C11.3641 58.4056 11.2556 58.5886 11.2236 58.7916L9.01429 70.1682C9.01429 70.1682 8.88517 70.8281 9.68855 70.8281H11.8979C12.4717 70.8281 12.5721 70.1682 12.5721 70.1682L13.3038 66.4525C13.3324 66.2496 13.4374 66.0653 13.5975 65.9373C13.7575 65.8093 13.9603 65.7472 14.1646 65.7639H20.3047C20.8786 65.7639 20.9934 65.0896 20.9934 65.0896L21.2086 63.9563ZM68.551 68.3606C67.7477 68.3606 67.8768 67.672 67.8768 67.672L68.135 66.2373C68.167 66.0343 68.2755 65.8513 68.4383 65.7259C68.6011 65.6005 68.8057 65.5422 69.0101 65.563H75.4946C76.0685 65.563 76.1832 64.8888 76.1832 64.8888L76.3841 63.7554C76.3841 63.7554 76.4988 63.0668 75.7098 63.0668H69.5696C68.7806 63.0668 68.8954 62.4069 68.8954 62.4069L69.1105 61.2592C69.1392 61.0536 69.2463 60.867 69.4095 60.7387C69.5726 60.6103 69.7791 60.5501 69.9856 60.5706H76.8578C77.4316 60.5706 77.5459 59.8963 77.5459 59.8963L77.7903 58.7916C77.7903 58.7916 77.9046 58.103 77.1015 58.103H66.9012C66.6968 58.0822 66.4922 58.1404 66.3294 58.2659C66.1666 58.3913 66.0581 58.5743 66.0261 58.7773L63.8168 70.1538C63.8168 70.1538 63.6877 70.8138 64.491 70.8138H75.2937C75.8676 70.8138 75.9681 70.1538 75.9681 70.1538L76.2119 69.0348C76.2119 69.0348 76.3267 68.3462 75.5233 68.3462L68.551 68.3606ZM87.043 63.1672C86.8354 63.1506 86.6285 63.2141 86.4658 63.3449C86.3032 63.4756 86.197 63.6635 86.1684 63.8702L85.9676 65.0035C85.9676 65.0035 85.8383 65.6778 86.6414 65.6778H88.6786C88.6786 65.6778 89.281 65.6778 89.1381 66.309L88.9659 67.2559C88.9659 67.2559 88.8651 68.0736 88.3485 68.2171C87.237 68.5232 86.0874 68.6681 84.9344 68.6475C82.8543 68.6475 80.2433 67.7867 80.2433 64.9462C80.2433 62.1056 83.9447 60.2836 86.6414 60.2836C87.9524 60.285 89.2415 60.6208 90.3857 61.2592C90.5041 61.3529 90.6464 61.4108 90.7968 61.4261C90.9465 61.4413 91.0976 61.4133 91.2324 61.3453L93.126 60.1402C93.126 60.1402 93.9298 59.7528 93.3268 59.3081C93.3268 59.3081 91.5196 57.8735 87.0723 57.8735C82.6249 57.8735 77.0293 59.9537 76.5276 65.1757C76.5276 65.1757 75.6237 71.115 84.6328 71.2155C86.7667 71.1797 88.8876 70.876 90.9452 70.3116C90.9452 70.3116 92.0356 70.0247 92.1792 69.1496L93.1546 64.0423C93.1825 63.9379 93.1838 63.828 93.1586 63.7228C93.1328 63.6177 93.081 63.5208 93.0082 63.4408C92.9354 63.3607 92.8442 63.3004 92.7414 63.2651C92.6393 63.2298 92.5297 63.2209 92.4229 63.239L87.043 63.1672ZM54.0471 70.8281C53.4445 70.8281 53.2437 70.1682 53.2437 70.1682L48.6816 58.7916C48.6816 58.7916 48.366 58.1174 49.0402 58.1174H51.7946C52.0162 58.1154 52.2328 58.1819 52.4151 58.3077C52.5975 58.4336 52.7365 58.6126 52.8132 58.8203L55.6825 66.3234C55.6825 66.3234 55.8977 67.0407 56.4141 66.3234L61.7366 58.7916C61.8788 58.6009 62.0596 58.4422 62.2673 58.326C62.4749 58.2099 62.7047 58.1388 62.9417 58.1174H65.2084C65.2084 58.1174 66.1552 58.1174 65.6244 58.806L57.1027 70.1825C56.9625 70.3728 56.7815 70.5295 56.5731 70.6412C56.3646 70.7529 56.1339 70.8168 55.8977 70.8281H54.0471ZM109.624 70.1538L105.048 58.7916C104.975 58.5934 104.845 58.4216 104.674 58.2987C104.502 58.1758 104.297 58.1076 104.086 58.103H102.466C102.003 58.1723 101.586 58.4194 101.303 58.7916L92.2799 70.1682C91.6769 70.9142 92.6672 70.8281 92.6672 70.8281H95.1346C95.3646 70.8184 95.5892 70.7533 95.7893 70.6384C95.9888 70.5236 96.1583 70.3623 96.2821 70.1682L97.459 68.6044C97.5713 68.4399 97.721 68.3039 97.8953 68.2067C98.0695 68.1097 98.2635 68.0543 98.4629 68.0449H104.201C104.4 68.0498 104.591 68.1158 104.751 68.2339C104.91 68.3521 105.028 68.5166 105.091 68.7048L105.636 70.1395C105.691 70.3173 105.798 70.4742 105.945 70.5895C106.09 70.7048 106.268 70.773 106.454 70.785H109.18C109.18 70.785 109.926 70.8999 109.638 70.1538H109.624ZM103.154 65.6491H100.572C99.6969 65.6491 100.084 65.0896 100.084 65.0896L101.935 62.5216C102.738 61.4026 103.01 62.5216 103.01 62.5216L103.857 65.0896C104.086 65.7495 103.197 65.6491 103.197 65.6491H103.154ZM43.6604 58.1174C43.2461 58.2197 42.8777 58.4569 42.6131 58.7916L34.3927 69.1353C34.3416 69.238 34.2629 69.3245 34.1653 69.3849C34.0677 69.4454 33.9552 69.4774 33.8404 69.4774C33.7256 69.4774 33.6131 69.4454 33.5155 69.3849C33.418 69.3245 33.3392 69.238 33.2881 69.1353L31.5092 66.266C30.964 65.4196 32.126 65.0323 32.126 65.0323C32.995 64.8327 33.7761 64.3574 34.3527 63.6774C34.9293 62.9974 35.2704 62.149 35.3252 61.2592C35.3252 57.8591 29.2999 58.1461 29.2999 58.1461H24.0204C23.816 58.1252 23.6113 58.1835 23.4486 58.3089C23.2858 58.4343 23.1773 58.6173 23.1453 58.8203L20.936 70.1969C20.936 70.1969 20.8069 70.8568 21.6102 70.8568H23.8053C24.3934 70.8568 24.4939 70.1969 24.4939 70.1969L25.2255 66.3808C25.2541 66.1751 25.3613 65.9886 25.5244 65.8603C25.6875 65.7319 25.894 65.6717 26.1006 65.6922H26.7318C27.2483 65.6922 27.5353 66.3377 27.5353 66.3377L29.7159 70.1825C29.7994 70.369 29.9312 70.5299 30.0976 70.6484C30.2641 70.7669 30.4591 70.8389 30.6627 70.8568H36.4012C36.6314 70.847 36.8559 70.782 37.0557 70.6671C37.2555 70.5523 37.4247 70.3909 37.5489 70.1969L38.7253 68.6332C38.8381 68.4687 38.9874 68.3325 39.1617 68.2355C39.3359 68.1384 39.5303 68.083 39.7296 68.0736H45.468C45.6662 68.0784 45.8581 68.1445 46.0173 68.2626C46.1766 68.3808 46.2954 68.5452 46.3575 68.7336L46.9026 70.1682C46.9565 70.3438 47.062 70.4992 47.2052 70.6143C47.3484 70.7294 47.5229 70.7989 47.706 70.8138H50.36C50.36 70.8138 51.1778 70.8999 50.8909 70.1538L46.3144 58.7916C46.2422 58.5934 46.1119 58.4216 45.9403 58.2987C45.7688 58.1758 45.5641 58.1076 45.3532 58.103H43.6604V58.1174ZM44.4638 65.6491H41.8384C40.9633 65.6491 41.3363 65.0896 41.3363 65.0896L43.187 62.5216C43.9903 61.4026 44.2629 62.5216 44.2629 62.5216L45.1093 65.0896C45.3532 65.7495 44.4638 65.6491 44.4638 65.6491ZM28.8408 63.2533H26.7175C25.9285 63.2533 26.0432 62.579 26.0432 62.579L26.3302 61.1444C26.3588 60.9415 26.4638 60.7572 26.6238 60.6292C26.7838 60.5012 26.9867 60.4392 27.1909 60.4558H28.9985C28.9985 60.4558 30.964 60.341 31.4231 61.0009C31.525 61.1252 31.5942 61.273 31.6243 61.4309C31.6544 61.5888 31.6444 61.7517 31.5952 61.9048C31.4661 62.5216 30.8636 63.1672 28.8408 63.2102V63.2533ZM47.7777 54H46.0562C45.681 54.0497 45.3407 54.2457 45.1093 54.5452L43.8469 56.1663C43.3878 56.7545 44.2056 56.7688 44.2056 56.7688H45.8984C46.0856 56.7478 46.2668 56.6901 46.4318 56.599C46.5967 56.5079 46.7421 56.3853 46.8596 56.238L48.1077 54.6025C48.5955 54.0861 47.7777 54 47.7777 54Z" fill="#231F20"/>
<path fill-rule="evenodd" clip-rule="evenodd" d="M117.673 71.9902C124.143 70.283 130.928 67.6863 130.986 63.8415C130.986 63.8415 131.875 58.8921 118.074 56.2093C118.074 56.2093 115.535 55.6929 115.018 56.2093C114.502 56.7258 116.453 57.4144 116.453 57.4144C120.154 58.849 124.272 61.1444 124.387 64.0137C124.387 64.0137 125.291 67.5859 116.511 71.029C116.511 71.029 114.689 71.6746 114.918 72.2053C115.148 72.7362 116.927 72.1193 117.63 71.9615" fill="#493394"/>
<path fill-rule="evenodd" clip-rule="evenodd" d="M116.109 70.4551C119.853 69.0205 123.411 66.9116 123.426 64.2289C123.426 64.2289 123.999 61.001 116.252 57.9022C116.009 57.8161 115.004 57.4862 114.531 57.9883C114.057 58.4904 115.291 59.179 115.291 59.179C116.099 59.7209 116.775 60.4361 117.271 61.2724C117.768 62.1088 118.072 63.0453 118.16 64.0137C118.16 65.764 116.726 67.3277 114.918 68.6619C114.918 68.6619 113.168 69.7952 113.584 70.4695C114 71.1437 115.463 70.6847 116.152 70.4695" fill="#E04097"/>
</g>
</svg>
