<svg width="25" height="24" viewBox="0 0 25 24" fill="none" xmlns="http://www.w3.org/2000/svg">
<path d="M5.38957 2.025C5.5304 1.86035 5.70523 1.72817 5.90202 1.63754C6.09882 1.54691 6.31291 1.49999 6.52957 1.5H19.3396C19.5562 1.49999 19.7703 1.54691 19.9671 1.63754C20.1639 1.72817 20.3387 1.86035 20.4796 2.025L24.3931 6.591C24.7425 6.99875 24.9346 7.51802 24.9346 8.055V8.4375C24.9347 9.17996 24.7028 9.9039 24.2713 10.5081C23.8398 11.1124 23.2304 11.5667 22.5281 11.8076C21.8258 12.0485 21.0658 12.064 20.3543 11.8519C19.6427 11.6398 19.0153 11.2107 18.5596 10.6245C18.2268 11.0532 17.8003 11.4 17.3128 11.6384C16.8253 11.8768 16.2897 12.0005 15.7471 12C15.2044 12.0006 14.6688 11.877 14.1812 11.6385C13.6937 11.4001 13.2673 11.0532 12.9346 10.6245C12.6019 11.0532 12.1754 11.4001 11.6879 11.6385C11.2004 11.877 10.6648 12.0006 10.1221 12C9.57938 12.0006 9.04376 11.877 8.55625 11.6385C8.06874 11.4001 7.64228 11.0532 7.30957 10.6245C6.85386 11.2107 6.22639 11.6398 5.51488 11.8519C4.80336 12.064 4.04334 12.0485 3.34106 11.8076C2.63877 11.5667 2.0293 11.1124 1.59784 10.5081C1.16638 9.9039 0.934488 9.17996 0.93457 8.4375V8.055C0.934589 7.51802 1.12666 6.99875 1.47607 6.591L5.39107 2.0235L5.38957 2.025ZM8.05957 8.4375C8.05957 8.98451 8.27687 9.50911 8.66366 9.89591C9.05046 10.2827 9.57506 10.5 10.1221 10.5C10.6691 10.5 11.1937 10.2827 11.5805 9.89591C11.9673 9.50911 12.1846 8.98451 12.1846 8.4375C12.1846 8.23859 12.2636 8.04782 12.4042 7.90717C12.5449 7.76652 12.7357 7.6875 12.9346 7.6875C13.1335 7.6875 13.3242 7.76652 13.4649 7.90717C13.6056 8.04782 13.6846 8.23859 13.6846 8.4375C13.6846 8.98451 13.9019 9.50911 14.2887 9.89591C14.6755 10.2827 15.2001 10.5 15.7471 10.5C16.2941 10.5 16.8187 10.2827 17.2055 9.89591C17.5923 9.50911 17.8096 8.98451 17.8096 8.4375C17.8096 8.23859 17.8886 8.04782 18.0292 7.90717C18.1699 7.76652 18.3607 7.6875 18.5596 7.6875C18.7585 7.6875 18.9492 7.76652 19.0899 7.90717C19.2306 8.04782 19.3096 8.23859 19.3096 8.4375C19.3096 8.98451 19.5269 9.50911 19.9137 9.89591C20.3005 10.2827 20.8251 10.5 21.3721 10.5C21.9191 10.5 22.4437 10.2827 22.8305 9.89591C23.2173 9.50911 23.4346 8.98451 23.4346 8.4375V8.055C23.4346 7.87624 23.3708 7.70336 23.2546 7.5675L19.3396 3H6.52957L2.61457 7.5675C2.49839 7.70336 2.43456 7.87624 2.43457 8.055V8.4375C2.43457 8.98451 2.65187 9.50911 3.03866 9.89591C3.42546 10.2827 3.95006 10.5 4.49707 10.5C5.04408 10.5 5.56868 10.2827 5.95548 9.89591C6.34227 9.50911 6.55957 8.98451 6.55957 8.4375C6.55957 8.23859 6.63859 8.04782 6.77924 7.90717C6.91989 7.76652 7.11066 7.6875 7.30957 7.6875C7.50848 7.6875 7.69925 7.76652 7.8399 7.90717C7.98055 8.04782 8.05957 8.23859 8.05957 8.4375ZM3.18457 12.75C3.38348 12.75 3.57425 12.829 3.7149 12.9697C3.85555 13.1103 3.93457 13.3011 3.93457 13.5V22.5H5.43457V15C5.43457 14.6022 5.59261 14.2206 5.87391 13.9393C6.15521 13.658 6.53675 13.5 6.93457 13.5H11.4346C11.8324 13.5 12.2139 13.658 12.4952 13.9393C12.7765 14.2206 12.9346 14.6022 12.9346 15V22.5H21.9346V13.5C21.9346 13.3011 22.0136 13.1103 22.1542 12.9697C22.2949 12.829 22.4857 12.75 22.6846 12.75C22.8835 12.75 23.0742 12.829 23.2149 12.9697C23.3556 13.1103 23.4346 13.3011 23.4346 13.5V22.5H24.1846C24.3835 22.5 24.5742 22.579 24.7149 22.7197C24.8556 22.8603 24.9346 23.0511 24.9346 23.25C24.9346 23.4489 24.8556 23.6397 24.7149 23.7803C24.5742 23.921 24.3835 24 24.1846 24H1.68457C1.48566 24 1.29489 23.921 1.15424 23.7803C1.01359 23.6397 0.93457 23.4489 0.93457 23.25C0.93457 23.0511 1.01359 22.8603 1.15424 22.7197C1.29489 22.579 1.48566 22.5 1.68457 22.5H2.43457V13.5C2.43457 13.3011 2.51359 13.1103 2.65424 12.9697C2.79489 12.829 2.98566 12.75 3.18457 12.75ZM6.93457 22.5H11.4346V15H6.93457V22.5ZM14.4346 15C14.4346 14.6022 14.5926 14.2206 14.8739 13.9393C15.1552 13.658 15.5367 13.5 15.9346 13.5H18.9346C19.3324 13.5 19.7139 13.658 19.9952 13.9393C20.2765 14.2206 20.4346 14.6022 20.4346 15V19.5C20.4346 19.8978 20.2765 20.2794 19.9952 20.5607C19.7139 20.842 19.3324 21 18.9346 21H15.9346C15.5367 21 15.1552 20.842 14.8739 20.5607C14.5926 20.2794 14.4346 19.8978 14.4346 19.5V15ZM18.9346 15H15.9346V19.5H18.9346V15Z" fill="#05A7FF"/>
</svg>
