<svg width="25" height="24" viewBox="0 0 25 24" fill="none" xmlns="http://www.w3.org/2000/svg">
<path d="M15.6264 9.29992H9.79536C9.69969 9.29992 9.60794 9.33793 9.54029 9.40558C9.47264 9.47323 9.43464 9.56498 9.43464 9.66065V15.1314H6.87917C6.7835 15.1314 6.69175 15.1694 6.6241 15.2371C6.55645 15.3047 6.51845 15.3965 6.51845 15.4922V21.3241C6.51845 21.5232 6.68012 21.6848 6.87917 21.6848H18.5426C18.6383 21.6848 18.7301 21.6468 18.7977 21.5792C18.8654 21.5115 18.9034 21.4198 18.9034 21.3241V15.4926C18.9034 15.4452 18.8941 15.3982 18.876 15.3544C18.8579 15.3106 18.8314 15.2708 18.7979 15.2373C18.7644 15.2037 18.7246 15.1771 18.6808 15.1589C18.637 15.1408 18.59 15.1314 18.5426 15.1314H15.9872V9.66065C15.9872 9.56498 15.9492 9.47323 15.8815 9.40558C15.8139 9.33793 15.7221 9.29992 15.6264 9.29992ZM13.2257 10.0214V11.4356L12.951 11.1905C12.8849 11.1315 12.7995 11.0989 12.7109 11.0989C12.6223 11.0989 12.5369 11.1315 12.4708 11.1905L12.1961 11.4351V10.0218L13.2257 10.0214ZM10.1561 10.0214H11.4742V12.2405C11.4741 12.3101 11.4942 12.3783 11.5321 12.4368C11.5699 12.4953 11.6238 12.5416 11.6874 12.5701C11.751 12.5986 11.8214 12.6081 11.8902 12.5974C11.9591 12.5867 12.0234 12.5563 12.0753 12.5099L12.7107 11.9436L13.3465 12.5099C13.3985 12.5563 13.4627 12.5867 13.5316 12.5974C13.6004 12.6081 13.6708 12.5986 13.7344 12.5701C13.798 12.5416 13.8519 12.4953 13.8898 12.4368C13.9276 12.3783 13.9477 12.3101 13.9476 12.2405V10.0218H15.2657V15.1314H10.1561V10.0214ZM9.79536 15.8538H10.3099V17.2671L10.0353 17.0224C9.96917 16.9635 9.88371 16.9309 9.79514 16.9309C9.70658 16.9309 9.62112 16.9635 9.55503 17.0224L9.28036 17.2667V15.8533H9.79493L9.79536 15.8538ZM7.23989 15.8538H8.55848V18.072C8.55839 18.1416 8.57847 18.2098 8.6163 18.2683C8.65412 18.3268 8.70808 18.3731 8.77164 18.4016C8.8352 18.4301 8.90565 18.4396 8.97449 18.4289C9.04332 18.4182 9.10759 18.3878 9.15954 18.3414L9.79493 17.7751L10.4308 18.3414C10.4827 18.3878 10.547 18.4182 10.6158 18.4289C10.6846 18.4396 10.7551 18.4301 10.8187 18.4016C10.8822 18.3731 10.9362 18.3268 10.974 18.2683C11.0118 18.2098 11.0319 18.1416 11.0318 18.072V15.8533H12.35V20.963H7.24032L7.23989 15.8538ZM18.1819 20.9625H13.0718V15.8533H14.39V18.072C14.3898 18.1417 14.4099 18.21 14.4477 18.2686C14.4856 18.3272 14.5396 18.3735 14.6032 18.402C14.6669 18.4305 14.7374 18.44 14.8063 18.4292C14.8752 18.4185 14.9396 18.388 14.9915 18.3414L15.6269 17.7751L16.2623 18.3414C16.3142 18.3878 16.3785 18.4182 16.4473 18.4289C16.5162 18.4396 16.5866 18.4301 16.6502 18.4016C16.7137 18.3731 16.7677 18.3268 16.8055 18.2683C16.8433 18.2098 16.8634 18.1416 16.8633 18.072V15.8533H18.1815V20.963L18.1819 20.9625ZM16.1419 17.2667L15.8672 17.022C15.8011 16.963 15.7157 16.9304 15.6271 16.9304C15.5385 16.9304 15.4531 16.963 15.387 17.022L15.1123 17.2662V15.8529H16.1415L16.1419 17.2667Z" fill="#05A7FF"/>
<path d="M20.8495 21.7766C20.9556 21.7766 21.0572 21.7345 21.1322 21.6595C21.2072 21.5846 21.2493 21.4829 21.2493 21.3769V10.6508L21.7358 10.9928C21.7787 11.023 21.8272 11.0445 21.8785 11.056C21.9298 11.0674 21.9828 11.0687 22.0345 11.0597C22.0863 11.0506 22.1358 11.0315 22.1801 11.0033C22.2245 10.9751 22.2628 10.9385 22.293 10.8955C22.6432 10.3962 22.7811 9.77833 22.6765 9.17747C22.5718 8.57661 22.2332 8.04176 21.7348 7.69022L13.8336 2.13118C13.5049 1.90058 13.1131 1.77686 12.7116 1.77686C12.3101 1.77686 11.9183 1.90058 11.5896 2.13118L3.68839 7.69022C3.44068 7.86348 3.22979 8.08413 3.06792 8.33942C2.90605 8.59471 2.79641 8.87957 2.74534 9.17751C2.69272 9.4752 2.69968 9.78037 2.76582 10.0754C2.83196 10.3703 2.95596 10.6493 3.13065 10.896C3.16087 10.939 3.19926 10.9755 3.24363 11.0037C3.28799 11.0318 3.33746 11.0509 3.38922 11.0599C3.44097 11.0689 3.49399 11.0676 3.54524 11.0561C3.59649 11.0445 3.64497 11.0231 3.68791 10.9928L4.17339 10.6513V21.3769C4.17339 21.4829 4.21554 21.5847 4.29055 21.6597C4.36557 21.7347 4.46731 21.7769 4.57339 21.7769C4.67948 21.7769 4.78122 21.7347 4.85623 21.6597C4.93125 21.5847 4.97339 21.4829 4.97339 21.3769V10.0883L12.7113 4.64387L20.4498 10.0883V21.3769C20.4498 21.5974 20.629 21.7766 20.8495 21.7766ZM12.4816 3.82798L3.59832 10.0767C3.48825 9.76756 3.48238 9.43086 3.58161 9.11804C3.68083 8.80522 3.87971 8.53347 4.14787 8.34428L12.0496 2.78524C12.2433 2.64898 12.4743 2.57585 12.7111 2.57585C12.9479 2.57585 13.179 2.64898 13.3726 2.78524L21.2743 8.34476C21.5425 8.53394 21.7414 8.80566 21.8408 9.11847C21.9401 9.43127 21.9343 9.76798 21.8244 10.0772L12.9416 3.82798C12.8742 3.78062 12.7939 3.7552 12.7116 3.7552C12.6293 3.7552 12.5489 3.78062 12.4816 3.82798Z" fill="#05A7FF"/>
<path d="M15.6264 9.29992H9.79536C9.69969 9.29992 9.60794 9.33793 9.54029 9.40558C9.47264 9.47323 9.43464 9.56498 9.43464 9.66065V15.1314H6.87917C6.7835 15.1314 6.69175 15.1694 6.6241 15.2371C6.55645 15.3047 6.51845 15.3965 6.51845 15.4922V21.3241C6.51845 21.5232 6.68012 21.6848 6.87917 21.6848H18.5426C18.6383 21.6848 18.7301 21.6468 18.7977 21.5792C18.8654 21.5115 18.9034 21.4198 18.9034 21.3241V15.4926C18.9034 15.4452 18.8941 15.3982 18.876 15.3544C18.8579 15.3106 18.8314 15.2708 18.7979 15.2373C18.7644 15.2037 18.7246 15.1771 18.6808 15.1589C18.637 15.1408 18.59 15.1314 18.5426 15.1314H15.9872V9.66065C15.9872 9.56498 15.9492 9.47323 15.8815 9.40558C15.8139 9.33793 15.7221 9.29992 15.6264 9.29992ZM13.2257 10.0214V11.4356L12.951 11.1905C12.8849 11.1315 12.7995 11.0989 12.7109 11.0989C12.6223 11.0989 12.5369 11.1315 12.4708 11.1905L12.1961 11.4351V10.0218L13.2257 10.0214ZM10.1561 10.0214H11.4742V12.2405C11.4741 12.3101 11.4942 12.3783 11.5321 12.4368C11.5699 12.4953 11.6238 12.5416 11.6874 12.5701C11.751 12.5986 11.8214 12.6081 11.8902 12.5974C11.9591 12.5867 12.0234 12.5563 12.0753 12.5099L12.7107 11.9436L13.3465 12.5099C13.3985 12.5563 13.4627 12.5867 13.5316 12.5974C13.6004 12.6081 13.6708 12.5986 13.7344 12.5701C13.798 12.5416 13.8519 12.4953 13.8898 12.4368C13.9276 12.3783 13.9477 12.3101 13.9476 12.2405V10.0218H15.2657V15.1314H10.1561V10.0214ZM9.79536 15.8538H10.3099V17.2671L10.0353 17.0224C9.96917 16.9635 9.88371 16.9309 9.79514 16.9309C9.70658 16.9309 9.62112 16.9635 9.55503 17.0224L9.28036 17.2667V15.8533H9.79493L9.79536 15.8538ZM7.23989 15.8538H8.55848V18.072C8.55839 18.1416 8.57847 18.2098 8.6163 18.2683C8.65412 18.3268 8.70808 18.3731 8.77164 18.4016C8.8352 18.4301 8.90565 18.4396 8.97449 18.4289C9.04332 18.4182 9.10759 18.3878 9.15954 18.3414L9.79493 17.7751L10.4308 18.3414C10.4827 18.3878 10.547 18.4182 10.6158 18.4289C10.6846 18.4396 10.7551 18.4301 10.8187 18.4016C10.8822 18.3731 10.9362 18.3268 10.974 18.2683C11.0118 18.2098 11.0319 18.1416 11.0318 18.072V15.8533H12.35V20.963H7.24032L7.23989 15.8538ZM18.1819 20.9625H13.0718V15.8533H14.39V18.072C14.3898 18.1417 14.4099 18.21 14.4477 18.2686C14.4856 18.3272 14.5396 18.3735 14.6032 18.402C14.6669 18.4305 14.7374 18.44 14.8063 18.4292C14.8752 18.4185 14.9396 18.388 14.9915 18.3414L15.6269 17.7751L16.2623 18.3414C16.3142 18.3878 16.3785 18.4182 16.4473 18.4289C16.5162 18.4396 16.5866 18.4301 16.6502 18.4016C16.7137 18.3731 16.7677 18.3268 16.8055 18.2683C16.8433 18.2098 16.8634 18.1416 16.8633 18.072V15.8533H18.1815V20.963L18.1819 20.9625ZM16.1419 17.2667L15.8672 17.022C15.8011 16.963 15.7157 16.9304 15.6271 16.9304C15.5385 16.9304 15.4531 16.963 15.387 17.022L15.1123 17.2662V15.8529H16.1415L16.1419 17.2667Z" stroke="#05A7FF" stroke-width="0.3"/>
<path d="M20.8495 21.7766C20.9556 21.7766 21.0572 21.7345 21.1322 21.6595C21.2072 21.5846 21.2493 21.4829 21.2493 21.3769V10.6508L21.7358 10.9928C21.7787 11.023 21.8272 11.0445 21.8785 11.056C21.9298 11.0674 21.9828 11.0687 22.0345 11.0597C22.0863 11.0506 22.1358 11.0315 22.1801 11.0033C22.2245 10.9751 22.2628 10.9385 22.293 10.8955C22.6432 10.3962 22.7811 9.77833 22.6765 9.17747C22.5718 8.57661 22.2332 8.04176 21.7348 7.69022L13.8336 2.13118C13.5049 1.90058 13.1131 1.77686 12.7116 1.77686C12.3101 1.77686 11.9183 1.90058 11.5896 2.13118L3.68839 7.69022C3.44068 7.86348 3.22979 8.08413 3.06792 8.33942C2.90605 8.59471 2.79641 8.87957 2.74534 9.17751C2.69272 9.4752 2.69968 9.78037 2.76582 10.0754C2.83196 10.3703 2.95596 10.6493 3.13065 10.896C3.16087 10.939 3.19926 10.9755 3.24363 11.0037C3.28799 11.0318 3.33746 11.0509 3.38922 11.0599C3.44097 11.0689 3.49399 11.0676 3.54524 11.0561C3.59649 11.0445 3.64497 11.0231 3.68791 10.9928L4.17339 10.6513V21.3769C4.17339 21.4829 4.21554 21.5847 4.29055 21.6597C4.36557 21.7347 4.46731 21.7769 4.57339 21.7769C4.67948 21.7769 4.78122 21.7347 4.85623 21.6597C4.93125 21.5847 4.97339 21.4829 4.97339 21.3769V10.0883L12.7113 4.64387L20.4498 10.0883V21.3769C20.4498 21.5974 20.629 21.7766 20.8495 21.7766ZM12.4816 3.82798L3.59832 10.0767C3.48825 9.76756 3.48238 9.43086 3.58161 9.11804C3.68083 8.80522 3.87971 8.53347 4.14787 8.34428L12.0496 2.78524C12.2433 2.64898 12.4743 2.57585 12.7111 2.57585C12.9479 2.57585 13.179 2.64898 13.3726 2.78524L21.2743 8.34476C21.5425 8.53394 21.7414 8.80566 21.8408 9.11847C21.9401 9.43127 21.9343 9.76798 21.8244 10.0772L12.9416 3.82798C12.8742 3.78062 12.7939 3.7552 12.7116 3.7552C12.6293 3.7552 12.5489 3.78062 12.4816 3.82798Z" stroke="#05A7FF" stroke-width="0.3"/>
</svg>
