<svg width="28" height="27" viewBox="0 0 28 27" fill="none" xmlns="http://www.w3.org/2000/svg">
<g id="Frame 18423">
<path id="Vector" d="M26.8995 15.1108H26.2245V10.6771C26.2245 10.1562 26.0093 9.65576 25.6296 9.28662L21.4151 5.18916C21.0354 4.82002 20.5207 4.61084 19.9849 4.61084H18.1245V2.64209C18.1245 1.55518 17.2174 0.67334 16.0995 0.67334H2.59946C1.48149 0.67334 0.574463 1.55518 0.574463 2.64209V15.7671C0.574463 16.854 1.48149 17.7358 2.59946 17.7358H3.27446C3.27446 19.9097 5.08853 21.6733 7.32446 21.6733C9.5604 21.6733 11.3745 19.9097 11.3745 17.7358H16.7745C16.7745 19.9097 18.5885 21.6733 20.8245 21.6733C23.0604 21.6733 24.8745 19.9097 24.8745 17.7358H26.8995C27.2707 17.7358 27.5745 17.4405 27.5745 17.0796V15.7671C27.5745 15.4062 27.2707 15.1108 26.8995 15.1108ZM7.32446 19.7046C6.20649 19.7046 5.29946 18.8228 5.29946 17.7358C5.29946 16.6489 6.20649 15.7671 7.32446 15.7671C8.44243 15.7671 9.34946 16.6489 9.34946 17.7358C9.34946 18.8228 8.44243 19.7046 7.32446 19.7046ZM20.8245 19.7046C19.7065 19.7046 18.7995 18.8228 18.7995 17.7358C18.7995 16.6489 19.7065 15.7671 20.8245 15.7671C21.9424 15.7671 22.8495 16.6489 22.8495 17.7358C22.8495 18.8228 21.9424 19.7046 20.8245 19.7046ZM24.1995 11.1733H18.1245V6.57959H19.9849L24.1995 10.6771V11.1733Z" fill="url(#paint0_linear_825_17715)"/>
<path id="Vector_2" d="M12.5834 22.3208L12.5834 22.3208L8.8491 21.9558L6.46812 24.8557L6.46776 24.8561C5.85904 25.5967 4.93616 25.6872 4.23747 25.3791C3.54818 25.0752 3.00837 24.365 3.0328 23.4605L3.3062 13.1605C3.35059 11.4694 5.31589 10.6547 6.54378 11.8182L12.5834 22.3208ZM12.5834 22.3208C13.5383 22.4141 14.2546 21.8244 14.5302 21.1123C14.8018 20.4102 14.6811 19.5265 14.0245 18.9047C14.0245 18.9046 14.0245 18.9046 14.0244 18.9046L6.54399 11.8184L12.5834 22.3208Z" fill="#002152" stroke="#E2F3FD" stroke-width="2"/>
</g>
<defs>
<linearGradient id="paint0_linear_825_17715" x1="27.5745" y1="11.6108" x2="0.574462" y2="11.6108" gradientUnits="userSpaceOnUse">
<stop stop-color="#0D8DEF"/>
<stop offset="1" stop-color="#38B3F8"/>
</linearGradient>
</defs>
</svg>
