<svg width="18" height="19" viewBox="0 0 18 19" fill="none" xmlns="http://www.w3.org/2000/svg">
<path d="M12.2308 2.67334H5.76923C4.7699 2.67441 3.8118 3.07187 3.10516 3.7785C2.39853 4.48514 2.00107 5.44324 2 6.44257V12.9041C2.00107 13.9034 2.39853 14.8615 3.10516 15.5682C3.8118 16.2748 4.7699 16.6723 5.76923 16.6733H12.2308C13.2301 16.6723 14.1882 16.2748 14.8948 15.5682C15.6015 14.8615 15.9989 13.9034 16 12.9041V6.44257C15.9989 5.44324 15.6015 4.48514 14.8948 3.7785C14.1882 3.07187 13.2301 2.67441 12.2308 2.67334ZM9 12.9041C8.36101 12.9041 7.73638 12.7146 7.20508 12.3596C6.67378 12.0046 6.25969 11.5 6.01516 10.9097C5.77063 10.3194 5.70665 9.66976 5.83131 9.04305C5.95597 8.41634 6.26367 7.84067 6.7155 7.38884C7.16733 6.93701 7.743 6.62931 8.36971 6.50465C8.99642 6.37999 9.64602 6.44397 10.2364 6.6885C10.8267 6.93303 11.3313 7.34712 11.6863 7.87842C12.0413 8.40972 12.2308 9.03435 12.2308 9.67334C12.2299 10.5299 11.8892 11.3512 11.2835 11.9569C10.6778 12.5625 9.85658 12.9032 9 12.9041ZM13.0385 6.44257C12.8787 6.44257 12.7226 6.3952 12.5897 6.30645C12.4569 6.2177 12.3534 6.09156 12.2923 5.94397C12.2311 5.79638 12.2151 5.63398 12.2463 5.47731C12.2775 5.32063 12.3544 5.17671 12.4673 5.06375C12.5803 4.9508 12.7242 4.87387 12.8809 4.84271C13.0376 4.81154 13.2 4.82754 13.3476 4.88867C13.4951 4.9498 13.6213 5.05332 13.71 5.18615C13.7988 5.31897 13.8462 5.47513 13.8462 5.63488C13.8462 5.84909 13.7611 6.05453 13.6096 6.206C13.4581 6.35748 13.2527 6.44257 13.0385 6.44257ZM11.1538 9.67334C11.1538 10.0993 11.0275 10.5158 10.7909 10.87C10.5542 11.2242 10.2178 11.5002 9.82424 11.6632C9.43068 11.8263 8.99761 11.8689 8.57981 11.7858C8.162 11.7027 7.77822 11.4976 7.477 11.1963C7.17578 10.8951 6.97065 10.5113 6.88754 10.0935C6.80443 9.67573 6.84709 9.24266 7.01011 8.8491C7.17313 8.45553 7.44919 8.11915 7.80339 7.88248C8.15759 7.64581 8.57401 7.51949 9 7.51949C9.57124 7.51949 10.1191 7.74642 10.523 8.15034C10.9269 8.55427 11.1538 9.1021 11.1538 9.67334Z" fill="#6E7D91"/>
</svg>
