<svg width="29" height="29" viewBox="0 0 29 29" fill="none" xmlns="http://www.w3.org/2000/svg">
<g id="fluent:map-drive-16-filled">
<g id="Vector">
<path d="M4.12598 17.6733C4.12598 17.1211 4.57369 16.6733 5.12598 16.6733H10.126C10.6783 16.6733 11.126 17.1211 11.126 17.6733V25.6733C11.126 26.2256 10.6783 26.6733 10.126 26.6733H5.12598C4.57369 26.6733 4.12598 26.2256 4.12598 25.6733V17.6733Z" fill="url(#paint0_linear_825_17693)"/>
<path d="M4.12598 3.67334C4.12598 3.12106 4.57369 2.67334 5.12598 2.67334H10.126C10.6783 2.67334 11.126 3.12106 11.126 3.67334V11.6733C11.126 12.2256 10.6783 12.6733 10.126 12.6733H5.12598C4.57369 12.6733 4.12598 12.2256 4.12598 11.6733V3.67334Z" fill="url(#paint1_linear_825_17693)"/>
<path d="M19.126 10.6733C19.126 10.1211 19.5737 9.67334 20.126 9.67334H25.126C25.6783 9.67334 26.126 10.1211 26.126 10.6733V18.6733C26.126 19.2256 25.6783 19.6733 25.126 19.6733H20.126C19.5737 19.6733 19.126 19.2256 19.126 18.6733V10.6733Z" fill="url(#paint2_linear_825_17693)"/>
<path d="M14.126 7.67334C14.126 7.12106 14.5737 6.67334 15.126 6.67334C15.6783 6.67334 16.126 7.12106 16.126 7.67334V21.6733C16.126 22.2256 15.6783 22.6733 15.126 22.6733C14.5737 22.6733 14.126 22.2256 14.126 21.6733V7.67334Z" fill="url(#paint3_linear_825_17693)"/>
<path d="M15.126 6.67334C15.6783 6.67334 16.126 7.12106 16.126 7.67334C16.126 8.22562 15.6783 8.67334 15.126 8.67334H9.12598C8.57369 8.67334 8.12598 8.22562 8.12598 7.67334C8.12598 7.12106 8.57369 6.67334 9.12598 6.67334L15.126 6.67334Z" fill="url(#paint4_linear_825_17693)"/>
<path d="M15.126 20.6733C15.6783 20.6733 16.126 21.1211 16.126 21.6733C16.126 22.2256 15.6783 22.6733 15.126 22.6733H9.12598C8.57369 22.6733 8.12598 22.2256 8.12598 21.6733C8.12598 21.1211 8.57369 20.6733 9.12598 20.6733H15.126Z" fill="url(#paint5_linear_825_17693)"/>
<path d="M21.126 13.6733C21.6783 13.6733 22.126 14.1211 22.126 14.6733C22.126 15.2256 21.6783 15.6733 21.126 15.6733H15.126C14.5737 15.6733 14.126 15.2256 14.126 14.6733C14.126 14.1211 14.5737 13.6733 15.126 13.6733H21.126Z" fill="url(#paint6_linear_825_17693)"/>
</g>
</g>
<defs>
<linearGradient id="paint0_linear_825_17693" x1="26.126" y1="15.1733" x2="4.12598" y2="15.1733" gradientUnits="userSpaceOnUse">
<stop stop-color="#0D8DEF"/>
<stop offset="1" stop-color="#38B3F8"/>
</linearGradient>
<linearGradient id="paint1_linear_825_17693" x1="26.126" y1="15.1733" x2="4.12598" y2="15.1733" gradientUnits="userSpaceOnUse">
<stop stop-color="#0D8DEF"/>
<stop offset="1" stop-color="#38B3F8"/>
</linearGradient>
<linearGradient id="paint2_linear_825_17693" x1="26.126" y1="15.1733" x2="4.12598" y2="15.1733" gradientUnits="userSpaceOnUse">
<stop stop-color="#0D8DEF"/>
<stop offset="1" stop-color="#38B3F8"/>
</linearGradient>
<linearGradient id="paint3_linear_825_17693" x1="26.126" y1="15.1733" x2="4.12598" y2="15.1733" gradientUnits="userSpaceOnUse">
<stop stop-color="#0D8DEF"/>
<stop offset="1" stop-color="#38B3F8"/>
</linearGradient>
<linearGradient id="paint4_linear_825_17693" x1="26.126" y1="15.1733" x2="4.12598" y2="15.1733" gradientUnits="userSpaceOnUse">
<stop stop-color="#0D8DEF"/>
<stop offset="1" stop-color="#38B3F8"/>
</linearGradient>
<linearGradient id="paint5_linear_825_17693" x1="26.126" y1="15.1733" x2="4.12598" y2="15.1733" gradientUnits="userSpaceOnUse">
<stop stop-color="#0D8DEF"/>
<stop offset="1" stop-color="#38B3F8"/>
</linearGradient>
<linearGradient id="paint6_linear_825_17693" x1="26.126" y1="15.1733" x2="4.12598" y2="15.1733" gradientUnits="userSpaceOnUse">
<stop stop-color="#0D8DEF"/>
<stop offset="1" stop-color="#38B3F8"/>
</linearGradient>
</defs>
</svg>
