<svg width="30" height="30" viewBox="0 0 30 30" fill="none" xmlns="http://www.w3.org/2000/svg">
<path d="M21.73 23.99L20.5475 22.8075C20.4467 22.7067 20.3183 22.6562 20.1625 22.6562C20.0067 22.6562 19.8783 22.7067 19.7775 22.8075C19.6767 22.9083 19.6262 23.0367 19.6262 23.1925C19.6262 23.3483 19.6767 23.4767 19.7775 23.5775L21.345 25.145C21.455 25.255 21.5833 25.31 21.73 25.31C21.8767 25.31 22.005 25.255 22.115 25.145L25.2225 22.0375C25.3233 21.9367 25.3737 21.8083 25.3737 21.6525C25.3737 21.4967 25.3233 21.3683 25.2225 21.2675C25.1217 21.1667 24.9933 21.1162 24.8375 21.1162C24.6817 21.1162 24.5533 21.1667 24.4525 21.2675L21.73 23.99ZM22.5 28.5C21.7392 28.5 21.0242 28.3555 20.355 28.0666C19.6858 27.7777 19.1038 27.3859 18.6087 26.8913C18.1137 26.3962 17.722 25.8142 17.4334 25.145C17.1448 24.4758 17.0004 23.7608 17 23C17 22.2392 17.1445 21.5242 17.4334 20.855C17.7223 20.1858 18.1141 19.6038 18.6087 19.1087C19.1038 18.6137 19.6858 18.222 20.355 17.9334C21.0242 17.6448 21.7392 17.5004 22.5 17.5C23.2608 17.5 23.9758 17.6445 24.645 17.9334C25.3142 18.2223 25.8962 18.6141 26.3913 19.1087C26.8863 19.6038 27.2782 20.1858 27.5672 20.855C27.8561 21.5242 28.0004 22.2392 28 23C28 23.7608 27.8555 24.4758 27.5666 25.145C27.2777 25.8142 26.8859 26.3962 26.3913 26.8913C25.8962 27.3863 25.3142 27.7782 24.645 28.0672C23.9758 28.3561 23.2608 28.5004 22.5 28.5Z" fill="#002152"/>
<path d="M2.00098 2.5C2.00098 1.94772 2.44869 1.5 3.00098 1.5H8.00098C8.55326 1.5 9.00098 1.94772 9.00098 2.5V5.5H13.001C13.5533 5.5 14.001 5.94772 14.001 6.5V12.5H17.001V9.5C17.001 8.94772 17.4487 8.5 18.001 8.5H23.001C23.5533 8.5 24.001 8.94772 24.001 9.5V15.6513C23.5189 15.554 23.02 15.5029 22.5093 15.5029C20.3643 15.5029 18.4297 16.4036 17.0629 17.8473C17.0229 17.7391 17.001 17.6221 17.001 17.5V14.5H14.001V20.5C14.001 21.0523 13.5533 21.5 13.001 21.5H9.00098V24.5C9.00098 25.0523 8.55326 25.5 8.00098 25.5H3.00098C2.44869 25.5 2.00098 25.0523 2.00098 24.5V16.5C2.00098 15.9477 2.44869 15.5 3.00098 15.5H8.00098C8.55326 15.5 9.00098 15.9477 9.00098 16.5V19.5H12.001V7.5H9.00098V10.5C9.00098 11.0523 8.55326 11.5 8.00098 11.5H3.00098C2.44869 11.5 2.00098 11.0523 2.00098 10.5V2.5Z" fill="url(#paint0_linear_1453_11238)"/>
<defs>
<linearGradient id="paint0_linear_1453_11238" x1="24.001" y1="14" x2="2.00098" y2="14" gradientUnits="userSpaceOnUse">
<stop stop-color="#0D8DEF"/>
<stop offset="1" stop-color="#38B3F8"/>
</linearGradient>
</defs>
</svg>
