<svg width="27" height="27" viewBox="0 0 27 27" fill="none" xmlns="http://www.w3.org/2000/svg">
<g id="ri:map-fill" clip-path="url(#clip0_825_17682)">
<path id="Vector" d="M2.79163 6.09009L10.375 2.84009L16.875 6.09009L23.7032 3.164C23.7856 3.12867 23.8755 3.11435 23.9649 3.12234C24.0542 3.13033 24.1401 3.16037 24.215 3.20977C24.2898 3.25917 24.3513 3.32638 24.3937 3.40537C24.4362 3.48436 24.4584 3.57266 24.4583 3.66234V21.2568L16.875 24.5068L10.375 21.2568L3.54671 24.1828C3.46428 24.2182 3.37437 24.2325 3.28505 24.2245C3.19572 24.2165 3.10978 24.1865 3.03493 24.1371C2.96008 24.0877 2.89867 24.0205 2.8562 23.9415C2.81373 23.8625 2.79155 23.7742 2.79163 23.6845V6.09009Z" fill="url(#paint0_linear_825_17682)"/>
<path id="Vector_2" d="M20.8138 27.4307C21.0568 27.591 21.3399 27.6733 21.625 27.6733C21.9098 27.6733 22.1927 27.5911 22.4355 27.4311C22.5672 27.3445 23.8292 26.4975 25.0694 25.1278C26.2914 23.7781 27.625 21.7741 27.625 19.3877L27.625 19.3865C27.6232 17.8522 26.9754 16.394 25.8449 15.3281L25.1589 16.0557L25.8449 15.3281C24.7164 14.2641 23.1982 13.675 21.6261 13.6733L21.6239 13.6733C20.0518 13.675 18.5336 14.2641 17.4051 15.3281C16.2746 16.394 15.6268 17.8522 15.625 19.3865V19.3877C15.625 21.7741 16.9586 23.7781 18.1806 25.1278C19.4186 26.4951 20.6783 27.3415 20.8138 27.4307ZM20.8138 27.4307C20.8135 27.4305 20.8133 27.4304 20.8131 27.4302L21.3642 26.5958M20.8138 27.4307C20.814 27.4308 20.8143 27.431 20.8145 27.4311L21.3642 26.5958M21.3642 26.5958C21.1705 26.4683 16.625 23.4216 16.625 19.3877M21.3642 26.5958C21.4406 26.6463 21.5317 26.6733 21.625 26.6733C21.7183 26.6733 21.8094 26.6463 21.8858 26.5958C22.0795 26.4683 26.625 23.4216 26.625 19.3877H16.625M16.625 19.3877C16.6265 18.1378 17.1538 16.9395 18.0911 16.0557C19.0285 15.1719 20.2994 14.6748 21.625 14.6733L16.625 19.3877ZM21.625 18.6734C21.7995 18.6734 21.9656 18.7224 22.1021 18.8084C22.238 18.894 22.3347 19.0097 22.3892 19.1338C22.4434 19.2572 22.4565 19.3891 22.4298 19.5157C22.403 19.6428 22.3351 19.7682 22.2246 19.8723C22.1136 19.977 21.9652 20.0543 21.7954 20.0862C21.6254 20.118 21.4498 20.1012 21.293 20.04C21.1365 19.9789 21.0122 19.8791 20.9291 19.7619C20.8467 19.6455 20.8068 19.5154 20.8068 19.3877C20.8068 19.2178 20.8778 19.0422 21.0254 18.9031C21.1749 18.7621 21.3896 18.6734 21.625 18.6734Z" fill="#002152" stroke="#E2F3FD" stroke-width="2"/>
<circle id="Ellipse 444" cx="21.625" cy="19.6733" r="1" fill="#E2F3FD"/>
</g>
<defs>
<linearGradient id="paint0_linear_825_17682" x1="24.4583" y1="14.1248" x2="2.79163" y2="14.1248" gradientUnits="userSpaceOnUse">
<stop stop-color="#0D8DEF"/>
<stop offset="1" stop-color="#38B3F8"/>
</linearGradient>
<clipPath id="clip0_825_17682">
<rect width="26" height="26" fill="white" transform="translate(0.625 0.67334)"/>
</clipPath>
</defs>
</svg>
