<svg width="27" height="27" viewBox="0 0 27 27" fill="none" xmlns="http://www.w3.org/2000/svg">
<g id="material-symbols:monitor-rounded">
<path id="Vector" d="M8.16871 23.4233C7.75343 23.4233 7.39232 23.2699 7.08538 22.9629C6.77843 22.656 6.62496 22.2949 6.62496 21.8796C6.62496 21.7171 6.66577 21.5318 6.74738 21.3238C6.82899 21.1158 6.93263 20.949 7.05829 20.8233L7.70829 20.1733H4.45829C3.86246 20.1733 3.35221 19.961 2.92754 19.5363C2.50288 19.1117 2.29091 18.6018 2.29163 18.0067V6.09001C2.29163 5.49418 2.50396 4.98392 2.92863 4.55926C3.35329 4.13459 3.86318 3.92262 4.45829 3.92334H21.7916C22.3875 3.92334 22.8977 4.13568 23.3224 4.56034C23.747 4.98501 23.959 5.4949 23.9583 6.09001V18.0067C23.9583 18.6025 23.746 19.1128 23.3213 19.5374C22.8966 19.9621 22.3867 20.1741 21.7916 20.1733H18.5416L19.1916 20.8233C19.318 20.9497 19.422 21.1122 19.5036 21.3108C19.5852 21.5095 19.6257 21.699 19.625 21.8796C19.625 22.2949 19.4715 22.656 19.1645 22.9629C18.8576 23.2699 18.4965 23.4233 18.0812 23.4233H8.16871Z" fill="url(#paint0_linear_825_17727)"/>
</g>
<defs>
<linearGradient id="paint0_linear_825_17727" x1="23.9583" y1="14.0796" x2="2.29163" y2="14.0796" gradientUnits="userSpaceOnUse">
<stop stop-color="#0D8DEF"/>
<stop offset="1" stop-color="#38B3F8"/>
</linearGradient>
</defs>
</svg>
