<svg width="30" height="30" viewBox="0 0 30 30" fill="none" xmlns="http://www.w3.org/2000/svg">
<path d="M13.63 3.20102C13.5563 3.17109 13.4737 3.17163 13.4005 3.20253L9.6963 4.76452C9.44994 4.86841 9.45228 5.21834 9.70001 5.31892L19.9664 9.48709C20.0401 9.51702 20.1227 9.51644 20.196 9.48547L23.892 7.92367C24.1382 7.81966 24.1358 7.46999 23.8882 7.3694L13.63 3.20102Z" fill="url(#paint0_linear_1453_11240)"/>
<path d="M13.0952 13.6753C13.0952 13.5531 13.021 13.4431 12.9077 13.3972L2.01609 8.98796C1.81886 8.90812 1.60352 9.05326 1.60352 9.26604V20.8317C1.60352 20.9528 1.67633 21.062 1.78811 21.1086L12.6798 25.6478C12.8774 25.7302 13.0952 25.585 13.0952 25.3709V13.6753Z" fill="url(#paint1_linear_1453_11240)"/>
<path d="M13.8381 12.0738C13.9119 12.1036 13.9945 12.103 14.0677 12.0719L17.3637 10.6751C17.6096 10.5709 17.607 10.2214 17.3595 10.121L7.09102 5.95195C7.0175 5.9221 6.93516 5.92259 6.86201 5.95331L3.53367 7.35102C3.2868 7.45469 3.28909 7.80528 3.5373 7.90571L13.8381 12.0738Z" fill="url(#paint2_linear_1453_11240)"/>
<path d="M19.3821 17.5914C19.364 17.5997 19.3435 17.6008 19.3246 17.5947C19.2921 17.584 19.2701 17.5537 19.2701 17.5195V12.0324C19.2701 11.818 19.0517 11.6728 18.854 11.7558L14.8368 13.4416C14.7254 13.4884 14.6529 13.5974 14.6529 13.7182V25.3432C14.6529 25.5574 14.8708 25.7026 15.0684 25.6201L16.604 24.9793C16.6166 24.3339 16.8784 23.7176 17.3357 23.2603L22.9857 17.6103C23.2358 17.3602 23.5256 17.1742 23.8348 17.0523C23.9568 16.743 24.1428 16.4532 24.3929 16.2032L24.8357 15.7603C25.0637 15.5323 25.3248 15.3575 25.6035 15.236V9.34587C25.6035 9.13132 25.3848 8.98612 25.1871 9.06938L21.0114 10.8275C20.9001 10.8743 20.8278 10.9833 20.8278 11.104V16.7355C20.8278 16.8528 20.7595 16.9593 20.6529 17.0082L19.3821 17.5914Z" fill="url(#paint3_linear_1453_11240)"/>
<path d="M24.4 19.0245C24.5952 18.8293 24.9118 18.8293 25.1071 19.0245L26.4 20.3174C26.5952 20.5127 26.5952 20.8293 26.4 21.0245L20.75 26.6745C20.6562 26.7683 20.529 26.821 20.3964 26.821H19.1035C18.8274 26.821 18.6035 26.5971 18.6035 26.321V25.0281C18.6035 24.8955 18.6562 24.7683 18.75 24.6745L24.4 19.0245ZM25.8071 18.3245C25.6118 18.1293 25.6118 17.8127 25.8071 17.6174L26.25 17.1745C26.4452 16.9793 26.7618 16.9793 26.9571 17.1745L28.25 18.4674C28.4452 18.6627 28.4452 18.9793 28.25 19.1745L27.8071 19.6174C27.6118 19.8127 27.2952 19.8127 27.1 19.6174L25.8071 18.3245Z" fill="#002152"/>
<defs>
<linearGradient id="paint0_linear_1453_11240" x1="28.3964" y1="15.5621" x2="1.60351" y2="15.5621" gradientUnits="userSpaceOnUse">
<stop stop-color="#0D8DEF"/>
<stop offset="1" stop-color="#38B3F8"/>
</linearGradient>
<linearGradient id="paint1_linear_1453_11240" x1="28.3964" y1="15.5621" x2="1.60351" y2="15.5621" gradientUnits="userSpaceOnUse">
<stop stop-color="#0D8DEF"/>
<stop offset="1" stop-color="#38B3F8"/>
</linearGradient>
<linearGradient id="paint2_linear_1453_11240" x1="28.3964" y1="15.5621" x2="1.60351" y2="15.5621" gradientUnits="userSpaceOnUse">
<stop stop-color="#0D8DEF"/>
<stop offset="1" stop-color="#38B3F8"/>
</linearGradient>
<linearGradient id="paint3_linear_1453_11240" x1="28.3964" y1="15.5621" x2="1.60351" y2="15.5621" gradientUnits="userSpaceOnUse">
<stop stop-color="#0D8DEF"/>
<stop offset="1" stop-color="#38B3F8"/>
</linearGradient>
</defs>
</svg>
