<svg width="25" height="25" viewBox="0 0 25 25" fill="none" xmlns="http://www.w3.org/2000/svg">
<g id="ep-box">
<path id="Vector" d="M11.922 2.05485C11.9952 2.02395 12.0778 2.02341 12.1515 2.05335L22.4097 6.22172C22.6572 6.32231 22.6597 6.67198 22.4135 6.77599L18.7175 8.33779C18.6442 8.36876 18.5616 8.36934 18.4879 8.33941L8.2215 4.17124C7.97377 4.07066 7.97143 3.72073 8.21778 3.61685L11.922 2.05485ZM11.4292 12.2495C11.5425 12.2954 11.6166 12.4054 11.6166 12.5276V24.2232C11.6166 24.4373 11.3988 24.5825 11.2012 24.5001L0.309593 19.9609C0.197811 19.9144 0.125 19.8051 0.125 19.684V8.11836C0.125 7.90559 0.34035 7.76044 0.537574 7.84028L11.4292 12.2495ZM12.5892 10.9242C12.5159 10.9553 12.4334 10.956 12.3596 10.9261L2.05878 6.75803C1.81058 6.6576 1.80829 6.30701 2.05515 6.20334L5.38349 4.80563C5.45665 4.77491 5.53899 4.77442 5.6125 4.80427L15.881 8.97328C16.1284 9.07376 16.1311 9.42324 15.8852 9.52746L12.5892 10.9242ZM17.8461 16.447C17.865 16.4532 17.8855 16.452 17.9036 16.4437L19.1744 15.8605C19.2809 15.8116 19.3493 15.7051 19.3493 15.5878V9.95633C19.3493 9.83562 19.4216 9.72667 19.5328 9.67983L23.7086 7.9217C23.9063 7.83845 24.125 7.98364 24.125 8.19819V19.8761C24.125 19.9971 24.0523 20.1063 23.9405 20.1529L13.5899 24.4724C13.3923 24.5549 13.1744 24.4097 13.1744 24.1956V12.5706C13.1744 12.4497 13.2469 12.3407 13.3583 12.2939L17.3755 10.6081C17.5732 10.5251 17.7915 10.6703 17.7915 10.8847V16.3718C17.7915 16.406 17.8135 16.4364 17.8461 16.447Z" fill="url(#paint0_linear_825_17706)"/>
</g>
<defs>
<linearGradient id="paint0_linear_825_17706" x1="24.125" y1="13.8121" x2="0.124999" y2="13.8121" gradientUnits="userSpaceOnUse">
<stop stop-color="#0D8DEF"/>
<stop offset="1" stop-color="#38B3F8"/>
</linearGradient>
</defs>
</svg>
