<svg width="31" height="26" viewBox="0 0 31 26" fill="none" xmlns="http://www.w3.org/2000/svg">
<g id="Frame 18423">
<path id="Vector" d="M29.8995 15.1108H29.2245V10.6771C29.2245 10.1562 29.0093 9.65576 28.6296 9.28662L24.4151 5.18916C24.0354 4.82002 23.5207 4.61084 22.9849 4.61084H21.1245V2.64209C21.1245 1.55518 20.2174 0.67334 19.0995 0.67334H5.59946C4.48149 0.67334 3.57446 1.55518 3.57446 2.64209V15.7671C3.57446 16.854 4.48149 17.7358 5.59946 17.7358H6.27446C6.27446 19.9097 8.08853 21.6733 10.3245 21.6733C12.5604 21.6733 14.3745 19.9097 14.3745 17.7358H19.7745C19.7745 19.9097 21.5885 21.6733 23.8245 21.6733C26.0604 21.6733 27.8745 19.9097 27.8745 17.7358H29.8995C30.2707 17.7358 30.5745 17.4405 30.5745 17.0796V15.7671C30.5745 15.4062 30.2707 15.1108 29.8995 15.1108ZM10.3245 19.7046C9.20649 19.7046 8.29946 18.8228 8.29946 17.7358C8.29946 16.6489 9.20649 15.7671 10.3245 15.7671C11.4424 15.7671 12.3495 16.6489 12.3495 17.7358C12.3495 18.8228 11.4424 19.7046 10.3245 19.7046ZM23.8245 19.7046C22.7065 19.7046 21.7995 18.8228 21.7995 17.7358C21.7995 16.6489 22.7065 15.7671 23.8245 15.7671C24.9424 15.7671 25.8495 16.6489 25.8495 17.7358C25.8495 18.8228 24.9424 19.7046 23.8245 19.7046ZM27.1995 11.1733H21.1245V6.57959H22.9849L27.1995 10.6771V11.1733Z" fill="url(#paint0_linear_825_17671)"/>
<path id="Vector_2" d="M9.62951 23.2874L10.0033 24.215C10.7548 23.9121 11.4393 23.4675 12.0172 22.9052C12.5951 22.3429 13.0551 21.6739 13.3694 20.9356C13.6837 20.1972 13.8459 19.4048 13.8459 18.6039C13.8459 17.803 13.6837 17.0106 13.3694 16.2722C13.3373 16.1968 13.3037 16.1222 13.2686 16.0483C13.3635 16 13.4541 15.9417 13.5387 15.8741C13.8574 15.619 14.0676 15.2474 14.1149 14.8347C14.1623 14.4217 14.0414 14.0105 13.785 13.6891L13.7762 13.6781L13.7671 13.6673C13.1593 12.9483 12.425 12.3425 11.5999 11.8779L9.62951 23.2874ZM9.62951 23.2874L10.0033 24.215C9.25189 24.5178 8.44743 24.6733 7.63563 24.6733C5.99727 24.6733 4.42069 24.0403 3.25407 22.9052C2.08652 21.7692 1.42538 20.2226 1.42538 18.6039C1.42538 17.722 1.6216 16.8615 1.98903 16.0772M9.62951 23.2874L1.98903 16.0772M1.98903 16.0772C1.89094 16.0279 1.7978 15.9683 1.71131 15.8991C1.54776 15.7682 1.41109 15.6053 1.31075 15.419C1.21037 15.2327 1.14876 15.0273 1.13063 14.8152C1.11249 14.6031 1.13832 14.3899 1.20612 14.1886C1.27203 13.993 1.37594 13.8135 1.51065 13.6595C2.11678 12.9441 2.84832 12.341 3.67005 11.878C3.84865 11.7773 4.04463 11.7126 4.24677 11.6865C4.4489 11.6604 4.6544 11.6732 4.8519 11.7245C5.03126 11.7711 5.20169 11.8488 5.35496 11.9548H5.52236L5.81293 12.4445C5.87259 12.545 5.92027 12.6511 5.95561 12.7607C6.49817 12.6117 7.06313 12.5344 7.63563 12.5344C8.2045 12.5344 8.76976 12.6108 9.3157 12.7607C9.35146 12.6499 9.3996 12.5434 9.45921 12.4432L9.45922 12.4432C9.56537 12.2648 9.70552 12.1103 9.8704 11.9874C10.0352 11.8647 10.2218 11.7757 10.4193 11.7245L10.6705 12.6924L10.4193 11.7245C10.6166 11.6733 10.822 11.6604 11.024 11.6865L10.8959 12.6783L11.024 11.6865C11.2277 11.7129 11.4227 11.7781 11.5998 11.8778L1.98903 16.0772ZM10.36 13.5791C10.3138 13.5204 10.2799 13.4534 10.2603 13.3819L10.5296 13.7242C10.4638 13.6872 10.4062 13.6379 10.36 13.5791ZM8.88124 19.7908L8.87574 19.7903L8.88124 19.7908ZM4.95235 12.5895L4.80324 12.7895L4.95235 12.5895Z" fill="#002152" stroke="#E2F3FD" stroke-width="2"/>
</g>
<defs>
<linearGradient id="paint0_linear_825_17671" x1="30.5745" y1="11.6108" x2="3.57446" y2="11.6108" gradientUnits="userSpaceOnUse">
<stop stop-color="#0D8DEF"/>
<stop offset="1" stop-color="#38B3F8"/>
</linearGradient>
</defs>
</svg>
