<svg width="31" height="31" viewBox="0 0 31 31" fill="none" xmlns="http://www.w3.org/2000/svg">
<path d="M22.2498 15.0901C20.9241 15.0915 19.6532 15.5886 18.7159 16.4725C17.7785 17.3563 17.2513 18.5545 17.2498 19.8044C17.2498 23.8384 21.7952 26.885 21.989 27.0125C22.0654 27.063 22.1564 27.0901 22.2498 27.0901C22.3431 27.0901 22.4341 27.063 22.5106 27.0125C22.7043 26.885 27.2498 23.8384 27.2498 19.8044C27.2483 18.5545 26.721 17.3563 25.7836 16.4725C24.8463 15.5886 23.5754 15.0915 22.2498 15.0901ZM22.2498 18.0901C22.6094 18.0901 22.9609 18.1907 23.2599 18.379C23.5589 18.5674 23.7919 18.8351 23.9295 19.1484C24.0672 19.4616 24.1032 19.8063 24.033 20.1389C23.9628 20.4714 23.7897 20.7769 23.5354 21.0166C23.2811 21.2564 22.9572 21.4196 22.6045 21.4858C22.2518 21.5519 21.8862 21.518 21.554 21.3882C21.2217 21.2585 20.9378 21.0388 20.738 20.7568C20.5382 20.4749 20.4316 20.1435 20.4316 19.8044C20.4316 19.3498 20.6231 18.9137 20.9641 18.5922C21.3051 18.2707 21.7675 18.0901 22.2498 18.0901Z" fill="#002152"/>
<path d="M11.0001 3.25684L3.41675 6.50684V24.1013C3.41667 24.1909 3.43886 24.2792 3.48132 24.3582C3.52379 24.4372 3.5852 24.5044 3.66005 24.5538C3.7349 24.6032 3.82084 24.6333 3.91017 24.6412C3.99949 24.6492 4.0894 24.6349 4.17183 24.5996L11.0001 21.6735L16.7828 24.5649C15.9404 23.2728 15.2498 21.6554 15.2498 19.8044V19.802C15.2519 17.9833 16.0202 16.2653 17.3439 15.0173C18.6635 13.773 20.429 13.092 22.2476 13.0901L22.2519 13.0901C23.2316 13.0911 24.1959 13.2893 25.0834 13.6663V4.07909C25.0835 3.9894 25.0613 3.90111 25.0188 3.82212C24.9764 3.74313 24.915 3.67592 24.8401 3.62652C24.7653 3.57712 24.6793 3.54708 24.59 3.53909C24.5007 3.5311 24.4108 3.54542 24.3283 3.58075L17.5001 6.50684L11.0001 3.25684Z" fill="url(#paint0_linear_1453_11236)"/>
<defs>
<linearGradient id="paint0_linear_1453_11236" x1="25.0834" y1="14.5416" x2="3.41675" y2="14.5416" gradientUnits="userSpaceOnUse">
<stop stop-color="#0D8DEF"/>
<stop offset="1" stop-color="#38B3F8"/>
</linearGradient>
</defs>
</svg>
