<svg width="25" height="24" viewBox="0 0 25 24" fill="none" xmlns="http://www.w3.org/2000/svg">
<path fill-rule="evenodd" clip-rule="evenodd" d="M3.843 4.61561C3.09816 4.61561 2.47303 5.23284 2.47303 6.02074V15.8054C2.47303 16.5933 3.09816 17.2105 3.843 17.2105H4.91259C5.0206 17.2105 5.12341 17.2327 5.21668 17.2729C5.30069 15.4335 6.79744 13.9489 8.65618 13.9489C10.5149 13.9489 12.0117 15.4335 12.0957 17.2729C12.189 17.2327 12.2918 17.2105 12.3998 17.2105H13.4694C14.2142 17.2105 14.8393 16.5933 14.8393 15.8054V6.02074C14.8393 5.23284 14.2142 4.61561 13.4694 4.61561H3.843ZM16.3712 5.8207C16.2698 4.29848 15.0201 3.07715 13.4694 3.07715H3.843C2.22494 3.07715 0.93457 4.40691 0.93457 6.02074V15.8054C0.93457 17.4192 2.22494 18.7489 3.843 18.7489H4.91259C5.09797 18.7489 5.26804 18.6834 5.40086 18.5741C5.86533 19.936 7.14038 20.9233 8.65618 20.9233C10.172 20.9233 11.447 19.936 11.9115 18.5741C12.0443 18.6834 12.2144 18.7489 12.3998 18.7489H13.4694C14.1592 18.7489 14.7895 18.5072 15.2857 18.1048C15.6209 18.4978 16.1174 18.7489 16.6782 18.7489H16.6965C17.207 20.0197 18.4368 20.9233 19.887 20.9233C21.3372 20.9233 22.567 20.0196 23.0775 18.7487C23.0836 18.7489 23.0896 18.7489 23.0957 18.7489C24.1231 18.7489 24.9346 17.9059 24.9346 16.8925V12.3816C24.9346 11.9633 24.7946 11.556 24.5354 11.2267L20.8126 6.4966C20.4654 6.05558 19.9364 5.7951 19.3729 5.7951H16.6782C16.5734 5.7951 16.4708 5.80387 16.3712 5.8207ZM16.3778 7.65151V16.8925C16.3778 16.9797 16.4094 17.0545 16.4587 17.1096C16.6209 15.3464 18.0835 13.9489 19.887 13.9489C21.6904 13.9489 23.153 15.3464 23.3152 17.1096C23.3645 17.0545 23.3961 16.9797 23.3961 16.8925V12.3816C23.3961 12.3061 23.3708 12.2344 23.3265 12.1782L19.6036 7.4481C19.5448 7.37334 19.4592 7.33356 19.3729 7.33356H16.6782C16.524 7.33356 16.3778 7.46404 16.3778 7.65151ZM8.65618 15.4874C7.61599 15.4874 6.75142 16.348 6.75142 17.4361C6.75142 18.5242 7.61599 19.3848 8.65618 19.3848C9.69638 19.3848 10.5609 18.5242 10.5609 17.4361C10.5609 16.348 9.69638 15.4874 8.65618 15.4874ZM19.887 15.4874C18.8468 15.4874 17.9822 16.348 17.9822 17.4361C17.9822 18.5242 18.8468 19.3848 19.887 19.3848C20.9271 19.3848 21.7917 18.5242 21.7917 17.4361C21.7917 16.348 20.9271 15.4874 19.887 15.4874Z" fill="#05A7FF"/>
</svg>
