<svg width="26" height="26" viewBox="0 0 26 26" fill="none" xmlns="http://www.w3.org/2000/svg">
<path fill-rule="evenodd" clip-rule="evenodd" d="M1 4.70412C1 2.65839 2.65839 1 4.70413 1H21.2959C23.3416 1 25 2.65839 25 4.70413V21.2959C25 23.3416 23.3416 25 21.2959 25H4.70412C2.65839 25 1 23.3416 1 21.2959V4.70412ZM4.70413 2.26316C3.35602 2.26316 2.26316 3.35602 2.26316 4.70412V21.2959C2.26316 22.644 3.35602 23.7368 4.70412 23.7368H21.2959C22.644 23.7368 23.7368 22.644 23.7368 21.2959V4.70413C23.7368 3.35602 22.644 2.26316 21.2959 2.26316H4.70413ZM8.73684 5.26316C9.08565 5.26316 9.36842 5.54593 9.36842 5.89474V8.10526H11.5789C11.9278 8.10526 12.2105 8.38803 12.2105 8.73684C12.2105 9.08565 11.9278 9.36842 11.5789 9.36842H9.36842V11.5789C9.36842 11.9278 9.08565 12.2105 8.73684 12.2105C8.38803 12.2105 8.10526 11.9278 8.10526 11.5789V9.36842H5.89474C5.54593 9.36842 5.26316 9.08565 5.26316 8.73684C5.26316 8.38803 5.54593 8.10526 5.89474 8.10526H8.10526V5.89474C8.10526 5.54593 8.38803 5.26316 8.73684 5.26316ZM19.8413 6.15867C20.088 6.40532 20.088 6.80521 19.8413 7.05186L7.05186 19.8413C6.80521 20.088 6.40532 20.088 6.15867 19.8413C5.91202 19.5947 5.91202 19.1948 6.15867 18.9481L18.9481 6.15867C19.1948 5.91202 19.5947 5.91202 19.8413 6.15867ZM13.7895 17.9737C13.7895 17.6249 14.0722 17.3421 14.4211 17.3421H20.1053C20.4541 17.3421 20.7368 17.6249 20.7368 17.9737C20.7368 18.3225 20.4541 18.6053 20.1053 18.6053H14.4211C14.0722 18.6053 13.7895 18.3225 13.7895 17.9737Z" fill="#707A8C" stroke="#707A8C" stroke-linecap="round" stroke-linejoin="round"/>
</svg>
