<svg width="24" height="24" viewBox="0 0 24 24" fill="none" xmlns="http://www.w3.org/2000/svg">
<path fill-rule="evenodd" clip-rule="evenodd" d="M12 2.26415C6.62304 2.26415 2.26415 6.62304 2.26415 12C2.26415 17.377 6.62304 21.7358 12 21.7358C17.377 21.7358 21.7358 17.377 21.7358 12C21.7358 6.62304 17.377 2.26415 12 2.26415ZM0 12C0 5.37258 5.37258 0 12 0C18.6274 0 24 5.37258 24 12C24 18.6274 18.6274 24 12 24C5.37258 24 0 18.6274 0 12ZM7.60755 8.73962C7.60755 8.11439 8.11439 7.60755 8.73962 7.60755H8.84788C9.47311 7.60755 9.97995 8.11439 9.97995 8.73962V8.82665C9.97995 9.45188 9.47311 9.95873 8.84788 9.95873H8.73962C8.11439 9.95873 7.60755 9.45188 7.60755 8.82665V8.73962ZM14.1283 8.73962C14.1283 8.11439 14.6352 7.60755 15.2604 7.60755H15.3566C15.9818 7.60755 16.4887 8.11439 16.4887 8.73962V8.82665C16.4887 9.45188 15.9818 9.95873 15.3566 9.95873H15.2604C14.6352 9.95873 14.1283 9.45188 14.1283 8.82665V8.73962ZM11.9999 15.8534C10.8341 15.8534 9.79504 16.4768 9.1949 17.4463C8.86582 17.978 8.16809 18.1422 7.63647 17.8131C7.10485 17.484 6.94065 16.7863 7.26973 16.2547C8.25435 14.664 9.99781 13.5892 11.9999 13.5892C14.002 13.5892 15.7455 14.664 16.7301 16.2547C17.0592 16.7863 16.895 17.484 16.3634 17.8131C15.8317 18.1422 15.134 17.978 14.8049 17.4463C14.2048 16.4768 13.1657 15.8534 11.9999 15.8534Z" fill="#707A8C"/>
</svg>
