<svg width="20" height="20" viewBox="0 0 20 20" fill="none" xmlns="http://www.w3.org/2000/svg">
<g id="ep-cross-outline">
<path id="Vector" d="M2 17C2 17.5523 2.44772 18 3 18H3.08579C3.351 18 3.60536 17.8946 3.79289 17.7071L10 11.5L16.2071 17.7071C16.3946 17.8946 16.649 18 16.9142 18H17C17.5523 18 18 17.5523 18 17V16.9142C18 16.649 17.8946 16.3946 17.7071 16.2071L11.5 10L17.7071 3.79289C17.8946 3.60536 18 3.351 18 3.08579V3C18 2.44772 17.5523 2 17 2H16.9142C16.649 2 16.3946 2.10536 16.2071 2.29289L10 8.5L3.79289 2.29289C3.60536 2.10536 3.351 2 3.08579 2H3C2.44772 2 2 2.44772 2 3V3.08579C2 3.351 2.10536 3.60536 2.29289 3.79289L8.5 10L2.29289 16.2071C2.10536 16.3946 2 16.649 2 16.9142V17Z" fill="#3D4550"/>
</g>
</svg>
