<svg width="175" height="36" viewBox="0 0 175 36" fill="none" xmlns="http://www.w3.org/2000/svg">
<path d="M174.438 12.2612H169.269L165.081 17.0805V6.6109H160.654V26.5164H165.081V22.1449L166.43 20.6971L169.8 26.5164H175L169.48 17.6072L174.438 12.2612ZM152.357 23.5673C151.927 23.5913 151.499 23.4994 151.116 23.3013C150.734 23.1032 150.411 22.806 150.182 22.4406C149.708 21.6999 149.469 20.6859 149.469 19.4071C149.469 18.1283 149.719 17.0918 150.182 16.3369C150.411 15.9709 150.733 15.6733 151.116 15.475C151.498 15.2768 151.927 15.1854 152.357 15.2102C152.636 15.1951 152.915 15.2372 153.177 15.3341C153.439 15.431 153.679 15.5805 153.882 15.7736C154.284 16.2029 154.556 16.7383 154.666 17.3171H158.989C158.888 16.5503 158.655 15.8068 158.3 15.1201C157.96 14.4599 157.493 13.8732 156.927 13.3935C156.328 12.8962 155.642 12.5142 154.904 12.2668C154.066 11.9894 153.188 11.8533 152.306 11.864C151.266 11.8467 150.234 12.0382 149.269 12.4273C148.392 12.7868 147.6 13.327 146.944 14.0131C146.295 14.7042 145.791 15.5182 145.46 16.4073C145.105 17.3706 144.93 18.3914 144.944 19.4183C144.933 20.4404 145.115 21.4554 145.48 22.4097C145.819 23.302 146.333 24.1171 146.991 24.8067C147.657 25.4927 148.458 26.0327 149.342 26.3925C150.325 26.7835 151.375 26.975 152.432 26.9558C153.354 26.9674 154.271 26.8158 155.14 26.5079C155.912 26.2383 156.622 25.818 157.23 25.2714C157.804 24.7491 158.263 24.1132 158.578 23.404C158.892 22.6838 159.066 21.9106 159.093 21.1253H154.803C154.601 22.7589 153.785 23.5758 152.357 23.5758V23.5673ZM138.969 19.7169C138.637 19.8797 138.292 20.0144 137.938 20.1197C137.545 20.2408 137.118 20.3563 136.66 20.4662C136 20.5918 135.367 20.832 134.789 21.176C134.598 21.3121 134.445 21.4947 134.345 21.7067C134.244 21.9186 134.199 22.1528 134.213 22.3871C134.213 22.9655 134.401 23.3739 134.775 23.6124C135.187 23.8675 135.665 23.994 136.149 23.9757C136.894 24.0101 137.625 23.7618 138.196 23.28C138.457 23.0461 138.662 22.7573 138.797 22.4344C138.933 22.1115 138.995 21.7626 138.98 21.4126L138.969 19.7169ZM143.744 26.3136V26.5079H139.41C139.278 26.3188 139.183 26.1067 139.129 25.8826C139.046 25.5666 138.982 25.2459 138.938 24.9221H138.882C138.461 25.5104 137.91 25.9925 137.272 26.3305C136.472 26.7163 135.589 26.8981 134.702 26.86C134.045 26.865 133.392 26.77 132.764 26.5784C132.201 26.4085 131.681 26.1205 131.239 25.7333C130.812 25.3573 130.474 24.8919 130.247 24.3701C130.004 23.7889 129.885 23.1635 129.896 22.5336C129.877 21.8498 130.028 21.172 130.337 20.5619C130.616 20.0381 131.016 19.5897 131.505 19.255C132.031 18.8969 132.612 18.6285 133.225 18.4607C133.905 18.2681 134.599 18.1278 135.3 18.041C136.243 17.9514 137.173 17.7626 138.076 17.4777C138.609 17.272 138.873 16.9284 138.873 16.4468C138.884 16.2373 138.849 16.0279 138.771 15.8333C138.693 15.6388 138.574 15.4636 138.421 15.3201C138.108 15.0591 137.613 14.9286 136.935 14.9286C136.355 14.8871 135.779 15.0549 135.312 15.4018C134.927 15.7565 134.692 16.2451 134.654 16.7679H130.528C130.544 16.1133 130.694 15.4691 130.969 14.875C131.249 14.2735 131.658 13.7409 132.166 13.3146C132.747 12.8377 133.414 12.4781 134.132 12.2555C135.031 11.9802 135.967 11.849 136.907 11.8668C137.813 11.8456 138.719 11.9403 139.601 12.1485C140.276 12.3151 140.911 12.6127 141.472 13.0245C142.064 13.4561 142.53 14.0399 142.82 14.7145C143.124 15.4653 143.273 16.2702 143.258 17.0805V24.2912C143.25 24.7429 143.282 25.1944 143.354 25.6404C143.371 25.7755 143.415 25.9058 143.484 26.023C143.553 26.1403 143.645 26.2421 143.755 26.322L143.744 26.3136ZM124.373 19.562C124.373 18.3358 124.145 17.3528 123.688 16.6129C123.466 16.2471 123.149 15.9488 122.771 15.7503C122.393 15.5517 121.968 15.4605 121.542 15.4863C121.092 15.4752 120.647 15.5809 120.25 15.7933C119.881 15.9989 119.565 16.2883 119.328 16.6383C119.064 17.0323 118.874 17.4714 118.767 17.934C118.646 18.4633 118.586 19.0049 118.59 19.5479C118.59 20.7159 118.851 21.6548 119.373 22.3646C119.63 22.7161 119.97 22.998 120.362 23.1849C120.754 23.3717 121.187 23.4577 121.621 23.4349C122.017 23.4489 122.411 23.3617 122.765 23.1814C123.118 23.001 123.421 22.7336 123.643 22.404C124.13 21.7205 124.372 20.7647 124.371 19.5366L124.373 19.562ZM128.494 16.3763C128.777 17.3488 128.916 18.3576 128.907 19.3705C128.924 20.441 128.777 21.5077 128.472 22.5336C128.212 23.4053 127.787 24.2184 127.219 24.9278C126.695 25.5738 126.033 26.0928 125.281 26.446C124.497 26.8057 123.643 26.9866 122.781 26.9755C121.967 26.9991 121.159 26.8221 120.43 26.4601C119.785 26.1205 119.225 25.639 118.792 25.0517H118.739V31.2315H114.244V12.2612H118.539V13.9878H118.623C119.09 13.3468 119.69 12.8153 120.382 12.4302C121.152 12.022 122.014 11.8202 122.885 11.8443C123.755 11.8279 124.618 12.0211 125.399 12.4076C126.142 12.7876 126.791 13.3294 127.298 13.9934C127.84 14.7105 128.245 15.5223 128.491 16.3876L128.494 16.3763ZM108.073 19.4183C108.073 18.1208 107.821 17.0721 107.317 16.2721C107.085 15.8877 106.754 15.5734 106.358 15.3626C105.963 15.1518 105.517 15.0524 105.07 15.075C104.625 15.0527 104.183 15.1523 103.79 15.3633C103.398 15.5742 103.07 15.8884 102.842 16.2721C102.352 17.0664 102.107 18.1152 102.107 19.4183C102.107 20.7215 102.355 21.7656 102.851 22.5505C103.081 22.9312 103.409 23.2422 103.802 23.4505C104.194 23.6589 104.635 23.7567 105.078 23.7335C105.524 23.7569 105.969 23.6594 106.364 23.4512C106.759 23.2431 107.092 22.9319 107.326 22.5505C107.831 21.7618 108.083 20.7178 108.081 19.4183H108.073ZM112.078 16.4242C112.794 18.3549 112.794 20.479 112.078 22.4097C111.738 23.3016 111.223 24.1165 110.564 24.8067C109.896 25.496 109.09 26.0364 108.199 26.3925C106.209 27.1535 104.009 27.1535 102.019 26.3925C101.128 26.0378 100.32 25.5003 99.6478 24.8145C98.9755 24.1286 98.4534 23.3095 98.115 22.4097C97.3997 20.479 97.3997 18.3549 98.115 16.4242C98.454 15.525 98.9763 14.7067 99.6486 14.0214C100.321 13.3361 101.128 12.7989 102.019 12.4442C104.009 11.6832 106.209 11.6832 108.199 12.4442C109.09 12.8003 109.896 13.3407 110.564 14.03C111.222 14.7196 111.737 15.5335 112.078 16.4242ZM98.6178 6.47852H93.4492L91.8818 10.5909H95.2891L98.6178 6.47852ZM91.4408 26.5164H95.9352V12.2612H91.4408V26.5164ZM83.8846 18.6945C83.7751 19.0663 83.6739 19.424 83.5812 19.7648C83.4885 20.1056 83.4071 20.4098 83.3341 20.6718C83.261 20.9872 83.188 21.283 83.115 21.5618H83.0588C82.9857 21.2802 82.9127 20.9985 82.8397 20.6718C82.7666 20.4098 82.6796 20.1084 82.5784 19.7648C82.4773 19.4212 82.3818 19.0663 82.2975 18.6945L80.3649 12.2612H75.747L80.6178 26.5164H85.4576L90.3228 12.2612H85.8369L83.8846 18.6945ZM73.7161 13.3625C73.2878 12.8848 72.7618 12.5053 72.1739 12.2499C71.523 11.9701 70.8203 11.8319 70.1121 11.8443C69.2358 11.8164 68.3679 12.0235 67.5981 12.4442C66.8641 12.8879 66.2391 13.4915 65.7694 14.2103H65.688V12.2612H61.3706V26.5164H65.8649V18.6297C65.8299 17.8491 66.0684 17.0808 66.5391 16.458C66.752 16.1853 67.0259 15.9667 67.3387 15.8199C67.6516 15.6731 67.9944 15.6022 68.3397 15.613C68.6498 15.5956 68.9597 15.6521 69.2438 15.778C69.528 15.9038 69.7784 16.0953 69.9745 16.3369C70.3674 16.8658 70.5659 17.5146 70.5363 18.1734V26.5164H75.0307V17.2467C75.0397 16.5049 74.9278 15.7665 74.6992 15.0609C74.4977 14.4376 74.1707 13.8624 73.7385 13.3709L73.7161 13.3625ZM49.1121 18.0804H57.7189V14.2385H49.1121V10.6754H59.1486V6.6109H44.2441V26.5164H59.3116V22.3421H49.1121V18.0804Z" fill="#3D4550"/>
<path d="M22.8399 0L34.0281 6.62483L34.0113 19.6435H29.4663V11.8526L19.2865 17.6719V29.4287L26.0281 25.5614L28.2753 29.5216L16.9944 36L5.72191 29.5216L7.96911 25.5783L14.7107 29.4456V17.6719L4.55337 11.847V19.6379H0.00842697L0 6.62483L11.1882 0L13.5 3.92645L6.80899 7.88671L17.0141 13.7229L27.2191 7.88671L20.5281 3.92645L22.8399 0Z" fill="#3D4550"/>
</svg>
