<svg width="136" height="24" viewBox="0 0 136 24" fill="none" xmlns="http://www.w3.org/2000/svg">
<path id="image 73 (Traced)" fill-rule="evenodd" clip-rule="evenodd" d="M24.8179 0.0374765C24.1949 0.154364 23.8308 0.240283 23.6289 0.318063C23.5293 0.356456 23.0331 0.833892 23.0331 0.891303C23.0331 0.914133 22.9939 0.972219 22.9461 1.02046C22.804 1.16359 22.7052 1.33944 22.705 1.44918C22.7048 1.59167 22.5557 2.14232 22.4823 2.27188C22.3099 2.57597 22.2484 2.75924 22.1265 3.33153C22.0723 3.58635 22.038 3.67167 21.9563 3.75524C21.8798 3.83346 21.7611 4.09678 21.7611 4.18825C21.7611 4.38522 21.5596 5.03295 21.4781 5.09834C21.4052 5.1567 21.3554 5.31901 21.1858 6.05123C21.14 6.24875 21.0407 6.47621 20.9778 6.52767C20.9125 6.58107 20.7354 7.20803 20.7354 7.38578C20.7354 7.50982 20.6302 7.73903 20.5057 7.88637C20.4193 7.98864 20.3561 8.18764 20.2816 8.59226C20.2263 8.89257 20.1869 9.00005 20.0444 9.23859C19.969 9.36481 19.8913 9.56134 19.8717 9.67533C19.7961 10.1147 19.7608 10.2465 19.6673 10.4385C19.6141 10.5477 19.5555 10.6471 19.5371 10.6594C19.4977 10.6858 19.3964 11.0291 19.343 11.3167C19.281 11.651 19.2228 11.827 19.1461 11.9116C18.9918 12.0819 18.93 12.25 18.93 12.4996C18.93 12.7186 18.9412 12.7535 19.0253 12.7971C19.0986 12.8351 19.5996 12.8435 21.1985 12.8336C22.9931 12.8224 23.2849 12.8124 23.3389 12.7602C23.3966 12.7043 23.4409 12.554 23.5199 12.1457C23.5368 12.0584 23.6173 11.8708 23.6987 11.7288C23.8055 11.5428 23.8607 11.3821 23.8964 11.1531C23.961 10.7391 24.045 10.4713 24.1642 10.2995C24.262 10.1586 24.3358 9.90899 24.4283 9.40618C24.4564 9.25332 24.54 9.00986 24.6142 8.86514C24.7563 8.58789 24.8794 8.18521 24.8794 7.99805C24.8794 7.84253 25.001 7.48373 25.1016 7.34227C25.148 7.27715 25.2191 7.12529 25.2598 7.00479C25.3652 6.69228 25.4042 6.62915 25.5391 6.55201C25.6516 6.48773 25.6663 6.48761 25.7754 6.55002C25.8394 6.58659 25.9262 6.67834 25.9682 6.75382C26.0103 6.82934 26.0942 6.91597 26.1549 6.9463C26.2155 6.97664 26.3357 7.11818 26.422 7.26087C26.5082 7.40353 26.5995 7.52026 26.6249 7.52026C26.6502 7.52026 26.6956 7.56493 26.7258 7.61952C26.756 7.67411 26.7957 7.71878 26.814 7.71878C26.8323 7.71878 26.8867 7.79354 26.9349 7.88494C26.983 7.97633 27.0915 8.11482 27.1759 8.19264C27.2603 8.2705 27.3701 8.41486 27.4198 8.51353C27.4696 8.61215 27.5654 8.7234 27.6327 8.76076C27.7 8.79812 27.7831 8.89365 27.8174 8.97305C27.8516 9.05246 27.9617 9.18964 28.0618 9.27786C28.162 9.36608 28.244 9.45454 28.244 9.47451C28.244 9.51648 28.4231 9.74962 28.5722 9.90172C28.7353 10.0681 28.8058 10.1627 28.8808 10.3155C28.9193 10.394 28.9702 10.4583 28.9938 10.4583C29.0567 10.4583 29.2696 10.7004 29.2706 10.7732C29.2718 10.8531 29.3885 10.9926 29.5003 11.0478C29.5481 11.0715 29.6182 11.154 29.6561 11.2311C29.6939 11.3083 29.8117 11.4591 29.9179 11.5661C30.1409 11.7912 30.2134 11.875 30.2134 11.9075C30.2134 11.9402 30.291 12.0264 30.474 12.197C30.7445 12.4491 30.78 12.4772 30.9088 12.5417C30.9777 12.5762 31.034 12.6198 31.034 12.6387C31.034 12.7059 31.4133 12.844 31.7035 12.8824C32.4181 12.9772 32.7474 12.9943 33.1266 12.9563C33.7937 12.8895 34.1648 12.7878 34.2404 12.651C34.2904 12.5607 34.4496 12.431 34.6171 12.3442C34.6593 12.3224 34.7291 12.2063 34.7723 12.0862C34.8156 11.9661 34.8691 11.8618 34.8914 11.8546C34.9137 11.8473 34.932 11.8188 34.932 11.7913C34.932 11.7637 34.9682 11.7094 35.0126 11.6706C35.1017 11.5925 35.2192 11.2467 35.2192 11.0623C35.2192 10.9165 35.3334 10.5592 35.4313 10.3988C35.5618 10.1848 35.6128 10.0465 35.6873 9.70396C35.7688 9.32943 35.8479 9.11781 35.9843 8.90989C36.0344 8.83346 36.0977 8.65479 36.125 8.51285C36.2013 8.11685 36.3195 7.73926 36.4 7.63461C36.5198 7.47909 36.5629 7.35946 36.6347 6.98426C36.6723 6.78773 36.72 6.59592 36.7407 6.558C36.7614 6.52008 36.7783 6.46974 36.7783 6.44616C36.7783 6.42257 36.8249 6.3442 36.8818 6.27202C36.98 6.14739 37.1066 5.77723 37.1066 5.6146C37.1066 5.50189 37.3102 4.89982 37.3483 4.89982C37.4006 4.89982 37.5009 4.62968 37.5767 4.28441C37.6797 3.81563 37.73 3.66115 37.8184 3.54235C37.9136 3.41451 38.0503 3.05237 38.0503 2.92802C38.0503 2.70913 38.2243 2.2496 38.341 2.16027C38.3784 2.13168 38.4449 1.90958 38.5253 1.54486C38.6124 1.15009 38.6956 0.91707 38.783 0.823132C38.8201 0.783349 38.8812 0.667415 38.9189 0.565535C38.9853 0.386115 38.9849 0.377936 38.9044 0.307462C38.8261 0.238814 38.6989 0.234645 36.6788 0.234645C34.3003 0.234645 34.4922 0.211816 34.3383 0.513166C34.2939 0.600197 34.2189 0.717877 34.1716 0.774733C34.1203 0.836552 34.0645 0.99616 34.0329 1.17177C33.9421 1.67628 33.7819 2.16027 33.7057 2.16027C33.655 2.16027 33.4549 2.85274 33.4549 3.02819C33.4549 3.12173 33.3506 3.35833 33.2379 3.52028C33.1475 3.65019 33.0944 3.80944 33.0427 4.10575C32.9798 4.46546 32.9064 4.68054 32.7905 4.84416C32.7216 4.94135 32.6485 5.13959 32.5942 5.37626C32.4378 6.05817 32.4207 6.10884 32.2785 6.31529C32.091 6.58726 31.7737 6.70796 31.6289 6.56241C31.5613 6.49456 31.4106 6.25355 31.3774 6.16041C31.3639 6.12222 31.3389 6.09093 31.3221 6.09093C31.2599 6.09093 31.0727 5.87669 30.9831 5.70302C30.9323 5.60464 30.8144 5.44924 30.7212 5.35772C30.628 5.26617 30.5377 5.14805 30.5208 5.09516C30.4776 4.961 30.3406 4.78071 30.2818 4.78071C30.2547 4.78071 30.1696 4.678 30.0926 4.55241C30.0156 4.42683 29.8913 4.2727 29.8163 4.20989C29.7414 4.14704 29.68 4.07113 29.68 4.04115C29.68 4.01117 29.6616 3.98664 29.639 3.98664C29.6164 3.98664 29.598 3.96202 29.598 3.93193C29.598 3.90187 29.5703 3.85502 29.5364 3.82782C29.5026 3.80063 29.4749 3.7454 29.4749 3.70502C29.4749 3.66468 29.4191 3.59178 29.3509 3.54299C29.2299 3.45639 29.0646 3.22822 29.0646 3.14774C29.0646 3.10486 28.9631 2.99405 28.9239 2.99405C28.8721 2.99405 28.7257 2.82034 28.6712 2.69416C28.6394 2.6204 28.5533 2.50109 28.4799 2.42906C28.319 2.27112 28.1612 2.06367 28.0792 1.9022C28.0459 1.83669 27.9602 1.72949 27.8887 1.66398C27.8172 1.59846 27.7276 1.46927 27.6895 1.37688C27.6462 1.27186 27.5687 1.17812 27.4829 1.12679C27.4073 1.0816 27.3333 1.00744 27.3184 0.961975C27.2819 0.850726 27.0948 0.651533 27.0268 0.651533C26.9967 0.651533 26.9 0.581893 26.812 0.496729C26.7241 0.411604 26.5856 0.322271 26.5043 0.298211C26.4231 0.27419 26.2956 0.236749 26.2211 0.21507C26.0798 0.173977 25.81 0.115414 25.4949 0.057447C25.3934 0.0387863 25.2641 0.0145276 25.2077 0.00356945C25.1513 -0.00742846 24.9759 0.00785759 24.8179 0.0374765ZM87.205 0.0985804C87.126 0.116487 86.9044 0.160002 86.7126 0.195259C86.5208 0.230515 86.3072 0.276135 86.2379 0.296622C86.1686 0.317109 86.0822 0.333904 86.0459 0.333904C86.0097 0.333904 85.9371 0.383693 85.8847 0.444519C85.8323 0.505344 85.734 0.579312 85.6663 0.608891C85.3322 0.754841 85.2516 0.810665 85.0026 1.06842C84.4941 1.59497 84.45 1.6548 84.3974 1.89005C84.3842 1.94889 84.288 2.11787 84.1834 2.26556C84.0789 2.4133 83.9588 2.63314 83.9166 2.75416C83.8743 2.87517 83.7841 3.03169 83.7162 3.10192C83.6482 3.1722 83.5366 3.37179 83.468 3.54545C83.3995 3.71915 83.297 3.90612 83.2404 3.96099C83.1837 4.01582 83.0753 4.21362 82.9994 4.40051C82.9199 4.59664 82.8113 4.78666 82.7429 4.84987C82.6776 4.9101 82.5986 5.03978 82.5674 5.13804C82.4692 5.44682 82.371 5.63053 82.242 5.7469C82.1734 5.8088 82.1172 5.88816 82.1172 5.92326C82.1172 6.05055 81.8894 6.52521 81.8079 6.56781C81.7337 6.60656 81.5838 6.86868 81.5838 6.95964C81.5838 7.04247 81.4071 7.3697 81.3184 7.45098C81.2649 7.50001 81.1613 7.6917 81.0881 7.87696C81.0149 8.06225 80.9164 8.24354 80.8693 8.27987C80.7711 8.35566 80.6738 8.53552 80.5956 8.78609C80.5657 8.88182 80.5174 8.98326 80.4881 9.01157C80.4589 9.03987 80.4349 9.07231 80.4349 9.08367C80.4349 9.09502 80.3928 9.14835 80.3412 9.20218C80.2896 9.25602 80.2038 9.41968 80.1505 9.56587C80.0972 9.71206 80.0081 9.87885 79.9527 9.93654C79.8518 10.0414 79.7662 10.2037 79.6364 10.5359C79.5984 10.6331 79.5271 10.7494 79.478 10.7943C79.4289 10.8391 79.3678 10.9204 79.3423 10.9748C79.2722 11.1244 79.171 11.3802 79.1419 11.4814C79.1276 11.5309 79.0611 11.621 78.9941 11.6816C78.9139 11.7542 78.8317 11.9051 78.7537 12.1229C78.6769 12.3377 78.5887 12.5004 78.5026 12.5864C78.4067 12.6821 78.3859 12.7235 78.4279 12.7357C78.7724 12.8353 79.0461 12.8459 80.9683 12.8336C83.2082 12.8194 83.2166 12.8184 83.2686 12.5825C83.313 12.3809 83.4153 12.1831 83.5383 12.061C83.6693 11.9311 83.7584 11.7642 83.7584 11.6489C83.7584 11.5273 83.8881 11.2866 84.0553 11.0979C84.1403 11.002 84.2098 10.8893 84.2098 10.8473C84.2098 10.6887 84.3429 10.3867 84.479 10.2368C84.5566 10.1512 84.6405 10.0097 84.6654 9.92233C84.7473 9.63487 84.8384 9.44767 84.9564 9.32419C85.0254 9.25205 85.1144 9.07565 85.175 8.89075C85.2313 8.71927 85.3279 8.51765 85.3898 8.44273C85.5466 8.25275 85.6411 8.07373 85.6462 7.957C85.6486 7.90241 85.7006 7.76841 85.7617 7.65922C85.8619 7.48024 85.8884 7.45947 86.0302 7.44816C86.229 7.43228 86.4598 7.53531 86.4845 7.651C86.4947 7.6992 86.5233 7.95303 86.5479 8.21507C86.5726 8.47712 86.6188 8.87912 86.6506 9.1084C86.7059 9.50655 86.725 9.79603 86.7903 11.2325C86.8156 11.7887 86.8315 11.8925 86.9183 12.0663C86.9728 12.1755 87.0553 12.2941 87.1016 12.33C87.148 12.3658 87.2285 12.4774 87.2804 12.5781C87.3324 12.6788 87.3967 12.7613 87.4233 12.7615C87.4499 12.7617 87.564 12.8058 87.6768 12.8595C87.7897 12.9132 87.9154 12.9577 87.9562 12.9584C87.997 12.9591 88.117 13.0074 88.2229 13.0658C88.406 13.1667 88.4435 13.1719 88.9898 13.1729C89.5138 13.1738 89.5877 13.1648 89.831 13.0708C90.0886 12.9712 90.1532 12.9533 90.508 12.8833C90.7192 12.8415 90.9621 12.7382 91.0539 12.651C91.1745 12.5365 91.4231 12.3641 91.4675 12.3641C91.5552 12.3641 91.7184 12.2696 91.7184 12.2189C91.7184 12.1507 91.9999 11.848 92.0632 11.848C92.0897 11.848 92.1656 11.7475 92.232 11.6249C92.2983 11.5021 92.376 11.393 92.4048 11.3824C92.4334 11.3717 92.4569 11.3424 92.4569 11.3173C92.4569 11.2921 92.4923 11.2501 92.5357 11.2239C92.5789 11.1978 92.6724 11.0709 92.7434 10.942C92.8144 10.8132 92.9246 10.6705 92.9882 10.6249C93.0518 10.5794 93.1466 10.4563 93.1988 10.3514C93.2987 10.1508 93.3347 10.1078 93.4611 10.0388C93.5428 9.99423 93.5605 9.96807 93.6614 9.74366C93.6958 9.66723 93.7986 9.5276 93.8899 9.43334C93.9811 9.33908 94.1151 9.16601 94.1875 9.04877C94.26 8.93152 94.3578 8.81567 94.4048 8.79133C94.4518 8.76695 94.5342 8.65415 94.5878 8.5406C94.6711 8.36408 94.8504 8.15571 94.919 8.15556C94.9304 8.15556 94.963 8.10474 94.9914 8.04268C95.0198 7.98062 95.1219 7.84666 95.2184 7.74494L95.3939 7.56008L95.5209 7.66919C95.7028 7.82534 95.7582 8.06698 95.7219 8.54461C95.7058 8.75643 95.6749 9.49254 95.6532 10.1804C95.6316 10.8683 95.603 11.7211 95.5896 12.0757C95.5669 12.6817 95.5701 12.7217 95.6422 12.7436C95.6843 12.7565 95.7509 12.7835 95.7901 12.8037C95.8988 12.8599 99.6081 12.8517 99.7366 12.795C99.8512 12.7445 99.9017 12.6173 100.047 12.0132C100.131 11.6638 100.152 11.441 100.249 9.84292C100.325 8.60349 100.418 7.71334 100.54 7.06367C100.668 6.3839 100.725 5.75869 100.786 4.38367C100.824 3.52592 100.894 2.93243 100.993 2.63671C101.109 2.28847 101.114 2.22364 101.044 2.00146C101.006 1.88135 100.933 1.73973 100.883 1.68673C100.832 1.63372 100.768 1.51421 100.739 1.42119C100.705 1.3097 100.652 1.23458 100.583 1.20095C100.416 1.11924 100.283 1.01299 100.235 0.922232C100.211 0.875898 100.163 0.825474 100.13 0.810149C100.096 0.794823 100.003 0.754802 99.9245 0.721213C99.8455 0.687624 99.7082 0.628941 99.6193 0.590865C99.5304 0.552789 99.42 0.487637 99.3739 0.446067C99.3279 0.404537 99.2529 0.363125 99.2073 0.354033C98.7849 0.27006 98.6221 0.254735 98.1684 0.256403C97.4218 0.259182 96.8971 0.333309 96.7205 0.460956C96.5889 0.556125 96.2235 0.705529 95.9788 0.764251C95.9187 0.778703 95.7925 0.875342 95.6984 0.979088C95.6042 1.08283 95.4987 1.16768 95.4637 1.16768C95.3886 1.16768 95.247 1.31522 95.247 1.39359C95.247 1.42385 95.167 1.52382 95.0692 1.61581C94.9714 1.70781 94.8599 1.84709 94.8216 1.9253C94.7832 2.00352 94.6587 2.16432 94.5449 2.28264C94.431 2.40095 94.3095 2.55135 94.2747 2.61686C94.24 2.68237 94.1214 2.82245 94.0112 2.9281C93.9011 3.03379 93.8109 3.14226 93.8109 3.1691C93.8109 3.2312 93.592 3.47049 93.5352 3.47049C93.5117 3.47049 93.4404 3.57011 93.3767 3.69188C93.3131 3.81361 93.2133 3.9461 93.1549 3.98628C93.0966 4.02646 93.0223 4.11 92.9897 4.17189C92.9055 4.33174 92.7456 4.54237 92.6013 4.68343C92.4694 4.81239 92.4146 4.88799 92.3145 5.07884C92.2174 5.26386 92.1422 5.29173 91.8589 5.24758C91.6487 5.21483 91.6045 5.19323 91.565 5.10405C91.482 4.9161 91.4199 4.195 91.3475 2.57716C91.3051 1.62955 91.241 1.24709 91.1246 1.24709C91.0559 1.24709 90.7747 1.00918 90.7747 0.950977C90.7747 0.894122 90.6023 0.770644 90.5229 0.770644C90.4957 0.770644 90.4442 0.746782 90.4086 0.71764C90.373 0.688458 90.2792 0.640971 90.2002 0.612107C90.1212 0.583242 90.0012 0.512054 89.9335 0.453888C89.8051 0.343631 89.6599 0.303094 89.0103 0.196172C88.796 0.160876 88.5205 0.114899 88.3983 0.0939749C88.1365 0.0492289 87.4104 0.0520081 87.205 0.0985804ZM112.993 0.199627C112.398 0.296821 112.222 0.34657 112.136 0.44158C112.091 0.491885 111.933 0.588086 111.785 0.655305C111.637 0.722563 111.474 0.796888 111.423 0.820512C111.373 0.844136 111.331 0.884315 111.331 0.909765C111.331 0.969598 111.137 1.13409 110.993 1.19627C110.925 1.22589 110.847 1.3151 110.793 1.42619C110.74 1.53545 110.657 1.63182 110.584 1.66826C110.517 1.70157 110.436 1.79027 110.404 1.86543C110.371 1.94059 110.258 2.09643 110.151 2.21169C110.044 2.32699 109.92 2.47341 109.874 2.53706C109.829 2.6007 109.695 2.7482 109.577 2.86481C109.458 2.98146 109.362 3.102 109.362 3.13273C109.362 3.16346 109.277 3.25649 109.173 3.33947C109.07 3.42245 108.942 3.57074 108.889 3.66901C108.836 3.76727 108.735 3.88341 108.665 3.92708C108.594 3.97076 108.501 4.0795 108.458 4.16876C108.416 4.25805 108.316 4.37391 108.237 4.42627C108.158 4.47864 108.084 4.55825 108.072 4.60319C108.061 4.64814 107.975 4.76455 107.883 4.86186C107.79 4.95918 107.615 5.16524 107.495 5.31977C107.375 5.47429 107.233 5.62814 107.18 5.66169C107.127 5.6952 107.041 5.8051 106.989 5.90591C106.937 6.00676 106.842 6.11964 106.777 6.15676C106.712 6.19392 106.625 6.2881 106.584 6.36607C106.511 6.50496 106.296 6.72428 106.231 6.72555C106.213 6.72591 106.172 6.78423 106.141 6.85522C106.076 7.00153 105.905 7.20263 105.845 7.20263C105.824 7.20263 105.78 7.25174 105.748 7.31181C105.659 7.48123 105.503 7.68511 105.343 7.84202C105.153 8.02823 105.053 8.14805 105.053 8.19093C105.053 8.20995 104.973 8.29492 104.875 8.3798C104.777 8.46469 104.666 8.59635 104.628 8.67238C104.59 8.74841 104.5 8.85045 104.427 8.89917C104.354 8.94784 104.248 9.07267 104.192 9.17657C104.135 9.28048 104.046 9.38573 103.994 9.41051C103.942 9.43524 103.833 9.56499 103.751 9.69884C103.669 9.83268 103.578 9.94218 103.548 9.94218C103.518 9.94218 103.494 9.95667 103.494 9.97438C103.494 9.99213 103.461 10.0412 103.421 10.0836C103.381 10.1259 103.308 10.2231 103.26 10.2995C103.211 10.3759 103.086 10.5167 102.982 10.6123C102.878 10.708 102.764 10.8402 102.729 10.9062C102.667 11.0232 102.437 11.2524 102.382 11.2524C102.367 11.2524 102.343 11.2963 102.329 11.35C102.3 11.4608 102.162 11.616 102.032 11.6818C101.984 11.7063 101.905 11.8085 101.857 11.9089C101.808 12.0097 101.715 12.1208 101.65 12.1568C101.584 12.1936 101.482 12.3177 101.416 12.4419C101.352 12.5629 101.285 12.6723 101.267 12.685C101.249 12.6977 101.309 12.7404 101.399 12.7798C101.555 12.8479 101.691 12.8496 104.037 12.8135C106.478 12.7758 106.736 12.7593 106.736 12.6404C106.736 12.5836 106.923 12.3391 107.095 12.1718C107.17 12.0988 107.279 11.9648 107.336 11.874C107.394 11.7833 107.515 11.6434 107.605 11.5631C107.695 11.4829 107.811 11.3403 107.863 11.2463C107.915 11.1523 108.013 11.0482 108.08 11.015C108.156 10.9777 108.223 10.9015 108.254 10.8157C108.309 10.6629 108.487 10.4583 108.564 10.4583C108.591 10.4583 108.624 10.427 108.638 10.3888C108.674 10.2836 108.831 10.0695 108.993 9.90506C109.027 9.87028 109.1 9.77956 109.156 9.7034C109.316 9.48372 109.333 9.46367 109.478 9.33221C109.554 9.26373 109.662 9.13167 109.718 9.0388C109.775 8.9459 109.877 8.8277 109.945 8.77608C110.013 8.72447 110.117 8.59523 110.177 8.48887C110.236 8.38246 110.334 8.27284 110.393 8.24521C110.455 8.21674 110.529 8.1305 110.564 8.04621C110.598 7.96438 110.704 7.82598 110.798 7.73863C110.892 7.65128 111.035 7.48155 111.115 7.36144C111.195 7.24134 111.322 7.08622 111.398 7.0167C111.474 6.94722 111.536 6.87126 111.536 6.84796C111.536 6.82465 111.553 6.80559 111.574 6.80559C111.595 6.80559 111.626 6.76621 111.641 6.71813C111.673 6.62316 111.722 6.57138 111.845 6.50412C111.888 6.48022 111.977 6.36409 112.041 6.24605C112.108 6.12229 112.226 5.98405 112.319 5.91961C112.407 5.85815 112.48 5.78219 112.48 5.75087C112.48 5.71954 112.494 5.69385 112.511 5.69385C112.528 5.69381 112.595 5.64915 112.661 5.59459C112.726 5.54 112.801 5.49537 112.827 5.49537C112.898 5.49537 113.054 5.64792 113.098 5.75984C113.12 5.81638 113.136 6.7325 113.136 7.92381C113.136 9.67775 113.127 10.0087 113.075 10.1152C112.954 10.3615 112.985 10.3572 111.194 10.3789L109.559 10.3988L109.437 10.546C109.37 10.6269 109.255 10.7291 109.182 10.7731C109.1 10.8218 109.002 10.9413 108.93 11.0786C108.865 11.2026 108.744 11.3684 108.661 11.447C108.578 11.5256 108.459 11.6703 108.396 11.7685C108.333 11.8668 108.222 11.997 108.149 12.0578C108.076 12.1186 107.978 12.2551 107.931 12.3611C107.877 12.4809 107.795 12.5847 107.712 12.6354C107.618 12.6929 107.597 12.7225 107.639 12.7356C107.959 12.8332 108.338 12.8405 113.042 12.8393C117.399 12.8382 118.008 12.8308 118.081 12.778C118.162 12.7185 118.163 12.6653 118.173 6.53208L118.184 0.346172L118.099 0.240759L118.013 0.135386L115.667 0.140666C113.908 0.144676 113.239 0.159407 112.993 0.199627ZM124.106 0.194941C124.093 0.227697 124.066 0.254497 124.047 0.254497C123.985 0.254497 123.845 0.388456 123.845 0.44817C123.845 0.479457 123.801 0.561327 123.747 0.630054C123.693 0.698781 123.627 0.834487 123.6 0.931563C123.573 1.02868 123.525 1.19504 123.493 1.30128C123.461 1.40749 123.435 1.52728 123.435 1.56742C123.435 1.66397 123.351 1.84351 123.26 1.94031C123.187 2.01841 123.025 2.48441 123.025 2.61654C123.025 2.7569 122.925 3.01688 122.819 3.15286C122.693 3.31521 122.63 3.46815 122.598 3.68886C122.558 3.97048 122.454 4.2754 122.347 4.42497C122.246 4.56552 122.15 4.85444 122.037 5.35641C122.008 5.48743 121.942 5.64831 121.892 5.7139C121.752 5.89412 121.711 6.01601 121.528 6.78908C121.517 6.83458 121.456 6.93562 121.392 7.01356C121.311 7.11187 121.253 7.25687 121.202 7.48667C121.092 7.97927 121.058 8.07496 120.907 8.31433C120.831 8.43443 120.749 8.63097 120.724 8.75107C120.699 8.87117 120.662 9.04194 120.644 9.13056C120.6 9.3363 120.526 9.50369 120.433 9.60613C120.348 9.69991 120.194 10.1426 120.193 10.2947C120.192 10.4312 120.112 10.6478 120.007 10.796C119.881 10.9748 119.83 11.1068 119.761 11.443C119.687 11.8035 119.592 12.0388 119.478 12.1381C119.385 12.2199 119.316 12.6665 119.384 12.7512C119.415 12.7898 119.901 12.8008 121.567 12.8008C123.591 12.8008 123.713 12.7968 123.777 12.7282C123.815 12.6883 123.845 12.6338 123.845 12.6072C123.845 12.5546 123.964 12.317 124.006 12.2847C124.119 12.1986 124.213 11.9402 124.317 11.4311C124.386 11.0926 124.465 10.8811 124.608 10.6568C124.656 10.5804 124.719 10.3839 124.747 10.2201C124.813 9.83423 124.943 9.43961 125.032 9.35441C125.112 9.27698 125.214 8.96535 125.281 8.59226C125.306 8.45032 125.398 8.19125 125.486 8.01655C125.574 7.84186 125.666 7.59173 125.692 7.4607C125.774 7.04068 125.867 6.74917 125.958 6.62693C126.049 6.5044 126.093 6.36786 126.205 5.85271C126.241 5.68893 126.31 5.48346 126.358 5.39612C126.558 5.0364 126.592 4.94611 126.637 4.6616C126.694 4.30157 126.78 4.04699 126.9 3.88738C126.949 3.82187 127.014 3.70812 127.045 3.63458C127.076 3.56109 127.174 3.44941 127.264 3.38644L127.427 3.27197L129.093 3.2734C131.339 3.27531 131.409 3.29242 131.499 3.85958C131.514 3.95352 131.513 4.15434 131.497 4.30593L131.469 4.58152L131.155 4.8943C130.905 5.14297 130.803 5.21685 130.656 5.25465C130.547 5.2828 129.919 5.31655 129.118 5.33724C127.238 5.38583 127.273 5.38206 127.103 5.5566C126.919 5.74535 126.896 5.85251 126.997 6.03912C127.156 6.33118 127.202 6.51302 127.248 7.04398C127.303 7.66319 127.398 8.16163 127.492 8.31433C127.598 8.4876 127.674 8.83135 127.744 9.46574C127.809 10.0476 127.864 10.3624 127.947 10.6171C127.993 10.7591 128.057 10.9556 128.089 11.0539C128.14 11.2105 128.204 11.6417 128.251 12.1457C128.275 12.4047 128.373 12.7179 128.44 12.7497C128.514 12.7848 132.516 12.8161 132.654 12.7827C132.741 12.7615 132.749 12.7382 132.749 12.4981C132.749 12.1962 132.661 11.8306 132.537 11.6183C132.44 11.4531 132.342 11.0995 132.34 10.9079C132.338 10.7204 132.178 9.9689 132.135 9.94309C132.055 9.89517 131.921 9.51092 131.885 9.22751C131.823 8.73166 131.774 8.45905 131.727 8.34153C131.662 8.1793 131.672 8.08187 131.764 7.96843C131.86 7.84972 132.099 7.71878 132.218 7.71878C132.265 7.71878 132.399 7.67657 132.516 7.62496C132.805 7.49739 132.921 7.46134 133.303 7.37931C133.529 7.33083 133.659 7.27993 133.722 7.21605C133.771 7.16499 133.83 7.12322 133.851 7.12322C133.873 7.12322 133.897 7.10885 133.905 7.09134C133.912 7.07379 134.048 6.99788 134.206 6.92264C134.364 6.84736 134.52 6.75005 134.553 6.70637C134.663 6.56185 134.859 6.40856 134.933 6.40856C134.981 6.40856 135.036 6.34154 135.096 6.21004C135.145 6.10085 135.2 6.01152 135.219 6.01152C135.237 6.01152 135.252 5.98865 135.252 5.96074C135.252 5.93279 135.291 5.88368 135.339 5.85156C135.459 5.77179 135.611 5.43014 135.661 5.12903C135.684 4.99205 135.721 4.81755 135.744 4.74128C135.847 4.39594 135.78 3.29186 135.616 2.65657C135.594 2.56922 135.56 2.42863 135.541 2.34418C135.523 2.25973 135.462 2.1503 135.407 2.10099C135.352 2.05168 135.248 1.89747 135.176 1.75827C135.056 1.52831 134.837 1.24709 134.778 1.24709C134.765 1.24709 134.693 1.18455 134.619 1.10812C134.544 1.03169 134.462 0.969162 134.437 0.969162C134.411 0.969162 134.39 0.945657 134.39 0.916911C134.39 0.860691 134.125 0.700726 133.909 0.627314C133.836 0.602499 133.716 0.530079 133.641 0.466315C133.5 0.346966 133.387 0.314885 132.687 0.197085C132.369 0.143366 131.758 0.13491 128.224 0.135108C124.623 0.135347 124.127 0.142572 124.106 0.194941ZM12.1339 0.312425C11.961 0.345736 11.848 0.393975 11.773 0.466514C11.713 0.5246 11.6443 0.572126 11.6204 0.572126C11.5965 0.572126 11.485 0.616792 11.3727 0.671385C11.2604 0.725977 11.1371 0.770644 11.0989 0.770644C11.0605 0.770644 11.0021 0.8086 10.9689 0.855014C10.8474 1.02487 10.7824 1.08494 10.6418 1.15764C10.5628 1.19845 10.4673 1.2908 10.4294 1.36282C10.3466 1.52065 10.1939 1.68383 10.1291 1.68383C10.1032 1.68383 10.0399 1.77391 9.98849 1.88405C9.93707 1.99419 9.85079 2.11231 9.79675 2.14657C9.74271 2.18084 9.59771 2.34533 9.47449 2.51212C9.35128 2.67892 9.17575 2.88637 9.0845 2.97312C8.99321 3.05987 8.91853 3.15286 8.91853 3.1797C8.91853 3.20654 8.8457 3.28515 8.7567 3.35436C8.66767 3.4236 8.56747 3.53608 8.53395 3.60441C8.46883 3.73714 8.39083 3.82072 8.21075 3.95067C8.14871 3.99545 8.09792 4.06656 8.09792 4.10869C8.09792 4.18365 7.79491 4.50278 7.72368 4.50278C7.70386 4.50278 7.68761 4.53522 7.68761 4.57489C7.68761 4.61455 7.57223 4.7734 7.43117 4.92793C7.29015 5.08246 7.1378 5.25735 7.09267 5.31659C7.04753 5.37587 6.94077 5.49518 6.85543 5.58177C6.77012 5.66832 6.65573 5.80744 6.60128 5.8909C6.54679 5.9744 6.44545 6.08184 6.37598 6.12972C6.30652 6.17756 6.21334 6.28564 6.16894 6.36989C6.12451 6.45414 6.028 6.56749 5.95444 6.6218C5.88091 6.67612 5.76697 6.80968 5.70124 6.91863C5.6355 7.02758 5.54093 7.13783 5.49103 7.16364C5.44118 7.18949 5.36232 7.27584 5.31583 7.35553C5.26939 7.43521 5.14679 7.58974 5.04343 7.69893C4.94008 7.80811 4.82404 7.94656 4.7856 8.00663C4.74715 8.0667 4.70124 8.11581 4.68351 8.11581C4.66583 8.11581 4.65134 8.13372 4.65134 8.15564C4.65134 8.17751 4.5763 8.26105 4.48455 8.34121C4.39285 8.42141 4.28912 8.54068 4.25408 8.60623C4.21904 8.67178 4.10022 8.80483 3.99005 8.90186C3.87984 8.9989 3.7897 9.10578 3.7897 9.13941C3.7897 9.20191 3.55767 9.42603 3.49301 9.42603C3.47335 9.42603 3.42879 9.49305 3.394 9.57492C3.32306 9.74184 3.14457 9.94218 3.06674 9.94218C3.03863 9.94218 3.00265 9.9824 2.98673 10.0315C2.95247 10.1374 2.86056 10.2555 2.62394 10.498C2.52805 10.5963 2.40007 10.7526 2.33959 10.8454C2.27907 10.9382 2.19205 11.0365 2.14618 11.0638C2.1003 11.0911 2.0063 11.1982 1.93729 11.3019C1.86828 11.4056 1.74207 11.5439 1.65676 11.6092C1.5715 11.6746 1.47069 11.7913 1.43278 11.8686C1.39486 11.946 1.30123 12.0489 1.22475 12.0973C1.09169 12.1816 0.999616 12.3122 0.999616 12.4167C0.999616 12.4435 0.944594 12.5238 0.877385 12.595C0.80193 12.6749 0.77444 12.7294 0.805582 12.7372C0.833319 12.7442 0.921945 12.7703 1.00253 12.7952C1.10515 12.827 1.84161 12.8405 3.45965 12.8405C6.09472 12.8405 6.41529 12.8153 6.41582 12.6074C6.41591 12.5718 6.53588 12.4088 6.68236 12.245C6.82884 12.0812 6.94881 11.9249 6.94889 11.8976C6.94898 11.8703 6.96551 11.848 6.98566 11.848C7.00576 11.848 7.03309 11.8077 7.04634 11.7586C7.05964 11.7095 7.13111 11.6317 7.20517 11.5858C7.28518 11.5362 7.38743 11.4113 7.4571 11.2781C7.52156 11.1548 7.59816 11.0539 7.6273 11.0539C7.70267 11.0539 7.89276 10.8242 7.89276 10.7332C7.89276 10.6912 7.91123 10.6568 7.93379 10.6568C7.95636 10.6568 7.97482 10.6331 7.97482 10.604C7.97482 10.5749 8.01737 10.5291 8.0694 10.5022C8.12143 10.4752 8.22536 10.3539 8.3004 10.2325C8.37541 10.1111 8.54519 9.89604 8.67768 9.75462C8.81013 9.61316 8.91853 9.47765 8.91853 9.45347C8.91853 9.42925 9.01085 9.32427 9.12368 9.22013C9.23652 9.11599 9.32884 8.99604 9.32884 8.95356C9.32884 8.91112 9.40121 8.81642 9.48968 8.74313C9.57814 8.66988 9.67423 8.5568 9.70316 8.49189C9.73213 8.42701 9.83975 8.2834 9.94237 8.17283C10.2057 7.8891 10.3385 7.71258 10.3811 7.58974C10.3944 7.55155 10.419 7.52026 10.4358 7.52026C10.4925 7.52026 10.6672 7.32666 10.7472 7.17527C10.8399 6.99978 10.8844 6.94892 10.9743 6.91605C11.0105 6.90279 11.0813 6.81445 11.1316 6.71976C11.1819 6.62502 11.2934 6.47605 11.3793 6.38871C11.4653 6.30136 11.5655 6.17629 11.6021 6.11078C11.7179 5.90341 11.7651 5.84373 11.9819 5.63001C12.0984 5.51519 12.2053 5.38595 12.2194 5.34275C12.2336 5.2996 12.2907 5.23544 12.3463 5.20018C12.4358 5.1434 12.4605 5.14265 12.5624 5.19363C12.6256 5.22531 12.6994 5.29805 12.7264 5.3553C12.7624 5.43185 12.7754 6.02042 12.7754 7.57981C12.7754 9.83423 12.7777 9.80683 12.5737 10.0315L12.4746 10.1407H11.0692H9.66381L9.4596 10.24C9.34726 10.2945 9.22872 10.3392 9.1961 10.3392C9.13751 10.3392 9.04162 10.4954 9.04162 10.5908C9.04162 10.6179 8.93178 10.7598 8.79757 10.9061C8.66336 11.0524 8.52226 11.2359 8.48406 11.3138C8.44586 11.3917 8.35128 11.5021 8.2739 11.5593C8.19647 11.6164 8.0886 11.7482 8.03416 11.8522C7.97971 11.9561 7.87972 12.0729 7.81189 12.1117C7.71875 12.1649 7.66759 12.2432 7.60272 12.4319C7.55545 12.5693 7.49522 12.6832 7.46883 12.685C7.44249 12.6867 7.48188 12.714 7.55644 12.7455C7.67202 12.7944 8.39063 12.8026 12.4391 12.8014C15.4525 12.8004 17.2402 12.7855 17.334 12.7605C17.6309 12.6811 17.613 13.0502 17.644 6.35325L17.6716 0.38937L17.489 0.321953C17.3241 0.261008 17.0695 0.254933 14.8461 0.259221C13.092 0.262596 12.3134 0.277883 12.1339 0.312425ZM40.1991 0.308692C40.1737 0.336842 40.1424 0.394213 40.1297 0.43622C40.1169 0.478226 40.0763 0.615521 40.0395 0.741342C40.0027 0.867163 39.9273 1.02224 39.8718 1.08597C39.7777 1.1942 39.719 1.37966 39.5661 2.0516C39.5375 2.17742 39.4894 2.30023 39.4592 2.32445C39.429 2.34866 39.4043 2.39095 39.4043 2.41834C39.4043 2.44574 39.3789 2.48858 39.3479 2.51351C39.2893 2.56048 39.2572 2.6632 39.1233 3.23227C39.0314 3.62267 38.9702 3.78812 38.9179 3.78812C38.8557 3.78812 38.6664 4.35767 38.6651 4.5486C38.6644 4.66565 38.5835 4.89311 38.4973 5.02072C38.359 5.22547 38.2554 5.45678 38.2544 5.56327C38.2529 5.7147 38.1243 6.16378 38.0408 6.3093C37.8617 6.62117 37.8007 6.80095 37.6772 7.3813C37.6493 7.51232 37.6018 7.64771 37.5717 7.68221C37.5415 7.71667 37.5169 7.76583 37.5169 7.79139C37.5169 7.81696 37.5018 7.83789 37.4835 7.83789C37.4331 7.83789 37.3117 8.10493 37.3117 8.21587C37.3117 8.42018 37.1198 9.02852 37.0553 9.02884C37.0384 9.02892 37.0245 9.05429 37.0245 9.08526C37.0245 9.11619 37.0058 9.14755 36.9828 9.15494C36.9456 9.16693 36.9032 9.31851 36.7318 10.0519C36.7049 10.1668 36.6582 10.2807 36.628 10.3049C36.5979 10.3291 36.5732 10.3721 36.5732 10.4003C36.5732 10.4286 36.5593 10.4577 36.5424 10.465C36.4919 10.4867 36.368 10.7719 36.368 10.8666C36.368 11.1411 36.2005 11.6503 36.0583 11.8082C35.9669 11.9098 35.8814 12.2138 35.8711 12.4738C35.863 12.6795 35.8749 12.7324 35.9403 12.7802C36.0084 12.8301 36.7174 12.8382 41.1049 12.8393C46.5651 12.8406 47.2151 12.8228 47.4608 12.6653C47.618 12.5644 47.7448 12.5233 48.3387 12.3801C48.6001 12.317 48.8003 12.2485 48.8003 12.222C48.8003 12.1964 48.8972 12.1304 49.0157 12.0755C49.1342 12.0205 49.3387 11.9254 49.4701 11.8639C49.6016 11.8025 49.7267 11.7205 49.7482 11.6816C49.7696 11.6428 49.8905 11.5638 50.0167 11.506C50.1564 11.4421 50.2725 11.3564 50.3132 11.2872C50.3499 11.2246 50.4031 11.1734 50.4313 11.1732C50.4595 11.1731 50.4826 11.1563 50.4826 11.1359C50.4826 11.1156 50.5233 11.0864 50.573 11.0712C50.6822 11.0376 50.73 10.9909 50.8108 10.8387C50.8447 10.775 50.9456 10.6714 51.0352 10.6085C51.1247 10.5456 51.231 10.4243 51.2715 10.339C51.3119 10.2537 51.4064 10.1386 51.4815 10.0831C51.5667 10.0202 51.6389 9.91864 51.6731 9.81334C51.7034 9.72044 51.7525 9.61621 51.7823 9.58171C51.8122 9.54725 51.8366 9.50147 51.8366 9.47995C51.8366 9.45847 51.8921 9.38946 51.9598 9.32661C52.042 9.25046 52.1122 9.11897 52.1705 8.93208C52.3056 8.49884 52.3376 8.42693 52.4529 8.29662C52.5611 8.1745 52.5827 8.09902 52.721 7.36144C52.76 7.15399 52.8325 6.89457 52.8822 6.78495C53.0545 6.40502 53.0842 6.11138 53.0851 4.78071C53.0859 3.52103 53.052 3.14353 52.9274 3.02299C52.8599 2.95768 52.6572 2.41199 52.6572 2.2957C52.6572 2.20438 52.5343 1.96247 52.4877 1.96199C52.4536 1.96167 52.1597 1.57607 52.0827 1.43052C52.0494 1.36763 51.9804 1.29775 51.9293 1.27524C51.8783 1.25277 51.8366 1.21933 51.8366 1.20099C51.8366 1.18269 51.8197 1.16768 51.799 1.16768C51.7783 1.16768 51.6767 1.09133 51.5732 0.998026C51.3692 0.814238 51.1367 0.687028 50.8621 0.608971C50.7662 0.581734 50.6877 0.544849 50.6877 0.527102C50.6877 0.465045 50.4189 0.359275 50.1338 0.309169C49.7107 0.234764 40.2664 0.234327 40.1991 0.308692ZM71.217 0.312584C71.0293 0.348714 70.9193 0.398581 70.7891 0.506376C70.6927 0.58622 70.5796 0.651533 70.5377 0.651533C70.4467 0.651533 70.2842 0.745074 70.1157 0.894479C69.6237 1.33074 69.3567 1.59084 69.3567 1.63372C69.3567 1.66128 69.3382 1.68383 69.3156 1.68383C69.2931 1.68383 69.2746 1.71059 69.2746 1.74334C69.2746 1.77606 69.1986 1.87861 69.1057 1.97124C68.8929 2.18342 68.8859 2.20319 68.8245 2.76003C68.7465 3.46743 68.8626 4.39697 69.0495 4.56234C69.1355 4.63845 69.1726 4.69801 69.3405 5.0285C69.382 5.11021 69.6246 5.38714 69.8796 5.64391C70.1345 5.90071 70.4489 6.22402 70.5782 6.36242C70.7075 6.50079 70.9071 6.70626 71.0218 6.81901C71.1364 6.93173 71.2805 7.09098 71.3419 7.17285C71.4032 7.25476 71.4712 7.32174 71.4929 7.32174C71.557 7.32174 71.775 7.5737 71.7763 7.6493C71.7769 7.68749 71.8006 7.71913 71.8288 7.71953C71.8916 7.72048 72.1872 7.96558 72.1891 8.01826C72.1914 8.08024 72.3231 8.21094 72.4445 8.27153C72.5067 8.30258 72.6031 8.40331 72.6589 8.49534C72.7146 8.58737 72.8207 8.69735 72.8946 8.73976C72.9685 8.78216 73.0658 8.88487 73.111 8.96805C73.157 9.05286 73.2561 9.15156 73.3366 9.19277C73.4941 9.27333 73.6649 9.48225 73.6649 9.59418C73.6649 9.66723 73.7279 9.79456 73.8191 9.90597C73.8876 9.98963 73.7727 10.0937 73.555 10.145C73.4642 10.1664 71.9806 10.181 70.0326 10.1796L66.6671 10.1773L66.5609 10.288C66.5024 10.3489 66.4057 10.497 66.3459 10.6171C66.2862 10.7372 66.2117 10.8802 66.1805 10.9348C66.1018 11.0723 66.0332 11.298 66.0332 11.419C66.0332 11.5745 65.8375 12.0862 65.7781 12.0862C65.6431 12.0862 65.5591 12.7289 65.6878 12.7767C65.7235 12.79 68.1788 12.8008 71.144 12.8008C75.9586 12.8008 76.5527 12.7941 76.6972 12.7382C76.7861 12.7038 76.869 12.6502 76.8813 12.6191C76.8937 12.588 76.9276 12.5626 76.9567 12.5626C76.9859 12.5626 77.0569 12.5203 77.1145 12.4686C77.1721 12.4169 77.2846 12.3517 77.3644 12.3238C77.4697 12.287 77.5233 12.2366 77.5591 12.1407C77.6062 12.0145 77.6858 11.9054 77.8736 11.709C78.0011 11.5757 78.1372 11.3377 78.1372 11.2479C78.1372 11.1676 78.3627 10.6956 78.4193 10.6576C78.4969 10.6055 78.5528 10.1341 78.5532 9.52759C78.5538 8.79649 78.5032 8.47596 78.3581 8.29194C78.3043 8.22369 78.2603 8.1494 78.2603 8.12685C78.2603 8.1043 78.2348 8.06539 78.2037 8.04038C78.1726 8.01536 78.1354 7.9383 78.1211 7.86905C78.1053 7.7929 78.0249 7.67955 77.9173 7.58208C77.8196 7.4935 77.6904 7.34505 77.6302 7.25226C77.57 7.15947 77.5071 7.08348 77.4905 7.08344C77.4333 7.08324 77.2106 6.86507 77.1517 6.75152C77.1192 6.68902 77.051 6.62256 77 6.60378C76.949 6.58504 76.8285 6.46291 76.7324 6.33245C76.6362 6.20198 76.536 6.09426 76.5097 6.09307C76.4834 6.09188 76.4009 6.01498 76.3264 5.92219C76.2519 5.8294 76.0937 5.65518 75.9748 5.53508C75.4766 5.03152 75.3061 4.85396 75.3061 4.83876C75.3061 4.8299 75.1261 4.64528 74.9061 4.4285C74.6861 4.21172 74.4717 3.96551 74.4297 3.88142C74.3877 3.79737 74.3395 3.70176 74.3225 3.66901C74.2725 3.57257 74.3606 3.44365 74.5254 3.37171C74.6641 3.31124 74.9425 3.30405 77.3826 3.29825C79.8031 3.2925 80.1018 3.28491 80.2359 3.22603C80.403 3.15262 80.3947 3.17593 80.4969 2.49775C80.5782 1.95774 80.6194 1.7973 80.7416 1.54486C80.8692 1.28127 80.9683 0.868036 80.9683 0.599957C80.9683 0.22178 81.4247 0.253821 76.1179 0.259221C72.632 0.262794 71.4066 0.276136 71.217 0.312584ZM57.3678 0.330092C57.1902 0.348514 57.1062 0.380396 57.0168 0.463218C56.9522 0.523131 56.8779 0.572126 56.8517 0.572126C56.7888 0.572126 56.5141 0.817335 56.5141 0.873476C56.5141 0.897576 56.4491 0.982026 56.3696 1.06119C56.2244 1.20591 56.2054 1.25872 56.0592 1.92205C56.0328 2.04215 55.9492 2.23868 55.8736 2.35879C55.798 2.47889 55.7253 2.63969 55.712 2.71612C55.6386 3.13976 55.467 3.66901 55.4031 3.66901C55.3875 3.66901 55.3646 3.70029 55.3522 3.73849C55.273 3.98275 55.1916 4.28469 55.1355 4.54249C55.0998 4.70626 55.0563 4.85813 55.0388 4.87997C54.9015 5.05097 54.7711 5.36233 54.7228 5.63434C54.6567 6.00652 54.6102 6.1375 54.4735 6.33646C54.3706 6.48634 54.3344 6.59374 54.2352 7.04382C54.1532 7.41584 54.109 7.54559 54.0222 7.66899C53.8998 7.84285 53.8176 8.07309 53.7633 8.39374C53.7177 8.66329 53.5503 9.0955 53.4705 9.14985C53.4238 9.18166 53.2727 9.65846 53.2727 9.77399C53.2727 9.92987 53.1832 10.1888 53.0844 10.3194C52.8448 10.6355 52.7094 11.5148 52.8261 11.9963C52.8913 12.2653 52.9101 12.2912 53.1121 12.3929C53.2117 12.443 53.334 12.5287 53.3838 12.5833C53.4337 12.6379 53.5261 12.7047 53.589 12.7318C53.7399 12.7967 63.7751 12.8256 63.8989 12.7615C63.9426 12.7389 64.016 12.6447 64.0622 12.5522C64.1083 12.4597 64.1921 12.3232 64.2485 12.249C64.3048 12.1748 64.3509 12.0793 64.3509 12.0368C64.3509 11.9943 64.3766 11.8674 64.4079 11.7548C64.4392 11.6422 64.4886 11.443 64.5176 11.312C64.5467 11.1809 64.6411 10.9587 64.7274 10.8182C64.9017 10.5343 64.9235 10.368 64.8046 10.23L64.7275 10.1407H61.1708C57.6819 10.1407 57.6118 10.1392 57.499 10.0615C57.4178 10.0055 57.3693 9.92304 57.3342 9.7813C57.2907 9.60609 57.2962 9.52362 57.377 9.13596C57.4823 8.63065 57.5476 8.48537 57.7801 8.23945C58.1144 7.88569 57.7197 7.91785 61.7282 7.91757L65.2806 7.91729L65.4737 7.7935C65.688 7.6562 65.772 7.50811 65.8317 7.16293C65.9259 6.61764 66.013 6.32915 66.0832 6.32915C66.1008 6.32915 66.1152 6.30235 66.1152 6.2696C66.1152 6.23684 66.131 6.21004 66.1502 6.21004C66.1875 6.21004 66.3001 5.82178 66.3423 5.54727C66.3636 5.40862 66.3534 5.3688 66.2812 5.30905C66.1998 5.24151 66.0011 5.23615 62.8957 5.21745L59.5967 5.1976L59.4709 5.08099C59.3534 4.97204 59.3452 4.9456 59.3452 4.67887C59.3452 4.47356 59.3625 4.3795 59.4067 4.34397C59.4406 4.31677 59.4683 4.26992 59.4683 4.23987C59.4683 4.20977 59.4838 4.18515 59.5029 4.18515C59.5463 4.18515 59.6509 3.97786 59.7159 3.76279C59.8017 3.47899 59.9138 3.38088 60.1904 3.34757C60.3236 3.33149 61.9394 3.31688 63.7812 3.31501C67.0552 3.31176 67.1323 3.30993 67.2334 3.23298C67.2934 3.18728 67.3485 3.0937 67.3647 3.00997C67.3801 2.9306 67.4653 2.7293 67.554 2.56263C67.6427 2.39591 67.7153 2.21065 67.7154 2.1509C67.7156 1.88191 67.9077 1.26797 68.0389 1.1171C68.1189 1.02506 68.1423 0.944863 68.158 0.708349C68.1714 0.506178 68.1614 0.395365 68.1261 0.354153C68.0807 0.301188 67.4633 0.294875 62.838 0.300037C59.9579 0.303253 57.4963 0.316791 57.3678 0.330092ZM47.5981 3.52993C47.729 3.60632 47.8661 3.66885 47.9029 3.66889C47.9396 3.66897 47.9926 3.69581 48.0207 3.72856C48.0488 3.76132 48.092 3.78812 48.1166 3.78812C48.1412 3.78812 48.2496 3.88154 48.3576 3.99573C48.5416 4.1904 48.6772 4.48142 48.6772 4.68145C48.6772 4.71841 48.7066 4.84646 48.7425 4.96601C48.809 5.18723 48.8048 5.3765 48.725 5.75345C48.7018 5.86263 48.6624 6.10383 48.6373 6.28945C48.5759 6.74397 48.4735 7.08296 48.3621 7.20053C48.3116 7.25401 48.2097 7.43942 48.1358 7.61261C48.0423 7.83173 47.9607 7.95756 47.8675 8.02636C47.7938 8.08076 47.7335 8.15079 47.7335 8.18204C47.7335 8.21329 47.6273 8.34363 47.4976 8.47172C47.3679 8.5998 47.2173 8.75167 47.163 8.80924C47.1088 8.86681 47.0026 8.93891 46.9272 8.9694C46.8517 8.9999 46.7685 9.07053 46.7422 9.12635C46.7016 9.21255 46.3384 9.42603 46.2324 9.42603C46.2164 9.42603 46.1217 9.49075 46.022 9.5698C45.8483 9.70757 45.3597 9.87302 44.9537 9.93162C44.8804 9.94222 44.8203 9.96433 44.8203 9.98085C44.8203 9.99733 44.7363 10.0419 44.6336 10.0798C44.466 10.1417 44.3299 10.1463 43.3103 10.124C42.6853 10.1104 42.044 10.0895 41.8852 10.0777C41.598 10.0562 41.5959 10.0552 41.4851 9.8858C41.3347 9.6558 41.3342 9.39205 41.4833 9.0797C41.5435 8.95356 41.6139 8.82353 41.6396 8.79077C41.7017 8.71176 41.8052 8.36043 41.8677 8.01655C41.9191 7.73355 41.9818 7.58041 42.1206 7.39873C42.1957 7.30058 42.3175 6.84081 42.3175 6.65595C42.3175 6.53668 42.5086 6.08223 42.5809 6.02982C42.6122 6.00715 42.6783 5.80169 42.7279 5.57323C42.8373 5.06959 42.9097 4.85472 43.0465 4.62797C43.1037 4.53304 43.1662 4.38562 43.1853 4.30042C43.2045 4.21517 43.2364 4.07283 43.2562 3.98406C43.3003 3.78625 43.4877 3.55299 43.6751 3.46247C43.8002 3.40208 44.0032 3.3947 45.5876 3.39299L47.3601 3.39108L47.5981 3.52993ZM110.346 15.8951C110.064 15.91 109.787 15.9406 109.731 15.963C109.674 15.9855 109.462 16.0269 109.259 16.0549C109.056 16.0829 108.785 16.1305 108.658 16.1606C108.531 16.1907 108.381 16.2154 108.325 16.2154C108.18 16.2154 107.947 16.3168 107.829 16.4313C107.774 16.4851 107.639 16.5674 107.529 16.6144C107.42 16.6613 107.29 16.7183 107.241 16.7409C107.191 16.7636 107.101 16.8578 107.041 16.9502C106.98 17.0427 106.871 17.146 106.798 17.1798C106.722 17.2148 106.654 17.2813 106.641 17.3338C106.582 17.571 106.392 18.0337 106.309 18.141C106.2 18.283 106.152 18.406 106.06 18.7762C105.977 19.1062 105.928 19.219 105.81 19.3519C105.729 19.4421 105.654 19.6435 105.602 19.9078C105.559 20.131 105.485 20.3313 105.405 20.4433C105.294 20.5983 105.176 20.8519 105.176 20.9356C105.176 21.0798 104.965 21.6178 104.868 21.7184C104.812 21.7771 104.766 21.8532 104.766 21.8875C104.766 21.9218 104.74 22.0219 104.709 22.11C104.678 22.1981 104.63 22.365 104.602 22.4809C104.575 22.5969 104.489 22.7821 104.413 22.8925C104.336 23.0029 104.263 23.1403 104.251 23.1978C104.239 23.2554 104.211 23.367 104.19 23.446C104.131 23.6603 104.141 23.7188 104.255 23.8645L104.36 23.9973H105.544C106.196 23.9973 106.735 23.9835 106.742 23.9668C106.75 23.95 106.851 23.8779 106.967 23.8065C107.193 23.6676 107.231 23.6029 107.309 23.223C107.336 23.092 107.384 22.9261 107.416 22.8544C107.448 22.7827 107.474 22.7021 107.474 22.6754C107.474 22.6486 107.516 22.5822 107.567 22.5278C107.663 22.426 107.756 22.1776 107.86 21.744C107.893 21.6075 107.963 21.438 108.015 21.3674C108.136 21.2034 108.182 21.1167 108.249 20.9202C108.279 20.8329 108.361 20.7167 108.431 20.6622L108.558 20.5629L111.457 20.5522C114.009 20.5428 114.362 20.5487 114.408 20.6018C114.436 20.635 114.478 20.6622 114.501 20.6622C114.524 20.6622 114.578 20.7023 114.622 20.7513C114.707 20.8455 114.705 20.9168 114.613 21.2577C114.586 21.356 114.535 21.5436 114.5 21.6746C114.464 21.8056 114.373 21.9956 114.298 22.0968C114.223 22.198 114.162 22.3101 114.162 22.346C114.162 22.5093 113.98 23.0798 113.882 23.223C113.823 23.3104 113.744 23.4443 113.709 23.5207C113.649 23.647 113.649 23.6726 113.708 23.8057L113.772 23.952L114.101 23.9771C114.281 23.9909 117.438 23.9958 121.117 23.9879C126.075 23.9772 127.911 23.9609 128.215 23.9248C128.441 23.8979 128.819 23.8574 129.056 23.8347C129.531 23.7893 129.849 23.7069 129.958 23.601C129.997 23.563 130.119 23.4893 130.228 23.437C130.587 23.265 130.944 22.8582 130.944 22.6198C130.944 22.5677 131.014 22.3962 131.101 22.2387C131.245 21.9759 131.293 21.831 131.436 21.2246C131.464 21.1081 131.558 20.894 131.646 20.7488C131.736 20.5999 131.805 20.4324 131.805 20.3647C131.805 20.2987 131.822 20.19 131.841 20.1231C131.883 19.9829 131.821 19.5549 131.75 19.4847C131.724 19.4594 131.611 19.4091 131.499 19.3729C131.386 19.3367 131.268 19.2859 131.236 19.26C131.192 19.2248 130.172 19.208 127.166 19.1931L123.154 19.1733L123.053 19.0811C122.903 18.9444 122.836 18.6758 122.9 18.4666C122.95 18.3032 123.057 18.0811 123.104 18.0417C123.148 18.0048 123.334 17.7445 123.387 17.6447C123.447 17.532 123.677 17.4065 123.824 17.4065C123.878 17.4065 123.974 17.3853 124.038 17.3594C124.119 17.3263 124.893 17.3021 126.656 17.2775C130.703 17.2212 132.225 17.1849 132.415 17.14C132.646 17.0856 132.734 16.9956 132.793 16.7514C132.819 16.6422 132.861 16.5082 132.884 16.4536C132.937 16.3331 132.929 16.2873 132.823 16.0683L132.74 15.8977H128.254C125.494 15.8977 123.729 15.9124 123.665 15.9358C123.56 15.9744 123.14 16.0415 122.286 16.1562C121.652 16.2414 121.515 16.2833 121.322 16.4504C121.149 16.6008 121.002 16.6918 120.933 16.6918C120.879 16.6918 120.727 16.8387 120.727 16.8909C120.727 16.9609 120.629 17.104 120.492 17.2342C120.354 17.365 120.194 17.7002 120.194 17.8575C120.194 17.9924 120.077 18.2977 119.992 18.3861C119.951 18.4287 119.899 18.4982 119.876 18.5405C119.825 18.633 119.701 19.0927 119.701 19.1879C119.701 19.2252 119.663 19.3265 119.616 19.413C119.483 19.6594 119.531 19.9339 119.753 20.2061C119.849 20.3229 119.982 20.4421 120.05 20.4709C120.148 20.5125 120.985 20.5272 124.153 20.543L128.133 20.5629L128.326 20.6559C128.602 20.7883 128.639 20.9282 128.461 21.1556C128.368 21.2749 128.299 21.4772 128.191 21.9484C128.147 22.1397 128.103 22.2161 127.948 22.3653C127.589 22.7117 128.005 22.6875 122.438 22.6872L117.522 22.687L117.391 22.5682C117.271 22.4591 117.261 22.431 117.267 22.2208C117.274 22.0069 117.365 21.7531 117.542 21.4562C117.602 21.3551 117.628 21.268 117.755 20.7416C117.835 20.4099 117.892 20.2651 117.943 20.2651C117.996 20.2651 118.142 19.961 118.142 19.8504C118.142 19.6435 118.333 19.0348 118.399 19.0345C118.415 19.0344 118.429 19.0075 118.429 18.9748C118.429 18.942 118.446 18.9152 118.467 18.9152C118.488 18.9152 118.538 18.8125 118.578 18.6869C118.634 18.5134 118.651 18.3204 118.652 17.8829C118.653 17.1642 118.605 16.9885 118.342 16.7355C118.237 16.6351 118.121 16.4948 118.084 16.4238C118.038 16.3352 117.988 16.2948 117.924 16.2948C117.872 16.2948 117.813 16.279 117.791 16.2598C117.749 16.2221 117.325 16.1327 116.829 16.0571C116.66 16.0313 116.448 15.9823 116.357 15.9483C116.216 15.8949 115.828 15.8851 113.526 15.8772C112.059 15.8721 110.628 15.8802 110.346 15.8951ZM54.7908 15.955C54.6892 15.9834 54.4677 16.0275 54.2984 16.0528C53.1949 16.2182 52.9577 16.277 52.8172 16.42C52.7586 16.4797 52.6081 16.574 52.4828 16.6294C52.2546 16.7304 52.1492 16.8247 51.6147 17.4065C51.5159 17.514 51.4263 17.7181 51.4263 17.8354C51.4263 17.9689 51.2511 18.4577 51.1691 18.5527C51.0824 18.6534 50.9836 18.9121 50.932 19.1733C50.8765 19.4543 50.7784 19.6993 50.679 19.8051C50.6097 19.8788 50.4826 20.2361 50.4826 20.357C50.4826 20.484 50.32 20.9138 50.2181 21.0561C50.1564 21.1423 50.075 21.3545 50.0253 21.559C49.9299 21.9518 49.8218 22.2499 49.7748 22.2501C49.7579 22.2502 49.744 22.3333 49.744 22.4347C49.744 22.5647 49.7879 22.7084 49.8927 22.9211C50.0625 23.2662 50.1375 23.362 50.2378 23.362C50.2767 23.362 50.3803 23.429 50.468 23.5109C50.557 23.5941 50.7176 23.6887 50.8319 23.7253C51.0259 23.7874 51.1729 23.8098 52.1443 23.9248C52.4459 23.9605 54.1655 23.9769 58.6352 23.9867L64.7157 24L64.986 23.8118C65.1626 23.6888 65.2641 23.5887 65.279 23.5226C65.2914 23.467 65.3277 23.3542 65.3597 23.2719C65.3916 23.1895 65.4177 23.0811 65.4177 23.0308C65.4177 22.9051 65.5401 22.5679 65.5857 22.5679C65.6061 22.5679 65.6229 22.5411 65.6229 22.5084C65.6229 22.4756 65.6398 22.4488 65.6605 22.4488C65.7067 22.4488 65.8065 22.1857 65.8713 21.893C65.9329 21.6143 66.0284 21.379 66.1214 21.2765C66.1616 21.2322 66.2261 21.1011 66.2648 20.9852C66.3144 20.8367 66.3775 20.7432 66.4784 20.6687L66.6217 20.5629L69.456 20.5515C71.0149 20.5453 72.3287 20.5493 72.3755 20.5605C72.4224 20.5717 72.5193 20.635 72.591 20.7012C72.7382 20.8374 72.7507 20.9296 72.6632 21.2344C72.6314 21.3455 72.5845 21.5242 72.559 21.6315C72.5335 21.7388 72.4491 21.9264 72.3714 22.0484C72.2936 22.1703 72.2117 22.3506 72.1893 22.4488C72.0564 23.0325 71.972 23.2826 71.908 23.2826C71.8885 23.2826 71.8307 23.3611 71.7797 23.4571C71.695 23.6164 71.6918 23.6444 71.7422 23.7794C71.775 23.8671 71.8361 23.9414 71.8927 23.9622C72.0216 24.0096 74.1165 24.0065 74.4198 23.9584C74.7283 23.9096 74.8025 23.8319 74.8787 23.4778C74.9189 23.2913 74.9864 23.1315 75.0815 22.9977C75.1599 22.8875 75.224 22.7638 75.224 22.7229C75.224 22.5709 75.4056 21.9071 75.4888 21.7548C75.5125 21.7116 75.5522 21.658 75.5773 21.6357C75.6222 21.5957 75.6367 21.5459 75.7843 20.9202C75.8256 20.7455 75.9008 20.5311 75.9514 20.4438C76.141 20.1169 76.2477 19.8094 76.2512 19.5797C76.2531 19.452 76.3903 19.0853 76.4824 18.9614C76.6409 18.7485 76.6808 18.5283 76.6778 17.8829C76.6756 17.3901 76.6615 17.2425 76.6069 17.142C76.5694 17.0731 76.5243 17.0105 76.5066 17.0031C76.47 16.9877 76.1677 16.5841 76.1677 16.5506C76.1677 16.5385 76.117 16.4785 76.0549 16.4171C75.9178 16.2817 75.7071 16.2015 75.3266 16.1401C74.8326 16.0603 74.5952 16.0139 74.3793 15.9549C74.069 15.8699 68.1721 15.8701 67.8627 15.955C67.7478 15.9865 67.5154 16.0326 67.3462 16.0574C67.1769 16.0822 66.9115 16.1279 66.7564 16.1589C66.6013 16.1899 66.4204 16.2154 66.3544 16.2154C66.2125 16.2154 66.0338 16.2989 65.8075 16.471C65.6389 16.5993 65.5069 16.6682 65.347 16.7115C65.2968 16.7251 65.214 16.793 65.1629 16.8624C65.0333 17.0385 64.9494 17.1145 64.8044 17.187C64.73 17.2242 64.6792 17.281 64.6792 17.3267C64.6792 17.3691 64.6532 17.4624 64.6216 17.5341C64.5899 17.6059 64.5409 17.74 64.5128 17.8322C64.4846 17.9245 64.4182 18.0314 64.3652 18.0699C64.3122 18.1085 64.2689 18.1711 64.2689 18.2091C64.2689 18.2472 64.2435 18.3457 64.2126 18.428C64.1816 18.5103 64.1334 18.676 64.1056 18.7961C64.0777 18.9162 63.983 19.1271 63.8952 19.2649C63.8073 19.4026 63.7355 19.544 63.7355 19.579C63.7355 19.6468 63.6408 19.9804 63.5454 20.2485C63.5137 20.3376 63.4529 20.4468 63.4102 20.4911C63.3235 20.5812 63.2303 20.8405 63.1562 21.1982C63.1218 21.3642 63.0591 21.4976 62.9493 21.6385C62.8627 21.7498 62.7918 21.8733 62.7918 21.913C62.7918 22.0403 62.6559 22.4074 62.5792 22.487C62.4062 22.6668 62.4427 22.6654 57.6834 22.6785C54.6027 22.687 53.1227 22.6776 53.0209 22.649C52.8756 22.6083 52.6572 22.3904 52.6572 22.2862C52.6572 22.1587 52.8119 21.7738 52.9328 21.6007C53.0069 21.4945 53.0675 21.3799 53.0675 21.3461C53.0675 21.2888 53.138 21.0269 53.2402 20.7044C53.264 20.6294 53.3267 20.5229 53.3795 20.4677C53.4755 20.3676 53.5744 20.1014 53.6214 19.8168C53.6546 19.6157 53.7928 19.3102 53.8903 19.2223C53.9337 19.1832 53.9793 19.1026 53.9917 19.0431C54.004 18.9837 54.0413 18.8547 54.0744 18.7564C54.1076 18.6581 54.1346 18.5458 54.1345 18.5066C54.1343 18.427 54.2677 18.158 54.3484 18.0756C54.3773 18.046 54.446 17.9325 54.5011 17.8233C54.6135 17.6003 54.6481 17.5598 54.788 17.4873C55.0876 17.3321 55.3071 17.3228 59.1589 17.3005L62.8911 17.279L63.0568 17.1541C63.148 17.0855 63.2582 17.0103 63.3016 16.9871C63.4053 16.9318 63.5354 16.5627 63.5352 16.3246C63.5351 16.2156 63.5043 16.0858 63.4623 16.0169L63.3895 15.8977L59.1825 15.9005C55.8536 15.9027 54.9369 15.914 54.7908 15.955ZM79.2773 16.0665C79.2263 16.1593 79.1567 16.3008 79.1225 16.381C79.0883 16.4611 79.0234 16.5683 78.9782 16.6192C78.8882 16.7205 78.7905 17.0067 78.7095 17.4065C78.677 17.5668 78.6029 17.7472 78.5138 17.8829C78.4136 18.0354 78.3491 18.203 78.2995 18.4388C78.2266 18.7856 78.1392 19.0192 78.0172 19.1931C77.9391 19.3044 77.8386 19.6104 77.7627 19.9673C77.7128 20.2025 77.6517 20.342 77.5074 20.5505C77.4236 20.6716 77.3178 21.0255 77.3171 21.1872C77.3165 21.3193 77.1191 21.7338 77.0433 21.7619C77.0131 21.7732 76.9884 21.8093 76.9884 21.8423C76.9884 21.8752 76.9614 21.985 76.9286 22.0862C76.8957 22.1874 76.8466 22.3774 76.8195 22.5084C76.7924 22.6394 76.7062 22.8509 76.628 22.9783C76.4968 23.192 76.4403 23.338 76.3866 23.6022C76.3738 23.6651 76.3999 23.7591 76.4556 23.8504L76.5452 23.9973H77.7149C78.8706 23.9973 78.8859 23.9962 78.9861 23.9079C79.3976 23.5454 79.3907 23.5578 79.5686 22.8526C79.6147 22.6697 79.7041 22.4457 79.7686 22.3515C79.835 22.2545 79.9169 22.0466 79.9589 21.8684C80.0871 21.3251 80.1404 21.1844 80.3091 20.9441C80.6081 20.5179 80.4595 20.543 82.6812 20.543C84.3457 20.543 84.617 20.5512 84.6611 20.6026C84.6892 20.6354 84.7297 20.6622 84.7511 20.6622C84.8001 20.6622 84.9073 20.764 84.9073 20.8105C84.9073 20.8298 84.9735 20.9516 85.0545 21.0814C85.2321 21.366 85.2925 21.53 85.3825 21.9724C85.4283 22.198 85.4817 22.3428 85.5434 22.4091C85.6723 22.5475 85.7501 22.74 85.8082 23.0642C85.8891 23.5157 85.959 23.6433 86.2279 23.8307L86.4667 23.9973H87.6314H88.7962L88.88 23.8246C88.9802 23.6184 88.9527 23.5058 88.7184 23.1625C88.6368 23.0429 88.5592 22.8915 88.5461 22.826C88.5329 22.7605 88.504 22.6143 88.4819 22.5011C88.4598 22.3879 88.422 22.2596 88.3978 22.2158C88.3736 22.1722 88.3539 22.0995 88.3539 22.0544C88.3539 22.0093 88.3354 21.9724 88.3128 21.9724C88.2903 21.9724 88.2718 21.9456 88.2718 21.9128C88.2718 21.8801 88.2569 21.8533 88.2386 21.8533C88.1821 21.8533 88.0794 21.5702 88.011 21.2251C87.9469 20.9018 87.9473 20.8922 88.0309 20.7829C88.1543 20.6213 88.2461 20.5936 88.7666 20.561C89.2406 20.5313 89.3222 20.5088 89.6873 20.3076C89.8002 20.2454 89.9691 20.1545 90.0627 20.1057C90.254 20.0059 90.3347 19.8538 90.4094 19.4523C90.4339 19.3207 90.5194 19.0889 90.5994 18.9372C90.7987 18.5592 90.8536 18.3021 90.8552 17.7389C90.8568 17.2198 90.8176 17.0645 90.6406 16.8899C90.3078 16.5616 89.9994 16.3044 89.8925 16.266C89.74 16.2112 89.2945 16.118 88.8872 16.0557C88.718 16.0298 88.4977 15.9837 88.3978 15.9532C88.247 15.9071 87.465 15.8977 83.793 15.8977H79.3698L79.2773 16.0665ZM95.8419 15.9574C95.7291 15.9867 95.4983 16.0313 95.3291 16.0565C95.0707 16.0951 94.52 16.1959 94.0981 16.2819C94.0417 16.2934 93.9586 16.3422 93.9135 16.3902C93.8088 16.5019 93.6265 16.6124 93.5472 16.6124C93.4453 16.6124 92.9481 17.092 92.817 17.3168C92.7496 17.4324 92.6623 17.549 92.6229 17.5759C92.5516 17.6246 92.5263 17.6866 92.3925 18.141C92.2802 18.5219 92.2425 18.6106 92.1427 18.7284C92.0431 18.8461 91.975 19.0467 91.9243 19.3718C91.8875 19.6077 91.7893 19.8374 91.6829 19.9359C91.6406 19.975 91.5829 20.1053 91.5546 20.2254C91.4146 20.8205 91.3221 21.0856 91.2157 21.1974C91.1745 21.2406 91.1307 21.321 91.1184 21.376C91.0872 21.5158 90.9855 21.8397 90.9062 22.0518C90.8282 22.2605 90.8327 22.7267 90.9143 22.8831C90.9435 22.9391 91.0002 23.0508 91.0403 23.1314C91.0908 23.2328 91.1604 23.2962 91.2663 23.3372C91.3504 23.3698 91.4667 23.451 91.5247 23.5176C91.7062 23.7264 91.9497 23.7855 93.1955 23.9229C93.7924 23.9886 99.145 24.0179 99.8629 23.9593C100.156 23.9354 100.635 23.8979 100.928 23.876C101.649 23.822 101.996 23.7472 102.207 23.6005C102.302 23.5348 102.397 23.4811 102.419 23.4811C102.441 23.4811 102.479 23.4573 102.504 23.4281C102.529 23.3989 102.633 23.3333 102.736 23.2822C102.896 23.2024 102.941 23.1503 103.059 22.9085C103.257 22.5003 103.342 22.3319 103.418 22.194C103.455 22.1267 103.517 21.9376 103.555 21.7739C103.661 21.3163 103.701 21.2064 103.801 21.0989C103.893 20.9998 104.028 20.6689 104.028 20.5405C104.028 20.4004 104.172 20.0399 104.302 19.8537C104.447 19.6479 104.474 19.4728 104.39 19.2942L104.343 19.1931H101.741C99.1692 19.1931 99.1372 19.1941 98.9268 19.2788C98.8098 19.3259 98.6914 19.3842 98.6638 19.4083C98.6361 19.4324 98.5644 19.6395 98.5044 19.8686C98.4444 20.0976 98.3668 20.3167 98.332 20.3554C98.1748 20.5305 98.4541 20.5788 99.6373 20.5812C100.458 20.5828 100.574 20.5911 100.684 20.6558C100.9 20.784 100.933 20.8946 100.843 21.1996C100.799 21.3498 100.716 21.5171 100.651 21.5878C100.588 21.6561 100.527 21.7572 100.514 21.8124C100.456 22.0631 100.321 22.3516 100.223 22.4329C100.165 22.4818 100.001 22.5596 99.8597 22.6058C99.6068 22.6884 99.5601 22.6895 96.8402 22.6785C94.7072 22.6698 94.0569 22.6558 93.987 22.617C93.9371 22.5895 93.8495 22.5075 93.7923 22.4349C93.6891 22.3039 93.6888 22.3014 93.7551 22.1079C93.7919 22.0006 93.8629 21.8592 93.9129 21.7937C94.0086 21.6684 94.0494 21.5607 94.1612 21.1386C94.2519 20.796 94.282 20.7261 94.3919 20.6038C94.481 20.5047 94.5618 20.2835 94.6171 19.9872C94.6525 19.7978 94.8624 19.3519 94.9162 19.3519C94.9402 19.3519 94.9598 19.3173 94.9598 19.2749C94.9598 19.2325 94.9782 19.1868 95.0008 19.1733C95.0234 19.1598 95.0418 19.0982 95.0418 19.0365C95.0418 18.8404 95.2545 18.2402 95.3241 18.2402C95.3587 18.2402 95.3843 18.1936 95.5575 17.815C95.6462 17.6209 95.701 17.5543 95.8147 17.502C96.2031 17.3237 96.2103 17.3234 100.396 17.3023C104.222 17.2831 104.383 17.2793 104.55 17.2054C104.646 17.1631 104.752 17.1285 104.786 17.1285C104.82 17.1285 104.848 17.1076 104.848 17.082C104.848 17.0565 104.875 17.0071 104.907 16.9723C104.94 16.9376 104.99 16.82 105.018 16.7111C105.046 16.6022 105.094 16.4849 105.123 16.4504C105.209 16.3499 105.188 16.1218 105.083 16.0032L104.989 15.8977L100.518 15.9009C96.9149 15.9035 96.0073 15.9145 95.8419 15.9574ZM72.9579 17.3847C73.37 17.482 73.4857 17.5699 73.6263 17.8922C73.7349 18.1412 73.7398 18.1752 73.6986 18.3884C73.614 18.8259 73.5134 18.9804 73.2341 19.1019C73.0825 19.1678 72.8643 19.1742 70.3824 19.1859C67.7413 19.1983 67.3872 19.1849 67.3872 19.0724C67.3872 19.0515 67.3641 19.0341 67.3359 19.034C67.2634 19.0336 67.182 18.8456 67.182 18.6784C67.182 18.4561 67.4064 17.924 67.501 17.922C67.5461 17.921 67.7974 17.6988 67.798 17.6593C67.799 17.5927 68.0898 17.4431 68.3016 17.4003C68.6934 17.321 69.4033 17.2964 71.0389 17.3054C72.4301 17.313 72.7019 17.3242 72.9579 17.3847ZM87.6153 17.3803C87.7548 17.4382 88.0256 17.6643 88.0256 17.7229C88.0256 17.7729 87.9386 18.0148 87.858 18.189C87.8154 18.2809 87.7637 18.4286 87.7431 18.5173C87.7225 18.606 87.6773 18.7205 87.6427 18.7717C87.5743 18.8727 87.3394 19.0042 87.1439 19.0509C87.0764 19.0671 87.0078 19.1012 86.9915 19.1268C86.9693 19.1616 86.2754 19.1733 84.2421 19.1733C81.5888 19.1733 81.5188 19.1713 81.3814 19.0932C81.2869 19.0394 81.215 18.9527 81.1625 18.8291L81.0845 18.6451L81.2316 18.4382C81.3125 18.3244 81.3786 18.2008 81.3786 18.1634C81.3786 18.056 81.5056 17.7241 81.5466 17.7241C81.5671 17.7241 81.5838 17.7018 81.5839 17.6745C81.5839 17.6282 81.8275 17.463 82.0146 17.3823C82.1036 17.3439 85.3722 17.2934 86.6716 17.3103C87.2722 17.3182 87.5075 17.3356 87.6153 17.3803ZM114.798 17.3636C115.118 17.428 115.388 17.5597 115.457 17.6844C115.664 18.0577 115.702 18.1801 115.652 18.3205C115.625 18.3964 115.6 18.5122 115.597 18.5777C115.59 18.7372 115.485 18.9026 115.295 19.0509L115.139 19.1733L112.406 19.186C110.902 19.193 109.615 19.1884 109.546 19.1759C109.477 19.1633 109.364 19.103 109.294 19.0417C109.123 18.8901 109.091 18.701 109.185 18.3906C109.249 18.1804 109.302 18.104 109.567 17.8444C109.736 17.6785 109.905 17.5203 109.942 17.493C110.009 17.4437 110.281 17.385 110.716 17.3263C111.093 17.2754 114.515 17.3066 114.798 17.3636Z" fill="#0061A1"/>
</svg>
