<svg width="44" height="24" viewBox="0 0 44 24" fill="none" xmlns="http://www.w3.org/2000/svg">
<g id="CCCargas">
<path id="Subtract" fill-rule="evenodd" clip-rule="evenodd" d="M3.99893 8.64731C3.12816 8.84548 2.58007 9.7021 2.77474 10.5606L5.49206 22.5442C5.68673 23.4027 6.55045 23.938 7.42122 23.7398L42.2558 15.812C43.1266 15.6138 43.6746 14.7572 43.48 13.8986L40.7626 1.91511C40.568 1.05659 39.7043 0.521278 38.8335 0.719454L3.99893 8.64731ZM37.5075 3.09993C38.4224 3.09993 39.1641 3.843 39.1641 4.75963C39.1641 5.67625 38.4224 6.41932 37.5075 6.41932C36.5925 6.41932 35.8508 5.67625 35.8508 4.75963C35.8508 3.843 36.5925 3.09993 37.5075 3.09993Z" fill="#792295"/>
<path id="Subtract (Stroke)" fill-rule="evenodd" clip-rule="evenodd" d="M4.09008 9.03525C3.43582 9.18415 3.02333 9.82884 3.1696 10.4739L5.88691 22.4574C6.03266 23.1002 6.67817 23.5002 7.33007 23.3519L42.1646 15.424C42.8189 15.2751 43.2314 14.6304 43.0851 13.9854L40.3678 2.00184C40.2221 1.35912 39.5765 0.959036 38.9246 1.1074L4.09008 9.03525ZM37.5075 2.70175C38.6526 2.70175 39.5687 3.62978 39.5687 4.75963C39.5687 5.88947 38.6526 6.8175 37.5075 6.8175C36.3623 6.8175 35.4462 5.88947 35.4462 4.75963C35.4462 3.62978 36.3623 2.70175 37.5075 2.70175ZM2.77474 10.5606C2.58007 9.7021 3.12816 8.84548 3.99893 8.64731L38.8335 0.719454C39.7043 0.521278 40.568 1.05659 40.7626 1.91511L43.48 13.8986C43.6746 14.7572 43.1266 15.6138 42.2558 15.812L7.42122 23.7398C6.55045 23.938 5.68673 23.4027 5.49206 22.5442L2.77474 10.5606ZM39.1641 4.75963C39.1641 3.843 38.4224 3.09993 37.5075 3.09993C36.5925 3.09993 35.8508 3.843 35.8508 4.75963C35.8508 5.67625 36.5925 6.41932 37.5075 6.41932C38.4224 6.41932 39.1641 5.67625 39.1641 4.75963Z" fill="#5A0E7B"/>
<g id="Vector">
<path d="M17.0507 16.7397C16.5343 17.4462 15.897 17.8857 15.1388 18.0582C14.0359 18.3091 13.0855 18.0776 12.2874 17.3636C11.6594 16.7964 11.2385 16.0409 11.0246 15.0972C10.7811 14.023 10.8681 13.039 11.2856 12.1452C11.7007 11.2762 12.3563 10.7398 13.2523 10.5359C14.0488 10.3547 14.8364 10.4538 15.6151 10.8334L15.3361 11.5746C14.7371 11.3478 14.181 11.2928 13.6678 11.4096C12.9709 11.5681 12.4885 11.9805 12.2207 12.6465C11.979 13.2502 11.9556 13.9817 12.1504 14.841C12.3435 15.6927 12.7242 16.3242 13.2926 16.7355C13.814 17.1171 14.4041 17.2329 15.0627 17.0831C15.5605 16.9698 16.0328 16.6728 16.4795 16.1919L17.0507 16.7397Z" fill="white"/>
<path fill-rule="evenodd" clip-rule="evenodd" d="M17.5826 16.6938L17.3791 16.9722C16.8137 17.7457 16.0968 18.2489 15.2299 18.4462C14.0054 18.7248 12.9172 18.4651 12.0152 17.6582L12.0138 17.6569C11.316 17.0266 10.8588 16.1946 10.6297 15.1839C10.3693 14.0353 10.4592 12.9612 10.918 11.9789L10.9195 11.9758C11.3836 11.0041 12.136 10.3812 13.1612 10.1479C14.0549 9.9446 14.9378 10.0589 15.7947 10.4766L16.121 10.6356L15.5732 12.091L15.1909 11.9463C14.6505 11.7417 14.1777 11.7023 13.759 11.7975C13.1944 11.926 12.8169 12.246 12.597 12.7927C12.3939 13.3002 12.362 13.9457 12.5453 14.7543C12.7227 15.537 13.0613 16.0739 13.5323 16.4146L13.534 16.4159C13.9559 16.7247 14.4233 16.8199 14.9716 16.6951C15.369 16.6047 15.7733 16.362 16.1809 15.9232L16.4627 15.6198L17.5826 16.6938ZM12.2207 12.6465C12.4885 11.9805 12.9709 11.5681 13.6678 11.4096C14.1534 11.2991 14.6774 11.3424 15.2399 11.5395C15.2719 11.5507 15.3039 11.5624 15.3361 11.5746L15.6151 10.8334C14.8364 10.4538 14.0488 10.3547 13.2523 10.5359C12.3563 10.7398 11.7007 11.2762 11.2856 12.1452C10.8681 13.039 10.7811 14.023 11.0246 15.0972C11.2385 16.0409 11.6594 16.7964 12.2874 17.3636C13.0855 18.0776 14.0359 18.3091 15.1388 18.0582C15.897 17.8857 16.5343 17.4462 17.0507 16.7397L16.4795 16.1919C16.4162 16.26 16.3524 16.3244 16.2881 16.3852C15.8985 16.7532 15.49 16.9859 15.0627 17.0831C14.4041 17.2329 13.814 17.1171 13.2926 16.7355C12.7242 16.3242 12.3435 15.6927 12.1504 14.841C11.9556 13.9817 11.979 13.2502 12.2207 12.6465Z" fill="white"/>
<path d="M25.7634 14.9783C25.2471 15.6848 24.6098 16.1243 23.8515 16.2968C22.7487 16.5478 21.7982 16.3162 21.0001 15.6022C20.3722 15.035 19.9513 14.2796 19.7373 13.3358C19.4938 12.2616 19.5808 11.2776 19.9983 10.3839C20.4134 9.51484 21.069 8.97839 21.9651 8.77451C22.7616 8.59328 23.5492 8.69245 24.3278 9.07201L24.0489 9.81324C23.4498 9.58646 22.8937 9.53144 22.3806 9.64819C21.6836 9.80677 21.2013 10.2191 20.9335 10.8852C20.6918 11.4888 20.6683 12.2203 20.8632 13.0797C21.0562 13.9313 21.437 14.5628 22.0054 14.9741C22.5268 15.3557 23.1168 15.4716 23.7755 15.3217C24.2733 15.2084 24.7455 14.9114 25.1922 14.4305L25.7634 14.9783Z" fill="white"/>
<path fill-rule="evenodd" clip-rule="evenodd" d="M26.2953 14.9325L26.0918 15.2108C25.5265 15.9844 24.8096 16.4875 23.9427 16.6848C22.7181 16.9634 21.6299 16.7037 20.728 15.8968L20.7265 15.8956C20.0287 15.2652 19.5716 14.4332 19.3425 13.4225C19.0821 12.2739 19.1719 11.1998 19.6308 10.2175L19.6322 10.2145C20.0963 9.24271 20.8488 8.61981 21.874 8.38656C22.7676 8.18322 23.6506 8.29753 24.5074 8.71519L24.8337 8.87425L24.286 10.3296L23.9037 10.1849C23.3633 9.98032 22.8904 9.94088 22.4717 10.0361C21.9071 10.1646 21.5297 10.4846 21.3098 11.0314C21.1067 11.5388 21.0747 12.1843 21.258 12.993C21.4354 13.7756 21.774 14.3125 22.245 14.6533L22.2468 14.6545C22.6686 14.9633 23.136 15.0585 23.6843 14.9338C24.0817 14.8433 24.486 14.6007 24.8937 14.1618L25.1755 13.8585L26.2953 14.9325ZM20.9335 10.8852C21.2013 10.2191 21.6836 9.80677 22.3806 9.64819C22.8661 9.53772 23.3902 9.58104 23.9527 9.77815C23.9846 9.78935 24.0167 9.80105 24.0489 9.81324L24.3278 9.07201C23.5492 8.69245 22.7616 8.59328 21.9651 8.77451C21.069 8.97839 20.4134 9.51484 19.9983 10.3839C19.5808 11.2776 19.4938 12.2616 19.7373 13.3358C19.9513 14.2796 20.3722 15.035 21.0001 15.6022C21.7982 16.3162 22.7487 16.5478 23.8515 16.2968C24.6098 16.1243 25.2471 15.6848 25.7634 14.9783L25.1922 14.4305C25.129 14.4986 25.0652 14.5631 25.0009 14.6238C24.6112 14.9918 24.2028 15.2245 23.7755 15.3217C23.1168 15.4716 22.5268 15.3557 22.0054 14.9741C21.437 14.5628 21.0562 13.9313 20.8632 13.0797C20.6683 12.2203 20.6918 11.4888 20.9335 10.8852Z" fill="white"/>
<path d="M34.6489 13.0282C34.1326 13.7347 33.4953 14.1742 32.7371 14.3467C31.6342 14.5977 30.6837 14.3661 29.8856 13.6521C29.2577 13.0849 28.8368 12.3295 28.6228 11.3857C28.3793 10.3115 28.4663 9.32756 28.8839 8.43377C29.2989 7.56475 29.9545 7.0283 30.8506 6.82442C31.6471 6.6432 32.4347 6.74237 33.2134 7.12193L32.9344 7.86315C32.3353 7.63637 31.7792 7.58136 31.2661 7.69811C30.5692 7.85668 30.0868 8.269 29.819 8.93507C29.5773 9.53872 29.5539 10.2702 29.7487 11.1296C29.9417 11.9813 30.3225 12.6127 30.8909 13.024C31.4123 13.4056 32.0023 13.5215 32.661 13.3716C33.1588 13.2584 33.6311 12.9613 34.0778 12.4804L34.6489 13.0282Z" fill="white"/>
<path fill-rule="evenodd" clip-rule="evenodd" d="M35.1808 12.9824L34.9774 13.2608C34.412 14.0343 33.6951 14.5374 32.8282 14.7347C31.6036 15.0133 30.5154 14.7537 29.6135 13.9468L29.6121 13.9455C28.9142 13.3152 28.4571 12.4831 28.228 11.4724C27.9676 10.3239 28.0574 9.24972 28.5163 8.26744L28.5177 8.26437C28.9819 7.29262 29.7343 6.66973 30.7595 6.43647C31.6531 6.23314 32.5361 6.34745 33.3929 6.76511L33.7192 6.92417L33.1715 8.37953L32.7892 8.23479C32.2488 8.03023 31.7759 7.9908 31.3572 8.08606C30.7926 8.21452 30.4152 8.53455 30.1953 9.08128C29.9922 9.58874 29.9602 10.2342 30.1435 11.0429C30.321 11.8255 30.6596 12.3624 31.1305 12.7032L31.1323 12.7045C31.5541 13.0132 32.0215 13.1084 32.5699 12.9837C32.9672 12.8933 33.3715 12.6506 33.7792 12.2118L34.061 11.9084L35.1808 12.9824ZM29.819 8.93507C30.0868 8.269 30.5692 7.85668 31.2661 7.69811C31.7517 7.58763 32.2757 7.63095 32.8382 7.82807C32.8701 7.83927 32.9022 7.85096 32.9344 7.86315L33.2134 7.12193C32.4347 6.74237 31.6471 6.6432 30.8506 6.82442C29.9545 7.0283 29.2989 7.56475 28.8839 8.43377C28.4663 9.32756 28.3793 10.3115 28.6228 11.3857C28.8368 12.3295 29.2577 13.0849 29.8856 13.6521C30.6837 14.3661 31.6342 14.5977 32.7371 14.3467C33.4953 14.1742 34.1326 13.7347 34.6489 13.0282L34.0778 12.4804C34.0145 12.5485 33.9507 12.613 33.8864 12.6737C33.4968 13.0418 33.0883 13.2744 32.661 13.3716C32.0023 13.5215 31.4123 13.4056 30.8909 13.024C30.3225 12.6127 29.9417 11.9813 29.7487 11.1296C29.5539 10.2702 29.5773 9.53872 29.819 8.93507Z" fill="white"/>
</g>
<path id="Arrow 3" d="M5.37568 2.74854C9.04436 4.84641 12.713 5.37089 15.8314 5.37089C12.713 7.46876 10.6952 9.04141 8.67739 12.5379L8.49401 9.04141C5.901 10.9398 2.78262 11.8139 9.04426 17.7826L8.49401 18.8318C-0.519055 15.3104 -2.72027 10.0656 7.57638 5.89492L5.37568 2.74854Z" fill="url(#paint0_linear_1796_1980)"/>
<path id="Vector (Stroke)" fill-rule="evenodd" clip-rule="evenodd" d="M27.939 15.8561L25.8883 7.07857L26.5008 6.93994L28.5516 15.7175L27.939 15.8561ZM18.7628 17.6501L16.712 8.8724L17.3246 8.73378L19.3754 17.5114L18.7628 17.6501Z" fill="white"/>
</g>
<defs>
<linearGradient id="paint0_linear_1796_1980" x1="8.65343" y1="11.4658" x2="11.0175" y2="17.4898" gradientUnits="userSpaceOnUse">
<stop stop-color="#8BE000"/>
<stop offset="1" stop-color="#8BE000" stop-opacity="0"/>
</linearGradient>
</defs>
</svg>
