<svg width="118" height="24" viewBox="0 0 118 24" fill="none" xmlns="http://www.w3.org/2000/svg">
<path fill-rule="evenodd" clip-rule="evenodd" d="M19.6207 23.5814H24.0968L24.0999 18.314C24.103 13.3197 24.1183 13.0141 24.3967 12.4211C24.9618 11.2171 25.8586 10.6038 27.2072 10.4993C28.3277 10.4124 28.9501 10.6084 29.7714 11.3069C30.8926 12.2608 30.8967 12.2856 30.8866 18.2968L30.8776 23.5814H35.5287L35.4686 17.9651C35.4165 13.0993 35.3746 12.2463 35.1549 11.5814C34.2207 8.75512 31.9109 6.76605 28.8909 6.18726C27.8652 5.99065 27.5473 5.98284 26.6802 6.13256C26.1233 6.2287 25.3141 6.47972 24.8821 6.69028L24.0968 7.07316V0H19.6207V23.5814ZM75.7884 23.5814H80.2644V21.4538L83.4872 17.3019L83.7239 17.6859C83.854 17.897 84.6721 19.3091 85.5417 20.8239L87.123 23.5779L89.6859 23.5797C91.0956 23.5806 92.2488 23.5566 92.2488 23.5261C92.2488 23.4805 89.4335 18.6614 87.0304 14.5934C86.7169 14.0627 86.4901 13.5604 86.5262 13.4771C86.5624 13.3938 87.1905 12.6035 87.922 11.7209C90.1241 9.06419 91.8766 6.93293 92.0765 6.66823C92.2559 6.43088 92.1383 6.4186 89.6941 6.41888L87.123 6.4193L80.3366 14.7204L80.2618 0H75.7884V23.5814ZM44.8889 5.92842C43.0313 6.34702 41.8307 6.98986 40.4687 8.29507C38.6797 10.0093 37.8114 12.1677 37.8163 14.888C37.8207 17.3008 38.5041 19.301 39.8672 20.8903C42.4434 23.8942 47.2806 24.7331 50.7728 22.7816L51.3865 22.4386V23.5814H55.8625V6.4186H51.3865V7.09814L50.1952 6.56079C48.3676 5.73642 46.6499 5.53172 44.8889 5.92842ZM7.34755 6.26902C3.0635 7.58288 0.293668 11.908 0.868195 16.3873C1.32707 19.9647 4.09358 22.9748 7.67185 23.7901C8.83938 24.0561 10.7787 24.0529 11.968 23.7827C13.8006 23.3665 15.9467 22.0536 16.8927 20.7698L17.2056 20.345L13.9491 17.189L13.487 17.8387C11.8938 20.0791 8.45458 20.2944 6.56409 18.2721C5.66411 17.3094 5.39799 16.5932 5.40016 15.1395C5.40175 14.0284 5.45315 13.7792 5.84647 12.9767C6.88333 10.8614 8.95894 9.9067 11.1701 10.5278C11.845 10.7174 12.178 10.9247 12.8488 11.573C13.3091 12.0179 13.7286 12.547 13.781 12.749C13.8335 12.9509 13.9221 13.1163 13.9778 13.1163C14.0335 13.1163 14.7975 12.4094 15.6755 11.5453C17.5081 9.74177 17.4795 9.9487 16.0932 8.52949C15.0955 7.50781 13.8721 6.76214 12.5134 6.3473C11.0859 5.91167 8.6342 5.87442 7.34755 6.26902ZM58.4616 10.7396L65.9334 10.814L64.246 13.6744C62.8783 15.9924 58.7375 23.0607 58.5034 23.4767C58.4711 23.5344 61.7622 23.5814 65.8169 23.5814H73.1893V19.2558H69.5074C67.4823 19.2558 65.8254 19.2159 65.8254 19.1671C65.8254 19.0891 67.5649 16.0934 71.5268 9.34884C72.1805 8.23605 72.8236 7.12144 72.956 6.87209L73.1967 6.4186H58.4616V10.7396ZM48.5914 10.5509C49.5116 10.9705 50.4267 11.9118 50.926 12.9523C51.4712 14.0881 51.4652 15.6483 50.9113 16.7562C50.4276 17.7237 49.5591 18.5944 48.5896 19.084C47.9786 19.3926 47.6593 19.4581 46.766 19.4587C44.8956 19.4598 43.5605 18.6279 42.7736 16.9711C42.42 16.2265 42.3673 15.9451 42.3648 14.7878C42.3624 13.5643 42.3998 13.3853 42.8379 12.5254C43.9359 10.3698 46.3659 9.53595 48.5914 10.5509ZM94.3786 15.5827C94.1454 15.6433 94.1259 15.9553 94.1259 19.6148V23.5814H98.7508L98.6741 15.5581L96.6527 15.5376C95.5409 15.5263 94.5174 15.5466 94.3786 15.5827ZM115.254 20.1571C114.012 20.6791 113.914 22.4667 115.09 23.1592C116.7 24.1081 118.495 22.3736 117.513 20.8172C117.228 20.3643 116.479 19.9482 115.969 19.9589C115.828 19.962 115.506 20.0512 115.254 20.1571ZM117.12 20.788C118.354 22.1106 116.428 23.9713 115.06 22.7791C114.477 22.2712 114.366 21.5812 114.768 20.9602C115.32 20.1075 116.411 20.0276 117.12 20.788ZM115.496 21.7673C115.496 22.301 115.55 22.5887 115.64 22.5349C115.719 22.4874 115.784 22.3268 115.784 22.1778C115.784 21.7963 116.048 21.8411 116.244 22.2558C116.334 22.4477 116.463 22.6047 116.53 22.6047C116.687 22.6047 116.68 22.4471 116.512 22.1908C116.428 22.0621 116.433 21.9223 116.526 21.8147C116.607 21.7204 116.652 21.4986 116.626 21.3216C116.587 21.0607 116.476 20.9918 116.037 20.9567L115.496 20.9133V21.7673ZM116.29 21.4186C116.29 21.57 116.176 21.715 116.037 21.7409C115.848 21.7761 115.784 21.6952 115.784 21.4186C115.784 21.142 115.848 21.0611 116.037 21.0963C116.176 21.1222 116.29 21.2672 116.29 21.4186Z" fill="#2A7DE3"/>
<path d="M99.6126 6.69767C99.6126 8.39306 98.1904 9.76744 96.436 9.76744C94.6817 9.76744 93.2595 8.39306 93.2595 6.69767C93.2595 5.00229 94.6817 3.62791 96.436 3.62791C98.1904 3.62791 99.6126 5.00229 99.6126 6.69767Z" fill="#39D42C"/>
<path d="M104.955 20.7907C110.557 15.3209 107.289 9.16279 104.955 6.76744L108.204 3.48837C116.174 12.307 111.525 20.8372 108.204 24L104.955 20.7907Z" fill="#39D42C"/>
</svg>
