<svg width="63" height="28" viewBox="0 0 63 28" fill="none" xmlns="http://www.w3.org/2000/svg">
<g id="HOP logo">
<g id="Group 2526">
<path id="Ellipse 400 (Stroke)" fill-rule="evenodd" clip-rule="evenodd" d="M47.317 16.9873C47.317 22.8824 42.514 27.6612 36.5892 27.6612C30.6644 27.6612 25.8613 22.8824 25.8613 16.9873C25.8613 11.0923 30.6644 6.31348 36.5892 6.31348C42.514 6.31348 47.317 11.0923 47.317 16.9873ZM36.5892 25.9534C41.566 25.9534 45.6006 21.9392 45.6006 16.9873C45.6006 12.0355 41.566 8.0213 36.5892 8.0213C31.6123 8.0213 27.5778 12.0355 27.5778 16.9873C27.5778 21.9392 31.6123 25.9534 36.5892 25.9534Z" fill="#00ACB6"/>
<path id="Ellipse 400 (Stroke)_2" fill-rule="evenodd" clip-rule="evenodd" d="M42.1647 11.0094C42.1647 16.9045 37.3617 21.6833 31.4368 21.6833C25.512 21.6833 20.709 16.9045 20.709 11.0094C20.709 5.11443 25.512 0.335571 31.4368 0.335571C37.3617 0.335571 42.1647 5.11443 42.1647 11.0094Z" fill="#00ACB6"/>
<path id="Vector 44 (Stroke)" fill-rule="evenodd" clip-rule="evenodd" d="M45.5977 27.4477V6.31348H55.2527C56.4842 6.31348 58.2709 6.69434 59.7911 7.86713C61.3903 9.10092 62.5477 11.1026 62.5477 13.9987C62.5477 16.8978 61.3835 18.866 59.7221 20.0206C58.1902 21.0852 56.4146 21.336 55.1923 21.2569H54.8236V27.4477H45.5977ZM53.1072 19.5491H55.2527C57.1122 19.6914 60.8312 18.7806 60.8312 13.9987C60.8312 9.21677 57.1122 8.0213 55.2527 8.0213H47.3141V25.7399H53.1072V19.5491Z" fill="#00ACB6"/>
<path id="Vector 44 (Stroke)_2" fill-rule="evenodd" clip-rule="evenodd" d="M39.5879 21.4698V0.335571H49.243C50.4744 0.335571 52.2611 0.716435 53.7813 1.88923C55.3805 3.12302 58.0398 5.67251 59.9708 8.02076C59.9708 10.9199 55.3738 12.8881 53.7124 14.0427C52.1804 15.1073 50.4049 15.3581 49.1826 15.279H48.8138V21.4698H39.5879Z" fill="#00ACB6"/>
<path id="Vector 43" d="M47.3125 8.02234V25.741H53.1055V19.5501H55.2511C57.1106 19.6924 60.8296 18.7816 60.8296 13.9997C60.8296 9.21781 57.1106 8.02234 55.2511 8.02234H47.3125Z" fill="white"/>
<ellipse id="Ellipse 399" cx="36.5876" cy="16.9884" rx="9.01139" ry="8.96605" fill="white"/>
<path id="Rectangle 2259" d="M0.541016 0.335571L20.9239 0.335571L27.5752 6.95337V27.2337H5.90494L0.541016 21.8968V0.335571Z" fill="#00ACB6"/>
<g id="Vector">
<path d="M7.10729 8.16577H14.0589V25.8897H7.10729V8.16577Z" fill="white"/>
<path d="M19.2727 8.16577H26.2243V25.8897H19.2727V8.16577Z" fill="white"/>
<path d="M14.0589 14.2179H19.7072V20.2699H14.0589V14.2179Z" fill="white"/>
<path d="M1.89355 1.6814H8.62796L13.4072 6.43661H6.67281L1.89355 1.6814Z" fill="white"/>
<path d="M14.0589 1.6814H20.7933L25.5726 6.43661H18.8382L14.0589 1.6814Z" fill="white"/>
</g>
<path id="Vector_2" d="M36.5845 12.2914C37.8364 12.2914 39.037 12.7732 39.9222 13.6308C40.8075 14.4884 41.3048 15.6516 41.3048 16.8645C41.3048 18.4264 40.4258 19.7049 39.4995 20.622C39.0367 21.0752 38.5318 21.4861 37.9911 21.8496L37.7677 21.997L37.6628 22.0646L37.4651 22.1865L37.2889 22.2907L37.0707 22.4136C36.9225 22.4953 36.755 22.5383 36.5845 22.5383C36.414 22.5383 36.2465 22.4953 36.0983 22.4136L35.8801 22.2907L35.6074 22.1281L35.5067 22.0646L35.2917 21.9258C34.7085 21.5434 34.1652 21.1067 33.6695 20.622C32.7433 19.7038 31.8643 18.4264 31.8643 16.8645C31.8643 15.6516 32.3616 14.4884 33.2468 13.6308C34.132 12.7732 35.3326 12.2914 36.5845 12.2914ZM36.5845 15.3401C36.3779 15.3401 36.1733 15.3795 35.9824 15.4561C35.7915 15.5327 35.618 15.645 35.4719 15.7866C35.3258 15.9281 35.2099 16.0962 35.1309 16.2811C35.0518 16.4661 35.0111 16.6643 35.0111 16.8645C35.0111 17.0646 35.0518 17.2629 35.1309 17.4478C35.2099 17.6328 35.3258 17.8008 35.4719 17.9423C35.618 18.0839 35.7915 18.1962 35.9824 18.2728C36.1733 18.3494 36.3779 18.3888 36.5845 18.3888C37.0018 18.3888 37.402 18.2282 37.6971 17.9423C37.9922 17.6565 38.1579 17.2687 38.1579 16.8645C38.1579 16.4602 37.9922 16.0724 37.6971 15.7866C37.402 15.5007 37.0018 15.3401 36.5845 15.3401Z" fill="#E53A16"/>
</g>
</g>
</svg>
