<svg width="172" height="35" viewBox="0 0 172 35" fill="none" xmlns="http://www.w3.org/2000/svg">
<path d="M15.3913 9.50807L22.3857 21.2043L10.7278 33.3182L10.6677 33.5134C10.5949 33.7491 10.6042 34.0025 10.6939 34.2322C10.7216 34.3031 10.7564 34.3704 10.7976 34.4332L11.148 34.7704C11.1527 34.7732 11.1573 34.7759 11.162 34.7786C11.3753 34.9027 11.6244 34.9509 11.8686 34.9153C12.1128 34.8798 12.3378 34.7627 12.5069 34.583L29.9813 16.0292C30.1276 15.8741 30.2253 15.6796 30.2623 15.4697C30.2992 15.2597 30.2739 15.0436 30.1893 14.8479C30.1048 14.6522 29.9647 14.4855 29.7865 14.3685C29.6082 14.2514 29.3995 14.1891 29.1862 14.1891H21.9278L25.8617 1.41542C25.9346 1.17946 25.9252 0.925783 25.8352 0.69583C25.7451 0.465878 25.5797 0.273243 25.3659 0.149394V0.147212C25.1526 0.023665 24.9038 -0.024163 24.66 0.011504L24.6523 0.0126537L23.9255 0.446648L15.3913 9.50807Z" fill="url(#paint0_linear_1230_17688)"/>
<path d="M11.9488 29.3513C11.9943 29.3301 12.0364 29.3007 12.0738 29.262L19.4586 21.2872C19.7517 20.9838 19.7451 20.4968 19.4416 20.2039L14.6723 11.9654C14.3687 11.6725 13.8813 11.6791 13.5882 11.9824L9.87476 15.7823L11.753 19.1351L10.0432 20.7379H14.601L11.9488 29.3513Z" fill="url(#paint1_linear_1230_17688)"/>
<path d="M9.81201 20.7379L8.01332 17.5271L6.26629 19.4587C6.22967 19.6682 6.2551 19.8838 6.33948 20.0791C6.42404 20.2748 6.56409 20.4415 6.74235 20.5585C6.92061 20.6756 7.12928 20.738 7.34259 20.7379H9.81201Z" fill="url(#paint2_linear_1230_17688)"/>
<path d="M43.5068 23.7593V9.40381H50.0457C52.9831 9.40381 54.4519 10.6872 54.4519 13.2541C54.4519 14.9898 53.3084 16.4274 51.0215 17.5667L55.5786 23.7794H52.2186L47.8426 17.5165V16.3001C50.3911 15.8644 51.6653 14.8759 51.6653 13.3345C51.6653 12.2756 51.0684 11.7461 49.8747 11.7461H46.223V23.7593H43.5068Z" fill="black"/>
<path d="M55.6796 20.4921C55.6796 18.3944 57.2086 17.3456 60.2668 17.3456C60.9844 17.3456 61.702 17.4126 62.4196 17.5466V16.7524C62.4196 15.8075 61.7389 15.335 60.3775 15.335C59.224 15.335 57.943 15.5025 56.5346 15.8376V13.7265C57.943 13.3914 59.224 13.2239 60.3775 13.2239C63.5161 13.2239 65.0854 14.3833 65.0854 16.7022V23.7794H63.5362L62.5906 22.8344C61.6718 23.4644 60.6591 23.7794 59.5526 23.7794C56.9706 23.7794 55.6796 22.6836 55.6796 20.4921ZM62.4196 19.3561C61.749 19.2221 61.0314 19.1551 60.2668 19.1551C58.9859 19.1551 58.3454 19.5907 58.3454 20.4619C58.3454 21.4002 58.8819 21.8693 59.955 21.8693C60.8402 21.8693 61.6618 21.5946 62.4196 21.045V19.3561Z" fill="black"/>
<path d="M65.9409 13.2239H68.7677L71.4336 20.8238L74.039 13.2239H76.8155L72.4295 24.091C71.6515 26.0078 70.4075 27.3716 68.6973 28.1825L67.4097 26.363C68.59 25.8469 69.4484 25.0058 69.985 23.8397L65.9409 13.2239Z" fill="black"/>
<path d="M79.8339 18.4614C79.8339 20.6664 80.689 21.7688 82.3991 21.7688C84.1093 21.7688 84.9644 20.6664 84.9644 18.4614C84.9644 16.3101 84.1093 15.2345 82.3991 15.2345C80.689 15.2345 79.8339 16.3101 79.8339 18.4614ZM77.168 18.5016C77.168 14.963 78.9117 13.1937 82.3991 13.1937C85.8865 13.1937 87.6302 14.963 87.6302 18.5016C87.6302 22.0335 85.8865 23.7995 82.3991 23.7995C78.9251 23.7995 77.1814 22.0335 77.168 18.5016Z" fill="black"/>
<path d="M97.8014 13.2239C101.007 13.2239 102.61 14.8592 102.61 18.1297C102.61 18.5653 102.58 19.0009 102.519 19.4366H95.5078C95.5078 20.9244 96.601 21.6683 98.7873 21.6683C99.8536 21.6683 100.92 21.5678 101.986 21.3667V23.4778C101.054 23.6789 99.9207 23.7794 98.5861 23.7794C94.7567 23.7794 92.842 21.9799 92.842 18.381C92.842 14.9429 94.4951 13.2239 97.8014 13.2239ZM95.5078 17.5868H100.015V17.5064C100.015 16.0454 99.2769 15.3149 97.8014 15.3149C96.3931 15.3149 95.6285 16.0722 95.5078 17.5868Z" fill="black"/>
<path d="M104.2 23.7794V13.2239H106.262L106.594 14.772C107.607 13.7399 108.76 13.2239 110.055 13.2239C112.556 13.2239 113.807 14.5241 113.807 17.1244V23.7794H111.141V17.1244C111.141 15.9583 110.561 15.3752 109.401 15.3752C108.536 15.3752 107.691 15.7203 106.866 16.4106V23.7794H104.2Z" fill="black"/>
<path d="M115.769 11.5149H117.741L118.143 13.2239H120.799V15.335H118.435V20.1905C118.435 21.1757 118.861 21.6683 119.712 21.6683H120.799V23.7794H118.425C116.654 23.7794 115.769 22.8311 115.769 20.9344V11.5149Z" fill="black"/>
<path d="M122.208 23.7794V13.2239H124.27L124.602 14.571C125.527 13.6729 126.507 13.2239 127.539 13.2239V15.3752C126.547 15.3752 125.658 15.7874 124.873 16.6117V23.7794H122.208Z" fill="black"/>
<path d="M133.093 13.2239C136.298 13.2239 137.901 14.8592 137.901 18.1297C137.901 18.5653 137.871 19.0009 137.811 19.4366H130.799C130.799 20.9244 131.892 21.6683 134.079 21.6683C135.145 21.6683 136.211 21.5678 137.278 21.3667V23.4778C136.345 23.6789 135.212 23.7794 133.877 23.7794C130.048 23.7794 128.133 21.9799 128.133 18.381C128.133 14.9429 129.786 13.2239 133.093 13.2239ZM130.799 17.5868H135.306V17.5064C135.306 16.0454 134.568 15.3149 133.093 15.3149C131.684 15.3149 130.92 16.0722 130.799 17.5868Z" fill="black"/>
<path d="M146.251 15.6165C145.815 15.4556 145.195 15.3752 144.39 15.3752C142.546 15.3752 141.624 16.3905 141.624 18.4212C141.624 20.3849 142.419 21.3667 144.008 21.3667C144.773 21.3667 145.52 21.1857 146.251 20.8238V15.6165ZM148.917 22.9752C148.917 26.058 147.063 27.5995 143.354 27.5995C142.053 27.5995 140.9 27.4319 139.894 27.0968V24.9857C140.92 25.3208 142.08 25.4884 143.374 25.4884C145.292 25.4884 146.251 24.6841 146.251 23.0757C145.46 23.4108 144.608 23.5783 143.696 23.5783C140.557 23.5783 138.988 21.866 138.988 18.4413C138.988 14.963 140.816 13.2239 144.471 13.2239C145.698 13.2239 147.18 13.368 148.917 13.6562V22.9752Z" fill="black"/>
<path d="M150.527 20.4921C150.527 18.3944 152.056 17.3456 155.114 17.3456C155.832 17.3456 156.55 17.4126 157.267 17.5466V16.7524C157.267 15.8075 156.586 15.335 155.225 15.335C154.072 15.335 152.791 15.5025 151.382 15.8376V13.7265C152.791 13.3914 154.072 13.2239 155.225 13.2239C158.364 13.2239 159.933 14.3833 159.933 16.7022V23.7794H158.384L157.438 22.8344C156.519 23.4644 155.507 23.7794 154.4 23.7794C151.818 23.7794 150.527 22.6836 150.527 20.4921ZM157.267 19.3561C156.597 19.2221 155.879 19.1551 155.114 19.1551C153.833 19.1551 153.193 19.5907 153.193 20.4619C153.193 21.4002 153.729 21.8693 154.803 21.8693C155.688 21.8693 156.509 21.5946 157.267 21.045V19.3561Z" fill="black"/>
<path d="M162.046 23.2767V21.0651C163.22 21.5342 164.574 21.7688 166.11 21.7688C167.257 21.7688 167.83 21.4002 167.83 20.663C167.83 19.9593 167.445 19.6075 166.673 19.6075H164.762C162.616 19.6075 161.543 18.5519 161.543 16.4408C161.543 14.2292 163.109 13.1234 166.241 13.1234C167.569 13.1234 168.82 13.3244 169.993 13.7265V15.9382C168.82 15.469 167.545 15.2345 166.17 15.2345C164.729 15.2345 164.008 15.6031 164.008 16.3403C164.008 17.044 164.427 17.3958 165.265 17.3958H166.975C169.323 17.3958 170.496 18.4514 170.496 20.5625C170.496 22.7741 169.001 23.8799 166.009 23.8799C164.541 23.8799 163.22 23.6789 162.046 23.2767Z" fill="black"/>
<defs>
<linearGradient id="paint0_linear_1230_17688" x1="20.449" y1="0" x2="20.449" y2="34.9267" gradientUnits="userSpaceOnUse">
<stop stop-color="#2A84A6"/>
<stop offset="1" stop-color="#1D5E77"/>
</linearGradient>
<linearGradient id="paint1_linear_1230_17688" x1="12.962" y1="11.7502" x2="12.962" y2="29.3513" gradientUnits="userSpaceOnUse">
<stop stop-color="#0015CE"/>
<stop offset="1" stop-color="#05138A"/>
</linearGradient>
<linearGradient id="paint2_linear_1230_17688" x1="12.962" y1="11.7502" x2="12.962" y2="29.3513" gradientUnits="userSpaceOnUse">
<stop stop-color="#0015CE"/>
<stop offset="1" stop-color="#05138A"/>
</linearGradient>
</defs>
</svg>
