<svg width="21" height="20" viewBox="0 0 21 20" fill="none" xmlns="http://www.w3.org/2000/svg">
<mask id="path-1-inside-1_1915_217" fill="white">
<path fill-rule="evenodd" clip-rule="evenodd" d="M3.52173 5.76721C2.829 5.9274 2.39297 6.6198 2.54784 7.31374L4.70955 17C4.86442 17.6939 5.55154 18.1266 6.24427 17.9664L19.9296 14.8019C20.6223 14.6417 21.0583 13.9493 20.9035 13.2553L18.7417 3.56911C18.5869 2.87517 17.8998 2.44248 17.207 2.60266L3.52173 5.76721ZM16.1789 4.28332C16.9067 4.28332 17.4968 4.88394 17.4968 5.62484C17.4968 6.36575 16.9067 6.96636 16.1789 6.96636C15.451 6.96636 14.8609 6.36575 14.8609 5.62484C14.8609 4.88394 15.451 4.28332 16.1789 4.28332Z"/>
</mask>
<path fill-rule="evenodd" clip-rule="evenodd" d="M3.52173 5.76721C2.829 5.9274 2.39297 6.6198 2.54784 7.31374L4.70955 17C4.86442 17.6939 5.55154 18.1266 6.24427 17.9664L19.9296 14.8019C20.6223 14.6417 21.0583 13.9493 20.9035 13.2553L18.7417 3.56911C18.5869 2.87517 17.8998 2.44248 17.207 2.60266L3.52173 5.76721ZM16.1789 4.28332C16.9067 4.28332 17.4968 4.88394 17.4968 5.62484C17.4968 6.36575 16.9067 6.96636 16.1789 6.96636C15.451 6.96636 14.8609 6.36575 14.8609 5.62484C14.8609 4.88394 15.451 4.28332 16.1789 4.28332Z" fill="#792295"/>
<path d="M2.54784 7.31374L2.86196 7.24363H2.86196L2.54784 7.31374ZM3.52173 5.76721L3.44922 5.45364L3.52173 5.76721ZM4.70955 17L4.39543 17.0701L4.70955 17ZM6.24427 17.9664L6.17176 17.6528L6.24427 17.9664ZM19.9296 14.8019L20.0021 15.1154L19.9296 14.8019ZM20.9035 13.2553L21.2176 13.1852V13.1852L20.9035 13.2553ZM18.7417 3.56911L18.4276 3.63921V3.63921L18.7417 3.56911ZM17.207 2.60266L17.2795 2.91624L17.207 2.60266ZM2.86196 7.24363C2.7456 6.72224 3.07375 6.20114 3.59424 6.08079L3.44922 5.45364C2.58424 5.65365 2.04034 6.51736 2.23372 7.38384L2.86196 7.24363ZM5.02368 16.9299L2.86196 7.24363L2.23372 7.38384L4.39543 17.0701L5.02368 16.9299ZM6.17176 17.6528C5.65315 17.7728 5.13962 17.4494 5.02368 16.9299L4.39543 17.0701C4.58923 17.9384 5.44992 18.4804 6.31678 18.28L6.17176 17.6528ZM19.8571 14.4883L6.17176 17.6528L6.31678 18.28L20.0021 15.1154L19.8571 14.4883ZM20.5893 13.3254C20.7057 13.8468 20.3776 14.3679 19.8571 14.4883L20.0021 15.1154C20.8671 14.9154 21.411 14.0517 21.2176 13.1852L20.5893 13.3254ZM18.4276 3.63921L20.5893 13.3254L21.2176 13.1852L19.0559 3.49901L18.4276 3.63921ZM17.2795 2.91624C17.7982 2.79632 18.3117 3.1197 18.4276 3.63921L19.0559 3.49901C18.8621 2.63064 18.0014 2.08864 17.1345 2.28909L17.2795 2.91624ZM3.59424 6.08079L17.2795 2.91624L17.1345 2.28909L3.44922 5.45364L3.59424 6.08079ZM17.8186 5.62484C17.8186 4.7116 17.0899 3.96147 16.1789 3.96147V4.60517C16.7236 4.60517 17.1749 5.05628 17.1749 5.62484H17.8186ZM16.1789 7.28821C17.0899 7.28821 17.8186 6.53809 17.8186 5.62484H17.1749C17.1749 6.1934 16.7236 6.64452 16.1789 6.64452V7.28821ZM14.5391 5.62484C14.5391 6.53809 15.2679 7.28821 16.1789 7.28821V6.64452C15.6341 6.64452 15.1828 6.1934 15.1828 5.62484H14.5391ZM16.1789 3.96147C15.2679 3.96147 14.5391 4.7116 14.5391 5.62484H15.1828C15.1828 5.05629 15.6341 4.60517 16.1789 4.60517V3.96147Z" fill="white" mask="url(#path-1-inside-1_1915_217)"/>
<path d="M14.0351 12.4031L14.116 12.2906L14.0167 12.1939L13.5623 11.7511L13.4434 11.6352L13.3313 11.7578C12.9914 12.1295 12.6428 12.3476 12.2867 12.4299C11.8066 12.5409 11.386 12.4556 11.0108 12.1766L11.0101 12.1761C10.5967 11.8721 10.3105 11.4 10.1632 10.7394C10.0128 10.0653 10.0348 9.5088 10.2117 9.05975C10.4057 8.5696 10.7477 8.27363 11.2495 8.15763C11.6202 8.07194 12.0295 8.11011 12.4827 8.28444L12.6348 8.34293L12.6914 8.19014L12.9133 7.59101L12.9636 7.45519L12.8338 7.3909C12.1832 7.06871 11.5188 6.98243 10.8465 7.13785C10.0823 7.31452 9.52221 7.78307 9.17248 8.52701L9.17247 8.52701L9.1719 8.52825C8.8233 9.28645 8.75297 10.1182 8.9534 11.0166C9.12963 11.8065 9.4789 12.448 10.0062 12.932L10.0068 12.9325C10.683 13.5472 11.4939 13.7457 12.4197 13.5317C13.0661 13.3823 13.6048 13.0013 14.0351 12.4031Z" fill="white" stroke="white" stroke-width="0.321849"/>
<path d="M4.61669 1C7.53524 2.6957 10.4538 3.11964 12.9346 3.11964C10.4538 4.81534 8.84851 6.0865 7.24331 8.91267L7.09742 6.0865C5.03459 7.62094 2.55382 8.32749 7.53517 13.1519L7.09742 14C-0.0727717 11.1537 -1.82391 6.91439 6.36741 3.54321L4.61669 1Z" fill="url(#paint0_linear_1915_217)"/>
<defs>
<linearGradient id="paint0_linear_1915_217" x1="7.22425" y1="8.04611" x2="9.15741" y2="12.8944" gradientUnits="userSpaceOnUse">
<stop stop-color="#8BE000"/>
<stop offset="1" stop-color="#8BE000" stop-opacity="0"/>
</linearGradient>
</defs>
</svg>
