<svg width="17" height="16" viewBox="0 0 17 16" fill="none" xmlns="http://www.w3.org/2000/svg">
<path d="M2.53467 9.6001H5.73467V16.0001H2.53467V9.6001Z" fill="white"/>
<path d="M12.8283 16C13.8635 14.9658 14.6891 13.7278 15.2568 12.3588C15.8244 10.9897 16.1228 9.51703 16.1343 8.02698C16.1459 6.53692 15.8704 5.05945 15.324 3.68113C14.7776 2.3028 13.9712 1.05132 12.9522 0L10.6207 2.42696C11.3281 3.15682 11.8879 4.02562 12.2672 4.98249C12.6465 5.93937 12.8378 6.96506 12.8298 7.9995C12.8218 9.03393 12.6146 10.0563 12.2205 11.0068C11.8264 11.9572 11.2533 12.8166 10.5347 13.5346L12.8283 16Z" fill="#3AD330"/>
<path d="M6.53462 2.4C6.53462 3.72548 5.4601 4.8 4.13462 4.8C2.80914 4.8 1.73462 3.72548 1.73462 2.4C1.73462 1.07452 2.80914 0 4.13462 0C5.4601 0 6.53462 1.07452 6.53462 2.4Z" fill="#3AD330"/>
</svg>
