<svg width="17" height="16" viewBox="0 0 17 16" fill="none" xmlns="http://www.w3.org/2000/svg">
<path d="M8.34648 4.50576H9.27718C10.3802 4.50576 10.8099 4.45367 11.2787 4.81216C11.7613 5.15686 12.0026 5.77733 12.0026 6.67356C12.0026 7.10099 11.9805 7.61883 11.884 8.21172C11.6358 9.59053 10.9684 10.4274 10.2653 11.0754C9.56206 11.7235 8.66243 12.2546 7.50422 12.2546H6.47011L8.34648 4.50576ZM7.33577 15.691C8.56291 15.691 9.63399 15.466 10.6405 15.1765C11.6609 14.8869 12.5709 14.4319 13.3706 13.8115C14.1703 13.191 14.839 12.3913 15.3768 11.4123C15.9283 10.4196 16.5347 9.25363 16.7691 7.87481C16.8794 7.25435 16.9346 6.66835 16.9346 6.11682C16.9346 4.31057 16.535 3.02659 15.3768 2.14415C14.2186 1.24792 12.5709 0.799805 10.4337 0.799805H4.30362L0.93457 15.691H7.33577Z" fill="white"/>
</svg>
