<svg width="12" height="20" viewBox="0 0 12 20" fill="none" xmlns="http://www.w3.org/2000/svg">
<path d="M3.27046 5.43318L7.26452 12.1167L0.607482 19.039L0.573152 19.1505C0.531585 19.2852 0.536857 19.43 0.588109 19.5613C0.603911 19.6017 0.623798 19.6402 0.647318 19.6761L0.847432 19.8688C0.850068 19.8704 0.852719 19.8719 0.855382 19.8735C0.977194 19.9444 1.11942 19.9719 1.25889 19.9516C1.39836 19.9313 1.52684 19.8644 1.62339 19.7617L11.6019 9.15956C11.6855 9.07094 11.7412 8.95978 11.7623 8.83982C11.7834 8.71985 11.769 8.59634 11.7207 8.48451C11.6724 8.37268 11.5924 8.27744 11.4906 8.21055C11.3888 8.14365 11.2697 8.10803 11.1479 8.10808H7.00305L9.24946 0.808809C9.29107 0.673976 9.28572 0.529019 9.23429 0.397617C9.18287 0.266216 9.0884 0.156139 8.96632 0.0853682V0.0841209C8.84455 0.0135229 8.70248 -0.0138075 8.56321 0.0065737L8.55883 0.00723067L8.14384 0.255227L3.27046 5.43318Z" fill="white"/>
</svg>
