<svg width="25" height="24" viewBox="0 0 25 24" fill="none" xmlns="http://www.w3.org/2000/svg">
<path d="M0.93457 5.676C0.93457 2.54123 3.4758 0 6.61057 0H19.2586C22.3933 0 24.9346 2.54123 24.9346 5.676V18.324C24.9346 21.4588 22.3933 24 19.2586 24H6.61057C3.4758 24 0.93457 21.4588 0.93457 18.324V5.676Z" fill="url(#paint0_linear_1915_209)"/>
<path d="M7.05596 7.42633C7.54394 6.58113 8.47265 6.14901 9.3842 6.2527C10.1153 6.3304 10.8003 6.74515 11.1951 7.43131L13.0672 10.6854L14.9488 7.42633C15.4088 6.62968 16.2603 6.20004 17.1199 6.24012C17.9214 6.26021 18.6935 6.68538 19.1227 7.43131L22.994 14.1604C23.3236 14.7334 23.4018 15.4171 23.21 16.0498L23.1955 16.0975C22.8235 17.3247 21.5345 18.0253 20.3023 17.6702C19.7195 17.5022 19.2245 17.1148 18.9212 16.5896L17.0307 13.3151L15.1718 16.5235C14.9272 16.9456 14.562 17.2792 14.1286 17.4855C13.6088 17.763 12.9848 17.846 12.3748 17.6702C11.7919 17.5022 11.2969 17.1148 10.9937 16.5896L9.12047 13.3451L7.27894 16.5235C6.94754 17.0954 6.39448 17.505 5.75073 17.6552L5.70214 17.6666C4.45332 17.958 3.20208 17.192 2.89359 15.9473C2.74768 15.3586 2.83559 14.7362 3.13885 14.211L7.05596 7.42633Z" fill="white"/>
<defs>
<linearGradient id="paint0_linear_1915_209" x1="12.9346" y1="0" x2="12.9346" y2="24" gradientUnits="userSpaceOnUse">
<stop stop-color="#01CCE0"/>
<stop offset="1" stop-color="#066BE5"/>
</linearGradient>
</defs>
</svg>
