<svg width="21" height="20" viewBox="0 0 21 20" fill="none" xmlns="http://www.w3.org/2000/svg">
<path d="M9.27046 5.43318L13.2645 12.1167L6.60748 19.039L6.57315 19.1505C6.53158 19.2852 6.53686 19.43 6.58811 19.5613C6.60391 19.6017 6.6238 19.6402 6.64732 19.6761L6.84743 19.8688C6.85007 19.8704 6.85272 19.8719 6.85538 19.8735C6.97719 19.9444 7.11942 19.9719 7.25889 19.9516C7.39836 19.9313 7.52684 19.8644 7.62339 19.7617L17.6019 9.15956C17.6855 9.07094 17.7412 8.95978 17.7623 8.83982C17.7834 8.71985 17.769 8.59634 17.7207 8.48451C17.6724 8.37268 17.5924 8.27744 17.4906 8.21055C17.3888 8.14365 17.2697 8.10803 17.1479 8.10808H13.003L15.2495 0.808809C15.2911 0.673976 15.2857 0.529019 15.2343 0.397617C15.1829 0.266216 15.0884 0.156139 14.9663 0.0853682V0.0841209C14.8446 0.0135229 14.7025 -0.0138075 14.5632 0.0065737L14.5588 0.00723067L14.1438 0.255227L9.27046 5.43318Z" fill="white"/>
<path d="M7.30499 16.7721C7.33099 16.76 7.355 16.7432 7.37636 16.7211L11.5933 12.164C11.7607 11.9907 11.757 11.7124 11.5836 11.545L8.86019 6.83733C8.68685 6.66995 8.40854 6.67368 8.24117 6.84703L6.12065 9.01839L7.19321 10.9343L6.21681 11.8501H8.8195L7.30499 16.7721Z" fill="white"/>
<path d="M6.08482 11.8501L5.0577 10.0154L4.06008 11.1192C4.03917 11.2389 4.0537 11.3621 4.10188 11.4737C4.15016 11.5855 4.23014 11.6808 4.33193 11.7477C4.43373 11.8146 4.55288 11.8502 4.67469 11.8501H6.08482Z" fill="white"/>
</svg>
