<svg width="180" height="28" viewBox="0 0 180 28" fill="none" xmlns="http://www.w3.org/2000/svg">
<g clip-path="url(#clip0_1624_183)">
<path fill-rule="evenodd" clip-rule="evenodd" d="M18.3078 15.1101C18.3078 15.1101 18.4553 14.1194 17.2961 14.1194H8.86515C7.68483 14.1194 7.87452 13.1288 7.87452 13.1288L8.23283 11.1686C8.27491 10.8665 8.43229 10.5925 8.67197 10.4039C8.91166 10.2153 9.21505 10.1267 9.51855 10.1569H19.1509C19.994 10.1569 20.1626 9.16626 20.1626 9.16626L20.5209 7.54331C20.5209 7.54331 20.6895 6.5316 19.5092 6.5316H4.9237C4.62336 6.50097 4.32269 6.58659 4.08354 6.77085C3.8444 6.95512 3.68495 7.22401 3.63799 7.52224L0.392083 24.2365C0.392083 24.2365 0.202386 25.2061 1.38271 25.2061H4.62862C5.47171 25.2061 5.61925 24.2365 5.61925 24.2365L6.69419 18.7775C6.7362 18.4794 6.89054 18.2086 7.12562 18.0205C7.36071 17.8325 7.65877 17.7413 7.95883 17.7658H16.9799C17.823 17.7658 17.9916 16.7752 17.9916 16.7752L18.3078 15.1101ZM87.8628 21.5808C86.6825 21.5808 86.8722 20.5691 86.8722 20.5691L87.2516 18.4613C87.2985 18.1631 87.458 17.8942 87.6971 17.71C87.9363 17.5257 88.2369 17.4401 88.5373 17.4707H98.0642C98.9073 17.4707 99.0759 16.4801 99.0759 16.4801L99.371 14.815C99.371 14.815 99.5396 13.8033 98.3804 13.8033H89.3593C88.2001 13.8033 88.3687 12.8337 88.3687 12.8337L88.6848 11.1475C88.7269 10.8455 88.8843 10.5714 89.124 10.3828C89.3637 10.1942 89.667 10.1057 89.9705 10.1358H100.067C100.91 10.1358 101.078 9.14518 101.078 9.14518L101.437 7.52224C101.437 7.52224 101.605 6.51052 100.425 6.51052H85.4389C85.1386 6.47989 84.8379 6.56551 84.5988 6.74978C84.3596 6.93404 84.2002 7.20293 84.1532 7.50116L80.9073 24.2154C80.9073 24.2154 80.7176 25.185 81.8979 25.185H97.7691C98.6122 25.185 98.7598 24.2154 98.7598 24.2154L99.1181 22.5714C99.1181 22.5714 99.2867 21.5597 98.1064 21.5597L87.8628 21.5808ZM115.031 13.9508C114.726 13.9264 114.422 14.0197 114.183 14.2118C113.944 14.4038 113.788 14.6799 113.746 14.9836L113.451 16.6487C113.451 16.6487 113.261 17.6393 114.441 17.6393H117.434C117.434 17.6393 118.319 17.6393 118.109 18.5667L117.856 19.9578C117.856 19.9578 117.708 21.1592 116.949 21.37C115.316 21.8197 113.627 22.0326 111.933 22.0023C108.877 22.0023 105.041 20.7377 105.041 16.5644C105.041 12.3911 110.479 9.71427 114.441 9.71427C116.367 9.71624 118.261 10.2096 119.942 11.1475C120.116 11.2852 120.325 11.3703 120.546 11.3927C120.766 11.4151 120.988 11.3739 121.186 11.274L123.968 9.5035C123.968 9.5035 125.149 8.93441 124.263 8.28102C124.263 8.28102 121.608 6.17329 115.074 6.17329C108.54 6.17329 100.319 9.22949 99.5818 16.9016C99.5818 16.9016 98.2539 25.6276 111.49 25.7752C114.625 25.7227 117.741 25.2765 120.764 24.4473C120.764 24.4473 122.366 24.0258 122.577 22.74L124.01 15.2365C124.051 15.083 124.053 14.9216 124.016 14.7671C123.978 14.6127 123.902 14.4702 123.795 14.3527C123.688 14.2351 123.554 14.1464 123.403 14.0946C123.253 14.0428 123.092 14.0296 122.935 14.0562L115.031 13.9508ZM66.5537 25.2061C65.6684 25.2061 65.3734 24.2365 65.3734 24.2365L58.6708 7.52224C58.6708 7.52224 58.2071 6.5316 59.1977 6.5316H63.2445C63.57 6.52878 63.8883 6.62646 64.1561 6.8113C64.424 6.99615 64.6282 7.25914 64.741 7.56439L68.9565 18.5878C68.9565 18.5878 69.2727 19.6417 70.0314 18.5878L77.8511 7.52224C78.06 7.24196 78.3257 7.00888 78.6308 6.83818C78.9358 6.66749 79.2734 6.56303 79.6216 6.5316H82.9518C82.9518 6.5316 84.3429 6.5316 83.563 7.54331L71.0431 24.2576C70.837 24.5372 70.5711 24.7674 70.2649 24.9315C69.9586 25.0956 69.6197 25.1894 69.2727 25.2061H66.5537ZM148.207 24.2154L141.483 7.52224C141.377 7.23098 141.186 6.97854 140.934 6.79802C140.682 6.61749 140.381 6.51728 140.071 6.51052H137.69C137.01 6.61235 136.398 6.97537 135.982 7.52224L122.725 24.2365C121.839 25.3325 123.294 25.2061 123.294 25.2061H126.919C127.257 25.1918 127.587 25.0962 127.881 24.9274C128.174 24.7587 128.423 24.5217 128.605 24.2365L130.334 21.9391C130.499 21.6974 130.719 21.4975 130.975 21.3548C131.231 21.2122 131.516 21.1308 131.809 21.1171H140.24C140.531 21.1242 140.813 21.2212 141.047 21.3947C141.281 21.5683 141.455 21.81 141.547 22.0866L142.348 24.1944C142.428 24.4556 142.586 24.6861 142.801 24.8555C143.015 25.0249 143.276 25.1251 143.549 25.1428H147.554C147.554 25.1428 148.65 25.3115 148.228 24.2154H148.207ZM138.701 17.5972H134.907C133.622 17.5972 134.191 16.7752 134.191 16.7752L136.91 13.0023C138.09 11.3583 138.49 13.0023 138.49 13.0023L139.734 16.7752C140.071 17.7447 138.764 17.5972 138.764 17.5972H138.701ZM51.2937 6.5316C50.6851 6.6819 50.1438 7.03042 49.7551 7.52224L37.6778 22.719C37.6027 22.8699 37.487 22.997 37.3436 23.0858C37.2002 23.1746 37.035 23.2216 36.8663 23.2216C36.6977 23.2216 36.5324 23.1746 36.389 23.0858C36.2457 22.997 36.13 22.8699 36.0549 22.719L33.4413 18.5035C32.6403 17.2599 34.3476 16.6909 34.3476 16.6909C35.6243 16.3977 36.7718 15.6994 37.619 14.7003C38.4661 13.7013 38.9673 12.4549 39.0478 11.1475C39.0478 6.15221 30.1954 6.57376 30.1954 6.57376H22.4389C22.1386 6.54313 21.8379 6.62875 21.5988 6.81301C21.3596 6.99727 21.2002 7.26616 21.1532 7.56439L17.9073 24.2787C17.9073 24.2787 17.7176 25.2482 18.8979 25.2482H22.1228C22.9869 25.2482 23.1345 24.2787 23.1345 24.2787L24.2094 18.6721C24.2515 18.37 24.4089 18.096 24.6486 17.9074C24.8882 17.7188 25.1916 17.6303 25.4951 17.6604H26.4225C27.1813 17.6604 27.6029 18.6089 27.6029 18.6089L30.8066 24.2576C30.9293 24.5316 31.1229 24.7679 31.3675 24.9421C31.612 25.1162 31.8986 25.2219 32.1977 25.2482H40.6286C40.9669 25.2339 41.2967 25.1384 41.5902 24.9696C41.8837 24.8008 42.1323 24.5638 42.3148 24.2787L44.0431 21.9813C44.2089 21.7396 44.4283 21.5396 44.6843 21.397C44.9403 21.2544 45.2258 21.173 45.5186 21.1592H53.9495C54.2407 21.1663 54.5226 21.2633 54.7565 21.4369C54.9905 21.6105 55.165 21.8521 55.2563 22.1288L56.0572 24.2365C56.1364 24.4946 56.2913 24.7229 56.5017 24.892C56.7121 25.0611 56.9685 25.1632 57.2375 25.185H61.1368C61.1368 25.185 62.3382 25.3115 61.9167 24.2154L55.193 7.52224C55.0869 7.23098 54.8954 6.97854 54.6434 6.79802C54.3914 6.61749 54.0907 6.51728 53.7808 6.51052H51.2937V6.5316ZM52.4741 17.5972H48.6169C47.3312 17.5972 47.8792 16.7752 47.8792 16.7752L50.5982 13.0023C51.7785 11.3583 52.179 13.0023 52.179 13.0023L53.4225 16.7752C53.7808 17.7447 52.4741 17.5972 52.4741 17.5972ZM29.5209 14.0773H26.4015C25.2422 14.0773 25.4108 13.0866 25.4108 13.0866L25.8324 10.9789C25.8744 10.6808 26.0287 10.41 26.2638 10.2219C26.4989 10.0339 26.7969 9.94275 27.097 9.9672H29.7527C29.7527 9.9672 32.6403 9.79858 33.3148 10.7681C33.4646 10.9507 33.5663 11.1679 33.6105 11.3998C33.6547 11.6318 33.64 11.8712 33.5677 12.096C33.378 13.0023 32.4928 13.9508 29.5209 14.014V14.0773ZM57.3429 0.482422H54.8136C54.2624 0.555467 53.7624 0.843345 53.4225 1.28336L51.5677 3.66509C50.8933 4.52926 52.0947 4.55034 52.0947 4.55034H54.5818C54.8568 4.51944 55.1231 4.43467 55.3654 4.30086C55.6077 4.16705 55.8213 3.98683 55.994 3.77048L57.8277 1.36767C58.5443 0.608886 57.3429 0.482422 57.3429 0.482422Z" fill="#231F20"/>
<path fill-rule="evenodd" clip-rule="evenodd" d="M160.032 26.9134C169.538 24.4052 179.507 20.5902 179.592 14.9415C179.592 14.9415 180.898 7.6698 160.622 3.72835C160.622 3.72835 156.891 2.96957 156.132 3.72835C155.374 4.48713 158.24 5.49884 158.24 5.49884C163.678 7.60657 169.727 10.9789 169.896 15.1944C169.896 15.1944 171.224 20.4426 158.325 25.5012C158.325 25.5012 155.648 26.4497 155.985 27.2295C156.322 28.0094 158.936 27.1031 159.969 26.8712" fill="#493394"/>
<path fill-rule="evenodd" clip-rule="evenodd" d="M157.734 24.6581C163.235 22.5504 168.463 19.452 168.484 15.5106C168.484 15.5106 169.327 10.7682 157.945 6.21551C157.587 6.08904 156.111 5.60426 155.416 6.34197C154.72 7.07967 156.533 8.09138 156.533 8.09138C157.719 8.88756 158.713 9.93825 159.442 11.167C160.172 12.3957 160.618 13.7716 160.748 15.1944C160.748 17.7659 158.641 20.0633 155.985 22.0235C155.985 22.0235 153.413 23.6886 154.025 24.6792C154.636 25.6698 156.786 24.9954 157.797 24.6792" fill="#E04097"/>
</g>
<defs>
<clipPath id="clip0_1624_183">
<rect width="179.241" height="27.0211" fill="white" transform="translate(0.371094 0.482422)"/>
</clipPath>
</defs>
</svg>
