<svg width="159" height="65" viewBox="0 0 159 65" fill="none" xmlns="http://www.w3.org/2000/svg">
<path d="M1.75586 48.0679C10.6635 36.488 23.2409 26.5453 35.7425 19.1394C46.0964 13.0058 57.4573 8.16973 69.0362 4.90039C77.0985 2.62397 87.3658 0.172254 95.7127 2.68312C106.93 6.0574 109.852 24.5934 107.249 34.2792C104.899 43.0293 92.4107 55.905 82.5823 49.523C75.0434 44.6276 72.2928 33.2461 78.9446 26.5188C89.4754 15.8684 109.296 15.9572 122.459 20.5599C134.097 24.6298 144.945 29.7377 148.026 48.2065C148.948 53.7275 149.069 57.476 149.069 62.7238" stroke="#1A9CFF" stroke-width="2" stroke-linecap="round"/>
<path d="M140.769 55.9804C143.105 57.8531 145 60.122 147.402 61.8753C149.325 63.2784 148.592 63.4831 151.086 61.3932C153.29 59.5455 155.896 56.7318 157.67 54.5192" stroke="#1A9CFF" stroke-width="2" stroke-linecap="round"/>
</svg>
