<svg width="48" height="48" viewBox="0 0 48 48" fill="none" xmlns="http://www.w3.org/2000/svg">
<rect width="48" height="48" rx="24" fill="#E2F3FD"/>
<path d="M29.9999 19.8C29.9999 23.1138 27.3136 25.8 23.9999 25.8M29.9999 19.8C29.9999 16.4863 27.3136 13.8 23.9999 13.8M29.9999 19.8H17.9999M23.9999 25.8C20.6862 25.8 17.9999 23.1138 17.9999 19.8M23.9999 25.8C25.3254 25.8 26.3999 23.1138 26.3999 19.8C26.3999 16.4863 25.3254 13.8 23.9999 13.8M23.9999 25.8C22.6744 25.8 21.5999 23.1138 21.5999 19.8C21.5999 16.4863 22.6744 13.8 23.9999 13.8M17.9999 19.8C17.9999 16.4863 20.6862 13.8 23.9999 13.8M26.3999 31.8C26.3999 33.1255 25.3254 34.2 23.9999 34.2C22.6744 34.2 21.5999 33.1255 21.5999 31.8M26.3999 31.8C26.3999 30.4746 25.3254 29.4 23.9999 29.4C22.6744 29.4 21.5999 30.4746 21.5999 31.8M26.3999 31.8H33.5999M21.5999 31.8H14.3999" stroke="#05A7FF" stroke-width="2" stroke-linecap="round" stroke-linejoin="round"/>
</svg>
