<svg width="48" height="48" viewBox="0 0 48 48" fill="none" xmlns="http://www.w3.org/2000/svg">
<rect width="48" height="48" rx="24" fill="#E2F3FD"/>
<path d="M26.4002 27.1402V26.9463M26.3997 24.1373V23.9435M26.3997 21.1472V20.9533M17.012 15.4597H24.0012C24.0409 16.8748 25.2005 18.0097 26.6252 18.0097C28.0499 18.0097 29.2094 16.8748 29.2491 15.4597H30.9884C33.0936 15.4597 34.8002 17.1663 34.8002 19.2715V28.7284C34.8002 30.8336 33.0936 32.5402 30.9884 32.5402H29.2491C29.2094 31.1251 28.0499 29.9902 26.6252 29.9902C25.2005 29.9902 24.0409 31.1251 24.0012 32.5402H17.012C14.9068 32.5402 13.2002 30.8336 13.2002 28.7284L13.2002 19.2715C13.2002 17.1663 14.9068 15.4597 17.012 15.4597Z" stroke="#05A7FF" stroke-width="2" stroke-linecap="round" stroke-linejoin="round"/>
</svg>
