<svg width="48" height="38" viewBox="0 0 48 38" fill="none" xmlns="http://www.w3.org/2000/svg">
<path fill-rule="evenodd" clip-rule="evenodd" d="M29.0649 23.8563C29.0649 22.8051 29.9273 21.953 30.9911 21.953H35.0842V25.3109C35.0842 25.6979 35.5269 25.9231 35.8457 25.6981L36.7696 25.0459L37.9591 25.7805C38.2798 25.9786 38.6958 25.7507 38.6958 25.377V21.953H42.789C43.8528 21.953 44.7152 22.8051 44.7152 23.8563V35.5144C44.7152 36.5656 43.8528 37.4178 42.789 37.4178H30.9911C29.9273 37.4178 29.0649 36.5656 29.0649 35.5144V23.8563ZM34.8434 34.5628C34.8434 34.1686 34.52 33.849 34.1211 33.849H31.7134C31.3145 33.849 30.9911 34.1686 30.9911 34.5628C30.9911 34.957 31.3145 35.2765 31.7134 35.2765H34.1211C34.52 35.2765 34.8434 34.957 34.8434 34.5628Z" fill="#002152"/>
<path d="M16.073 30.7361H5.61459C4.17264 30.7361 3 31.9349 3 33.4088V35.7705H18.6876V33.4088C18.6876 31.9349 17.5149 30.7361 16.073 30.7361ZM3 36.7497C3 36.9269 3.06887 37.0969 3.19145 37.2222C3.31403 37.3475 3.48029 37.4179 3.65365 37.4179H18.0339C18.2073 37.4179 18.3735 37.3475 18.4961 37.2222C18.6187 37.0969 18.6876 36.9269 18.6876 36.7497V35.4134H3V36.7497Z" fill="url(#paint0_linear_2388_2895)"/>
<path d="M16.0732 18.709C16.0732 15.7617 13.7272 13.3636 10.844 13.3636C7.96073 13.3636 5.61479 15.7617 5.61479 18.709V29.3998H16.0732V18.709ZM10.844 21.3817C9.40203 21.3817 8.22938 20.183 8.22938 18.709C8.22938 17.235 9.40203 16.0363 10.844 16.0363C12.2859 16.0363 13.4586 17.235 13.4586 18.709C13.4586 20.183 12.2859 21.3817 10.844 21.3817Z" fill="url(#paint1_linear_2388_2895)"/>
<path d="M23.9173 3.64286e-05C23.2972 -0.00247681 22.6831 0.125079 22.1131 0.374816C21.5431 0.624553 21.0292 0.991163 20.6033 1.45198L10.7463 12.0325C10.7784 12.0318 10.8104 12.0272 10.8437 12.0272C14.3741 12.0272 17.2534 14.9056 17.3691 18.4864L27.23 7.90252C27.6456 7.45864 27.971 6.93496 28.1874 6.36176C28.4039 5.78856 28.507 5.17719 28.4909 4.56299C28.4778 3.94866 28.3457 3.34308 28.1021 2.78131C27.8585 2.21954 27.5083 1.71275 27.0718 1.29028C26.2226 0.460138 25.0923 -0.00218141 23.9173 3.64286e-05ZM23.9167 6.68177C22.8355 6.68177 21.9557 5.78241 21.9557 4.67725C21.9557 3.57209 22.8355 2.67273 23.9167 2.67273C24.9978 2.67273 25.8776 3.57209 25.8776 4.67725C25.8776 5.78241 24.9978 6.68177 23.9167 6.68177Z" fill="url(#paint2_linear_2388_2895)"/>
<path d="M29.667 3.33018C29.8026 3.94284 29.8108 4.66653 29.8108 4.66653C29.8147 5.59329 29.6078 6.50829 29.2062 7.33922H36.3545V11.3483H35.7009C35.4008 11.3483 35.14 11.5574 35.0668 11.8541L34.457 14.347L33.2771 15.5531C33.1548 15.6785 33.0861 15.8484 33.0863 16.0255V18.6982C33.0863 18.8752 33.1549 19.0456 33.2778 19.1706L34.5851 20.5069C34.6457 20.5692 34.7177 20.6186 34.797 20.6523C34.8763 20.686 34.9613 20.7034 35.0472 20.7034C35.1331 20.7034 35.2182 20.686 35.2975 20.6523C35.3768 20.6186 35.4488 20.5692 35.5094 20.5069C35.5701 20.4449 35.6183 20.3713 35.6512 20.2902C35.6841 20.2092 35.701 20.1223 35.701 20.0345C35.701 19.9468 35.6841 19.8599 35.6512 19.7788C35.6183 19.6978 35.5701 19.6241 35.5094 19.5621L34.3936 18.4215V16.3021L35.3178 15.3573H38.6985L39.6228 16.3021V18.4215L38.507 19.5621C38.4463 19.6242 38.3982 19.6978 38.3653 19.7789C38.3325 19.8599 38.3156 19.9468 38.3156 20.0345C38.3156 20.1222 38.3325 20.2091 38.3653 20.2902C38.3982 20.3712 38.4463 20.4449 38.507 20.5069C38.5677 20.569 38.6397 20.6182 38.719 20.6517C38.7983 20.6853 38.8833 20.7026 38.9691 20.7026C39.0549 20.7026 39.1399 20.6853 39.2192 20.6517C39.2985 20.6182 39.3706 20.569 39.4312 20.5069L40.7385 19.1706C40.7993 19.1086 40.8475 19.035 40.8804 18.9539C40.9133 18.8728 40.9301 18.7859 40.9301 18.6982V16.0255C40.9301 15.9377 40.9133 15.8508 40.8804 15.7697C40.8475 15.6887 40.7993 15.615 40.7385 15.5531L39.5587 14.347L38.9489 11.8541C38.9135 11.7097 38.8319 11.5815 38.7172 11.4899C38.6025 11.3983 38.4611 11.3484 38.3155 11.3483H37.6618V7.33922C39.4639 7.33922 40.9301 5.84051 40.9301 3.99835V1.32566C40.9301 1.14845 40.8612 0.978496 40.7386 0.853189C40.616 0.727883 40.4498 0.657486 40.2764 0.657486H28.314C28.9812 1.41542 29.4471 2.33565 29.667 3.33018Z" fill="url(#paint3_linear_2388_2895)"/>
<defs>
<linearGradient id="paint0_linear_2388_2895" x1="23.8576" y1="0" x2="23.8576" y2="37.4179" gradientUnits="userSpaceOnUse">
<stop stop-color="#1695F1"/>
<stop offset="1" stop-color="#2DA9F6"/>
</linearGradient>
<linearGradient id="paint1_linear_2388_2895" x1="23.8576" y1="0" x2="23.8576" y2="37.4179" gradientUnits="userSpaceOnUse">
<stop stop-color="#37B2F8"/>
<stop offset="1" stop-color="#1291F0"/>
</linearGradient>
<linearGradient id="paint2_linear_2388_2895" x1="38.454" y1="0" x2="38.454" y2="41.9269" gradientUnits="userSpaceOnUse">
<stop stop-color="#37B2F8"/>
<stop offset="1" stop-color="#1291F0"/>
</linearGradient>
<linearGradient id="paint3_linear_2388_2895" x1="34.6222" y1="0.657499" x2="34.6222" y2="20.7034" gradientUnits="userSpaceOnUse">
<stop stop-color="#35B0F8"/>
<stop offset="1" stop-color="#1493F1"/>
</linearGradient>
</defs>
</svg>
