<svg width="48" height="41" viewBox="0 0 48 41" fill="none" xmlns="http://www.w3.org/2000/svg">
<path d="M3 1.5C3 0.671573 3.71634 0 4.6 0H12.6C13.4837 0 14.2 0.671573 14.2 1.5V6H20.6C21.4837 6 22.2 6.67157 22.2 7.5V16.5H27V12C27 11.1716 27.7163 10.5 28.6 10.5H36.6C37.4837 10.5 38.2 11.1716 38.2 12V21.227C37.4287 21.081 36.6305 21.0044 35.8133 21.0044C32.3813 21.0044 29.2859 22.3553 27.0991 24.5209C27.035 24.3587 27 24.1832 27 24V19.5H22.2V28.5C22.2 29.3284 21.4837 30 20.6 30H14.2V34.5C14.2 35.3284 13.4837 36 12.6 36H4.6C3.71634 36 3 35.3284 3 34.5V22.5C3 21.6716 3.71634 21 4.6 21H12.6C13.4837 21 14.2 21.6716 14.2 22.5V27H19V9H14.2V13.5C14.2 14.3284 13.4837 15 12.6 15H4.6C3.71634 15 3 14.3284 3 13.5V1.5Z" fill="url(#paint0_linear_2388_2896)"/>
<path fill-rule="evenodd" clip-rule="evenodd" d="M35.8117 40.5C40.6644 40.5 44.5983 36.812 44.5983 32.2626C44.5983 27.7131 40.6644 24.0251 35.8117 24.0251C30.959 24.0251 27.0251 27.7131 27.0251 32.2626C27.0251 36.812 30.959 40.5 35.8117 40.5ZM36.3514 32.6283L39.2287 34.5506C39.2893 34.59 39.3027 34.6688 39.259 34.7271L38.4327 35.7321C38.389 35.7872 38.3049 35.7998 38.2444 35.7588L34.8909 33.2757C34.8556 33.2521 34.8354 33.2143 34.8354 33.1733V27.8228C34.8354 27.7535 34.896 27.6968 34.9699 27.6968H36.2169C36.2909 27.6968 36.3514 27.7535 36.3514 27.8228V32.6283Z" fill="#002152"/>
<defs>
<linearGradient id="paint0_linear_2388_2896" x1="44.5983" y1="21.0938" x2="3" y2="21.0938" gradientUnits="userSpaceOnUse">
<stop stop-color="#0D8DEF"/>
<stop offset="1" stop-color="#38B3F8"/>
</linearGradient>
</defs>
</svg>
