<svg width="48" height="39" viewBox="0 0 48 39" fill="none" xmlns="http://www.w3.org/2000/svg">
<path d="M41.449 17.1621C43.3096 17.1621 44.818 18.6581 44.818 20.5034V29.4136C44.818 31.259 43.3096 32.755 41.449 32.755V37.7002C41.449 38.0371 41.0032 38.1623 40.8252 37.8754L37.6482 32.755H26.8502C24.9896 32.755 23.4813 31.259 23.4813 29.4136V20.5034C23.4813 18.6581 24.9896 17.1621 26.8502 17.1621H41.449Z" fill="#172754"/>
<path fill-rule="evenodd" clip-rule="evenodd" d="M40.8252 37.8754C41.0032 38.1623 41.449 38.0371 41.449 37.7002V32.755C41.4558 32.755 41.4625 32.7549 41.4692 32.7549C43.3206 32.7441 44.818 31.2523 44.818 29.4136V20.5034C44.818 18.6581 43.3096 17.1621 41.449 17.1621H26.8502C24.9896 17.1621 23.4813 18.6581 23.4813 20.5034V29.4136C23.4813 31.259 24.9896 32.755 26.8502 32.755H37.6482L40.8252 37.8754Z" fill="#F6FAFF"/>
<path d="M41.449 17.1621C43.3096 17.1621 44.818 18.6581 44.818 20.5034V29.4136C44.818 31.259 43.3096 32.755 41.449 32.755V37.7002C41.449 38.0371 41.0032 38.1623 40.8252 37.8754L37.6482 32.755H26.8502C24.9896 32.755 23.4813 31.259 23.4813 29.4136V20.5034C23.4813 18.6581 24.9896 17.1621 26.8502 17.1621H41.449Z" fill="#172754"/>
<path d="M4 5.42038C4 2.42679 6.42645 0 9.41962 0H32.9046C35.8978 0 38.3242 2.42679 38.3242 5.42038V13.9152H26.8502C23.2217 13.9152 20.2344 16.8397 20.2344 20.5034V25.2951H15.5341L10.4231 33.6015C10.1367 34.067 9.41962 33.864 9.41962 33.3174V25.2951C6.42645 25.2951 4 22.8683 4 19.8747V5.42038Z" fill="url(#paint0_linear_2388_2897)"/>
<defs>
<linearGradient id="paint0_linear_2388_2897" x1="4" y1="16.9302" x2="38.3242" y2="16.9302" gradientUnits="userSpaceOnUse">
<stop stop-color="#52B2F6"/>
<stop offset="0.477583" stop-color="#52B2F6"/>
</linearGradient>
</defs>
</svg>
