<svg width="28" height="26" viewBox="0 0 28 26" fill="none" xmlns="http://www.w3.org/2000/svg">
<path d="M13.9999 18.3999V12.3999M21.6799 18.7599C20.6195 18.7599 19.7599 19.6195 19.7599 20.6799C19.7599 21.7403 20.6195 22.5999 21.6799 22.5999C22.7403 22.5999 23.5999 21.7403 23.5999 20.6799C23.5999 19.6195 22.7403 18.7599 21.6799 18.7599ZM21.6799 18.7599L21.6799 13.2399C21.6799 12.7097 21.2501 12.2799 20.7199 12.2799H7.2799C6.74971 12.2799 6.3199 12.7097 6.3199 13.2399L6.3199 18.7599M6.3199 18.7599C5.25951 18.7599 4.3999 19.6195 4.3999 20.6799C4.3999 21.7403 5.25951 22.5999 6.3199 22.5999C7.38029 22.5999 8.2399 21.7403 8.2399 20.6799C8.2399 19.6195 7.38029 18.7599 6.3199 18.7599ZM13.9999 22.5999C12.9395 22.5999 12.0799 21.7403 12.0799 20.6799C12.0799 19.6195 12.9395 18.7599 13.9999 18.7599C15.0603 18.7599 15.9199 19.6195 15.9199 20.6799C15.9199 21.7403 15.0603 22.5999 13.9999 22.5999ZM7.9999 8.1999H19.9999C20.6626 8.1999 21.1999 7.66264 21.1999 6.9999V4.5999C21.1999 3.93716 20.6626 3.3999 19.9999 3.3999H7.9999C7.33716 3.3999 6.7999 3.93716 6.7999 4.5999V6.9999C6.7999 7.66264 7.33716 8.1999 7.9999 8.1999Z" stroke="#05A7FF" stroke-width="2" stroke-linecap="round"/>
</svg>
