<svg width="48" height="50" viewBox="0 0 48 50" fill="none" xmlns="http://www.w3.org/2000/svg">
<rect width="48" height="50" rx="24" fill="#E2F3FD"/>
<path d="M19.7609 32.5129C19.237 32.6875 18.9538 33.2538 19.1285 33.7778C19.3031 34.3017 19.8694 34.5849 20.3934 34.4102L19.7609 32.5129ZM25.8464 33.8462L25.7557 32.8503L25.7557 32.8503L25.8464 33.8462ZM29.3079 33.0769L29.7465 33.9756L29.7465 33.9756L29.3079 33.0769ZM32.6155 30.0681L31.8384 29.4387L31.8384 29.4387L32.6155 30.0681ZM30.3533 28.1854L31.0604 28.8925L31.0604 28.8925L30.3533 28.1854ZM28.83 29.7087L29.5371 30.4158L29.5371 30.4158L28.83 29.7087ZM24.6925 29.3846C24.1402 29.3846 23.6925 29.8323 23.6925 30.3846C23.6925 30.9369 24.1402 31.3846 24.6925 31.3846V29.3846ZM32.2638 27.9962L31.7091 28.8283L31.7091 28.8283L32.2638 27.9962ZM21.2479 27.4915L21.6951 28.386L21.6951 28.386L21.2479 27.4915ZM25.3882 27.1128L25.6513 26.148L25.6513 26.148L25.3882 27.1128ZM27.0051 27.5538L26.742 28.5185L26.742 28.5185L27.0051 27.5538ZM27.5174 29.4829L26.8103 28.7757L26.8103 28.7757L27.5174 29.4829ZM25.9085 29.6775C25.518 30.068 25.518 30.7012 25.9085 31.0917C26.299 31.4822 26.9322 31.4822 27.3227 31.0917L25.9085 29.6775ZM20.3934 34.4102C20.4871 34.379 20.7076 34.3518 21.1238 34.3815C21.5195 34.4097 21.9831 34.4792 22.5181 34.5632C23.5294 34.722 24.8241 34.9434 25.9371 34.842L25.7557 32.8503C24.9456 32.9241 23.9326 32.7609 22.8285 32.5874C22.3058 32.5053 21.7598 32.4218 21.2661 32.3865C20.7928 32.3528 20.2442 32.3518 19.7609 32.5129L20.3934 34.4102ZM25.9371 34.842C26.64 34.778 27.2505 34.7468 27.8111 34.6454C28.4222 34.5348 28.9942 34.3428 29.7465 33.9756L28.8694 32.1782C28.2451 32.4829 27.849 32.606 27.4549 32.6773C27.0101 32.7578 26.5782 32.7753 25.7557 32.8503L25.9371 34.842ZM29.7465 33.9756C30.482 33.6167 31.1881 33.0398 31.7914 32.4602C32.4043 31.8713 32.9602 31.2313 33.3926 30.6974L31.8384 29.4387C31.4373 29.9339 30.9386 30.506 30.4057 31.018C29.8631 31.5393 29.3321 31.9524 28.8694 32.1782L29.7465 33.9756ZM29.6462 27.4783L28.1229 29.0016L29.5371 30.4158L31.0604 28.8925L29.6462 27.4783ZM27.1982 29.3846H24.6925V31.3846H27.1982V29.3846ZM28.1229 29.0016C27.8776 29.2468 27.545 29.3846 27.1982 29.3846V31.3846C28.0754 31.3846 28.9168 31.0361 29.5371 30.4158L28.1229 29.0016ZM32.8185 27.1642C31.8213 26.4994 30.4936 26.6309 29.6462 27.4783L31.0604 28.8925C31.2337 28.7192 31.5052 28.6923 31.7091 28.8283L32.8185 27.1642ZM33.3926 30.6974C34.3229 29.5488 33.971 27.9325 32.8185 27.1642L31.7091 28.8283C31.9598 28.9954 31.9696 29.2767 31.8384 29.4387L33.3926 30.6974ZM15.8464 27.5385H18.9233V25.5385H15.8464V27.5385ZM18.6925 27.3077V34.2308H20.6925V27.3077H18.6925ZM18.9233 34H15.8464V36H18.9233V34ZM16.0771 34.2308V27.3077H14.0771V34.2308H16.0771ZM15.8464 34C15.9738 34 16.0771 34.1033 16.0771 34.2308H14.0771C14.0771 35.2079 14.8693 36 15.8464 36V34ZM18.6925 34.2308C18.6925 34.1033 18.7959 34 18.9233 34V36C19.9004 36 20.6925 35.2079 20.6925 34.2308H18.6925ZM18.9233 27.5385C18.7959 27.5385 18.6925 27.4351 18.6925 27.3077H20.6925C20.6925 26.3306 19.9004 25.5385 18.9233 25.5385V27.5385ZM15.8464 25.5385C14.8693 25.5385 14.0771 26.3306 14.0771 27.3077H16.0771C16.0771 27.4351 15.9738 27.5385 15.8464 27.5385V25.5385ZM20.5244 28.9714L21.6951 28.386L20.8007 26.5971L19.6299 27.1825L20.5244 28.9714ZM23.656 27.9231H23.9714V25.9231H23.656V27.9231ZM25.1251 28.0776L26.742 28.5185L27.2682 26.589L25.6513 26.148L25.1251 28.0776ZM26.8103 28.7757L25.9085 29.6775L27.3227 31.0917L28.2245 30.19L26.8103 28.7757ZM26.742 28.5185C26.8559 28.5496 26.8938 28.6922 26.8103 28.7757L28.2245 30.19C29.3939 29.0206 28.8637 27.0241 27.2682 26.589L26.742 28.5185ZM23.9714 27.9231C24.3611 27.9231 24.7491 27.975 25.1251 28.0776L25.6513 26.148C25.1039 25.9987 24.5389 25.9231 23.9714 25.9231V27.9231ZM21.6951 28.386C22.3039 28.0816 22.9753 27.9231 23.656 27.9231V25.9231C22.6648 25.9231 21.6872 26.1539 20.8007 26.5971L21.6951 28.386ZM28.6925 21.1538C28.6925 22.3009 27.7627 23.2308 26.6156 23.2308V25.2308C28.8672 25.2308 30.6925 23.4055 30.6925 21.1538H28.6925ZM26.6156 23.2308C25.4686 23.2308 24.5387 22.3009 24.5387 21.1538H22.5387C22.5387 23.4055 24.364 25.2308 26.6156 25.2308V23.2308ZM24.5387 21.1538C24.5387 20.0068 25.4686 19.0769 26.6156 19.0769V17.0769C24.364 17.0769 22.5387 18.9022 22.5387 21.1538H24.5387ZM26.6156 19.0769C27.7627 19.0769 28.6925 20.0068 28.6925 21.1538H30.6925C30.6925 18.9022 28.8672 17.0769 26.6156 17.0769V19.0769ZM23.5387 20.1538C22.3916 20.1538 21.4618 19.224 21.4618 18.0769H19.4618C19.4618 20.3285 21.2871 22.1538 23.5387 22.1538V20.1538ZM21.4618 18.0769C21.4618 16.9299 22.3916 16 23.5387 16V14C21.2871 14 19.4618 15.8253 19.4618 18.0769H21.4618ZM23.5387 16C24.6857 16 25.6156 16.9299 25.6156 18.0769H27.6156C27.6156 15.8253 25.7903 14 23.5387 14V16Z" fill="#05A7FF"/>
</svg>
