<svg width="48" height="37" viewBox="0 0 48 37" fill="none" xmlns="http://www.w3.org/2000/svg">
<path d="M14.9001 13.1024H9.22465C8.31618 13.1024 7.57972 13.8389 7.57972 14.7473C7.57972 15.6558 8.31618 16.3923 9.22465 16.3923H13.6341C13.9455 15.2439 14.3719 14.1432 14.9001 13.1024Z" fill="#002152"/>
<path d="M13.1243 19.1338H2.64493C1.73646 19.1338 1 19.8703 1 20.7787C1 21.6872 1.73646 22.4237 2.64493 22.4237H13.0931C13.052 21.9364 13.0311 21.4432 13.0311 20.9449C13.0311 20.333 13.0627 19.7288 13.1243 19.1338Z" fill="#002152"/>
<path d="M13.5475 25.1652H7.03141C6.12294 25.1652 5.38648 25.9017 5.38648 26.8102C5.38648 27.7186 6.12294 28.4551 7.03141 28.4551H14.7359C14.2343 27.412 13.8339 26.3114 13.5475 25.1652Z" fill="#002152"/>
<path d="M26.6285 1C25.7142 1 24.973 1.74119 24.973 2.6555C24.973 3.22695 25.2625 3.73077 25.7029 4.02827C25.7385 4.05235 25.7751 4.07507 25.8126 4.09636C26.0534 4.23299 26.3318 4.31101 26.6285 4.31101H34.6821C35.0249 4.31101 35.3435 4.20678 35.6077 4.02827C35.6149 4.02338 35.6221 4.01842 35.6293 4.01341C36.0575 3.71416 36.3376 3.21754 36.3376 2.6555C36.3376 1.74119 35.5964 1 34.6821 1H26.6285Z" fill="url(#paint0_linear_2388_2893)"/>
<path fill-rule="evenodd" clip-rule="evenodd" d="M43.4709 4.79884C42.8181 4.15868 41.7699 4.16892 41.1298 4.82173C40.4896 5.47453 40.4999 6.52268 41.1527 7.16285L41.8547 7.85135L40.6972 8.98645C38.0069 6.84941 34.5838 5.57235 30.8672 5.57235C22.2583 5.57235 15.2239 12.4245 15.2239 20.9449C15.2239 29.4653 22.2583 36.3174 30.8672 36.3174C39.4761 36.3174 46.5105 29.4653 46.5105 20.9449C46.5105 17.2895 45.2158 13.9412 43.0575 11.3092L44.2192 10.17L44.9675 10.9039C45.6203 11.544 46.6685 11.5338 47.3086 10.881C47.9488 10.2282 47.9386 9.18002 47.2858 8.53985L43.4709 4.79884ZM30.5764 27.7069L35.646 20.4008C35.8413 20.1119 35.6235 19.7265 35.263 19.7265L32.2362 19.6895C31.7255 19.6821 31.3124 19.2968 31.3124 18.8151L31.3049 14.636C31.3049 14.1988 30.7041 14.0358 30.4487 14.3989L25.3791 21.705C25.1763 21.994 25.3941 22.3719 25.7621 22.3793L28.7889 22.4163C29.2996 22.4237 29.7127 22.809 29.7127 23.2907L29.7202 27.4698C29.7202 27.907 30.321 28.07 30.5764 27.7069Z" fill="url(#paint1_linear_2388_2893)"/>
<defs>
<linearGradient id="paint0_linear_2388_2893" x1="15.2239" y1="19.3728" x2="47.7821" y2="19.3728" gradientUnits="userSpaceOnUse">
<stop stop-color="#33AFF8"/>
<stop offset="1" stop-color="#1393F1"/>
</linearGradient>
<linearGradient id="paint1_linear_2388_2893" x1="15.2239" y1="19.3728" x2="47.7821" y2="19.3728" gradientUnits="userSpaceOnUse">
<stop stop-color="#33AFF8"/>
<stop offset="1" stop-color="#1393F1"/>
</linearGradient>
</defs>
</svg>
