<svg width="48" height="36" viewBox="0 0 48 36" fill="none" xmlns="http://www.w3.org/2000/svg">
<path d="M34.2767 28.3001L32.4429 26.4662C32.2865 26.3099 32.0875 26.2317 31.8458 26.2317C31.6042 26.2317 31.4051 26.3099 31.2488 26.4662C31.0924 26.6226 31.0142 26.8216 31.0142 27.0633C31.0142 27.305 31.0924 27.504 31.2488 27.6604L33.6796 30.0912C33.8502 30.2618 34.0492 30.3471 34.2767 30.3471C34.5042 30.3471 34.7032 30.2618 34.8738 30.0912L39.6929 25.2721C39.8492 25.1157 39.9274 24.9167 39.9274 24.6751C39.9274 24.4334 39.8492 24.2344 39.6929 24.078C39.5365 23.9216 39.3375 23.8434 39.0958 23.8434C38.8541 23.8434 38.6551 23.9216 38.4988 24.078L34.2767 28.3001ZM35.4708 35.2942C34.2909 35.2942 33.1821 35.0701 32.1443 34.6221C31.1066 34.174 30.2039 33.5664 29.4363 32.7993C28.6686 32.0317 28.061 31.129 27.6135 30.0912C27.166 29.0535 26.942 27.9447 26.9414 26.7648C26.9414 25.5849 27.1654 24.476 27.6135 23.4383C28.0616 22.4005 28.6692 21.4979 29.4363 20.7302C30.2039 19.9626 31.1066 19.355 32.1443 18.9075C33.1821 18.46 34.2909 18.2359 35.4708 18.2354C36.6507 18.2354 37.7595 18.4594 38.7973 18.9075C39.835 19.3555 40.7377 19.9631 41.5054 20.7302C42.273 21.4979 42.8809 22.4005 43.329 23.4383C43.777 24.476 44.0008 25.5849 44.0002 26.7648C44.0002 27.9447 43.7762 29.0535 43.3281 30.0912C42.88 31.129 42.2725 32.0317 41.5054 32.7993C40.7377 33.567 39.835 34.1748 38.7973 34.6229C37.7595 35.071 36.6507 35.2947 35.4708 35.2942Z" fill="#002152"/>
<path fill-rule="evenodd" clip-rule="evenodd" d="M4 4.70588C4 2.1069 6.1069 0 8.70588 0H38.144C40.743 0 42.8499 2.1069 42.8499 4.70588V17.9776C41.9842 17.2523 41.0179 16.6627 39.9637 16.2076C38.5406 15.5931 37.0311 15.2941 35.4691 15.2941C33.9081 15.2949 32.4011 15.5937 30.9788 16.207C29.6149 16.7951 28.3973 17.6095 27.3556 18.6513C26.3149 19.6927 25.5019 20.9088 24.9134 22.2716C24.299 23.6946 24 25.2042 24 26.7662C24.0008 28.3272 24.2995 29.8342 24.9129 31.2565C25.501 32.6204 26.3154 33.838 27.3572 34.8797C27.5951 35.1175 27.8422 35.3434 28.0981 35.5575H8.70588C6.10689 35.5575 4 33.4506 4 30.8516V4.70588ZM14.2941 5.88235C14.822 5.88235 15.25 6.30779 15.25 6.83258V7.62443H15.4412C15.4552 7.62443 15.4692 7.62474 15.4832 7.62535C16.0209 7.64886 16.5375 7.83475 16.9668 8.1567C17.3959 8.47849 17.7175 8.92093 17.893 9.42532C18.0657 9.92126 17.8012 10.4624 17.3023 10.634C16.8034 10.8056 16.259 10.5427 16.0864 10.0468C16.0336 9.89526 15.9383 9.76598 15.8154 9.67381C15.6973 9.58526 15.5585 9.53436 15.4158 9.52489H13.1471C12.95 9.52489 12.7573 9.604 12.6125 9.75062C12.4671 9.89784 12.3824 10.1012 12.3824 10.3167C12.3824 10.5323 12.4671 10.7356 12.6125 10.8829C12.7573 11.0295 12.95 11.1086 13.1471 11.1086H15.4412C16.1567 11.1086 16.8394 11.3966 17.3399 11.9033C17.8398 12.4095 18.1176 13.0924 18.1176 13.8009C18.1176 14.5094 17.8398 15.1923 17.3399 15.6985C16.8394 16.2052 16.1567 16.4932 15.4412 16.4932H15.25V17.2851C15.25 17.8099 14.822 18.2353 14.2941 18.2353C13.7662 18.2353 13.3382 17.8099 13.3382 17.2851V16.4932H13.1471C13.1331 16.4932 13.1191 16.4929 13.1051 16.4923C12.5674 16.4688 12.0507 16.2829 11.6214 15.9609C11.1924 15.6392 10.8708 15.1967 10.6952 14.6923C10.5226 14.1964 10.7871 13.6552 11.2859 13.4836C11.7848 13.312 12.3292 13.5749 12.5019 14.0709C12.5546 14.2224 12.65 14.3517 12.7728 14.4438C12.8909 14.5324 13.0297 14.5833 13.1724 14.5928H15.4412C15.6383 14.5928 15.8309 14.5137 15.9757 14.367C16.1211 14.2198 16.2059 14.0165 16.2059 13.8009C16.2059 13.5853 16.1211 13.382 15.9757 13.2348C15.8309 13.0882 15.6383 13.0091 15.4412 13.0091H13.1471C12.4315 13.0091 11.7489 12.7211 11.2483 12.2143C10.7484 11.7081 10.4706 11.0252 10.4706 10.3167C10.4706 9.60827 10.7484 8.92537 11.2483 8.41919C11.7489 7.91241 12.4315 7.62443 13.1471 7.62443H13.3382V6.83258C13.3382 6.30779 13.7662 5.88235 14.2941 5.88235Z" fill="url(#paint0_linear_2388_2894)"/>
<defs>
<linearGradient id="paint0_linear_2388_2894" x1="41.3878" y1="14.1674" x2="5.2485" y2="14.6386" gradientUnits="userSpaceOnUse">
<stop stop-color="#1A98F3"/>
<stop offset="1" stop-color="#40B6F9"/>
</linearGradient>
</defs>
</svg>
