<svg width="17" height="16" viewBox="0 0 17 16" fill="none" xmlns="http://www.w3.org/2000/svg">
<path d="M3.63699 0.85C3.73088 0.740235 3.84743 0.652111 3.97863 0.591691C4.10982 0.531272 4.25255 0.49999 4.39699 0.5H12.937C13.0814 0.49999 13.2242 0.531272 13.3554 0.591691C13.4866 0.652111 13.6031 0.740235 13.697 0.85L16.306 3.894C16.5389 4.16583 16.667 4.51201 16.667 4.87V5.125C16.667 5.61998 16.5125 6.1026 16.2248 6.50542C15.9372 6.90824 15.5309 7.21113 15.0627 7.37174C14.5945 7.53236 14.0878 7.54268 13.6135 7.40127C13.1391 7.25986 12.7208 6.97377 12.417 6.583C12.1951 6.86877 11.9108 7.09998 11.5858 7.25892C11.2608 7.41786 10.9038 7.50033 10.542 7.5C10.1802 7.5004 9.82312 7.41797 9.49811 7.25902C9.1731 7.10007 8.8888 6.86882 8.66699 6.583C8.44518 6.86882 8.16088 7.10007 7.83588 7.25902C7.51087 7.41797 7.15379 7.5004 6.79199 7.5C6.4302 7.5004 6.07312 7.41797 5.74811 7.25902C5.4231 7.10007 5.1388 6.86882 4.91699 6.583C4.61318 6.97377 4.19487 7.25986 3.72053 7.40127C3.24618 7.54268 2.73951 7.53236 2.27132 7.37174C1.80312 7.21113 1.39681 6.90824 1.10917 6.50542C0.821534 6.1026 0.666938 5.61998 0.666992 5.125V4.87C0.667005 4.51201 0.795049 4.16583 1.02799 3.894L3.63799 0.849L3.63699 0.85ZM5.41699 5.125C5.41699 5.48967 5.56186 5.83941 5.81972 6.09727C6.07758 6.35513 6.42732 6.5 6.79199 6.5C7.15666 6.5 7.5064 6.35513 7.76426 6.09727C8.02213 5.83941 8.16699 5.48967 8.16699 5.125C8.16699 4.99239 8.21967 4.86521 8.31344 4.77145C8.40721 4.67768 8.53438 4.625 8.66699 4.625C8.7996 4.625 8.92678 4.67768 9.02055 4.77145C9.11431 4.86521 9.16699 4.99239 9.16699 5.125C9.16699 5.48967 9.31186 5.83941 9.56972 6.09727C9.82758 6.35513 10.1773 6.5 10.542 6.5C10.9067 6.5 11.2564 6.35513 11.5143 6.09727C11.7721 5.83941 11.917 5.48967 11.917 5.125C11.917 4.99239 11.9697 4.86521 12.0634 4.77145C12.1572 4.67768 12.2844 4.625 12.417 4.625C12.5496 4.625 12.6768 4.67768 12.7705 4.77145C12.8643 4.86521 12.917 4.99239 12.917 5.125C12.917 5.48967 13.0619 5.83941 13.3197 6.09727C13.5776 6.35513 13.9273 6.5 14.292 6.5C14.6567 6.5 15.0064 6.35513 15.2643 6.09727C15.5221 5.83941 15.667 5.48967 15.667 5.125V4.87C15.667 4.75083 15.6244 4.63557 15.547 4.545L12.937 1.5H4.39699L1.78699 4.545C1.70954 4.63557 1.66698 4.75083 1.66699 4.87V5.125C1.66699 5.48967 1.81186 5.83941 2.06972 6.09727C2.32758 6.35513 2.67732 6.5 3.04199 6.5C3.40666 6.5 3.7564 6.35513 4.01426 6.09727C4.27213 5.83941 4.41699 5.48967 4.41699 5.125C4.41699 4.99239 4.46967 4.86521 4.56344 4.77145C4.65721 4.67768 4.78438 4.625 4.91699 4.625C5.0496 4.625 5.17678 4.67768 5.27055 4.77145C5.36431 4.86521 5.41699 4.99239 5.41699 5.125ZM2.16699 8C2.2996 8 2.42678 8.05268 2.52055 8.14645C2.61431 8.24021 2.66699 8.36739 2.66699 8.5V14.5H3.66699V9.5C3.66699 9.23478 3.77235 8.98043 3.95989 8.79289C4.14742 8.60536 4.40178 8.5 4.66699 8.5H7.66699C7.93221 8.5 8.18656 8.60536 8.3741 8.79289C8.56164 8.98043 8.66699 9.23478 8.66699 9.5V14.5H14.667V8.5C14.667 8.36739 14.7197 8.24021 14.8134 8.14645C14.9072 8.05268 15.0344 8 15.167 8C15.2996 8 15.4268 8.05268 15.5205 8.14645C15.6143 8.24021 15.667 8.36739 15.667 8.5V14.5H16.167C16.2996 14.5 16.4268 14.5527 16.5205 14.6464C16.6143 14.7402 16.667 14.8674 16.667 15C16.667 15.1326 16.6143 15.2598 16.5205 15.3536C16.4268 15.4473 16.2996 15.5 16.167 15.5H1.16699C1.03438 15.5 0.907207 15.4473 0.813439 15.3536C0.719671 15.2598 0.666992 15.1326 0.666992 15C0.666992 14.8674 0.719671 14.7402 0.813439 14.6464C0.907207 14.5527 1.03438 14.5 1.16699 14.5H1.66699V8.5C1.66699 8.36739 1.71967 8.24021 1.81344 8.14645C1.90721 8.05268 2.03438 8 2.16699 8ZM4.66699 14.5H7.66699V9.5H4.66699V14.5ZM9.66699 9.5C9.66699 9.23478 9.77235 8.98043 9.95989 8.79289C10.1474 8.60536 10.4018 8.5 10.667 8.5H12.667C12.9322 8.5 13.1866 8.60536 13.3741 8.79289C13.5616 8.98043 13.667 9.23478 13.667 9.5V12.5C13.667 12.7652 13.5616 13.0196 13.3741 13.2071C13.1866 13.3946 12.9322 13.5 12.667 13.5H10.667C10.4018 13.5 10.1474 13.3946 9.95989 13.2071C9.77235 13.0196 9.66699 12.7652 9.66699 12.5V9.5ZM12.667 9.5H10.667V12.5H12.667V9.5Z" fill="#586474"/>
</svg>
