<svg width="17" height="16" viewBox="0 0 17 16" fill="none" xmlns="http://www.w3.org/2000/svg">
<path fill-rule="evenodd" clip-rule="evenodd" d="M7.40765 0.608167C7.62167 0.395462 8.01957 0 8.66699 0C9.31441 0 9.71232 0.395462 9.92634 0.608167C9.95084 0.632517 9.97293 0.654472 9.99271 0.673164L10.0042 0.684371L11.0473 1.7264C11.3015 1.25164 11.8026 0.927536 12.3771 0.927536H13.3047C14.135 0.927536 14.8119 1.60447 14.8119 2.43478V5.48822L15.9869 6.66241L15.9953 6.671C16.0102 6.68653 16.0256 6.70241 16.0414 6.71867C16.3031 6.98889 16.667 7.36454 16.667 8C16.667 8.84046 16.0087 9.50725 15.1597 9.50725H14.8119V14.4928C14.8119 15.3231 14.135 16 13.3047 16H10.9858C10.7835 16 10.5617 15.9592 10.3663 15.8233C10.1646 15.6831 10.0607 15.4903 10.008 15.3199C9.95864 15.1602 9.94698 14.9977 9.94306 14.8718C9.94037 14.7854 9.94113 14.6851 9.94181 14.596C9.94209 14.5591 9.94235 14.5241 9.94235 14.4928V10.7826C9.94235 10.5926 9.78451 10.4348 9.59453 10.4348H7.73946C7.54948 10.4348 7.39163 10.5926 7.39163 10.7826V14.4928C7.39163 15.3252 6.71681 16 5.88438 16H4.02931C3.199 16 2.52206 15.3231 2.52206 14.4928V9.50725H2.17424C1.32533 9.50725 0.666992 8.84046 0.666992 8C0.666992 7.36454 1.03087 6.98889 1.29261 6.71867C1.30836 6.70241 1.32374 6.68653 1.33865 6.671L1.34709 6.66239L7.3297 0.684417L7.34128 0.673164C7.36106 0.654472 7.38315 0.632517 7.40765 0.608167ZM8.14353 1.51025L2.17087 7.47828C2.01469 7.64099 1.93532 7.72498 1.88219 7.80839C1.84426 7.86792 1.82641 7.91761 1.82641 8C1.82641 8.20394 1.96947 8.34783 2.17424 8.34783H3.10177C3.42194 8.34783 3.68148 8.60737 3.68148 8.92754V14.4928C3.68148 14.6827 3.83933 14.8406 4.02931 14.8406H5.88438C6.07648 14.8406 6.23221 14.6849 6.23221 14.4928V10.7826C6.23221 9.9523 6.90915 9.27536 7.73946 9.27536H9.59453C10.4248 9.27536 11.1018 9.9523 11.1018 10.7826V14.4928C11.1018 14.5462 11.1014 14.5926 11.1011 14.6346C11.1004 14.7101 11.0999 14.7718 11.1019 14.8357L11.1021 14.8406H13.3047C13.4947 14.8406 13.6525 14.6827 13.6525 14.4928V8.92754C13.6525 8.60737 13.912 8.34783 14.2322 8.34783H15.1597C15.3645 8.34783 15.5076 8.20394 15.5076 8C15.5076 7.91761 15.4897 7.86792 15.4518 7.80839C15.3987 7.72498 15.3193 7.64099 15.1631 7.47827L13.8224 6.13852C13.7136 6.02979 13.6525 5.88228 13.6525 5.72846V2.43478C13.6525 2.2448 13.4947 2.08696 13.3047 2.08696H12.3771C12.1872 2.08696 12.0293 2.2448 12.0293 2.43478V2.94771C12.0293 3.18213 11.8881 3.39347 11.6716 3.48324C11.455 3.573 11.2057 3.52351 11.0399 3.35783L9.19048 1.51027C9.17291 1.49366 9.15618 1.47781 9.1402 1.46268C8.87548 1.21191 8.82006 1.15942 8.66699 1.15942C8.51392 1.15942 8.4585 1.21191 8.19378 1.46268C8.17782 1.4778 8.16109 1.49365 8.14353 1.51025Z" fill="#586474"/>
</svg>
