<svg width="25" height="24" viewBox="0 0 25 24" fill="none" xmlns="http://www.w3.org/2000/svg">
<path d="M7.68457 3V5.25M18.1846 3V5.25M3.93457 18.75V7.5C3.93457 6.90326 4.17162 6.33097 4.59358 5.90901C5.01554 5.48705 5.58783 5.25 6.18457 5.25H19.6846C20.2813 5.25 20.8536 5.48705 21.2756 5.90901C21.6975 6.33097 21.9346 6.90326 21.9346 7.5V18.75M3.93457 18.75C3.93457 19.3467 4.17162 19.919 4.59358 20.341C5.01554 20.7629 5.58783 21 6.18457 21H19.6846C20.2813 21 20.8536 20.7629 21.2756 20.341C21.6975 19.919 21.9346 19.3467 21.9346 18.75M3.93457 18.75V11.25C3.93457 10.6533 4.17162 10.081 4.59358 9.65901C5.01554 9.23705 5.58783 9 6.18457 9H19.6846C20.2813 9 20.8536 9.23705 21.2756 9.65901C21.6975 10.081 21.9346 10.6533 21.9346 11.25V18.75" stroke="#05A7FF" stroke-width="1.5" stroke-linecap="round" stroke-linejoin="round"/>
</svg>
