<svg width="30" height="28" viewBox="0 0 30 28" fill="none" xmlns="http://www.w3.org/2000/svg">
<path fill-rule="evenodd" clip-rule="evenodd" d="M27.8746 17.4353H28.5496C28.9209 17.4353 29.2246 17.7306 29.2246 18.0916V19.4041C29.2246 19.765 28.9209 20.0603 28.5496 20.0603H26.5246C26.5246 22.2341 24.7105 23.9978 22.4746 23.9978C20.2387 23.9978 18.4246 22.2341 18.4246 20.0603H13.4419C13.3829 19.5925 13.2764 19.1316 13.1239 18.6845C13.4709 18.2965 13.6976 17.8058 13.7588 17.2719C13.8368 16.5915 13.6375 15.9155 13.217 15.3886L13.1994 15.3665L13.1812 15.345C12.4958 14.5342 11.6687 13.8522 10.7408 13.3297C10.4525 13.1674 10.1345 13.0609 9.80258 13.018C9.47393 12.9756 9.13976 12.9964 8.81843 13.0798C8.60227 13.1359 8.39382 13.2198 8.19857 13.3298C8.10352 13.3833 8.0116 13.443 7.92344 13.5087C7.75198 13.6364 7.59663 13.7853 7.46142 13.9522C7.07363 13.8894 6.68053 13.8576 6.28602 13.8576C5.89006 13.8576 5.49702 13.8896 5.1106 13.9522C4.97347 13.7832 4.81755 13.635 4.64912 13.5094C4.56076 13.4435 4.46863 13.3836 4.37335 13.3299C4.17817 13.22 3.96981 13.136 3.75374 13.0799C3.43224 12.9964 3.09787 12.9755 2.76902 13.018C2.58339 13.042 2.40083 13.086 2.22461 13.1493V4.96655C2.22461 3.87964 3.13164 2.9978 4.24961 2.9978H17.7496C18.8676 2.9978 19.7746 3.87964 19.7746 4.96655V6.9353H21.6351C22.1709 6.9353 22.6855 7.14448 23.0652 7.51362L27.2798 11.6111C27.6595 11.9802 27.8746 12.4806 27.8746 13.0015V17.4353ZM20.4496 20.0603C20.4496 21.1472 21.3566 22.0291 22.4746 22.0291C23.5926 22.0291 24.4996 21.1472 24.4996 20.0603C24.4996 18.9734 23.5926 18.0916 22.4746 18.0916C21.3566 18.0916 20.4496 18.9734 20.4496 20.0603ZM19.7746 13.4978H25.8496V13.0015L21.6351 8.90405H19.7746V13.4978Z" fill="url(#paint0_linear_1453_11234)"/>
<path d="M6.28602 15.8589C6.97024 15.8589 7.64776 15.99 8.2799 16.2447C8.91204 16.4995 9.48641 16.8729 9.97023 17.3437C10.454 17.8144 10.8378 18.3733 11.0997 18.9883C11.3615 19.6034 11.4963 20.2626 11.4963 20.9283C11.4963 21.5941 11.3615 22.2533 11.0997 22.8683C10.8378 23.4834 10.454 24.0422 9.97023 24.513C9.48641 24.9837 8.91204 25.3571 8.2799 25.6119C7.64776 25.8667 6.97024 25.9978 6.28602 25.9978C4.90418 25.9978 3.57893 25.4637 2.60182 24.513C1.62471 23.5623 1.07577 22.2728 1.07577 20.9283C1.07577 19.5838 1.62471 18.2944 2.60182 17.3437C3.57893 16.393 4.90418 15.8589 6.28602 15.8589ZM6.28602 18.112C6.14423 18.112 6.00737 18.1626 5.90141 18.2543C5.79544 18.346 5.72775 18.4723 5.71116 18.6093L5.70711 18.6752V20.9204C5.70519 21.0457 5.74635 21.1681 5.82405 21.268L5.87615 21.3266L7.09535 22.5123C7.19929 22.6144 7.3394 22.6739 7.48701 22.6788C7.63462 22.6837 7.77857 22.6335 7.88938 22.5385C8.00019 22.4435 8.06949 22.3108 8.0831 22.1677C8.0967 22.0247 8.05358 21.8819 7.96257 21.7687L7.91394 21.7158L6.86494 20.6951V18.6752C6.86494 18.5258 6.80395 18.3826 6.69538 18.2769C6.58681 18.1713 6.43956 18.112 6.28602 18.112ZM9.75952 15.0736C10.482 15.4804 11.1235 16.0101 11.6537 16.6373C11.7462 16.7531 11.7885 16.8995 11.7718 17.0452C11.7551 17.191 11.6806 17.3246 11.5642 17.4178C11.4478 17.5109 11.2987 17.5562 11.1485 17.5441C10.9983 17.5319 10.8589 17.4633 10.7599 17.3527C10.3177 16.8296 9.78256 16.3879 9.18003 16.0487C9.11423 16.0116 9.05657 15.9623 9.01036 15.9036C8.96414 15.8448 8.93027 15.7778 8.91068 15.7063C8.89109 15.6349 8.88615 15.5603 8.89616 15.487C8.90617 15.4137 8.93092 15.343 8.96901 15.279C9.0071 15.2149 9.05778 15.1588 9.11814 15.1139C9.17851 15.0689 9.24739 15.036 9.32085 15.0169C9.39431 14.9978 9.47091 14.993 9.54628 15.0028C9.62165 15.0125 9.69372 15.0366 9.75952 15.0736ZM3.60332 15.2792C3.68009 15.4086 3.70089 15.5624 3.66115 15.7067C3.62142 15.851 3.5244 15.974 3.39144 16.0487C2.78885 16.3881 2.25375 16.8299 1.81157 17.3532C1.76411 17.4127 1.70487 17.4623 1.63736 17.4991C1.56984 17.536 1.49543 17.5592 1.41851 17.5676C1.34159 17.5759 1.26373 17.5692 1.18954 17.5478C1.11535 17.5263 1.04632 17.4906 0.98655 17.4428C0.926777 17.395 0.87747 17.3359 0.841543 17.2693C0.805617 17.2026 0.7838 17.1295 0.777384 17.0545C0.770967 16.9794 0.780081 16.9039 0.804187 16.8323C0.828292 16.7608 0.8669 16.6947 0.917727 16.6379C1.4477 16.0105 2.08908 15.4807 2.81136 15.0736C2.87719 15.0366 2.94989 15.0124 3.0253 15.0027C3.10071 14.993 3.17735 14.9978 3.25085 15.0169C3.32434 15.036 3.39325 15.069 3.45363 15.114C3.51401 15.159 3.56526 15.2152 3.60332 15.2792Z" fill="#002152"/>
<defs>
<linearGradient id="paint0_linear_1453_11234" x1="29.2246" y1="14.977" x2="0.77539" y2="14.977" gradientUnits="userSpaceOnUse">
<stop stop-color="#0D8DEF"/>
<stop offset="1" stop-color="#38B3F8"/>
</linearGradient>
</defs>
</svg>
