<svg width="18" height="19" viewBox="0 0 18 19" fill="none" xmlns="http://www.w3.org/2000/svg">
<path d="M7.2 12.2448L11.871 9.67334L7.2 7.10191V12.2448ZM17.604 5.53334C17.721 5.9362 17.802 6.4762 17.856 7.16191C17.919 7.84762 17.946 8.43905 17.946 8.95334L18 9.67334C18 11.5505 17.856 12.9305 17.604 13.8133C17.379 14.5848 16.857 15.0819 16.047 15.2962C15.624 15.4076 14.85 15.4848 13.662 15.5362C12.492 15.5962 11.421 15.6219 10.431 15.6219L9 15.6733C5.229 15.6733 2.88 15.5362 1.953 15.2962C1.143 15.0819 0.621 14.5848 0.396 13.8133C0.279 13.4105 0.198 12.8705 0.144 12.1848C0.0810001 11.4991 0.0539999 10.9076 0.0539999 10.3933L0 9.67334C0 7.7962 0.144 6.4162 0.396 5.53334C0.621 4.76191 1.143 4.26477 1.953 4.05048C2.376 3.93905 3.15 3.86191 4.338 3.81048C5.508 3.75048 6.579 3.72477 7.569 3.72477L9 3.67334C12.771 3.67334 15.12 3.81048 16.047 4.05048C16.857 4.26477 17.379 4.76191 17.604 5.53334Z" fill="#6E7D91"/>
</svg>
