<svg width="30" height="30" viewBox="0 0 30 30" fill="none" xmlns="http://www.w3.org/2000/svg">
<path d="M15.1165 26.375C14.9182 26.375 14.7518 26.311 14.6174 26.183C14.483 26.055 14.416 25.8968 14.4165 25.7083C14.4165 25.5194 14.4837 25.361 14.6181 25.233C14.7525 25.105 14.9186 25.0412 15.1165 25.0417H27.7165C27.9148 25.0417 28.0812 25.1057 28.2156 25.2337C28.35 25.3617 28.417 25.5199 28.4165 25.7083C28.4165 25.8972 28.3493 26.0557 28.2149 26.1837C28.0805 26.3117 27.9144 26.3754 27.7165 26.375H15.1165ZM16.1665 24.375C15.8748 24.375 15.6268 24.2777 15.4224 24.083C15.218 23.8883 15.116 23.6523 15.1165 23.375V20.7083C15.1165 20.4306 15.2187 20.1943 15.4231 19.9997C15.6275 19.805 15.8753 19.7079 16.1665 19.7083C16.4582 19.7083 16.7062 19.8057 16.9106 20.0003C17.115 20.195 17.217 20.431 17.2165 20.7083V23.375C17.2165 23.6528 17.1143 23.889 16.9099 24.0837C16.7055 24.2783 16.4577 24.3754 16.1665 24.375ZM19.6665 24.375C19.3748 24.375 19.1268 24.2777 18.9224 24.083C18.718 23.8883 18.616 23.6523 18.6165 23.375V17.375C18.6165 17.0972 18.7187 16.861 18.9231 16.6663C19.1275 16.4717 19.3753 16.3746 19.6665 16.375C19.9582 16.375 20.2062 16.4723 20.4106 16.667C20.615 16.8617 20.717 17.0977 20.7165 17.375V23.375C20.7165 23.6528 20.6143 23.889 20.4099 24.0837C20.2055 24.2783 19.9577 24.3754 19.6665 24.375ZM23.1665 24.375C22.8748 24.375 22.6268 24.2777 22.4224 24.083C22.218 23.8883 22.116 23.6523 22.1165 23.375V19.375C22.1165 19.0972 22.2187 18.861 22.4231 18.6663C22.6275 18.4717 22.8753 18.3746 23.1665 18.375C23.4582 18.375 23.7062 18.4723 23.9106 18.667C24.115 18.8617 24.217 19.0977 24.2165 19.375V23.375C24.2165 23.6528 24.1143 23.889 23.9099 24.0837C23.7055 24.2783 23.4577 24.3754 23.1665 24.375ZM26.6665 24.375C26.3748 24.375 26.1268 24.2777 25.9224 24.083C25.718 23.8883 25.616 23.6523 25.6165 23.375V15.375C25.6165 15.0972 25.7187 14.861 25.9231 14.6663C26.1275 14.4717 26.3753 14.3746 26.6665 14.375C26.9582 14.375 27.2062 14.4723 27.4106 14.667C27.615 14.8617 27.717 15.0977 27.7165 15.375V23.375C27.7165 23.6528 27.6143 23.889 27.4099 24.0837C27.2055 24.2783 26.9577 24.3754 26.6665 24.375Z" fill="#002152"/>
<path d="M6.37725 22.6646C6.68419 22.9715 7.0453 23.125 7.46058 23.125H13.0981V20.6843C13.0981 19.0275 14.4413 17.6843 16.0981 17.6843H16.1792C16.315 17.6843 16.4486 17.6933 16.5796 17.7108V17.375C16.5796 15.7181 17.9227 14.375 19.5796 14.375H19.6606C20.9916 14.375 22.1201 15.2417 22.5126 16.4415C22.7107 16.4003 22.9161 16.3787 23.1265 16.3787H23.2075C23.2218 16.3787 23.236 16.3788 23.2502 16.379V5.79167C23.2509 5.19656 23.0389 4.68667 22.6142 4.262C22.1896 3.83734 21.6793 3.625 21.0835 3.625H3.75016C3.15505 3.62428 2.64516 3.83625 2.2205 4.26092C1.79583 4.68559 1.5835 5.19584 1.5835 5.79167V17.7083C1.58278 18.3034 1.79475 18.8133 2.21941 19.238C2.64408 19.6627 3.15433 19.875 3.75016 19.875H7.00016L6.35016 20.525C6.2245 20.6507 6.12086 20.8175 6.03925 21.0255C5.95764 21.2335 5.91683 21.4188 5.91683 21.5813C5.91683 21.9965 6.0703 22.3576 6.37725 22.6646Z" fill="url(#paint0_linear_1453_11244)"/>
<defs>
<linearGradient id="paint0_linear_1453_11244" x1="23.2502" y1="13.7812" x2="1.5835" y2="13.7813" gradientUnits="userSpaceOnUse">
<stop stop-color="#0D8DEF"/>
<stop offset="1" stop-color="#38B3F8"/>
</linearGradient>
</defs>
</svg>
