<svg width="18" height="19" viewBox="0 0 18 19" fill="none" xmlns="http://www.w3.org/2000/svg">
<path d="M9.77772 16.6733H6.66666V7.34001H9.77772V8.89556C10.4409 8.05187 11.4466 7.5489 12.5194 7.52434C14.4488 7.53505 16.0055 9.10508 16 11.0344V16.6733H12.8889V11.4233C12.7645 10.5543 12.0191 9.90946 11.1412 9.91134C10.7572 9.92349 10.3948 10.0916 10.1374 10.3769C9.88011 10.6623 9.75028 11.0402 9.77772 11.4233V16.6733ZM5.1111 16.6733H2V7.34001H5.1111V16.6733ZM3.55556 5.78445C2.69645 5.78445 2 5.088 2 4.2289C2 3.36979 2.69645 2.67334 3.55556 2.67334C4.41466 2.67334 5.1111 3.36979 5.1111 4.2289C5.1111 4.64145 4.94721 5.03711 4.6555 5.32884C4.36377 5.62056 3.96811 5.78445 3.55556 5.78445Z" fill="#6E7D91"/>
</svg>
