<svg width="30" height="29" viewBox="0 0 30 29" fill="none" xmlns="http://www.w3.org/2000/svg">
<path d="M4.95846 25.8776L5.23188 15.5769C5.25356 14.751 6.18242 14.3659 6.78209 14.9343L14.2629 22.0208C14.9404 22.6624 14.4993 23.8029 13.6067 23.7157L9.80983 23.3445C9.51466 23.3157 9.22979 23.4338 9.0421 23.6627L6.62128 26.6113C6.05193 27.3039 4.93324 26.8112 4.95846 25.8776Z" fill="#002152"/>
<path fill-rule="evenodd" clip-rule="evenodd" d="M28.5 18.1572C28.5 17.7964 28.1963 17.501 27.8252 17.501H27.1504V13.0671C27.1504 12.5464 26.9346 12.0459 26.5547 11.6768L22.3408 7.57935C22.1113 7.3562 21.833 7.19165 21.5293 7.09619C21.3311 7.03369 21.1221 7.00098 20.9102 7.00098H19.0498V5.03223C19.0498 3.94531 18.1426 3.06348 17.0254 3.06348H3.52539C2.40723 3.06348 1.5 3.94531 1.5 5.03223V18.1572C1.5 19.1064 2.19141 19.8992 3.11133 20.085L3.23242 15.5244C3.2998 12.9688 6.30176 11.7239 8.15723 13.4824L15.1709 20.126H17.7002C17.7002 22.2998 19.5137 24.0635 21.75 24.0635C23.9863 24.0635 25.7998 22.2998 25.7998 20.126H27.8252C28.1963 20.126 28.5 19.8306 28.5 19.4697V18.1572ZM21.75 22.0947C20.6318 22.0947 19.7246 21.2129 19.7246 20.126C19.7246 19.0391 20.6318 18.1572 21.75 18.1572C22.4395 18.1572 23.0488 18.4929 23.415 19.0054C23.6426 19.3235 23.7754 19.7097 23.7754 20.126C23.7754 21.2129 22.8682 22.0947 21.75 22.0947ZM20.9102 8.96973L25.125 13.0671V13.5635H19.0498V8.96973H20.9102Z" fill="url(#paint0_linear_1453_11242)"/>
<defs>
<linearGradient id="paint0_linear_1453_11242" x1="28.5" y1="14.001" x2="1.5" y2="14.001" gradientUnits="userSpaceOnUse">
<stop stop-color="#0D8DEF"/>
<stop offset="1" stop-color="#38B3F8"/>
</linearGradient>
</defs>
</svg>
