<svg width="48" height="48" viewBox="0 0 48 48" fill="none" xmlns="http://www.w3.org/2000/svg">
<rect width="48" height="48" rx="24" fill="#E2F3FD"/>
<path d="M24 26.5L23.3438 27.2546C23.7201 27.5818 24.2799 27.5818 24.6562 27.2546L24 26.5ZM18.6482 27.3498C19.1795 27.1989 19.4878 26.646 19.337 26.1147C19.1861 25.5834 18.6331 25.275 18.1018 25.4259L18.6482 27.3498ZM29.8982 25.4259C29.3669 25.275 28.8139 25.5834 28.663 26.1147C28.5122 26.646 28.8205 27.1989 29.3518 27.3498L29.8982 25.4259ZM28 18.8913C28 19.4685 27.7722 20.18 27.3393 20.9799C26.9136 21.7664 26.3335 22.5589 25.7329 23.2769C25.1351 23.9917 24.5345 24.6122 24.082 25.0549C23.8563 25.2756 23.669 25.4507 23.5393 25.5695C23.4745 25.6288 23.4242 25.6741 23.3908 25.7039C23.3741 25.7188 23.3616 25.7298 23.3537 25.7367C23.3497 25.7402 23.3469 25.7427 23.3452 25.7442C23.3444 25.7449 23.3439 25.7454 23.3436 25.7456C23.3435 25.7457 23.3435 25.7457 23.3435 25.7457C23.3435 25.7457 23.3436 25.7456 23.3436 25.7456C23.3437 25.7455 23.3438 25.7454 24 26.5C24.6562 27.2546 24.6563 27.2545 24.6565 27.2543C24.6566 27.2542 24.6568 27.2541 24.657 27.2539C24.6573 27.2536 24.6577 27.2533 24.6582 27.2529C24.6592 27.252 24.6604 27.2509 24.662 27.2495C24.6652 27.2468 24.6695 27.2429 24.675 27.2381C24.686 27.2284 24.7016 27.2146 24.7215 27.1969C24.7614 27.1614 24.8185 27.11 24.8904 27.0442C25.0341 26.9125 25.2374 26.7224 25.4805 26.4845C25.9655 26.0101 26.6149 25.3399 27.2671 24.56C27.9165 23.7835 28.5864 22.8776 29.0982 21.9318C29.6028 20.9994 30 19.9446 30 18.8913H28ZM24 26.5C24.6562 25.7454 24.6563 25.7455 24.6564 25.7456C24.6564 25.7456 24.6565 25.7457 24.6565 25.7457C24.6565 25.7457 24.6565 25.7457 24.6564 25.7456C24.6561 25.7454 24.6556 25.7449 24.6548 25.7442C24.6531 25.7427 24.6503 25.7402 24.6463 25.7367C24.6384 25.7298 24.6259 25.7188 24.6092 25.7039C24.5758 25.6741 24.5255 25.6288 24.4607 25.5695C24.331 25.4507 24.1437 25.2756 23.918 25.0549C23.4655 24.6122 22.8649 23.9917 22.2671 23.2769C21.6665 22.5589 21.0864 21.7664 20.6607 20.9799C20.2278 20.18 20 19.4685 20 18.8913H18C18 19.9446 18.3972 20.9994 18.9018 21.9318C19.4136 22.8776 20.0835 23.7835 20.7329 24.56C21.3851 25.3399 22.0345 26.0101 22.5195 26.4845C22.7626 26.7224 22.9659 26.9125 23.1096 27.0442C23.1815 27.11 23.2387 27.1614 23.2785 27.1969C23.2984 27.2146 23.314 27.2284 23.325 27.2381C23.3305 27.2429 23.3348 27.2468 23.338 27.2495C23.3396 27.2509 23.3408 27.252 23.3418 27.2529C23.3423 27.2533 23.3427 27.2536 23.343 27.2539C23.3432 27.2541 23.3434 27.2542 23.3435 27.2543C23.3437 27.2545 23.3438 27.2546 24 26.5ZM20 18.8913C20 16.7628 21.77 15 24 15V13C20.7071 13 18 15.617 18 18.8913H20ZM24 15C26.23 15 28 16.7628 28 18.8913H30C30 15.617 27.2929 13 24 13V15ZM33 29.8333C33 30.0603 32.8939 30.367 32.5124 30.7428C32.1274 31.1221 31.5189 31.5097 30.6865 31.8565C29.0258 32.5485 26.6624 33 24 33V35C26.8605 35 29.497 34.5188 31.4557 33.7027C32.4328 33.2955 33.2889 32.7853 33.9159 32.1676C34.5465 31.5464 35 30.757 35 29.8333H33ZM24 33C21.3376 33 18.9742 32.5485 17.3135 31.8565C16.4811 31.5097 15.8726 31.1221 15.4876 30.7428C15.1062 30.367 15 30.0603 15 29.8333H13C13 30.757 13.4535 31.5464 14.0841 32.1676C14.7111 32.7853 15.5672 33.2955 16.5443 33.7027C18.503 34.5188 21.1395 35 24 35V33ZM15 29.8333C15 29.5537 15.1684 29.1396 15.8076 28.6468C16.4369 28.1618 17.4008 27.7041 18.6482 27.3498L18.1018 25.4259C16.7083 25.8216 15.4847 26.3706 14.5866 27.0628C13.6986 27.7473 13 28.6808 13 29.8333H15ZM29.3518 27.3498C30.5992 27.7041 31.5631 28.1618 32.1924 28.6468C32.8316 29.1396 33 29.5537 33 29.8333H35C35 28.6808 34.3014 27.7473 33.4134 27.0628C32.5153 26.3706 31.2918 25.8216 29.8982 25.4259L29.3518 27.3498Z" fill="#05A7FF"/>
</svg>
