<svg width="48" height="48" viewBox="0 0 48 48" fill="none" xmlns="http://www.w3.org/2000/svg">
<rect width="48" height="48" rx="24" fill="#E2F3FD"/>
<path d="M22.8448 14.8043C23.2416 13.7319 24.7584 13.7319 25.1552 14.8043L27.1303 20.1419C27.2551 20.4791 27.5209 20.7449 27.8581 20.8697L33.1957 22.8448C34.2681 23.2416 34.2681 24.7584 33.1957 25.1552L27.8581 27.1303C27.5209 27.2551 27.2551 27.5209 27.1303 27.8581L25.1552 33.1957C24.7584 34.2681 23.2416 34.2681 22.8448 33.1957L20.8697 27.8581C20.7449 27.5209 20.4791 27.2551 20.1419 27.1303L14.8043 25.1552C13.7319 24.7584 13.7319 23.2416 14.8043 22.8448L20.1419 20.8697C20.4791 20.7449 20.7449 20.4791 20.8697 20.1419L22.8448 14.8043Z" stroke="#05A7FF" stroke-width="2" stroke-linejoin="round"/>
</svg>
