<svg width="48" height="48" viewBox="0 0 48 48" fill="none" xmlns="http://www.w3.org/2000/svg">
<rect width="48" height="48" rx="24" fill="#E2F3FD"/>
<path d="M30 19.7998C30 23.1135 27.3137 25.7998 24 25.7998M30 19.7998C30 16.4861 27.3137 13.7998 24 13.7998M30 19.7998H18M24 25.7998C20.6863 25.7998 18 23.1135 18 19.7998M24 25.7998C25.3255 25.7998 26.4 23.1135 26.4 19.7998C26.4 16.4861 25.3255 13.7998 24 13.7998M24 25.7998C22.6745 25.7998 21.6 23.1135 21.6 19.7998C21.6 16.4861 22.6745 13.7998 24 13.7998M18 19.7998C18 16.4861 20.6863 13.7998 24 13.7998M26.4 31.7998C26.4 33.1253 25.3255 34.1998 24 34.1998C22.6745 34.1998 21.6 33.1253 21.6 31.7998M26.4 31.7998C26.4 30.4743 25.3255 29.3998 24 29.3998C22.6745 29.3998 21.6 30.4743 21.6 31.7998M26.4 31.7998H33.6M21.6 31.7998H14.4" stroke="#05A7FF" stroke-width="2" stroke-linecap="round" stroke-linejoin="round"/>
</svg>
