<svg width="48" height="37" viewBox="0 0 48 37" fill="none" xmlns="http://www.w3.org/2000/svg">
<path d="M4.00004 24.4154L18.3634 18.7897C19.515 18.3383 20.5763 19.4232 20.1347 20.6004L14.6313 35.2829C14.1331 36.6126 12.3083 36.6563 11.919 35.3469L10.2633 29.7772C10.1345 29.3442 9.80904 29.0115 9.38607 28.8805L3.93747 27.1879C2.65714 26.7894 2.69806 24.9246 4.00004 24.4154Z" fill="#002152"/>
<path fill-rule="evenodd" clip-rule="evenodd" d="M43.2415 22.7121H44.1871C44.7071 22.7121 45.1326 23.1357 45.1326 23.6535V25.5364C45.1326 26.0542 44.7071 26.4779 44.1871 26.4779H41.3504C41.3504 29.5965 38.8093 32.1266 35.6771 32.1266C32.545 32.1266 30.0038 29.5965 30.0038 26.4779H22.4394C22.4394 28.9754 20.8096 31.0955 18.5518 31.8409L22.4282 21.4988C23.6303 18.2931 20.6208 15.2168 17.4849 16.4455L7.3106 20.4304V4.82437C7.3106 3.26508 8.58118 2 10.1473 2H29.0583C30.6243 2 31.8949 3.26508 31.8949 4.82437V7.64874H34.5011C35.2516 7.64874 35.9726 7.94883 36.5045 8.4784L42.4083 14.3566C42.9401 14.8862 43.2415 15.6041 43.2415 16.3513V22.7121ZM32.8405 26.4779C32.8405 28.0372 34.111 29.3023 35.6771 29.3023C37.2432 29.3023 38.5138 28.0372 38.5138 26.4779C38.5138 24.9186 37.2432 23.6535 35.6771 23.6535C34.111 23.6535 32.8405 24.9186 32.8405 26.4779ZM31.8949 17.0633H40.4049V16.3513L34.5011 10.4731H31.8949V17.0633Z" fill="url(#paint0_linear_2381_2775)"/>
<defs>
<linearGradient id="paint0_linear_2381_2775" x1="45.1325" y1="17.691" x2="7.31048" y2="17.691" gradientUnits="userSpaceOnUse">
<stop stop-color="#0D8DEF"/>
<stop offset="1" stop-color="#38B3F8"/>
</linearGradient>
</defs>
</svg>
