<svg width="48" height="36" viewBox="0 0 48 36" fill="none" xmlns="http://www.w3.org/2000/svg">
<path d="M37.9721 35.2435L34.0518 31.3124C33.644 31.5986 33.1786 31.814 32.6556 31.9585C32.1326 32.1031 31.6029 32.1753 31.0666 32.1753C29.5816 32.1753 28.3176 31.6594 27.2743 30.6274C26.2311 29.5954 25.7095 28.3362 25.7095 26.8496C25.7095 25.3631 26.2311 24.0976 27.2744 23.0533C28.3176 22.009 29.5817 21.4868 31.0667 21.4868C32.5516 21.4868 33.8095 22.009 34.8403 23.0534C35.871 24.0977 36.3864 25.3632 36.3864 26.8497C36.3864 27.3896 36.3228 27.9066 36.1955 28.4006C36.0682 28.8946 35.8493 29.3483 35.5386 29.7616L39.5026 33.753C39.713 33.9583 39.8143 34.2056 39.8066 34.4947C39.7989 34.7839 39.6903 35.0346 39.4808 35.2468C39.2703 35.4552 39.0195 35.5593 38.7285 35.5593C38.4375 35.5593 38.1853 35.4541 37.9721 35.2435ZM31.0647 29.9928C31.9453 29.9928 32.689 29.6896 33.2959 29.0833C33.9028 28.477 34.2062 27.7331 34.2062 26.8516C34.2062 25.9576 33.9059 25.2038 33.3052 24.59C32.7045 23.9763 31.9577 23.6694 31.0647 23.6694C30.1718 23.6694 29.4193 23.9763 28.8075 24.59C28.1956 25.2038 27.8897 25.9576 27.8897 26.8516C27.8897 27.7455 28.1956 28.4925 28.8075 29.0926C29.4193 29.6927 30.1718 29.9928 31.0647 29.9928Z" fill="#002152"/>
<path d="M7.2105 5.38599C4.8851 5.38599 3 7.27109 3 9.59648V29.5963C3 31.9217 4.8851 33.8068 7.2105 33.8068H27.2239C24.7534 32.4552 23.078 29.8318 23.078 26.8172C23.078 22.4199 26.6427 18.8552 31.04 18.8552C35.4373 18.8552 39.002 22.4199 39.002 26.8172C39.002 27.5651 38.8989 28.2889 38.7061 28.9752L41.3174 31.6265C41.7345 32.05 42.0364 32.5437 42.2236 33.069C43.328 32.31 44.0523 31.0378 44.0523 29.5963V9.59648C44.0523 7.27109 42.1672 5.38599 39.8418 5.38599H7.2105Z" fill="url(#paint0_linear_2160_2719)"/>
<path fill-rule="evenodd" clip-rule="evenodd" d="M23.324 18.4107V14.0589C22.7936 13.9144 22.3366 13.6184 21.9551 13.1761C21.5401 12.695 21.3316 12.132 21.3316 11.4938C21.3316 10.7469 21.6038 10.1091 22.1437 9.58969C22.6836 9.07021 23.347 8.81087 24.1238 8.81087C24.8971 8.81087 25.5588 9.07037 26.0994 9.5896C26.6402 10.109 26.9128 10.7468 26.9128 11.4938C26.9128 12.1313 26.7078 12.6974 26.2998 13.1857C25.923 13.6369 25.4622 13.931 24.9204 14.0627V18.4107C24.9204 19.3744 24.5842 20.1835 23.9115 20.8264C23.2393 21.4687 22.3962 21.7876 21.3941 21.7876C20.392 21.7876 19.5474 21.4688 18.872 20.8266C18.1959 20.1839 17.8578 19.3747 17.8578 18.4107L17.8578 16.7214C17.8578 16.194 17.6742 15.7584 17.3056 15.4041C16.9366 15.0494 16.4803 14.8707 15.9259 14.8707C15.3713 14.8707 14.9139 15.0491 14.5428 15.4035C14.1723 15.7574 13.988 16.1921 13.988 16.7184V21.0908C14.5294 21.2382 14.99 21.5385 15.3672 21.9874C15.7752 22.4732 15.9804 23.0363 15.9804 23.6704C15.9804 24.4133 15.7092 25.0477 15.1713 25.5644C14.6335 26.081 13.9726 26.3389 13.1988 26.3389C12.4286 26.3389 11.7663 26.0809 11.221 25.5652C10.675 25.0488 10.3992 24.4141 10.3992 23.6704C10.3992 23.0357 10.6073 22.4724 11.0206 21.9867C11.4015 21.5391 11.8591 21.2373 12.3916 21.0863V16.7214C12.3916 15.7538 12.7288 14.9413 13.4036 14.2957C14.0778 13.6505 14.9234 13.3302 15.9285 13.3302C16.9336 13.3302 17.7776 13.6505 18.4482 14.296C19.1191 14.9417 19.4542 15.7541 19.4542 16.7214V18.4107C19.4542 18.9335 19.6383 19.3655 20.0088 19.7173C20.3798 20.0694 20.8388 20.2471 21.3968 20.2471C21.9547 20.2471 22.4108 20.0695 22.7763 19.718C23.1419 19.3664 23.324 18.9342 23.324 18.4107ZM13.1847 24.7691C13.8017 24.7691 14.3018 24.2689 14.3018 23.6519C14.3018 23.035 13.8017 22.5348 13.1847 22.5348C12.5677 22.5348 12.0676 23.035 12.0676 23.6519C12.0676 24.2689 12.5677 24.7691 13.1847 24.7691Z" fill="url(#paint1_linear_2160_2719)"/>
<defs>
<linearGradient id="paint0_linear_2160_2719" x1="23.5262" y1="5.38599" x2="23.5262" y2="35.5593" gradientUnits="userSpaceOnUse">
<stop stop-color="#1795F2"/>
<stop offset="1" stop-color="#35B0F8"/>
</linearGradient>
<linearGradient id="paint1_linear_2160_2719" x1="23.5262" y1="5.38599" x2="23.5262" y2="35.5593" gradientUnits="userSpaceOnUse">
<stop stop-color="#1795F2"/>
<stop offset="1" stop-color="#35B0F8"/>
</linearGradient>
</defs>
</svg>
