<svg width="48" height="46" viewBox="0 0 48 46" fill="none" xmlns="http://www.w3.org/2000/svg">
<path d="M2.06496 45.7927C1.4768 45.7927 1 45.3159 1 44.7278V40.7519C1 40.1638 1.4768 39.687 2.06496 39.687H46.3389C46.9271 39.687 47.4039 40.1638 47.4039 40.7519V44.7278C47.4039 45.3159 46.9271 45.7927 46.3389 45.7927H43.8285C43.2403 45.7927 42.7635 45.3159 42.7635 44.7278V43.8048C42.7635 43.2166 42.2867 42.7398 41.6986 42.7398H27.5871C26.9989 42.7398 26.5221 43.2166 26.5221 43.8048V44.7278C26.5221 45.3159 26.0453 45.7927 25.4572 45.7927H22.9467C22.3586 45.7927 21.8818 45.3159 21.8818 44.7278V43.8048C21.8818 43.2166 21.405 42.7398 20.8168 42.7398H6.70535C6.11719 42.7398 5.64039 43.2166 5.64039 43.8048V44.7278C5.64039 45.3159 5.16359 45.7927 4.57543 45.7927H2.06496Z" fill="#002152"/>
<path fill-rule="evenodd" clip-rule="evenodd" d="M3.54678 22.1545C3.54678 20.9699 4.57823 20.0095 5.8506 20.0095H10.7462V23.7936C10.7462 24.2298 11.2757 24.4835 11.6569 24.23L12.7621 23.4951L14.1847 24.3229C14.5683 24.5461 15.0659 24.2893 15.0659 23.8681V20.0095H19.9615C21.2339 20.0095 22.2653 20.9699 22.2653 22.1545V35.2922C22.2653 36.4768 21.2339 37.4372 19.9615 37.4372H5.8506C4.57823 37.4372 3.54678 36.4768 3.54678 35.2922V22.1545ZM10.4582 34.2198C10.4582 33.7755 10.0715 33.4154 9.59431 33.4154H6.71453C6.2374 33.4154 5.8506 33.7755 5.8506 34.2198C5.8506 34.664 6.2374 35.0241 6.71453 35.0241H9.59431C10.0715 35.0241 10.4582 34.664 10.4582 34.2198Z" fill="url(#paint0_linear_2381_2773)"/>
<path fill-rule="evenodd" clip-rule="evenodd" d="M25.4927 22.1544C25.4927 20.9698 26.5241 20.0095 27.7965 20.0095H32.6921V23.7936C32.6921 24.2297 33.2217 24.4834 33.6029 24.2299L34.708 23.495L36.1306 24.3228C36.5142 24.546 37.0118 24.2892 37.0118 23.8681V20.0095H41.9074C43.1798 20.0095 44.2113 20.9698 44.2113 22.1544V35.2921C44.2113 36.4768 43.1798 37.4371 41.9074 37.4371H27.7965C26.5241 37.4371 25.4927 36.4768 25.4927 35.2921V22.1544ZM32.4042 34.2197C32.4042 33.7754 32.0174 33.4153 31.5402 33.4153H28.6604C28.1833 33.4153 27.7965 33.7754 27.7965 34.2197C27.7965 34.6639 28.1833 35.024 28.6604 35.024H31.5402C32.0174 35.024 32.4042 34.6639 32.4042 34.2197Z" fill="url(#paint1_linear_2381_2773)"/>
<path fill-rule="evenodd" clip-rule="evenodd" d="M15.0431 2.17929C15.0431 0.975702 16.0525 0 17.2975 0H22.0882V3.84471C22.0882 4.28786 22.6064 4.54563 22.9794 4.28805L24.0609 3.54135L25.453 4.38242C25.8284 4.60922 26.3153 4.34834 26.3153 3.92041V0H31.106C32.3511 0 33.3604 0.975703 33.3604 2.17929V15.5275C33.3604 16.7311 32.3511 17.7068 31.106 17.7068H17.2975C16.0525 17.7068 15.0431 16.7311 15.0431 15.5275V2.17929ZM21.8064 14.4378C21.8064 13.9865 21.4279 13.6206 20.961 13.6206H18.143C17.6761 13.6206 17.2975 13.9865 17.2975 14.4378C17.2975 14.8892 17.6761 15.255 18.143 15.255H20.961C21.4279 15.255 21.8064 14.8892 21.8064 14.4378Z" fill="url(#paint2_linear_2381_2773)"/>
<defs>
<linearGradient id="paint0_linear_2381_2773" x1="15.5904" y1="9.2498" x2="32.1307" y2="9.2498" gradientUnits="userSpaceOnUse">
<stop stop-color="#36B2F8"/>
<stop offset="1" stop-color="#1191F0"/>
</linearGradient>
<linearGradient id="paint1_linear_2381_2773" x1="15.5904" y1="9.2498" x2="32.1307" y2="9.2498" gradientUnits="userSpaceOnUse">
<stop stop-color="#36B2F8"/>
<stop offset="1" stop-color="#1191F0"/>
</linearGradient>
<linearGradient id="paint2_linear_2381_2773" x1="15.5904" y1="9.2498" x2="32.1307" y2="9.2498" gradientUnits="userSpaceOnUse">
<stop stop-color="#36B2F8"/>
<stop offset="1" stop-color="#1191F0"/>
</linearGradient>
</defs>
</svg>
