<svg width="48" height="38" viewBox="0 0 48 38" fill="none" xmlns="http://www.w3.org/2000/svg">
<path d="M39.3 25.5C40.9 25.5 42.2 26 43.3 27.1C43.2 28 42.8 28.8 42.1 29.5C41.9 29.7 41.6 29.9 41.4 30.1C41.3 29.9 41.2 29.8 41 29.6C40.5 29.1 40 28.9 39.3 28.9C38.6 28.9 38.1 29.1 37.6 29.6C37.3 29.9 37.1 30.3 37 30.7H33L34.2 31.9C34.4 32.1 34.6 32.4 34.8 32.8C35 33.2 35 33.5 35 33.9C35 34.7 34.7 35.4 34.1 35.9C33.5 36.5 32.8 36.8 32 36.8H28C27.1 36.5 26.3 36.1 25.7 35.4C24.6 34.3 24 32.9 24 31.3C24 29.7 24.6 28.3 25.7 27.2C26.8 26.1 28.2 25.5 29.8 25.5H39.3Z" fill="url(#paint0_linear_2385_2843)"/>
<path d="M43.4 4.1V24.8C42.2 24 40.9 23.7 39.4 23.7H30C27.9 23.7 26.1 24.5 24.6 25.9C23.1 27.4 22.4 29.2 22.4 31.3C22.4 33.4 23.2 35.2 24.6 36.7L24.7 36.8H13.2C12.4 36.8 11.7 36.5 11.1 35.9C10.5 35.3 10.2 34.6 10.2 33.9C10.2 33.6 10.3 33.2 10.4 32.9C10.5 32.5 10.7 32.2 11 32L12.2 30.8H6.1C5 30.8 4 30.4 3.2 29.6C2.4 28.7 2 27.8 2 26.6V4.1C2 3 2.4 2 3.2 1.2C4 0.4 5 0 6.1 0H39.2C40.3 0 41.3 0.4 42.1 1.2C43 2 43.4 3 43.4 4.1Z" fill="url(#paint1_linear_2385_2843)"/>
<path d="M43.5002 27.2L43.4002 27.1C42.3002 26 41.0002 25.5 39.4002 25.5H30.0002C28.4002 25.5 27.0002 26.1 25.9002 27.2C24.8002 28.3 24.2002 29.7 24.2002 31.3C24.2002 32.9 24.8002 34.3 25.9002 35.4C26.6002 36.1 27.4002 36.6 28.2002 36.8C28.7002 37 29.3002 37.1 30.0002 37.1H39.4002C41.0002 37.1 42.4002 36.5 43.5002 35.4C44.6002 34.3 45.2002 32.9 45.2002 31.3C45.2002 29.7 44.6002 28.4 43.5002 27.2ZM41.1002 33C40.6002 33.5 40.1002 33.7 39.4002 33.7C38.7002 33.7 38.2002 33.5 37.7002 33C37.2002 32.5 37.0002 32 37.0002 31.3C37.0002 31.1 37.0002 30.9 37.1002 30.7C37.2002 30.3 37.4002 29.9 37.7002 29.6C38.2002 29.1 38.7002 28.9 39.4002 28.9C40.1002 28.9 40.6002 29.1 41.1002 29.6C41.3002 29.7 41.4002 29.9 41.5002 30.1C41.7002 30.5 41.8002 30.9 41.8002 31.3C41.8002 32 41.5002 32.6 41.1002 33Z" fill="#002152"/>
<path fill-rule="evenodd" clip-rule="evenodd" d="M20.1001 20.0999C20.3001 20.2999 20.6001 20.3999 20.9001 20.3999C21.2001 20.3999 21.4001 20.2999 21.7001 20.0999L27.8001 13.7999C28.0001 13.5999 28.1001 13.2999 28.1001 12.9999C28.1001 12.6999 28.0001 12.3999 27.8001 12.1999C27.6001 11.9999 27.3001 11.8999 27.0001 11.8999C26.7001 11.8999 26.4001 11.9999 26.2001 12.1999L20.8001 17.6999L18.5001 15.2999C18.3001 15.0999 18.0001 14.9999 17.7001 14.9999C17.4001 14.9999 17.1001 15.0999 16.9001 15.2999C16.7001 15.4999 16.6001 15.7999 16.6001 16.0999C16.6001 16.3999 16.7001 16.6999 16.9001 16.8999L20.1001 20.0999Z" fill="white"/>
<defs>
<linearGradient id="paint0_linear_2385_2843" x1="45.0263" y1="31.2048" x2="24.1" y2="31.2048" gradientUnits="userSpaceOnUse">
<stop stop-color="#0D8DEF"/>
<stop offset="1" stop-color="#38B3F8"/>
</linearGradient>
<linearGradient id="paint1_linear_2385_2843" x1="46.9959" y1="18.4398" x2="2" y2="18.4398" gradientUnits="userSpaceOnUse">
<stop stop-color="#0D8DEF"/>
<stop offset="1" stop-color="#38B3F8"/>
</linearGradient>
</defs>
</svg>
