<svg width="48" height="39" viewBox="0 0 48 39" fill="none" xmlns="http://www.w3.org/2000/svg">
<path fill-rule="evenodd" clip-rule="evenodd" d="M44.7481 0.814666C45.0657 1.4952 44.8194 2.28198 44.1979 2.572L38.9979 4.99866C38.3765 5.28868 37.6152 4.9721 37.2977 4.29157C36.9801 3.61103 37.2264 2.82425 37.8479 2.53423L43.0479 0.107571C43.6693 -0.182444 44.4306 0.134134 44.7481 0.814666Z" fill="#002152"/>
<path fill-rule="evenodd" clip-rule="evenodd" d="M45.5176 10.6779C45.4415 11.425 44.8122 11.9729 44.1121 11.9016L38.5343 11.3333C37.8341 11.2619 37.3283 10.5985 37.4044 9.85134C37.4805 9.10422 38.1098 8.55638 38.8099 8.62771L44.3877 9.19599C45.0878 9.26732 45.5937 9.93081 45.5176 10.6779Z" fill="#002152"/>
<path fill-rule="evenodd" clip-rule="evenodd" d="M42.7926 19.8571C42.3648 20.4743 41.5619 20.6585 40.9993 20.2686L36.1097 16.8793C35.5471 16.4893 35.4378 15.6729 35.8657 15.0556C36.2935 14.4384 37.0964 14.2542 37.659 14.6442L42.5486 18.0335C43.1112 18.4234 43.2204 19.2399 42.7926 19.8571Z" fill="#002152"/>
<path d="M9.38219 38.9568C7.26284 38.9568 5.57619 38.1329 4.32223 36.4851C3.06828 34.8374 2.70623 33.0036 3.23607 30.9837L7.0509 16.526C5.88526 15.7818 4.92272 14.7719 4.16328 13.4962C3.40385 12.2205 3.02413 10.7854 3.02413 9.19079C3.02413 6.85203 3.85421 4.84992 5.51437 3.18444C7.17453 1.51896 9.17025 0.686223 11.5015 0.686223H30.1518C31.3571 0.686223 32.2677 1.19118 32.8837 2.2011C33.4997 3.21102 33.5428 4.24751 33.013 5.31058L27.7146 15.9413C27.4191 16.4728 27.0228 16.8981 26.5258 17.217C26.0288 17.5359 25.4714 17.6954 24.8535 17.6954H19.9087L19.3316 19.9795L18.1645 19.6668C17.5644 19.506 16.9475 19.8621 16.7867 20.4623L15.2574 26.1697C15.0966 26.7698 15.4528 27.3867 16.0529 27.5475L17.2075 27.8569L15.5283 34.2793C15.1398 35.6612 14.3803 36.7863 13.25 37.6545C12.1197 38.5227 10.8304 38.9568 9.38219 38.9568Z" fill="url(#paint0_linear_2381_2774)"/>
<defs>
<linearGradient id="paint0_linear_2381_2774" x1="3.54391" y1="13.9367" x2="26.1163" y2="17.4721" gradientUnits="userSpaceOnUse">
<stop stop-color="#33AFF8"/>
<stop offset="1" stop-color="#1393F1"/>
</linearGradient>
</defs>
</svg>
