<svg width="48" height="36" viewBox="0 0 48 36" fill="none" xmlns="http://www.w3.org/2000/svg">
<path d="M27.177 34.3231L27.5791 18.8119C27.611 17.5682 28.9772 16.9884 29.8591 17.8443L40.8618 28.5153C41.8584 29.4815 41.2096 31.1989 39.8968 31.0675L34.3124 30.5088C33.8783 30.4654 33.4593 30.6432 33.1832 30.988L29.6226 35.4278C28.7852 36.4708 27.1399 35.7289 27.177 34.3231Z" fill="#002152"/>
<path d="M13.8169 31.4476C14.3174 31.9545 14.9062 32.208 15.5834 32.208H24.7938L25.0545 22.1514L24.5011 21.84C24.4122 21.7888 24.3184 21.7497 24.2219 21.7228C24.1182 21.694 24.0118 21.6793 23.9055 21.6791C23.7009 21.6794 23.4964 21.733 23.3131 21.84L21.9011 22.6609C21.7634 22.7409 21.5964 22.7474 21.4532 22.6783L20.1362 22.0429C19.9904 21.9726 19.8879 21.8329 19.8624 21.6698L19.604 20.0203C19.5702 19.8077 19.483 19.6114 19.3551 19.4487C19.2263 19.2865 19.0562 19.1578 18.8592 19.0786L17.3442 18.5016C17.1917 18.4435 17.0774 18.3111 17.0397 18.1487L16.7078 16.7194C16.6703 16.5579 16.7134 16.3878 16.8229 16.2655L17.9282 15.0301C18.0701 14.8717 18.1657 14.6761 18.2103 14.469C18.2543 14.2594 18.2464 14.0375 18.1849 13.8303L17.6951 12.2626C17.6449 12.102 17.677 11.9263 17.7804 11.7953L18.7092 10.6191C18.8086 10.4932 18.9613 10.4245 19.119 10.4348L20.7759 10.5429C21.199 10.5739 21.5977 10.3997 21.8375 10.0442L22.7774 8.64058C22.8683 8.50479 23.0186 8.42365 23.1792 8.42365H24.636C24.796 8.42365 24.9459 8.50419 25.0369 8.63917L25.9676 10.0189C26.0886 10.1968 26.2512 10.3363 26.4365 10.4271C26.6206 10.5167 26.8275 10.5583 27.0379 10.5429L28.6782 10.418C28.8373 10.4059 28.9922 10.4745 29.0928 10.6016L30.0021 11.7508C30.1045 11.8803 30.1373 12.0537 30.0894 12.213L29.6077 13.8177C29.5468 14.0232 29.5439 14.2354 29.5919 14.4357C29.6409 14.6375 29.7417 14.8273 29.8862 14.9863L29.9826 15.0947C30.5305 15.2633 31.0611 15.5688 31.5343 16.0278L31.5121 32.208L31.5348 16.0283L40.8539 25.0665C41.1716 24.5296 41.3305 23.9279 41.3305 23.2613V3.57867C41.3316 2.59573 40.986 1.75355 40.2935 1.05213C39.601 0.350712 38.769 3.03811e-06 37.7974 3.03811e-06H9.53305C8.56264 -0.00118989 7.7312 0.348923 7.03872 1.05034C6.34624 1.75176 6 2.59454 6 3.57867V23.2613C5.99883 24.2443 6.34447 25.0865 7.03695 25.7879C7.72943 26.4893 8.56146 26.84 9.53305 26.84H14.8326L13.7727 27.9136C13.5678 28.1212 13.3988 28.3967 13.2657 28.7403C13.1326 29.0838 13.0661 29.3898 13.0661 29.6582C13.0661 30.3441 13.3164 30.9406 13.8169 31.4476Z" fill="url(#paint0_linear_2160_2723)"/>
<path d="M25.3601 17.5047C25.5438 16.9648 25.8346 16.4957 26.1987 16.1115C26.2314 15.9516 26.2485 15.7859 26.2485 15.6161C26.2485 14.2762 25.1797 13.19 23.8615 13.19C22.5432 13.19 21.4744 14.2762 21.4744 15.6161C21.4744 16.9561 22.5432 18.0423 23.8615 18.0423C24.429 18.0423 24.9504 17.8409 25.3601 17.5047Z" fill="url(#paint1_linear_2160_2723)"/>
<defs>
<linearGradient id="paint0_linear_2160_2723" x1="41.3305" y1="16.775" x2="6" y2="16.775" gradientUnits="userSpaceOnUse">
<stop stop-color="#0D8DEF"/>
<stop offset="1" stop-color="#38B3F8"/>
</linearGradient>
<linearGradient id="paint1_linear_2160_2723" x1="41.3305" y1="16.775" x2="6" y2="16.775" gradientUnits="userSpaceOnUse">
<stop stop-color="#0D8DEF"/>
<stop offset="1" stop-color="#38B3F8"/>
</linearGradient>
</defs>
</svg>
