<svg width="49" height="37" viewBox="0 0 49 37" fill="none" xmlns="http://www.w3.org/2000/svg">
<path d="M47.3 4.8V24.5C46.9 22.9 46.1 21.5 44.9 20.2C43.1 18.4 40.9 17.5 38.4 17.5C35.9 17.5 33.6 18.4 31.9 20.2C30.1 22 29.2 24.2 29.2 26.8C29.2 29 29.9 31 31.3 32.7H4.8C2.1 32.7 0 30.5 0 27.9V4.9C0 2.2 2.2 0 4.8 0H42.4C45.1 0 47.3 2.2 47.3 4.8Z" fill="url(#paint0_linear_2385_2844)"/>
<path d="M32.5001 6.9C31.9001 6.3 31.2001 6 30.3001 6C29.4001 6 28.7001 6.3 28.1001 6.9C27.5001 7.5 27.2001 8.2 27.2001 9C27.2001 9.7 27.4001 10.3 27.9001 10.8C28.4001 11.3 28.9001 11.7 29.5001 11.8V17C29.5001 17.6 29.3001 18.2 28.8001 18.6C28.3001 19 27.8001 19.3 27.1001 19.3C26.4001 19.3 25.8001 19.1 25.4001 18.6C24.9001 18.1 24.7001 17.6 24.7001 17V15C24.7001 13.9 24.3001 13 23.6001 12.3C22.9001 11.6 21.9001 11.2 20.8001 11.2C19.7001 11.2 18.7001 11.6 18.0001 12.3C17.2001 13 16.9001 13.9 16.9001 15V20.2C16.3001 20.3 15.7001 20.7 15.3001 21.2C14.9001 21.7 14.6001 22.4 14.6001 23C14.6001 23.8 14.9001 24.5 15.5001 25.1C16.1001 25.7 16.8001 25.9 17.7001 25.9C18.6001 25.9 19.3001 25.6 19.9001 25.1C20.5001 24.5 20.8001 23.8 20.8001 23C20.8001 22.3 20.6001 21.7 20.1001 21.2C19.6001 20.7 19.1001 20.3 18.5001 20.2V15C18.5001 14.3 18.7001 13.8 19.2001 13.3C19.7001 12.8 20.2001 12.6 20.9001 12.6C21.6001 12.6 22.2001 12.8 22.6001 13.3C23.1001 13.7 23.3001 14.3 23.3001 15V17C23.3001 18.1 23.7001 19 24.4001 19.7C25.2001 20.4 26.1001 20.8 27.2001 20.8C28.3001 20.8 29.2001 20.4 30.0001 19.7C30.7001 19 31.0001 18.1 31.0001 17V11.8C31.6001 11.7 32.2001 11.3 32.6001 10.8C33.1001 10.3 33.3001 9.6 33.3001 8.9C33.3001 8.2 33.0001 7.5 32.5001 6.9ZM18.5001 22.3C18.7001 22.5 18.9001 22.8 18.9001 23.2C18.9001 23.5 18.8001 23.8 18.5001 24.1C18.3001 24.3 17.9001 24.5 17.6001 24.5C17.2001 24.5 16.9001 24.4 16.7001 24.1C16.5001 23.9 16.3001 23.6 16.3001 23.2C16.3001 22.9 16.4001 22.6 16.7001 22.3C17.0001 22 17.3001 21.9 17.6001 21.9C17.9001 21.9 18.3001 22 18.5001 22.3Z" fill="white"/>
<path d="M48.1 34.9001L45.1 31.9001L43.5 30.2001C43.6 30.0001 43.7 29.9001 43.8 29.7001C43.9 29.5001 44 29.4001 44 29.2001C44.1 29.0001 44.1 28.8001 44.2 28.6001C44.3 28.0001 44.4 27.4001 44.4 26.8001C44.4 25.1001 43.8 23.6001 42.6 22.4001C41.4 21.2001 40 20.6001 38.2 20.6001C36.5 20.6001 35 21.2001 33.8 22.4001L32.7 23.9001C32.4 24.4001 32.2 25.0001 32.1 25.6001C32 26.0001 32 26.4001 32 26.8001C32 28.5001 32.6 30.0001 33.8 31.2001C34.5 31.9001 35.3 32.4001 36.2 32.7001C36.8 32.9001 37.5 33.0001 38.2 33.0001C38.8 33.0001 39.4 32.9001 40 32.7001H40.1C40.3 32.7001 40.5 32.6001 40.6 32.5001C40.8 32.4001 40.9 32.4001 41.1 32.3001C41.2 32.3001 41.2 32.2001 41.3 32.2001C41.4 32.1001 41.5 32.1001 41.6 32.0001L42.3 32.7001L46.1 36.6001C46.3 36.8001 46.6 36.9001 46.9 36.9001C47.2 36.9001 47.5 36.8001 47.8 36.5001C48 36.3001 48.2 36.0001 48.2 35.6001C48.5 35.4001 48.4 35.1001 48.1 34.9001ZM42 27.2001C41.9 27.7001 41.9 27.8001 41.9 28.0001C41.9 28.2001 41.8 28.3001 41.7 28.4001C41.6 28.5001 41.6 28.6001 41.6 28.7001C41.4 29.0001 41.2 29.2001 41 29.4001C40.9 29.5001 40.8 29.6001 40.7 29.7001C40.6 29.8001 40.5 29.9001 40.4 29.9001C40.2 30.0001 40 30.1001 39.8 30.2001C39.7 30.2001 39.7 30.3001 39.6 30.3001C39.4 30.4001 39.1 30.4001 38.8 30.5001C38.7 30.5001 38.6 30.5001 38.4 30.5001C37.4 30.5001 36.5 30.2001 35.8 29.5001C35.6 29.3001 35.5 29.1001 35.3 29.0001C35.3 28.9001 35.2 28.8001 35.2 28.8001C35.2 28.7001 35.1 28.6001 35.1 28.6001C35 28.4001 35 28.3001 34.9 28.1001C34.9 28.0001 34.9 27.9001 34.8 27.8001C34.7 27.6001 34.7 27.3001 34.7 27.0001C34.7 26.0001 35.1 25.1001 35.8 24.4001C35.9 24.3001 36 24.2001 36.1 24.1001C36.2 24.0001 36.3 23.9001 36.5 23.9001C36.6 23.8001 36.7 23.8001 36.9 23.7001C37 23.6001 37.2 23.6001 37.4 23.5001C37.5 23.5001 37.6 23.5001 37.7 23.4001C37.9 23.3001 38.2 23.3001 38.5 23.3001C38.8 23.3001 39 23.3001 39.3 23.4001C39.4 23.4001 39.5 23.4001 39.6 23.5001C39.7 23.5001 39.8 23.6001 39.9 23.6001C40 23.6001 40 23.6001 40.1 23.7001C40.2 23.7001 40.3 23.8001 40.3 23.8001C40.4 23.8001 40.5 23.9001 40.5 23.9001C40.7 24.0001 40.9 24.2001 41 24.4001C41.7 25.1001 42 26.0001 42 27.0001C42 27.0001 42 27.1001 42 27.2001Z" fill="#002152"/>
<defs>
<linearGradient id="paint0_linear_2385_2844" x1="49.5298" y1="16.7676" x2="1.6574" y2="16.0319" gradientUnits="userSpaceOnUse">
<stop stop-color="#1A98F3"/>
<stop offset="1" stop-color="#40B6F9"/>
</linearGradient>
</defs>
</svg>
