<svg width="49" height="37" viewBox="0 0 49 37" fill="none" xmlns="http://www.w3.org/2000/svg">
<path fill-rule="evenodd" clip-rule="evenodd" d="M5.73238 1C3.11876 1 1 3.11876 1 5.73238V28.2112C1 30.8248 3.11876 32.9436 5.73238 32.9436H31.997C30.2761 31.2162 29.3942 29.0443 29.3942 26.6026C29.3942 24.1406 30.2903 21.9523 32.0292 20.2085C33.7684 18.4645 35.9544 17.5627 38.4169 17.5627C40.8803 17.5627 43.0663 18.4656 44.7961 20.2213C45.9791 21.4221 46.7651 22.83 47.1407 24.3891V5.73238C47.1407 3.11876 45.0219 1 42.4083 1H5.73238ZM20.5209 13.4223C21.501 13.4223 22.2955 14.2168 22.2955 15.1969C22.2955 16.1771 21.501 16.9716 20.5209 16.9716H8.68993C7.70982 16.9716 6.91529 16.1771 6.91529 15.1969C6.91529 14.2168 7.70982 13.4223 8.68993 13.4223H20.5209ZM27.6197 9.12877C27.6197 8.23299 26.8935 7.50682 25.9977 7.50682L8.53746 7.50682C7.64168 7.50682 6.91551 8.23299 6.91551 9.12877V9.43415C6.91551 10.3299 7.64168 11.0561 8.53746 11.0561L25.9977 11.0561C26.8935 11.0561 27.6197 10.3299 27.6197 9.43415V9.12877Z" fill="url(#paint0_linear_2381_2776)"/>
<path d="M46.2347 36.1224L41.7965 31.6641C41.3348 31.9886 40.8079 32.2328 40.2158 32.3968C39.6237 32.5607 39.024 32.6427 38.4168 32.6427C36.7357 32.6427 35.3046 32.0575 34.1236 30.8871C32.9425 29.7168 32.3519 28.2886 32.3519 26.6026C32.3519 24.9166 32.9425 23.4815 34.1236 22.2971C35.3047 21.1127 36.7358 20.5205 38.4169 20.5205C40.0981 20.5205 41.5222 21.1127 42.6891 22.2971C43.8561 23.4816 44.4396 24.9168 44.4396 26.6027C44.4396 27.215 44.3675 27.8013 44.2234 28.3616C44.0794 28.9219 43.8315 29.4364 43.4798 29.9051L47.9675 34.4319C48.2057 34.6649 48.3204 34.9453 48.3117 35.2732C48.303 35.6012 48.18 35.8855 47.9428 36.1261C47.7044 36.3625 47.4205 36.4806 47.0911 36.4806C46.7616 36.4806 46.4762 36.3612 46.2347 36.1224ZM38.4148 30.1674C39.4117 30.1674 40.2537 29.8236 40.9407 29.1359C41.6278 28.4483 41.9713 27.6046 41.9713 26.6048C41.9713 25.5909 41.6313 24.736 40.9513 24.0399C40.2712 23.3438 39.4257 22.9958 38.4148 22.9958C37.4038 22.9958 36.552 23.3438 35.8593 24.0399C35.1666 24.736 34.8202 25.5909 34.8202 26.6048C34.8202 27.6187 35.1666 28.4659 35.8593 29.1465C36.552 29.8271 37.4038 30.1674 38.4148 30.1674Z" fill="#002152"/>
<defs>
<linearGradient id="paint0_linear_2381_2776" x1="45.8859" y1="15.7836" x2="2.52608" y2="15.9328" gradientUnits="userSpaceOnUse">
<stop stop-color="#0D8DEF"/>
<stop offset="1" stop-color="#38B3F8"/>
</linearGradient>
</defs>
</svg>
