<svg width="48" height="40" viewBox="0 0 48 40" fill="none" xmlns="http://www.w3.org/2000/svg">
<g clip-path="url(#clip0_2385_2842)">
<path d="M6.7999 7.70005C6.2999 7.70005 5.7999 7.50005 5.3999 7.10005C5.0999 6.80005 4.8999 6.30005 4.8999 5.80005C4.8999 5.30005 5.0999 4.80005 5.4999 4.40005C5.8999 4.00005 6.2999 3.80005 6.8999 3.80005H38.9999C39.4999 3.80005 39.9999 4.00005 40.3999 4.40005C40.7999 4.80005 40.9999 5.20005 40.9999 5.80005C40.9999 6.30005 40.7999 6.80005 40.3999 7.20005C39.9999 7.60005 39.5999 7.70005 38.9999 7.70005H6.7999Z" fill="url(#paint0_linear_2385_2842)"/>
<path fill-rule="evenodd" clip-rule="evenodd" d="M41.1999 13.0001L41.0999 12.6001C40.9999 12.1001 40.7999 11.8001 40.3999 11.5001C39.9999 11.2001 39.5999 11.1001 39.1999 11.1001H31.7999C32.0999 11.8001 32.4999 12.3001 32.9999 12.8001C33.4999 13.3001 34.1999 13.8001 34.9999 14.1001C35.7999 14.4001 36.4999 14.6001 37.3999 14.6001C38.2999 14.6001 39.0999 14.4001 39.7999 14.1001C39.9999 14.0001 40.2999 13.9001 40.4999 13.8001C40.7999 13.6001 40.9999 13.5001 41.2999 13.3001L41.1999 13.0001ZM43.5999 23.9001L41.7999 15.6001C41.4999 15.8001 41.0999 16.0001 40.6999 16.2001C39.6999 16.6001 38.5999 16.9001 37.3999 16.9001C36.2999 16.9001 35.1999 16.7001 34.0999 16.2001C33.0999 15.8001 32.1999 15.2001 31.3999 14.4001C30.5999 13.6001 29.9999 12.7001 29.5999 11.7001C29.4999 11.5001 29.3999 11.3001 29.3999 11.1001H6.39994C5.89994 11.1001 5.59994 11.2001 5.19994 11.5001C4.79994 11.8001 4.59994 12.2001 4.49994 12.6001L1.99994 23.9001C1.89994 24.5001 1.99994 25.0001 2.39994 25.5001C2.79994 26.0001 3.19994 26.2001 3.79994 26.2001H5.09994V38.0001C5.09994 38.5001 5.29994 39.0001 5.59994 39.4001C5.89994 39.8001 6.49994 40.0001 7.09994 40.0001H25.1999C25.6999 40.0001 26.1999 39.8001 26.5999 39.5001C26.9999 39.1001 27.0999 38.7001 27.0999 38.1001V26.2001H36.6999V38.0001C36.6999 38.5001 36.8999 39.0001 37.1999 39.4001C37.5999 39.8001 37.9999 39.9001 38.5999 39.9001C39.1999 39.9001 39.5999 39.7001 39.9999 39.4001C40.3999 39.1001 40.4999 38.6001 40.4999 38.0001V26.2001H41.8999C42.4999 26.2001 42.8999 26.0001 43.2999 25.5001C43.5999 25.1001 43.7999 24.5001 43.5999 23.9001ZM21.0999 34.2001H10.2999V26.3001H21.0999V34.2001Z" fill="url(#paint1_linear_2385_2842)"/>
<path d="M43.1002 5.99995C42.8002 5.19995 42.3002 4.59995 41.8002 3.99995C41.3002 3.49995 40.6002 2.99995 39.8002 2.69995C39.0002 2.39995 38.3002 2.19995 37.4002 2.19995C36.5002 2.19995 35.7002 2.39995 35.0002 2.69995C34.2002 2.99995 33.6002 3.49995 33.0002 3.99995C32.4002 4.59995 32.0002 5.19995 31.7002 5.99995C31.4002 6.79995 31.2002 7.59995 31.2002 8.39995C31.2002 9.19995 31.4002 10.1 31.7002 10.8C31.7002 10.9 31.8002 11 31.8002 11C32.1002 11.7 32.5002 12.2 33.0002 12.7C33.5002 13.2 34.2002 13.7 35.0002 14C35.8002 14.3 36.5002 14.5 37.4002 14.5C38.3002 14.5 39.1002 14.3 39.8002 14C40.0002 13.9 40.3002 13.8 40.5002 13.7C40.8002 13.5 41.0002 13.4 41.3002 13.2C41.5002 13 41.7002 12.9 41.8002 12.7C42.2002 12.3 42.5002 11.9 42.8002 11.4C42.9002 11.2 43.0002 11 43.1002 10.7C43.4002 9.89995 43.6002 9.09995 43.6002 8.29995C43.6002 7.59995 43.4002 6.79995 43.1002 5.99995ZM34.4002 8.19995C34.5002 8.09995 34.6002 7.99995 34.8002 7.99995C35.0002 7.99995 35.1002 8.09995 35.2002 8.19995L36.5002 9.49995L39.6002 6.49995C39.7002 6.39995 39.8002 6.29995 40.0002 6.29995C40.2002 6.29995 40.3002 6.29995 40.4002 6.49995C40.5002 6.59995 40.6002 6.69995 40.6002 6.89995C40.6002 7.09995 40.5002 7.19995 40.4002 7.29995L37.0002 10.8C36.9002 10.9 36.7002 11 36.6002 11C36.4002 11 36.3002 10.9 36.2002 10.8L34.4002 8.99995C34.3002 8.89995 34.2002 8.69995 34.2002 8.59995C34.2002 8.49995 34.3002 8.29995 34.4002 8.19995Z" fill="#002152"/>
<path fill-rule="evenodd" clip-rule="evenodd" d="M40.5002 6.50005C40.4002 6.40005 40.2002 6.30005 40.1002 6.30005C39.9002 6.30005 39.8002 6.30005 39.7002 6.50005L36.6002 9.50005L35.3002 8.20005C35.1002 8.10005 35.0002 8.00005 34.8002 8.00005C34.6002 8.00005 34.5002 8.10005 34.4002 8.20005C34.3002 8.30005 34.2002 8.50005 34.2002 8.60005C34.2002 8.80005 34.3002 8.90005 34.4002 9.00005L36.2002 10.8C36.3002 10.9 36.5002 11 36.6002 11C36.8002 11 36.9002 10.9 37.0002 10.8L40.5002 7.30005C40.6002 7.20005 40.7002 7.00005 40.7002 6.90005C40.7002 6.70005 40.6002 6.60005 40.5002 6.50005ZM40.5002 6.50005C40.4002 6.40005 40.2002 6.30005 40.1002 6.30005C39.9002 6.30005 39.8002 6.30005 39.7002 6.50005L36.6002 9.50005L35.3002 8.20005C35.1002 8.10005 35.0002 8.00005 34.8002 8.00005C34.6002 8.00005 34.5002 8.10005 34.4002 8.20005C34.3002 8.30005 34.2002 8.50005 34.2002 8.60005C34.2002 8.80005 34.3002 8.90005 34.4002 9.00005L36.2002 10.8C36.3002 10.9 36.5002 11 36.6002 11C36.8002 11 36.9002 10.9 37.0002 10.8L40.5002 7.30005C40.6002 7.20005 40.7002 7.00005 40.7002 6.90005C40.7002 6.70005 40.6002 6.60005 40.5002 6.50005ZM40.5002 6.50005C40.4002 6.40005 40.2002 6.30005 40.1002 6.30005C39.9002 6.30005 39.8002 6.30005 39.7002 6.50005L36.6002 9.50005L35.3002 8.20005C35.1002 8.10005 35.0002 8.00005 34.8002 8.00005C34.6002 8.00005 34.5002 8.10005 34.4002 8.20005C34.3002 8.30005 34.2002 8.50005 34.2002 8.60005C34.2002 8.80005 34.3002 8.90005 34.4002 9.00005L36.2002 10.8C36.3002 10.9 36.5002 11 36.6002 11C36.8002 11 36.9002 10.9 37.0002 10.8L40.5002 7.30005C40.6002 7.20005 40.7002 7.00005 40.7002 6.90005C40.7002 6.70005 40.6002 6.60005 40.5002 6.50005Z" fill="white"/>
</g>
<defs>
<linearGradient id="paint0_linear_2385_2842" x1="6.3384" y1="5.24465" x2="43.1523" y2="6.47215" gradientUnits="userSpaceOnUse">
<stop stop-color="#31ADF8"/>
<stop offset="1" stop-color="#1494F2"/>
</linearGradient>
<linearGradient id="paint1_linear_2385_2842" x1="5.68013" y1="24.9568" x2="42.4954" y2="26.1843" gradientUnits="userSpaceOnUse">
<stop stop-color="#31ADF8"/>
<stop offset="1" stop-color="#1494F2"/>
</linearGradient>
<clipPath id="clip0_2385_2842">
<rect width="44" height="40" fill="white" transform="translate(2)"/>
</clipPath>
</defs>
</svg>
