<svg width="48" height="36" viewBox="0 0 48 36" fill="none" xmlns="http://www.w3.org/2000/svg">
<path d="M38.1523 22.3297L29.8934 30.8619L28.6369 35.0427L32.8252 33.7885L41.3725 25.5443C42.2618 24.6566 42.2618 23.2174 41.3725 22.3297C40.4833 21.4421 39.0415 21.4421 38.1523 22.3297Z" fill="#002152"/>
<path fill-rule="evenodd" clip-rule="evenodd" d="M10 0.91748C7.79086 0.91748 6 2.70834 6 4.91748V29.4175C6 31.6266 7.79086 33.4175 10 33.4175H26.5149L27.4992 30.1423C27.6142 29.7597 27.8192 29.4102 28.0971 29.1231L36.356 20.591C36.3659 20.5807 36.376 20.5705 36.3861 20.5604C36.9944 19.9532 37.7258 19.544 38.5 19.3328V4.91748C38.5 2.70834 36.7091 0.91748 34.5 0.91748H26V8.11323C26 8.89867 25.136 9.37751 24.47 8.96123L22 7.41748L20.0812 8.78802C19.4194 9.26079 18.5 8.78766 18.5 7.97429V0.91748H10ZM17.5 25.9175C18.3284 25.9175 19 26.5891 19 27.4175C19 28.2459 18.3284 28.9175 17.5 28.9175H12.5C11.6716 28.9175 11 28.2459 11 27.4175C11 26.5891 11.6716 25.9175 12.5 25.9175H17.5Z" fill="url(#paint0_linear_2160_2722)"/>
<defs>
<linearGradient id="paint0_linear_2160_2722" x1="6.97015" y1="17.8951" x2="36.3172" y2="17.8951" gradientUnits="userSpaceOnUse">
<stop stop-color="#36B2F8"/>
<stop offset="1" stop-color="#1191F0"/>
</linearGradient>
</defs>
</svg>
