<svg width="48" height="38" viewBox="0 0 48 38" fill="none" xmlns="http://www.w3.org/2000/svg">
<path d="M27.8059 36.0393L28.239 19.7525C28.2734 18.4466 29.7446 17.8378 30.6945 18.7365L42.5435 29.9411C43.6167 30.9556 42.918 32.7588 41.5042 32.6209L35.4903 32.0342C35.0227 31.9887 34.5715 32.1754 34.2742 32.5374L30.4398 37.1992C29.5379 38.2943 27.766 37.5153 27.8059 36.0393Z" fill="#002152"/>
<path d="M13.4182 33.0199C13.9572 33.5523 14.5913 33.8184 15.3206 33.8184H25.2395L25.5203 23.2589L24.9242 22.932C24.8285 22.8782 24.7275 22.8372 24.6236 22.809C24.5119 22.7786 24.3974 22.7633 24.2828 22.7631C24.0625 22.7633 23.8422 22.8197 23.6449 22.932L22.1243 23.7939C21.976 23.878 21.7962 23.8848 21.6419 23.8123L20.2236 23.1451C20.0666 23.0712 19.9562 22.9246 19.9287 22.7533L19.6504 21.0213C19.614 20.7981 19.5202 20.592 19.3824 20.4212C19.2437 20.2509 19.0605 20.1157 18.8484 20.0325L17.2169 19.4266C17.0526 19.3656 16.9295 19.2266 16.8889 19.0561L16.5315 17.5553C16.4911 17.3857 16.5375 17.2072 16.6554 17.0787L17.8457 15.7816C17.9986 15.6153 18.1015 15.4099 18.1495 15.1924C18.1969 14.9724 18.1884 14.7393 18.1222 14.5218L17.5947 12.8757C17.5406 12.7071 17.5752 12.5226 17.6866 12.3851L18.6868 11.15C18.7938 11.0178 18.9583 10.9457 19.1281 10.9565L20.9126 11.07C21.3682 11.1026 21.7975 10.9197 22.0557 10.5464L23.0679 9.07261C23.1658 8.93003 23.3277 8.84483 23.5007 8.84483H25.0696C25.2419 8.84483 25.4032 8.9294 25.5013 9.07112L26.5036 10.5199C26.6338 10.7066 26.8089 10.8531 27.0085 10.9484C27.2068 11.0425 27.4296 11.0862 27.6562 11.07L29.4226 10.9389C29.594 10.9262 29.7608 10.9982 29.8691 11.1317L30.8484 12.3384C30.9587 12.4743 30.994 12.6564 30.9425 12.8237L30.4237 14.5086C30.3581 14.7243 30.3549 14.9472 30.4067 15.1575C30.4594 15.3694 30.568 15.5687 30.7236 15.7356L30.8274 15.8494C31.4175 16.0265 31.9889 16.3472 32.4984 16.8292L32.4746 33.8184L32.499 16.8297L42.535 26.3199C42.8771 25.7561 43.0482 25.1243 43.0482 24.4244V3.7576C43.0495 2.72552 42.6772 1.84123 41.9315 1.10474C41.1857 0.368248 40.2897 3.19002e-06 39.2434 3.19002e-06H8.80482C7.75976 -0.00124938 6.86436 0.366369 6.11862 1.10286C5.37288 1.83935 5 2.72426 5 3.7576V24.4244C4.99873 25.4565 5.37097 26.3408 6.11672 27.0773C6.86246 27.8138 7.7585 28.182 8.80482 28.182H14.512L13.3706 29.3093C13.1499 29.5272 12.9679 29.8166 12.8246 30.1773C12.6813 30.538 12.6096 30.8593 12.6096 31.1411C12.6096 31.8613 12.8791 32.4876 13.4182 33.0199Z" fill="url(#paint0_linear_2381_2772)"/>
<path d="M25.8493 18.3799C26.0472 17.8131 26.3604 17.3205 26.7525 16.917C26.7876 16.7491 26.8061 16.5752 26.8061 16.3969C26.8061 14.99 25.6551 13.8495 24.2354 13.8495C22.8158 13.8495 21.6647 14.99 21.6647 16.3969C21.6647 17.8039 22.8158 18.9444 24.2354 18.9444C24.8467 18.9444 25.4081 18.733 25.8493 18.3799Z" fill="url(#paint1_linear_2381_2772)"/>
<defs>
<linearGradient id="paint0_linear_2381_2772" x1="43.0482" y1="17.6138" x2="5" y2="17.6138" gradientUnits="userSpaceOnUse">
<stop stop-color="#0D8DEF"/>
<stop offset="1" stop-color="#38B3F8"/>
</linearGradient>
<linearGradient id="paint1_linear_2381_2772" x1="43.0482" y1="17.6138" x2="5" y2="17.6138" gradientUnits="userSpaceOnUse">
<stop stop-color="#0D8DEF"/>
<stop offset="1" stop-color="#38B3F8"/>
</linearGradient>
</defs>
</svg>
