<svg width="48" height="38" viewBox="0 0 48 38" fill="none" xmlns="http://www.w3.org/2000/svg">
<path d="M39.7 4.4V18.8L39 17.9C38.4 17 37.4 16.5 36.3 16.5H34.4C33.3 16.5 32.3 17 31.6 18L30.8 19.2L29.3 19C28.2 18.9 27.2 19.4 26.5 20.2L25.3 21.7C24.6 22.6 24.4 23.7 24.7 24.8L25.1 26.1L24.1 27.1C23.3 27.9 23.1 29 23.3 30.1L23.8 32C23.9 32.5 24.2 33 24.5 33.4H7.4C4.9 33.4 3 31.4 3 29V4.4C3 2 5 0 7.4 0H35.2C37.7 0 39.7 2 39.7 4.4Z" fill="url(#paint0_linear_2385_2845)"/>
<path fill-rule="evenodd" clip-rule="evenodd" d="M44.5 29.1L43 27.5C42.9 27.4 42.8 27.3001 42.8 27.2001C42.7 27.1001 42.7 26.9 42.6 26.8C42.5 26.6 42.5 26.3 42.6 26L43.2 24C43.3 23.8 43.2 23.6 43.1 23.5L42 22C41.9 21.9 41.7 21.8 41.5 21.8L39.7 21.9H39.4C39.1 21.9 38.9 21.9 38.6 21.8C38.3 21.7 38.1 21.5 38 21.3L36.8 19.5C36.7 19.3 36.5 19.3 36.3 19.3H34.4C34.2 19.3 34 19.4 33.9 19.5L32.7 21.3C32.4 21.8 31.9 22 31.3 21.9L29.1 21.8C28.9 21.8 28.7 21.9 28.6 22L27.4 23.5C27.3 23.6 27.2 23.8 27.3 24L27.9 26C28 26.2 28 26.3 28 26.5C28 26.6 28 26.7 28 26.8C28 27.1 27.8 27.3 27.6 27.5L26.2 29.1C26.1 29.2 26 29.4 26.1 29.6L26.5 31.5C26.5 31.7 26.7 31.8 26.8 31.9L28.8 32.6C28.9 32.6 29 32.7 29.1 32.8C29.2 32.9 29.2 32.9 29.3 33L29.4 33.1C29.5 33.2 29.6 33.4 29.7 33.6C29.7 33.7 29.8 33.8 29.8 33.8L30.1 35.9001C30.1 36.1001 30.3 36.2 30.4 36.3L32.2 37.1C32.4 37.2 32.6 37.2 32.7 37.1L34.5 36.1C34.6 36.1 34.6 36 34.7 36H34.8C34.9 36 35 36 35 36C35.1 36 35.2 36 35.2 36C35.3 36 35.5 36 35.6 36C35.7 36 35.8 36.1001 36 36.2001L37.9 37.3C38.1 37.4 38.2 37.4 38.4 37.3L40.2 36.4001C40.4 36.3001 40.5 36.2 40.5 36L40.8 34C40.8 33.7 41 33.5 41.1 33.3C41.3 33.1 41.5 32.9 41.7 32.8L43.7 32C43.9 31.9 44 31.8 44 31.6L44.4 29.7001C44.6 29.4001 44.6 29.2 44.5 29.1ZM35.3 25.2001C37 25.2001 38.4 26.6001 38.4 28.2001C38.4 29.9001 37 31.2001 35.3 31.2001C33.6 31.2001 32.2 29.8001 32.2 28.2001C32.2 26.6001 33.6 25.2001 35.3 25.2001Z" fill="#002152"/>
<path fill-rule="evenodd" clip-rule="evenodd" d="M12.7001 5.6001C13.2001 5.6001 13.6001 6.0001 13.6001 6.5001V7.2001H13.8001C14.3001 7.2001 14.8001 7.4001 15.2001 7.7001C15.6001 8.0001 15.9001 8.4001 16.1001 8.9001C16.3001 9.4001 16.0001 9.9001 15.5001 10.0001C15.0001 10.2001 14.5001 9.9001 14.4001 9.4001C14.4001 9.3001 14.3001 9.1001 14.1001 9.0001C14.0001 9.0001 13.9001 9.0001 13.8001 9.0001H11.6001C11.4001 9.0001 11.3001 9.1001 11.1001 9.2001C11.0001 9.3001 10.9001 9.5001 10.9001 9.7001C10.9001 9.9001 11.0001 10.1001 11.1001 10.2001C11.2001 10.3001 11.4001 10.4001 11.6001 10.4001H13.8001C14.5001 10.4001 15.1001 10.7001 15.6001 11.2001C16.1001 11.7001 16.3001 12.3001 16.3001 13.0001C16.3001 13.7001 16.0001 14.3001 15.6001 14.8001C15.1001 15.3001 14.5001 15.6001 13.8001 15.6001H13.6001V16.3001C13.6001 16.8001 13.2001 17.2001 12.7001 17.2001C12.2001 17.2001 11.8001 16.8001 11.8001 16.3001V15.6001H11.6001C11.1001 15.6001 10.6001 15.4001 10.2001 15.1001C9.8001 14.8001 9.5001 14.4001 9.3001 13.9001C9.1001 13.4001 9.4001 12.9001 9.9001 12.8001C10.4001 12.6001 10.9001 12.9001 11.0001 13.4001C11.0001 13.5001 11.1001 13.7001 11.3001 13.8001C11.4001 13.9001 11.5001 13.9001 11.7001 13.9001H13.8001C14.0001 13.9001 14.2001 13.8001 14.3001 13.7001C14.4001 13.6001 14.5001 13.4001 14.5001 13.2001C14.5001 13.0001 14.4001 12.8001 14.3001 12.7001C14.2001 12.6001 14.0001 12.5001 13.8001 12.5001H11.6001C10.9001 12.5001 10.3001 12.2001 9.8001 11.7001C9.3001 11.2001 9.1001 10.6001 9.1001 9.9001C9.1001 9.2001 9.4001 8.6001 9.8001 8.1001C10.3001 7.5001 11.0001 7.2001 11.6001 7.2001H11.8001V6.4001C11.8001 6.0001 12.2001 5.6001 12.7001 5.6001Z" fill="white"/>
<defs>
<linearGradient id="paint0_linear_2385_2845" x1="45.5476" y1="17.1003" x2="4.4271" y2="16.556" gradientUnits="userSpaceOnUse">
<stop stop-color="#1A98F3"/>
<stop offset="1" stop-color="#40B6F9"/>
</linearGradient>
</defs>
</svg>
