<svg width="48" height="36" viewBox="0 0 48 36" fill="none" xmlns="http://www.w3.org/2000/svg">
<path d="M4.00004 23.4584L18.3634 17.8327C19.515 17.3813 20.5763 18.4662 20.1347 19.6434L14.6313 34.3259C14.1331 35.6556 12.3083 35.6993 11.919 34.3899L10.2633 28.8202C10.1345 28.3872 9.80904 28.0545 9.38607 27.9235L3.93747 26.2309C2.65714 25.8324 2.69806 23.9676 4.00004 23.4584Z" fill="#002152"/>
<path fill-rule="evenodd" clip-rule="evenodd" d="M43.2415 21.755H44.1871C44.7071 21.755 45.1326 22.1787 45.1326 22.6965V24.5794C45.1326 25.0972 44.7071 25.5209 44.1871 25.5209H41.3504C41.3504 28.6394 38.8093 31.1696 35.6771 31.1696C32.545 31.1696 30.0038 28.6394 30.0038 25.5209H22.4394C22.4394 28.0183 20.8096 30.1384 18.5518 30.8839L22.4282 20.5417C23.6303 17.3361 20.6208 14.2598 17.4849 15.4885L7.3106 19.4734V3.86734C7.3106 2.30805 8.58118 1.04297 10.1473 1.04297H29.0583C30.6243 1.04297 31.8949 2.30805 31.8949 3.86734V6.69171H34.5011C35.2516 6.69171 35.9726 6.9918 36.5045 7.52137L42.4083 13.3996C42.9401 13.9292 43.2415 14.647 43.2415 15.3943V21.755ZM32.8405 25.5209C32.8405 27.0801 34.111 28.3452 35.6771 28.3452C37.2432 28.3452 38.5138 27.0801 38.5138 25.5209C38.5138 23.9616 37.2432 22.6965 35.6771 22.6965C34.111 22.6965 32.8405 23.9616 32.8405 25.5209ZM31.8949 16.1063H40.4049V15.3943L34.5011 9.51609H31.8949V16.1063Z" fill="url(#paint0_linear_2160_2721)"/>
<defs>
<linearGradient id="paint0_linear_2160_2721" x1="45.1325" y1="16.7339" x2="7.31048" y2="16.7339" gradientUnits="userSpaceOnUse">
<stop stop-color="#0D8DEF"/>
<stop offset="1" stop-color="#38B3F8"/>
</linearGradient>
</defs>
</svg>
