<svg width="48" height="37" viewBox="0 0 48 37" fill="none" xmlns="http://www.w3.org/2000/svg">
<path d="M14.1837 12.6971H8.3925C7.46549 12.6971 6.714 13.4485 6.714 14.3756C6.714 15.3026 7.46549 16.0541 8.3925 16.0541H12.8919C13.2097 14.8822 13.6448 13.7591 14.1837 12.6971Z" fill="#002152"/>
<path d="M12.3717 18.8516H1.6785C0.75149 18.8516 0 19.603 0 20.5301C0 21.4571 0.75149 22.2086 1.6785 22.2086H12.3399C12.298 21.7113 12.2766 21.2081 12.2766 20.6996C12.2766 20.0752 12.3088 19.4587 12.3717 18.8516Z" fill="#002152"/>
<path d="M12.8036 25.0061H6.1545C5.22749 25.0061 4.476 25.7575 4.476 26.6845C4.476 27.6116 5.22749 28.3631 6.1545 28.3631H14.0162C13.5044 27.2986 13.0959 26.1756 12.8036 25.0061Z" fill="#002152"/>
<path d="M26.1515 0.347656C25.2185 0.347656 24.4622 1.10398 24.4622 2.03695C24.4622 2.62005 24.7576 3.13415 25.207 3.43773C25.2434 3.4623 25.2807 3.48548 25.319 3.50721C25.5647 3.64663 25.8488 3.72624 26.1515 3.72624H34.3695C34.7193 3.72624 35.0443 3.61988 35.3139 3.43773C35.3214 3.43273 35.3287 3.42768 35.336 3.42257C35.7729 3.11721 36.0587 2.61045 36.0587 2.03695C36.0587 1.10398 35.3024 0.347656 34.3695 0.347656H26.1515Z" fill="url(#paint0_linear_2160_2720)"/>
<path fill-rule="evenodd" clip-rule="evenodd" d="M43.3377 4.22403C42.6715 3.5708 41.602 3.58125 40.9488 4.24738C40.2955 4.9135 40.306 5.98305 40.9721 6.63628L41.6885 7.33883L40.5074 8.4971C37.7621 6.31645 34.2691 5.01332 30.4767 5.01332C21.6921 5.01332 14.5142 12.0053 14.5142 20.6996C14.5142 29.3938 21.6921 36.3859 30.4767 36.3859C39.2613 36.3859 46.4393 29.3938 46.4393 20.6996C46.4393 16.9696 45.1182 13.553 42.9158 10.8673L44.1012 9.70484L44.8648 10.4536C45.5309 11.1069 46.6005 11.0964 47.2537 10.4303C47.9069 9.76416 47.8965 8.69462 47.2304 8.04139L43.3377 4.22403ZM30.18 27.5996L35.3531 20.1444C35.5523 19.8495 35.3301 19.4564 34.9622 19.4564L31.8737 19.4186C31.3525 19.411 30.931 19.0178 30.931 18.5264L30.9234 14.2619C30.9234 13.8158 30.3103 13.6495 30.0497 14.02L24.8766 21.4752C24.6697 21.7701 24.8919 22.1557 25.2674 22.1632L28.356 22.201C28.8771 22.2086 29.2986 22.6018 29.2986 23.0932L29.3063 27.3577C29.3063 27.8038 29.9194 27.9701 30.18 27.5996Z" fill="url(#paint1_linear_2160_2720)"/>
<defs>
<linearGradient id="paint0_linear_2160_2720" x1="14.5142" y1="19.0954" x2="47.7368" y2="19.0954" gradientUnits="userSpaceOnUse">
<stop stop-color="#33AFF8"/>
<stop offset="1" stop-color="#1393F1"/>
</linearGradient>
<linearGradient id="paint1_linear_2160_2720" x1="14.5142" y1="19.0954" x2="47.7368" y2="19.0954" gradientUnits="userSpaceOnUse">
<stop stop-color="#33AFF8"/>
<stop offset="1" stop-color="#1393F1"/>
</linearGradient>
</defs>
</svg>
