<svg width="49" height="48" viewBox="0 0 49 48" fill="none" xmlns="http://www.w3.org/2000/svg">
<path fill-rule="evenodd" clip-rule="evenodd" d="M24.2949 4.5283C13.541 4.5283 4.82322 13.2461 4.82322 24C4.82322 34.7539 13.541 43.4717 24.2949 43.4717C35.0488 43.4717 43.7666 34.7539 43.7666 24C43.7666 13.2461 35.0488 4.5283 24.2949 4.5283ZM0.294922 24C0.294922 10.7452 11.0401 0 24.2949 0C37.5498 0 48.2949 10.7452 48.2949 24C48.2949 37.2548 37.5498 48 24.2949 48C11.0401 48 0.294922 37.2548 0.294922 24ZM15.51 17.4792C15.51 16.2288 16.5237 15.2151 17.7742 15.2151H17.9907C19.2411 15.2151 20.2548 16.2288 20.2548 17.4792V17.6533C20.2548 18.9038 19.2411 19.9175 17.9907 19.9175H17.7742C16.5237 19.9175 15.51 18.9038 15.51 17.6533V17.4792ZM28.5515 17.4792C28.5515 16.2288 29.5652 15.2151 30.8157 15.2151H31.0081C32.2586 15.2151 33.2723 16.2288 33.2723 17.4792V17.6533C33.2723 18.9038 32.2586 19.9175 31.0081 19.9175H30.8157C29.5652 19.9175 28.5515 18.9038 28.5515 17.6533V17.4792ZM24.2948 31.7068C21.9632 31.7068 19.885 32.9536 18.6847 34.8927C18.0266 35.9559 16.6311 36.2843 15.5679 35.6262C14.5046 34.968 14.1762 33.5726 14.8344 32.5093C16.8036 29.328 20.2905 27.1785 24.2948 27.1785C28.299 27.1785 31.7859 29.328 33.7551 32.5093C34.4133 33.5726 34.0849 34.968 33.0216 35.6262C31.9584 36.2843 30.5629 35.9559 29.9048 34.8927C28.7045 32.9536 26.6263 31.7068 24.2948 31.7068Z" fill="#05A7FF"/>
</svg>
