<svg width="78" height="58" viewBox="0 0 78 58" fill="none" xmlns="http://www.w3.org/2000/svg">
<path fill-rule="evenodd" clip-rule="evenodd" d="M9.45238 5C7.03167 5 5 7.00598 5 9.56667V41.3667C5 43.9274 7.03167 45.9333 9.45238 45.9333H12.9286C13.2796 45.9333 13.6137 46.0057 13.9169 46.1363C14.1899 40.158 19.0543 35.3333 25.0952 35.3333C31.1362 35.3333 36.0006 40.158 36.2736 46.1363C36.5768 46.0057 36.9109 45.9333 37.2619 45.9333H40.7381C43.1588 45.9333 45.1905 43.9274 45.1905 41.3667V9.56667C45.1905 7.00598 43.1588 5 40.7381 5H9.45238ZM50.1689 8.91654C49.8394 3.96932 45.7778 0 40.7381 0H9.45238C4.1937 0 0 4.32173 0 9.56667V41.3667C0 46.6116 4.1937 50.9333 9.45238 50.9333H12.9286C13.5311 50.9333 14.0838 50.7202 14.5154 50.3652C16.025 54.7914 20.1689 58 25.0952 58C30.0216 58 34.1655 54.7914 35.675 50.3652C36.1067 50.7202 36.6594 50.9333 37.2619 50.9333H40.7381C42.9802 50.9333 45.0287 50.1477 46.6411 48.8399C47.7307 50.117 49.3442 50.9333 51.1667 50.9333H51.2262C52.8854 55.0633 56.8823 58 61.5952 58C66.3085 58 70.3055 55.063 71.9645 50.9326C71.9842 50.9331 72.004 50.9333 72.0238 50.9333C75.3626 50.9333 78 48.1935 78 44.9V30.2394C78 28.8801 77.5451 27.5562 76.7028 26.486L64.6035 11.1132C63.4753 9.67989 61.7559 8.83333 59.9245 8.83333H51.1667C50.8261 8.83333 50.4928 8.86184 50.1689 8.91654ZM50.1905 14.8667V44.9C50.1905 45.1832 50.2932 45.4263 50.4534 45.6055C50.9806 39.8751 55.7341 35.3333 61.5952 35.3333C67.4563 35.3333 72.2099 39.8751 72.7371 45.6055C72.8973 45.4263 73 45.1832 73 44.9V30.2394C73 29.9941 72.9176 29.7611 72.7738 29.5784L60.6744 14.2056C60.4832 13.9626 60.2051 13.8333 59.9245 13.8333H51.1667C50.6658 13.8333 50.1905 14.2574 50.1905 14.8667ZM25.0952 40.3333C21.7146 40.3333 18.9048 43.1303 18.9048 46.6667C18.9048 50.2031 21.7146 53 25.0952 53C28.4759 53 31.2857 50.2031 31.2857 46.6667C31.2857 43.1303 28.4759 40.3333 25.0952 40.3333ZM61.5952 40.3333C58.2146 40.3333 55.4048 43.1303 55.4048 46.6667C55.4048 50.2031 58.2146 53 61.5952 53C64.9759 53 67.7857 50.2031 67.7857 46.6667C67.7857 43.1303 64.9759 40.3333 61.5952 40.3333Z" fill="#05A7FF"/>
</svg>
