<svg width="36" height="36" viewBox="0 0 36 36" fill="none" xmlns="http://www.w3.org/2000/svg">
<path fill-rule="evenodd" clip-rule="evenodd" d="M35.3981 10.8797C33.9124 8.28166 30.8817 6.46399 27.0218 5.79562C23.1378 5.12309 18.4155 5.61468 13.5868 7.64609C8.75815 9.6775 4.78986 12.5897 2.41368 15.7569C0.036525 18.9254 -0.74609 22.3474 0.793078 25.3979C2.24798 28.2815 5.44584 29.9907 9.43541 30.4931C13.424 30.9953 18.2029 30.2912 22.8191 28.3491C27.6478 26.3178 31.4008 23.4321 33.646 20.3196C35.8779 17.2257 36.6197 13.9088 35.4483 10.9835L35.4268 10.9299L35.3981 10.8797ZM15.1647 8.80902C19.3965 7.20542 23.4416 6.86629 26.7376 7.43699C28.4847 7.73953 29.9799 8.28703 31.1863 9.00821C32.2763 9.72252 33.0844 10.6204 33.5144 11.6714C34.4934 14.0637 33.7669 16.9084 31.8001 19.574C30.8204 20.9016 29.5331 22.1847 27.9959 23.3451C27.9009 23.2645 27.8192 23.1727 27.7799 23.1179L24.4726 10.5088C23.9435 9.03327 22.8444 8.53938 21.8268 8.83203L10.8469 26.8066C10.5445 27.207 10.1472 27.437 9.79125 27.4673C7.54263 26.8303 5.73474 25.626 4.68922 23.798C3.71038 21.4056 3.94332 18.8685 5.37196 16.4364C6.8006 14.0044 9.42483 11.6772 13.2281 9.70405C13.8678 9.37219 14.5146 9.07424 15.1647 8.80902ZM23.0504 26.2256C23.3547 25.8899 23.3716 25.3007 23.1498 24.191L22.6867 22.246H15.7416C15.1718 23.1605 14.1385 24.8235 13.5588 25.9347C12.7538 27.4783 12.9097 27.7674 13.0862 27.9888C16.047 28.1434 19.3957 27.5851 22.6467 26.3994C22.782 26.3424 22.9169 26.2844 23.0504 26.2256ZM12.761 28.9707C12.7197 28.9721 12.6785 28.9734 12.6373 28.9746C12.6303 28.9699 12.6232 28.9651 12.6161 28.9604C12.6643 28.964 12.7126 28.9674 12.761 28.9707ZM22.2901 20.5687H16.9985L20.7687 14.1301L22.2901 20.5687Z" fill="#D0080F"/>
</svg>
