<svg width="36" height="36" viewBox="0 0 36 36" fill="none" xmlns="http://www.w3.org/2000/svg">
<path d="M3.59961 21.6001H10.7996V36.0001H3.59961V21.6001Z" fill="#1C7CE0"/>
<path d="M26.7604 36C29.0895 33.673 30.9471 30.8877 32.2243 27.8073C33.5016 24.7269 34.1729 21.4133 34.1988 18.0607C34.2248 14.7081 33.6049 11.3838 32.3755 8.28254C31.1461 5.1813 29.3319 2.36548 27.0391 0L21.7931 5.46066C23.3848 7.10283 24.6443 9.05765 25.4978 11.2106C26.3513 13.3636 26.7816 15.6714 26.7636 17.9989C26.7455 20.3264 26.2795 22.6267 25.3928 24.7652C24.5061 26.9037 23.2165 28.8373 21.5996 30.4528L26.7604 36Z" fill="#3AD330"/>
<path d="M12.5998 5.4C12.5998 8.38234 10.1821 10.8 7.1998 10.8C4.21747 10.8 1.7998 8.38234 1.7998 5.4C1.7998 2.41766 4.21747 0 7.1998 0C10.1821 0 12.5998 2.41766 12.5998 5.4Z" fill="#3AD330"/>
</svg>
