<svg width="36" height="36" viewBox="0 0 36 36" fill="none" xmlns="http://www.w3.org/2000/svg">
<path d="M16.6768 10.1382H18.7709C21.2527 10.1382 22.2195 10.021 23.2743 10.8276C24.3601 11.6032 24.903 12.9992 24.903 15.0158C24.903 15.9775 24.8533 17.1426 24.6362 18.4766C24.0778 21.5789 22.5762 23.4618 20.994 24.9199C19.4118 26.378 17.3877 27.573 14.7817 27.573H12.455L16.6768 10.1382ZM14.4027 35.305C17.1638 35.305 19.5737 34.7988 21.8384 34.1473C24.1341 33.4958 26.1817 32.4721 27.981 31.076C29.7804 29.68 31.285 27.8806 32.4949 25.678C33.7359 23.4443 35.1003 20.8209 35.6277 17.7186C35.8759 16.3225 36 15.004 36 13.7631C36 9.69904 35.1009 6.81008 32.4949 4.82458C29.889 2.80806 26.1817 1.7998 21.3731 1.7998H7.58037L0 35.305H14.4027Z" fill="#E10000"/>
</svg>
