<svg width="36" height="36" viewBox="0 0 36 36" fill="none" xmlns="http://www.w3.org/2000/svg">
<path d="M0 5.4C0 2.41766 2.41766 0 5.4 0H30.6C33.5823 0 36 2.41766 36 5.4V30.6C36 33.5823 33.5823 36 30.6 36H5.4C2.41766 36 0 33.5823 0 30.6V5.4Z" fill="url(#paint0_linear_825_19197)"/>
<path d="M10.3015 13.4204L9.43826 16.8615H15.4664L14.5461 20.3096H8.5322L6.73232 26.962H1.8L6.21807 10.8619V10.855C6.36092 9.80454 7.16495 9 8.13631 9H9.97496C10.0178 9 10.0607 9.0023 10.1035 9.0046V9H17.6234L16.4113 13.3744H10.3137L10.3015 13.4204Z" fill="url(#paint1_linear_825_19197)"/>
<path d="M32.4 9L31.194 13.3859H27.284L23.5577 26.962H18.7846L22.5088 13.3859H18.0316L18.5867 10.7838L18.6254 10.5953L18.6295 10.5769C18.8662 9.66662 19.6131 9 20.4967 9H32.4Z" fill="#37373A"/>
<defs>
<linearGradient id="paint0_linear_825_19197" x1="1.8" y1="0.900001" x2="33.3" y2="34.2" gradientUnits="userSpaceOnUse">
<stop stop-color="#F2F2F2"/>
<stop offset="1" stop-color="white"/>
</linearGradient>
<linearGradient id="paint1_linear_825_19197" x1="-1.57249e-06" y1="35.9355" x2="35.9344" y2="-0.276992" gradientUnits="userSpaceOnUse">
<stop stop-color="#970000"/>
<stop offset="1" stop-color="#F3111A"/>
</linearGradient>
</defs>
</svg>
