<svg width="36" height="36" viewBox="0 0 36 36" fill="none" xmlns="http://www.w3.org/2000/svg">
<path d="M15.0047 9.77973L22.194 21.8101L10.2113 34.2701L10.1495 34.471C10.0747 34.7134 10.0842 34.974 10.1765 35.2103C10.2049 35.2831 10.2407 35.3524 10.283 35.417L10.6432 35.7638C10.648 35.7667 10.6528 35.7695 10.6576 35.7723C10.8768 35.8999 11.1328 35.9495 11.3839 35.9129C11.6349 35.8764 11.8662 35.7559 12.04 35.5711L30.0013 16.4872C30.1517 16.3277 30.2521 16.1276 30.2901 15.9117C30.3281 15.6957 30.302 15.4734 30.2151 15.2721C30.1282 15.0708 29.9842 14.8994 29.801 14.779C29.6178 14.6586 29.4033 14.5945 29.184 14.5945H21.7234L25.7669 1.45586C25.8418 1.21316 25.8322 0.952233 25.7396 0.715711C25.647 0.479189 25.477 0.28105 25.2572 0.153663V0.151418C25.0381 0.0243412 24.7823 -0.0248534 24.5316 0.0118327L24.5238 0.0130152L23.7768 0.459409L15.0047 9.77973Z" fill="url(#paint0_linear_825_19168)"/>
<path d="M11.4669 30.1899C11.5137 30.1681 11.557 30.1378 11.5954 30.098L19.186 21.8954C19.4872 21.5833 19.4805 21.0824 19.1685 20.7811L14.2663 12.3073C13.9543 12.006 13.4533 12.0127 13.1521 12.3247L9.33513 16.2332L11.2657 19.6818L9.50823 21.3304H14.1931L11.4669 30.1899Z" fill="url(#paint1_linear_825_19168)"/>
<path d="M9.27064 21.3304L7.42183 18.0279L5.62612 20.0146C5.58848 20.2301 5.61462 20.4519 5.70135 20.6528C5.78826 20.8541 5.93222 21.0255 6.11545 21.1459C6.29867 21.2663 6.51315 21.3304 6.7324 21.3304H9.27064Z" fill="url(#paint2_linear_825_19168)"/>
<defs>
<linearGradient id="paint0_linear_825_19168" x1="20.2033" y1="0" x2="20.2033" y2="35.9246" gradientUnits="userSpaceOnUse">
<stop stop-color="#2A84A6"/>
<stop offset="1" stop-color="#1D5E77"/>
</linearGradient>
<linearGradient id="paint1_linear_825_19168" x1="12.5083" y1="12.0859" x2="12.5083" y2="30.1899" gradientUnits="userSpaceOnUse">
<stop stop-color="#0015CE"/>
<stop offset="1" stop-color="#05138A"/>
</linearGradient>
<linearGradient id="paint2_linear_825_19168" x1="12.5083" y1="12.0859" x2="12.5083" y2="30.1899" gradientUnits="userSpaceOnUse">
<stop stop-color="#0015CE"/>
<stop offset="1" stop-color="#05138A"/>
</linearGradient>
</defs>
</svg>
