<svg width="36" height="36" viewBox="0 0 36 36" fill="none" xmlns="http://www.w3.org/2000/svg">
<path d="M17.702 12.4656L2.79172 6.42838L17.702 1.7998L32.6122 6.42838L17.702 12.4656Z" fill="#18439F"/>
<path fill-rule="evenodd" clip-rule="evenodd" d="M2.19531 8.23956V26.5526L17.1056 34.1998V14.0756L2.19531 8.23956ZM5.29656 19.0908C6.35544 18.1984 7.98202 17.7711 9.84085 18.1892C10.6893 18.38 11.3961 18.9466 11.9266 19.5954C12.4611 20.2489 12.7682 20.9265 12.8461 21.2423C12.9126 21.5119 13.1823 21.6759 13.4487 21.6086C13.715 21.5413 13.877 21.2682 13.8105 20.9986C13.6896 20.5081 13.301 19.698 12.6923 18.9537C12.0797 18.2047 11.196 17.4633 10.0565 17.2069C7.93923 16.7307 5.98735 17.1994 4.66059 18.3175C4.44963 18.4952 4.42098 18.8125 4.5966 19.026C4.77222 19.2395 5.0856 19.2685 5.29656 19.0908ZM6.68492 21.7128C6.95548 21.4888 7.35372 21.3362 7.8205 21.28C8.28379 21.2243 8.77801 21.2684 9.20826 21.4002C10.0648 21.6627 10.7388 22.26 11.0776 23.1175C11.1796 23.3755 11.4688 23.501 11.7237 23.3978C11.9785 23.2946 12.1025 23.0018 12.0006 22.7439C11.5442 21.5888 10.6277 20.7838 9.49624 20.4371C8.93247 20.2644 8.30014 20.209 7.70314 20.2809C7.10964 20.3523 6.51386 20.5544 6.05547 20.9341C5.84303 21.11 5.81172 21.427 5.98554 21.6421C6.15935 21.8571 6.47248 21.8888 6.68492 21.7128ZM7.78179 24.384C8.10999 24.2212 8.33267 24.1926 8.56953 24.2633C8.78164 24.3265 8.9904 24.5503 9.11748 24.7798C9.25166 25.0222 9.55455 25.1086 9.79401 24.9728C10.0335 24.8369 10.1188 24.5303 9.98463 24.2879C9.80585 23.965 9.42781 23.4702 8.85039 23.2981C8.29773 23.1333 7.81126 23.2488 7.34425 23.4806C7.09778 23.6029 6.99593 23.9043 7.11675 24.1538C7.23758 24.4032 7.53533 24.5064 7.78179 24.384Z" fill="#18439F"/>
<path d="M28.4908 29.7725C28.0169 29.7725 27.5192 29.7348 26.9978 29.6595C26.4883 29.5968 26.0025 29.4964 25.5404 29.3584C25.0783 29.2203 24.6636 29.0572 24.2963 28.869C23.9764 28.7058 23.7512 28.4925 23.6209 28.229C23.4906 27.9529 23.4432 27.6643 23.4787 27.3631C23.5143 27.0619 23.615 26.7984 23.7809 26.5725C23.9467 26.3341 24.166 26.1772 24.4385 26.1019C24.711 26.0141 25.0191 26.0518 25.3627 26.2149C25.813 26.4408 26.3225 26.6165 26.8912 26.7419C27.46 26.8674 27.9932 26.9302 28.4908 26.9302C29.2728 26.9302 29.8179 26.8235 30.126 26.6102C30.4459 26.3843 30.6059 26.1082 30.6059 25.782C30.6059 25.4933 30.4933 25.2612 30.2682 25.0855C30.0549 24.9098 29.6698 24.7592 29.1129 24.6337L27.0334 24.1632C25.8959 23.9122 25.0487 23.473 24.4918 22.8455C23.9349 22.2181 23.6564 21.4087 23.6564 20.4173C23.6564 19.7648 23.7809 19.175 24.0297 18.648C24.2904 18.1084 24.6518 17.6503 25.1139 17.2739C25.5878 16.8974 26.1447 16.6088 26.7846 16.408C27.4363 16.1947 28.159 16.088 28.9529 16.088C29.5691 16.088 30.1911 16.1633 30.8191 16.3139C31.459 16.4519 32.01 16.6652 32.4721 16.9539C32.7446 17.1045 32.9401 17.3115 33.0586 17.575C33.1771 17.8386 33.2245 18.1146 33.2008 18.4033C33.1771 18.6793 33.0823 18.924 32.9164 19.1374C32.7624 19.3507 32.5491 19.495 32.2766 19.5703C32.0159 19.633 31.7019 19.5828 31.3346 19.4197C30.9909 19.2566 30.5999 19.1374 30.1615 19.0621C29.735 18.9742 29.3202 18.9303 28.9174 18.9303C28.479 18.9303 28.1057 18.9868 27.7977 19.0997C27.4896 19.2001 27.2526 19.3507 27.0867 19.5515C26.9327 19.7523 26.8557 19.9844 26.8557 20.2479C26.8557 20.5115 26.9564 20.7373 27.1578 20.9256C27.3711 21.1013 27.7562 21.2518 28.3131 21.3773L30.3748 21.8479C31.5241 22.1114 32.3832 22.5444 32.9519 23.1467C33.5207 23.749 33.8051 24.5333 33.8051 25.4996C33.8051 26.1521 33.6807 26.7419 33.4318 27.269C33.183 27.796 32.8275 28.2478 32.3654 28.6243C31.9033 28.9882 31.3464 29.2705 30.6947 29.4713C30.043 29.6721 29.3084 29.7725 28.4908 29.7725Z" fill="#18439F"/>
</svg>
