<svg width="37" height="36" viewBox="0 0 37 36" fill="none" xmlns="http://www.w3.org/2000/svg">
<path d="M14.1218 9.47901C14.1792 9.20012 14.4247 9 14.7095 9H35.4443C35.8243 9 36.1086 9.34879 36.032 9.72099L32.499 26.881C32.4416 27.1599 32.1961 27.36 31.9114 27.36H11.1765C10.7965 27.36 10.5122 27.0112 10.5889 26.639L14.1218 9.47901Z" fill="#D61C0D"/>
<path d="M6.12043 13.9021H5.72043V14.3021V15.0187C5.72043 15.3346 5.81393 15.6434 5.98915 15.9063L6.35045 16.4482C6.47376 16.6332 6.62029 16.8016 6.78644 16.9493L7.74002 17.7969C8.10612 18.1223 8.57892 18.3021 9.06875 18.3021H19.2168C19.2539 18.3021 19.2895 18.3168 19.3157 18.3431C19.3704 18.3977 19.3704 18.4864 19.3157 18.5411C19.2895 18.5673 19.2539 18.5821 19.2168 18.5821H11.0365C10.6658 18.5821 10.3837 18.915 10.4447 19.2807L10.5381 19.8413C10.7019 20.8239 11.2884 21.6853 12.1426 22.1978L12.9421 22.6775C13.4705 22.9946 14.0752 23.1621 14.6914 23.1621H19.6264C20.1423 23.1621 20.6549 23.0789 21.1443 22.9158L22.4982 22.4645C23.3579 22.1779 24.1236 21.6631 24.7133 20.975L25.1572 20.4572C25.7864 19.7231 26.1893 18.8224 26.317 17.864L26.4159 17.1229C26.4743 16.6843 26.4743 16.2399 26.4159 15.8013L26.2385 14.471C26.1654 13.9228 26.0018 13.3905 25.7545 12.8958L25.532 12.4509C25.2917 11.9702 24.9754 11.5314 24.5954 11.1514L24.3267 10.8827C23.8649 10.4209 23.3171 10.054 22.7143 9.80284L22.2435 9.60669C21.6342 9.35279 20.9806 9.22207 20.3204 9.22207H1.64043C1.30906 9.22207 1.04043 9.4907 1.04043 9.82207V10.1296C1.04043 10.3385 1.09493 10.5437 1.19854 10.725L1.52405 11.2946C1.7437 11.679 2.0457 12.01 2.40839 12.2639L3.05962 12.7198C3.56387 13.0727 4.16449 13.2621 4.78001 13.2621H13.8541C13.9641 13.2621 14.0682 13.3121 14.1369 13.398L14.2031 13.4808C14.2946 13.5951 14.2734 13.7624 14.1562 13.8502C14.1114 13.8839 14.0568 13.9021 14.0007 13.9021H6.12043Z" fill="white" stroke="#D61C0D" stroke-width="0.8"/>
</svg>
