<svg width="36" height="36" viewBox="0 0 36 36" fill="none" xmlns="http://www.w3.org/2000/svg">
<path d="M27.2277 29.2189H23.0619V35.4289H18.5381V21.3369L28.897 14.2856C29.1779 14.8571 26.7992 19.429 26.9309 19.429C33.1103 19.429 33.3912 20.2856 33.6721 20.5713C35.0795 21.3133 35.3707 23.1892 35.3707 24.5442C35.3707 25.5056 35.0439 26.3089 34.3905 26.9541C33.7471 27.5929 32.7669 28.1027 31.45 28.4833L35.9997 35.2934V35.4289H31.1441L27.2277 29.2189ZM23.0619 25.9998H26.65C27.786 25.9998 29.6782 26.0819 30.3015 25.7141C30.9248 25.3399 31.1441 24.9372 31.1441 24.2856C31.1441 23.621 31.1755 22.952 30.5824 22.5713C29.9993 22.1906 28.9899 22.2856 27.7735 22.2856H23.0619V25.9998Z" fill="#222121"/>
<path d="M12.9209 15.9999V11.4285L29.2122 0C29.2122 2.57141 26.1225 6.85708 26.1225 6.85708L12.9209 15.9999Z" fill="#707A8C"/>
<path d="M17.4596 19.714V30.2856C17.4596 31.8277 16.6487 33.7576 15.1407 34.6545C13.6428 35.5514 11.592 35.9998 8.9883 35.9998C6.42478 35.9998 4.38904 35.5643 2.88109 34.6932C1.37314 33.8222 0.0301591 32.4863 0 30.9635V19.4286H4.52386V30.8764C4.52386 31.7142 7.491 32.2856 8.70741 32.2856C11.2508 32.2856 12.8805 32.0987 12.9207 30.3824V19.4286V18.2852L29.212 6.85693C28.9311 9.42834 26.1222 13.9997 26.1222 13.9997L17.4596 19.714Z" fill="#DF2828"/>
</svg>
