<svg width="112" height="32" viewBox="0 0 112 32" fill="none" xmlns="http://www.w3.org/2000/svg">
<path fill-rule="evenodd" clip-rule="evenodd" d="M31.3472 9.0203C31.0011 9.08361 30.7988 9.13015 30.6866 9.17228C30.6313 9.19308 30.3556 9.45169 30.3556 9.48279C30.3556 9.49516 30.3339 9.52662 30.3073 9.55275C30.2284 9.63028 30.1734 9.72553 30.1733 9.78497C30.1732 9.86216 30.0904 10.1604 30.0496 10.2306C29.9539 10.3953 29.9197 10.4946 29.852 10.8046C29.8219 10.9426 29.8028 10.9888 29.7574 11.0341C29.7149 11.0765 29.649 11.2191 29.649 11.2686C29.649 11.3753 29.537 11.7262 29.4917 11.7616C29.4513 11.7932 29.4236 11.8811 29.3293 12.2777C29.3039 12.3847 29.2487 12.5079 29.2138 12.5358C29.1775 12.5647 29.0791 12.9043 29.0791 13.0006C29.0791 13.0678 29.0207 13.192 28.9515 13.2718C28.9035 13.3272 28.8684 13.435 28.827 13.6541C28.7963 13.8168 28.7744 13.875 28.6952 14.0042C28.6534 14.0726 28.6102 14.1791 28.5993 14.2408C28.5573 14.4788 28.5377 14.5502 28.4857 14.6542C28.4562 14.7133 28.4236 14.7672 28.4134 14.7738C28.3915 14.7882 28.3352 14.9741 28.3056 15.1299C28.2711 15.3109 28.2388 15.4063 28.1962 15.4521C28.1105 15.5444 28.0761 15.6354 28.0761 15.7706C28.0761 15.8892 28.0824 15.9082 28.1291 15.9317C28.1698 15.9523 28.4481 15.9569 29.3364 15.9515C30.3334 15.9455 30.4955 15.9401 30.5255 15.9118C30.5576 15.8815 30.5822 15.8001 30.6261 15.5789C30.6355 15.5316 30.6802 15.43 30.7254 15.3531C30.7847 15.2524 30.8154 15.1653 30.8352 15.0413C30.8711 14.817 30.9178 14.672 30.984 14.5789C31.0384 14.5026 31.0793 14.3674 31.1307 14.095C31.1463 14.0122 31.1928 13.8803 31.234 13.802C31.3129 13.6518 31.3814 13.4337 31.3814 13.3323C31.3814 13.248 31.4489 13.0537 31.5048 12.9771C31.5305 12.9418 31.5701 12.8595 31.5927 12.7943C31.6512 12.625 31.6729 12.5908 31.7479 12.549C31.8103 12.5142 31.8185 12.5141 31.8791 12.5479C31.9147 12.5677 31.9629 12.6174 31.9863 12.6583C32.0096 12.6992 32.0563 12.7462 32.09 12.7626C32.1236 12.779 32.1904 12.8557 32.2383 12.933C32.2862 13.0102 32.337 13.0735 32.351 13.0735C32.3651 13.0735 32.3904 13.0977 32.4071 13.1272C32.4239 13.1568 32.446 13.181 32.4561 13.181C32.4663 13.181 32.4965 13.2215 32.5233 13.271C32.55 13.3205 32.6103 13.3955 32.6572 13.4377C32.704 13.4799 32.765 13.5581 32.7927 13.6115C32.8204 13.6649 32.8736 13.7252 32.911 13.7454C32.9483 13.7656 32.9945 13.8174 33.0136 13.8604C33.0326 13.9034 33.0937 13.9777 33.1494 14.0255C33.205 14.0733 33.2506 14.1212 33.2506 14.132C33.2506 14.1548 33.3501 14.281 33.4329 14.3634C33.5235 14.4535 33.5627 14.5048 33.6044 14.5876C33.6258 14.6301 33.654 14.6649 33.6671 14.6649C33.7021 14.6649 33.8203 14.796 33.8209 14.8355C33.8216 14.8787 33.8864 14.9543 33.9485 14.9843C33.9751 14.9971 34.014 15.0417 34.0351 15.0835C34.0561 15.1253 34.1215 15.207 34.1805 15.265C34.3044 15.3869 34.3447 15.4323 34.3447 15.4499C34.3447 15.4676 34.3878 15.5143 34.4895 15.6067C34.6397 15.7432 34.6595 15.7585 34.731 15.7934C34.7693 15.8121 34.8006 15.8357 34.8006 15.846C34.8006 15.8823 35.0113 15.9572 35.1725 15.978C35.5695 16.0293 35.7524 16.0386 35.9631 16.018C36.3338 15.9818 36.5399 15.9267 36.5819 15.8526C36.6097 15.8037 36.6982 15.7335 36.7912 15.6865C36.8146 15.6746 36.8534 15.6117 36.8774 15.5467C36.9014 15.4816 36.9312 15.4252 36.9436 15.4212C36.956 15.4173 36.9661 15.4019 36.9661 15.3869C36.9661 15.372 36.9863 15.3426 37.0109 15.3216C37.0604 15.2792 37.1257 15.092 37.1257 14.9921C37.1257 14.9131 37.1892 14.7196 37.2435 14.6327C37.316 14.5168 37.3443 14.4419 37.3858 14.2563C37.431 14.0534 37.475 13.9388 37.5507 13.8262C37.5786 13.7848 37.6138 13.688 37.6289 13.6111C37.6713 13.3966 37.737 13.1921 37.7817 13.1354C37.8482 13.0512 37.8722 12.9864 37.9121 12.7831C37.933 12.6767 37.9595 12.5728 37.971 12.5523C37.9825 12.5317 37.9919 12.5044 37.9919 12.4917C37.9919 12.4789 38.0177 12.4364 38.0494 12.3973C38.1039 12.3298 38.1742 12.1293 38.1742 12.0412C38.1742 11.9802 38.2874 11.6541 38.3085 11.6541C38.3376 11.6541 38.3933 11.5077 38.4354 11.3207C38.4926 11.0668 38.5206 10.9831 38.5697 10.9188C38.6226 10.8495 38.6985 10.6534 38.6985 10.586C38.6985 10.4674 38.7952 10.2185 38.86 10.1701C38.8808 10.1547 38.9177 10.0344 38.9624 9.8368C39.0108 9.62297 39.057 9.49675 39.1056 9.44586C39.1262 9.42431 39.1602 9.36152 39.1811 9.30633C39.218 9.20915 39.2177 9.20472 39.173 9.16654C39.1295 9.12936 39.0589 9.1271 37.9366 9.1271C36.6152 9.1271 36.7218 9.11473 36.6363 9.27797C36.6116 9.32511 36.57 9.38885 36.5437 9.41965C36.5152 9.45313 36.4842 9.53959 36.4666 9.63471C36.4162 9.90799 36.3272 10.1701 36.2848 10.1701C36.2567 10.1701 36.1455 10.5452 36.1455 10.6403C36.1455 10.6909 36.0875 10.8191 36.025 10.9068C35.9748 10.9772 35.9452 11.0634 35.9165 11.2239C35.8816 11.4188 35.8408 11.5353 35.7764 11.6239C35.7382 11.6766 35.6975 11.7839 35.6674 11.9121C35.5805 12.2815 35.571 12.309 35.4919 12.4208C35.3878 12.5681 35.2115 12.6335 35.1311 12.5546C35.0935 12.5179 35.0098 12.3873 34.9914 12.3369C34.9838 12.3162 34.97 12.2993 34.9606 12.2993C34.9261 12.2993 34.8221 12.1832 34.7723 12.0891C34.7441 12.0358 34.6786 11.9517 34.6268 11.9021C34.575 11.8525 34.5249 11.7885 34.5154 11.7599C34.4915 11.6872 34.4154 11.5896 34.3827 11.5896C34.3676 11.5896 34.3204 11.5339 34.2776 11.4659C34.2348 11.3979 34.1657 11.3144 34.1241 11.2804C34.0824 11.2463 34.0484 11.2052 34.0484 11.189C34.0484 11.1727 34.0381 11.1594 34.0256 11.1594C34.013 11.1594 34.0028 11.1461 34.0028 11.1298C34.0028 11.1135 33.9874 11.0881 33.9686 11.0734C33.9498 11.0587 33.9344 11.0288 33.9344 11.0069C33.9344 10.985 33.9034 10.9455 33.8655 10.9191C33.7983 10.8722 33.7064 10.7486 33.7064 10.705C33.7064 10.6818 33.6501 10.6218 33.6283 10.6218C33.5995 10.6218 33.5182 10.5277 33.4879 10.4593C33.4702 10.4194 33.4224 10.3548 33.3816 10.3157C33.2922 10.2302 33.2046 10.1178 33.159 10.0304C33.1405 9.99487 33.0929 9.9368 33.0532 9.90132C33.0135 9.86583 32.9637 9.79585 32.9425 9.74581C32.9185 9.68893 32.8754 9.63815 32.8277 9.61034C32.7858 9.58587 32.7446 9.54569 32.7364 9.52107C32.7161 9.46081 32.6121 9.35291 32.5743 9.35291C32.5576 9.35291 32.5039 9.31519 32.455 9.26906C32.4062 9.22295 32.3292 9.17456 32.2841 9.16153C32.2389 9.14852 32.1681 9.12824 32.1267 9.1165C32.0483 9.09424 31.8984 9.06252 31.7233 9.03112C31.6669 9.02101 31.5951 9.00787 31.5637 9.00193C31.5324 8.99598 31.4349 9.00426 31.3472 9.0203ZM66.0067 9.0534C65.9628 9.0631 65.8397 9.08667 65.7331 9.10577C65.6266 9.12486 65.5079 9.14957 65.4694 9.16067C65.4309 9.17177 65.3829 9.18086 65.3628 9.18086C65.3426 9.18086 65.3023 9.20783 65.2732 9.24078C65.2441 9.27373 65.1895 9.31379 65.1519 9.32982C64.9663 9.40887 64.9215 9.43911 64.7831 9.57873C64.5006 9.86394 64.4761 9.89635 64.4469 10.0238C64.4396 10.0556 64.3861 10.1472 64.328 10.2272C64.27 10.3072 64.2033 10.4263 64.1798 10.4918C64.1563 10.5574 64.1062 10.6422 64.0684 10.6802C64.0307 10.7183 63.9687 10.8264 63.9306 10.9205C63.8925 11.0145 63.8356 11.1158 63.8041 11.1455C63.7726 11.1752 63.7124 11.2824 63.6703 11.3836C63.6261 11.4898 63.5658 11.5928 63.5277 11.627C63.4915 11.6596 63.4476 11.7299 63.4302 11.7831C63.3757 11.9504 63.3212 12.0499 63.2495 12.1129C63.2113 12.1464 63.1801 12.1894 63.1801 12.2084C63.1801 12.2774 63.0536 12.5345 63.0083 12.5576C62.9671 12.5786 62.8838 12.7205 62.8838 12.7698C62.8838 12.8147 62.7856 12.9919 62.7364 13.0359C62.7067 13.0625 62.6491 13.1663 62.6084 13.2667C62.5677 13.3671 62.513 13.4653 62.4869 13.4849C62.4323 13.526 62.3783 13.6234 62.3348 13.7591C62.3182 13.811 62.2913 13.8659 62.2751 13.8813C62.2588 13.8966 62.2455 13.9142 62.2455 13.9203C62.2455 13.9265 62.2221 13.9554 62.1935 13.9845C62.1648 14.0137 62.1171 14.1023 62.0875 14.1815C62.0579 14.2607 62.0084 14.351 61.9776 14.3823C61.9216 14.4391 61.874 14.527 61.8019 14.7069C61.7808 14.7596 61.7412 14.8226 61.7139 14.8469C61.6866 14.8712 61.6527 14.9152 61.6385 14.9447C61.5996 15.0257 61.5433 15.1643 61.5272 15.2191C61.5193 15.2459 61.4823 15.2947 61.4451 15.3276C61.4005 15.3668 61.3549 15.4486 61.3115 15.5666C61.2688 15.6829 61.2199 15.7711 61.172 15.8176C61.1187 15.8695 61.1072 15.8919 61.1305 15.8985C61.3219 15.9525 61.474 15.9582 62.5419 15.9516C63.7862 15.9438 63.7909 15.9433 63.8198 15.8155C63.8445 15.7063 63.9013 15.5992 63.9696 15.533C64.0424 15.4627 64.0919 15.3723 64.0919 15.3098C64.0919 15.244 64.164 15.1136 64.2568 15.0114C64.304 14.9594 64.3427 14.8984 64.3427 14.8756C64.3427 14.7897 64.4166 14.6261 64.4922 14.5449C64.5354 14.4986 64.582 14.4219 64.5958 14.3746C64.6413 14.2189 64.6919 14.1175 64.7575 14.0506C64.7958 14.0115 64.8452 13.916 64.8789 13.8158C64.9102 13.7229 64.9638 13.6137 64.9982 13.5731C65.0854 13.4702 65.1379 13.3733 65.1407 13.31C65.142 13.2805 65.1709 13.2079 65.2049 13.1487C65.2605 13.0518 65.2752 13.0405 65.354 13.0344C65.4645 13.0258 65.5927 13.0816 65.6064 13.1443C65.6121 13.1704 65.6279 13.3079 65.6416 13.4498C65.6553 13.5918 65.681 13.8095 65.6987 13.9337C65.7294 14.1494 65.74 14.3062 65.7763 15.0843C65.7903 15.3856 65.7992 15.4418 65.8474 15.5359C65.8777 15.5951 65.9235 15.6593 65.9493 15.6787C65.975 15.6981 66.0197 15.7586 66.0486 15.8131C66.0774 15.8677 66.1132 15.9124 66.128 15.9125C66.1427 15.9126 66.2061 15.9365 66.2688 15.9656C66.3315 15.9947 66.4013 16.0188 66.424 16.0191C66.4467 16.0195 66.5133 16.0457 66.5722 16.0773C66.6739 16.132 66.6948 16.1348 66.9983 16.1353C67.2893 16.1358 67.3304 16.131 67.4655 16.08C67.6087 16.0261 67.6446 16.0164 67.8417 15.9784C67.959 15.9558 68.094 15.8999 68.145 15.8526C68.212 15.7906 68.3501 15.6972 68.3747 15.6972C68.4235 15.6972 68.5141 15.6461 68.5141 15.6186C68.5141 15.5816 68.6705 15.4176 68.7057 15.4176C68.7204 15.4176 68.7626 15.3633 68.7995 15.2968C68.8363 15.2303 68.8795 15.1712 68.8954 15.1655C68.9114 15.1597 68.9244 15.1438 68.9244 15.1302C68.9244 15.1166 68.9441 15.0938 68.9682 15.0796C68.9922 15.0655 69.0442 14.9967 69.0836 14.9269C69.123 14.8571 69.1842 14.7798 69.2196 14.7552C69.2549 14.7305 69.3076 14.6638 69.3366 14.607C69.3921 14.4983 69.4121 14.4751 69.4823 14.4377C69.5277 14.4135 69.5375 14.3994 69.5936 14.2778C69.6127 14.2364 69.6698 14.1608 69.7205 14.1097C69.7712 14.0587 69.8456 13.9649 69.8859 13.9014C69.9261 13.8379 69.9805 13.7752 70.0066 13.762C70.0327 13.7488 70.0785 13.6877 70.1082 13.6262C70.1545 13.5305 70.2541 13.4177 70.2922 13.4176C70.2986 13.4176 70.3167 13.3901 70.3325 13.3565C70.3482 13.3228 70.405 13.2503 70.4586 13.1952L70.556 13.095L70.6266 13.1541C70.7277 13.2387 70.7585 13.3696 70.7383 13.6283C70.7294 13.7431 70.7122 14.1418 70.7002 14.5144C70.6881 14.887 70.6722 15.349 70.6648 15.541C70.6522 15.8692 70.654 15.8909 70.694 15.9028C70.7174 15.9097 70.7544 15.9244 70.7762 15.9354C70.8366 15.9658 72.8973 15.9613 72.9687 15.9306C73.0323 15.9033 73.0604 15.8344 73.1413 15.5071C73.188 15.3179 73.1996 15.1972 73.2536 14.3316C73.2955 13.6602 73.3472 13.1781 73.415 12.8262C73.4859 12.4579 73.5177 12.1193 73.5516 11.3745C73.5727 10.9099 73.6118 10.5884 73.6666 10.4282C73.7311 10.2396 73.734 10.2045 73.6948 10.0841C73.6736 10.0191 73.6334 9.94235 73.6054 9.91364C73.5773 9.88493 73.5415 9.8202 73.5257 9.76981C73.5068 9.70942 73.4772 9.66873 73.4389 9.65052C73.3459 9.60626 73.2722 9.54871 73.2458 9.49954C73.2323 9.47444 73.2058 9.44713 73.187 9.43883C73.1682 9.43053 73.117 9.40885 73.0731 9.39066C73.0292 9.37246 72.9529 9.34068 72.9035 9.32005C72.8541 9.29943 72.7928 9.26414 72.7672 9.24162C72.7416 9.21912 72.6999 9.19669 72.6746 9.19177C72.4399 9.14628 72.3495 9.13798 72.0975 9.13888C71.6827 9.14039 71.3912 9.18054 71.2931 9.24968C71.2199 9.30123 71.017 9.38216 70.881 9.41397C70.8476 9.4218 70.7775 9.47414 70.7252 9.53034C70.6729 9.58653 70.6143 9.63249 70.5949 9.63249C70.5531 9.63249 70.4745 9.71241 70.4745 9.75486C70.4745 9.77125 70.43 9.8254 70.3757 9.87523C70.3213 9.92506 70.2594 10.0005 70.2381 10.0429C70.2168 10.0852 70.1476 10.1723 70.0844 10.2364C70.0211 10.3005 69.9536 10.382 69.9343 10.4175C69.915 10.453 69.8491 10.5288 69.7879 10.5861C69.7267 10.6433 69.6766 10.7021 69.6766 10.7166C69.6766 10.7502 69.555 10.8798 69.5235 10.8798C69.5104 10.8798 69.4708 10.9338 69.4354 10.9998C69.4001 11.0657 69.3446 11.1375 69.3122 11.1592C69.2798 11.181 69.2385 11.2262 69.2204 11.2598C69.1736 11.3464 69.0848 11.4604 69.0046 11.5369C68.9313 11.6067 68.9009 11.6477 68.8453 11.751C68.7914 11.8513 68.7496 11.8664 68.5922 11.8424C68.4754 11.8247 68.4508 11.813 68.4289 11.7647C68.3828 11.6629 68.3483 11.2723 68.3081 10.396C68.2845 9.88267 68.2489 9.67551 68.1843 9.67551C68.1461 9.67551 67.9898 9.54664 67.9898 9.51511C67.9898 9.48432 67.8941 9.41743 67.85 9.41743C67.8348 9.41743 67.8063 9.40451 67.7865 9.38872C67.7667 9.37291 67.7146 9.34719 67.6707 9.33156C67.6268 9.31592 67.5601 9.27736 67.5225 9.24586C67.4512 9.18613 67.3705 9.16418 67.0097 9.10626C66.8906 9.08714 66.7375 9.06224 66.6696 9.0509C66.5242 9.02667 66.1208 9.02817 66.0067 9.0534ZM80.3332 9.10813C80.0027 9.16078 79.9049 9.18773 79.8575 9.23919C79.8323 9.26644 79.7445 9.31855 79.6622 9.35496C79.5799 9.39139 79.4895 9.43165 79.4613 9.44444C79.4331 9.45724 79.41 9.479 79.41 9.49279C79.41 9.5252 79.3023 9.6143 79.2224 9.64798C79.1843 9.66402 79.1412 9.71235 79.1112 9.77252C79.0817 9.8317 79.0354 9.8839 78.995 9.90364C78.958 9.92169 78.913 9.96973 78.895 10.0104C78.8769 10.0512 78.8136 10.1356 78.7543 10.198C78.695 10.2605 78.6259 10.3398 78.6008 10.3742C78.5757 10.4087 78.5014 10.4886 78.4355 10.5518C78.3697 10.615 78.3159 10.6803 78.3159 10.6969C78.3159 10.7135 78.2688 10.7639 78.2113 10.8089C78.1538 10.8538 78.0828 10.9342 78.0535 10.9874C78.0242 11.0406 77.968 11.1035 77.9287 11.1272C77.8894 11.1508 77.8378 11.2097 77.8141 11.2581C77.7904 11.3064 77.7351 11.3692 77.6912 11.3976C77.6474 11.4259 77.6062 11.4691 77.5997 11.4934C77.5932 11.5177 77.5458 11.5808 77.4942 11.6335C77.4427 11.6862 77.3458 11.7978 77.279 11.8815C77.2121 11.9652 77.1333 12.0486 77.104 12.0668C77.0746 12.0849 77.0269 12.1444 76.998 12.199C76.9691 12.2537 76.9159 12.3148 76.8798 12.3349C76.8437 12.355 76.7956 12.4061 76.7729 12.4483C76.7325 12.5235 76.6127 12.6423 76.5766 12.643C76.5666 12.6432 76.544 12.6748 76.5265 12.7132C76.4904 12.7925 76.3955 12.9014 76.3624 12.9014C76.3503 12.9014 76.3261 12.928 76.3085 12.9606C76.2591 13.0523 76.1725 13.1628 76.0834 13.2478C75.9777 13.3486 75.9224 13.4135 75.9224 13.4368C75.9224 13.4471 75.8779 13.4931 75.8234 13.5391C75.769 13.585 75.7073 13.6564 75.6863 13.6975C75.6653 13.7387 75.615 13.794 75.5744 13.8204C75.5339 13.8467 75.4751 13.9144 75.4437 13.9706C75.4124 14.0269 75.3631 14.0839 75.3341 14.0974C75.3052 14.1108 75.2443 14.181 75.1989 14.2535C75.1534 14.326 75.1027 14.3853 75.0862 14.3853C75.0697 14.3853 75.0562 14.3932 75.0562 14.4028C75.0562 14.4124 75.0379 14.439 75.0156 14.4619C74.9933 14.4849 74.9529 14.5375 74.9259 14.5789C74.8989 14.6203 74.8296 14.6966 74.7718 14.7483C74.7141 14.8002 74.6508 14.8718 74.6312 14.9075C74.5965 14.9709 74.4686 15.095 74.4382 15.095C74.4298 15.095 74.4166 15.1188 74.4088 15.1479C74.3929 15.208 74.3159 15.292 74.2442 15.3277C74.2175 15.3409 74.1735 15.3963 74.1464 15.4507C74.1192 15.5053 74.0679 15.5654 74.0319 15.5849C73.9951 15.6049 73.9385 15.6721 73.9018 15.7394C73.8661 15.8049 73.8288 15.8642 73.8189 15.871C73.809 15.8779 73.842 15.901 73.8922 15.9224C73.9789 15.9593 74.0545 15.9602 75.3576 15.9406C76.7138 15.9202 76.857 15.9113 76.857 15.8469C76.857 15.8161 76.9613 15.6837 77.0568 15.5931C77.0985 15.5535 77.1588 15.4809 77.1908 15.4318C77.2228 15.3826 77.2899 15.3068 77.3399 15.2634C77.3899 15.2199 77.4544 15.1427 77.4832 15.0918C77.5121 15.0408 77.5665 14.9845 77.6041 14.9665C77.6463 14.9462 77.6831 14.905 77.7005 14.8585C77.7313 14.7757 77.8301 14.6649 77.873 14.6649C77.888 14.6649 77.9063 14.648 77.9136 14.6273C77.9339 14.5703 78.0213 14.4543 78.111 14.3652C78.13 14.3464 78.1708 14.2973 78.2016 14.256C78.2906 14.137 78.3002 14.1262 78.3807 14.0549C78.4226 14.0179 78.4826 13.9463 78.514 13.896C78.5453 13.8457 78.602 13.7817 78.6399 13.7537C78.6777 13.7258 78.7357 13.6558 78.7687 13.5981C78.8017 13.5405 78.8559 13.4811 78.889 13.4662C78.9231 13.4507 78.9643 13.404 78.9839 13.3584C79.003 13.314 79.0615 13.2391 79.1139 13.1918C79.1663 13.1444 79.2456 13.0525 79.29 12.9874C79.3344 12.9224 79.4052 12.8384 79.4474 12.8007C79.4895 12.7631 79.524 12.7219 79.524 12.7093C79.524 12.6967 79.5336 12.6864 79.5453 12.6864C79.557 12.6864 79.5737 12.665 79.5825 12.639C79.5998 12.5875 79.6271 12.5595 79.6954 12.5231C79.7196 12.5101 79.7687 12.4472 79.8044 12.3833C79.8418 12.3162 79.9072 12.2414 79.9588 12.2065C80.008 12.1732 80.0483 12.132 80.0483 12.1151C80.0483 12.0981 80.056 12.0842 80.0654 12.0842C80.0748 12.0841 80.1123 12.06 80.1487 12.0304C80.1851 12.0008 80.2268 11.9767 80.2413 11.9767C80.2805 11.9767 80.3672 12.0593 80.3916 12.1199C80.4039 12.1505 80.413 12.6468 80.413 13.2921C80.413 14.2421 80.4078 14.4214 80.3788 14.4791C80.3117 14.6125 80.3289 14.6101 79.3339 14.6219L78.4258 14.6327L78.358 14.7124C78.3207 14.7562 78.2568 14.8116 78.2159 14.8354C78.1707 14.8618 78.116 14.9265 78.0761 15.0009C78.0401 15.0681 77.9729 15.1579 77.9268 15.2005C77.8807 15.243 77.8144 15.3214 77.7795 15.3746C77.7446 15.4279 77.6829 15.4984 77.6423 15.5313C77.6018 15.5642 77.5472 15.6382 77.521 15.6956C77.4914 15.7605 77.4454 15.8167 77.3994 15.8442C77.3473 15.8753 77.3353 15.8914 77.359 15.8984C77.5365 15.9513 77.7471 15.9553 80.3604 15.9546C82.7812 15.954 83.1197 15.95 83.1598 15.9214C83.205 15.8892 83.2054 15.8604 83.2114 12.5382L83.2175 9.18751L83.1699 9.13041L83.1223 9.07333L81.8189 9.07619C80.8416 9.07837 80.47 9.08635 80.3332 9.10813ZM86.5075 9.10559C86.5002 9.12334 86.4853 9.13785 86.4742 9.13785C86.4398 9.13785 86.3624 9.21041 86.3624 9.24276C86.3624 9.25971 86.3378 9.30405 86.3077 9.34128C86.2776 9.37851 86.2409 9.45201 86.2261 9.5046C86.2112 9.5572 86.1846 9.64731 86.1668 9.70486C86.149 9.76239 86.1345 9.82727 86.1345 9.84902C86.1345 9.90132 86.0877 9.99857 86.0373 10.051C85.9967 10.0933 85.9065 10.3457 85.9065 10.4173C85.9065 10.4933 85.8512 10.6341 85.7924 10.7078C85.7222 10.7957 85.6872 10.8786 85.6696 10.9981C85.6472 11.1507 85.5893 11.3158 85.5298 11.3969C85.4739 11.473 85.4205 11.6295 85.3579 11.9014C85.3415 11.9724 85.3051 12.0595 85.277 12.095C85.1997 12.1926 85.1768 12.2587 85.0751 12.6774C85.0691 12.7021 85.0351 12.7568 84.9995 12.799C84.9547 12.8523 84.9222 12.9308 84.8938 13.0553C84.8327 13.3221 84.8138 13.3739 84.73 13.5036C84.688 13.5687 84.6422 13.6751 84.6282 13.7402C84.6142 13.8052 84.5942 13.8977 84.5837 13.9457C84.5594 14.0572 84.5182 14.1478 84.4667 14.2033C84.4196 14.2541 84.3339 14.4939 84.3334 14.5763C84.3329 14.6502 84.2882 14.7676 84.23 14.8479C84.1598 14.9447 84.1319 15.0162 84.0936 15.1983C84.0525 15.3936 83.9992 15.521 83.9362 15.5748C83.8842 15.6191 83.8462 15.861 83.884 15.9069C83.9012 15.9278 84.1713 15.9338 85.0966 15.9338C86.2209 15.9338 86.2891 15.9316 86.3247 15.8945C86.3455 15.8728 86.3624 15.8433 86.3624 15.8289C86.3624 15.8004 86.4282 15.6717 86.4516 15.6542C86.5143 15.6076 86.5665 15.4676 86.6242 15.1918C86.6626 15.0085 86.7067 14.8939 86.7859 14.7725C86.8129 14.7311 86.8478 14.6246 86.8633 14.5359C86.9 14.3269 86.9721 14.1131 87.0214 14.067C87.0663 14.025 87.1228 13.8562 87.1598 13.6541C87.1738 13.5773 87.2252 13.4369 87.2738 13.3423C87.3225 13.2477 87.374 13.1122 87.3883 13.0412C87.434 12.8137 87.4857 12.6558 87.5362 12.5896C87.5867 12.5232 87.611 12.4493 87.6736 12.1702C87.6935 12.0815 87.7317 11.9702 87.7586 11.9229C87.8693 11.7281 87.8883 11.6791 87.9133 11.525C87.9448 11.33 87.9929 11.1921 88.0594 11.1057C88.0867 11.0702 88.123 11.0086 88.14 10.9687C88.157 10.9289 88.2118 10.8684 88.2617 10.8343L88.3524 10.7723L89.2779 10.7731C90.5257 10.7741 90.5647 10.7834 90.6145 11.0906C90.6227 11.1415 90.6223 11.2503 90.6136 11.3324L90.5977 11.4817L90.4233 11.6511C90.2847 11.7858 90.2279 11.8258 90.1464 11.8463C90.0857 11.8615 89.7366 11.8798 89.2916 11.891C88.2474 11.9173 88.2668 11.9153 88.1723 12.0098C88.07 12.1121 88.057 12.1701 88.1134 12.2712C88.2018 12.4294 88.227 12.5279 88.253 12.8155C88.2832 13.1509 88.3364 13.4209 88.3884 13.5036C88.4474 13.5974 88.4892 13.7836 88.5283 14.1273C88.5642 14.4424 88.595 14.613 88.641 14.751C88.6666 14.8278 88.7021 14.9343 88.7199 14.9875C88.7483 15.0724 88.7839 15.3059 88.81 15.5789C88.8235 15.7192 88.8779 15.8888 88.915 15.9061C88.956 15.9251 91.1796 15.9421 91.2563 15.9239C91.3046 15.9125 91.3089 15.8999 91.3089 15.7698C91.3089 15.6063 91.2599 15.4083 91.191 15.2933C91.1374 15.2038 91.083 15.0122 91.0818 14.9085C91.0806 14.8069 90.9918 14.3998 90.9678 14.3858C90.9233 14.3599 90.8487 14.1517 90.8289 13.9982C90.7943 13.7296 90.7673 13.582 90.7411 13.5183C90.705 13.4305 90.7103 13.3777 90.7616 13.3162C90.8152 13.2519 90.9475 13.181 91.0139 13.181C91.0398 13.181 91.1142 13.1581 91.1793 13.1302C91.3401 13.0611 91.4043 13.0416 91.6166 12.9971C91.7422 12.9709 91.8146 12.9433 91.8492 12.9087C91.8768 12.881 91.9093 12.8584 91.9214 12.8584C91.9335 12.8584 91.9468 12.8506 91.951 12.8411C91.9551 12.8316 92.0304 12.7905 92.1181 12.7498C92.2059 12.709 92.2928 12.6563 92.3113 12.6326C92.3724 12.5543 92.481 12.4713 92.5222 12.4713C92.5491 12.4713 92.5796 12.435 92.6126 12.3638C92.6399 12.3046 92.6707 12.2562 92.6809 12.2562C92.6911 12.2562 92.6994 12.2439 92.6994 12.2287C92.6994 12.2136 92.7212 12.187 92.7479 12.1696C92.8142 12.1264 92.8987 11.9413 92.9266 11.7782C92.9392 11.704 92.96 11.6095 92.9727 11.5682C93.0301 11.3811 92.9926 10.7831 92.9019 10.439C92.8894 10.3917 92.8707 10.3155 92.8603 10.2698C92.8498 10.224 92.8163 10.1647 92.7858 10.138C92.7553 10.1113 92.6974 10.0278 92.6572 9.9524C92.5908 9.82783 92.4691 9.67551 92.436 9.67551C92.4288 9.67551 92.3889 9.64163 92.3476 9.60023C92.3062 9.55883 92.2607 9.52496 92.2465 9.52496C92.2323 9.52496 92.2207 9.51223 92.2207 9.49666C92.2207 9.46621 92.0731 9.37956 91.9535 9.3398C91.9131 9.32635 91.8459 9.28713 91.8042 9.25259C91.7262 9.18794 91.6631 9.17056 91.2747 9.10675C91.0976 9.07766 90.7583 9.07308 88.7951 9.07318C86.7944 9.07331 86.519 9.07723 86.5075 9.10559ZM24.3005 9.16923C24.2044 9.18727 24.1417 9.2134 24.1 9.25269C24.0667 9.28416 24.0285 9.3099 24.0152 9.3099C24.0019 9.3099 23.94 9.3341 23.8776 9.36367C23.8152 9.39324 23.7468 9.41743 23.7255 9.41743C23.7042 9.41743 23.6717 9.43799 23.6533 9.46313C23.5858 9.55514 23.5497 9.58767 23.4716 9.62705C23.4277 9.64916 23.3746 9.69918 23.3536 9.7382C23.3076 9.82368 23.2227 9.91207 23.1867 9.91207C23.1724 9.91207 23.1372 9.96087 23.1086 10.0205C23.0801 10.0802 23.0321 10.1442 23.0021 10.1627C22.9721 10.1813 22.8915 10.2704 22.8231 10.3607C22.7546 10.4511 22.6571 10.5635 22.6064 10.6104C22.5557 10.6574 22.5142 10.7078 22.5142 10.7223C22.5142 10.7369 22.4737 10.7795 22.4243 10.8169C22.3748 10.8545 22.3192 10.9154 22.3005 10.9524C22.2644 11.0243 22.221 11.0696 22.121 11.1399C22.0865 11.1642 22.0583 11.2027 22.0583 11.2255C22.0583 11.2661 21.89 11.439 21.8504 11.439C21.8394 11.439 21.8304 11.4566 21.8304 11.4781C21.8304 11.4995 21.7663 11.5856 21.6879 11.6693C21.6095 11.753 21.5249 11.8477 21.4998 11.8798C21.4748 11.9119 21.4154 11.9766 21.368 12.0235C21.3206 12.0703 21.2571 12.1457 21.2268 12.1909C21.1966 12.2361 21.1403 12.2943 21.1017 12.3203C21.0631 12.3462 21.0113 12.4047 20.9867 12.4504C20.962 12.496 20.9084 12.5574 20.8675 12.5868C20.8266 12.6162 20.7633 12.6886 20.7268 12.7476C20.6903 12.8066 20.6378 12.8663 20.61 12.8803C20.5823 12.8943 20.5385 12.9411 20.5127 12.9842C20.4869 13.0274 20.4188 13.1111 20.3614 13.1703C20.3039 13.2294 20.2395 13.3044 20.2181 13.3369C20.1968 13.3695 20.1713 13.3961 20.1614 13.3961C20.1516 13.3961 20.1435 13.4058 20.1435 13.4176C20.1435 13.4295 20.1018 13.4747 20.0509 13.5182C19.9999 13.5616 19.9423 13.6262 19.9228 13.6617C19.9034 13.6972 19.8374 13.7693 19.7762 13.8218C19.7149 13.8744 19.6649 13.9323 19.6649 13.9505C19.6649 13.9844 19.5359 14.1058 19.5 14.1058C19.4891 14.1058 19.4643 14.1421 19.445 14.1864C19.4056 14.2768 19.3064 14.3853 19.2632 14.3853C19.2476 14.3853 19.2276 14.4071 19.2188 14.4337C19.1997 14.4911 19.1487 14.5551 19.0172 14.6864C18.9639 14.7397 18.8928 14.8243 18.8592 14.8746C18.8256 14.9249 18.7773 14.9781 18.7518 14.9929C18.7263 15.0077 18.6741 15.0657 18.6357 15.1219C18.5974 15.178 18.5273 15.2529 18.4799 15.2883C18.4325 15.3237 18.3765 15.387 18.3554 15.4288C18.3344 15.4707 18.2824 15.5265 18.2399 15.5527C18.166 15.5984 18.1148 15.6691 18.1148 15.7257C18.1148 15.7403 18.0842 15.7837 18.0469 15.8223C18.005 15.8656 17.9897 15.8951 18.007 15.8993C18.0224 15.9031 18.0717 15.9173 18.1164 15.9308C18.1734 15.9479 18.5826 15.9553 19.4815 15.9553C20.9454 15.9553 21.1235 15.9416 21.1238 15.829C21.1239 15.8097 21.1905 15.7214 21.2719 15.6327C21.3533 15.544 21.4199 15.4593 21.42 15.4445C21.42 15.4297 21.4292 15.4176 21.4404 15.4176C21.4516 15.4176 21.4667 15.3959 21.4741 15.3693C21.4815 15.3426 21.5212 15.3005 21.5623 15.2756C21.6068 15.2488 21.6636 15.1811 21.7023 15.109C21.7381 15.0422 21.7807 14.9875 21.7968 14.9875C21.8387 14.9875 21.9443 14.8631 21.9443 14.8138C21.9443 14.7911 21.9546 14.7725 21.9671 14.7725C21.9797 14.7725 21.9899 14.7596 21.9899 14.7438C21.9899 14.7281 22.0136 14.7033 22.0425 14.6887C22.0714 14.6741 22.1291 14.6083 22.1708 14.5426C22.2125 14.4769 22.3068 14.3604 22.3804 14.2838C22.454 14.2071 22.5142 14.1337 22.5142 14.1206C22.5142 14.1075 22.5655 14.0506 22.6282 13.9942C22.6909 13.9378 22.7421 13.8729 22.7421 13.8498C22.7421 13.8269 22.7824 13.7756 22.8315 13.7359C22.8807 13.6962 22.934 13.6349 22.9501 13.5998C22.9662 13.5646 23.026 13.4868 23.083 13.4269C23.2293 13.2733 23.3031 13.1776 23.3267 13.1111C23.3341 13.0904 23.3478 13.0735 23.3572 13.0735C23.3886 13.0735 23.4857 12.9686 23.5301 12.8866C23.5816 12.7915 23.6063 12.764 23.6563 12.7462C23.6764 12.739 23.7157 12.6912 23.7437 12.6399C23.7717 12.5886 23.8336 12.5079 23.8813 12.4605C23.9291 12.4132 23.9847 12.3455 24.0051 12.31C24.0694 12.1977 24.0956 12.1654 24.2161 12.0496C24.2808 11.9874 24.3402 11.9174 24.348 11.894C24.3559 11.8706 24.3876 11.8359 24.4185 11.8168C24.4683 11.786 24.4819 11.7856 24.5386 11.8132C24.5737 11.8304 24.6147 11.8698 24.6297 11.9008C24.6497 11.9423 24.6569 12.2611 24.6569 13.1057C24.6569 14.3269 24.6582 14.312 24.5449 14.4337L24.4898 14.4929H23.709H22.9282L22.8148 14.5466C22.7524 14.5762 22.6865 14.6004 22.6684 14.6004C22.6359 14.6004 22.5826 14.685 22.5826 14.7367C22.5826 14.7514 22.5216 14.8282 22.447 14.9075C22.3724 14.9867 22.294 15.0861 22.2728 15.1283C22.2516 15.1705 22.1991 15.2303 22.1561 15.2613C22.1131 15.2922 22.0531 15.3636 22.0229 15.4199C21.9926 15.4762 21.9371 15.5395 21.8994 15.5605C21.8477 15.5893 21.8192 15.6317 21.7832 15.734C21.7569 15.8084 21.7235 15.8701 21.7088 15.871C21.6942 15.872 21.7161 15.8867 21.7575 15.9038C21.8217 15.9303 22.2209 15.9347 24.4701 15.9341C26.1442 15.9336 27.1374 15.9255 27.1894 15.9119C27.3544 15.8689 27.3445 16.0688 27.3617 12.4413L27.377 9.21091L27.2756 9.17439C27.184 9.14138 27.0425 9.13809 25.8073 9.14041C24.8328 9.14224 24.4002 9.15052 24.3005 9.16923ZM39.8923 9.16721C39.8782 9.18246 39.8608 9.21353 39.8537 9.23629C39.8466 9.25904 39.8241 9.33341 39.8036 9.40156C39.7832 9.46971 39.7413 9.55372 39.7105 9.58823C39.6582 9.64686 39.6256 9.74731 39.5406 10.1113C39.5247 10.1794 39.498 10.246 39.4812 10.2591C39.4645 10.2722 39.4507 10.2951 39.4507 10.3099C39.4507 10.3248 39.4366 10.348 39.4194 10.3615C39.3869 10.3869 39.369 10.4426 39.2946 10.7508C39.2436 10.9623 39.2096 11.0519 39.1805 11.0519C39.146 11.0519 39.0408 11.3604 39.0401 11.4638C39.0397 11.5272 38.9947 11.6504 38.9468 11.7196C38.87 11.8305 38.8125 11.9558 38.8119 12.0134C38.8111 12.0955 38.7396 12.3387 38.6932 12.4175C38.5937 12.5865 38.5598 12.6838 38.4912 12.9982C38.4757 13.0692 38.4493 13.1425 38.4326 13.1612C38.4159 13.1799 38.4022 13.2065 38.4022 13.2203C38.4022 13.2342 38.3938 13.2455 38.3836 13.2455C38.3556 13.2455 38.2882 13.3902 38.2882 13.4503C38.2882 13.5609 38.1816 13.8904 38.1457 13.8906C38.1363 13.8907 38.1286 13.9044 38.1286 13.9212C38.1286 13.9379 38.1182 13.9549 38.1055 13.9589C38.0848 13.9654 38.0612 14.0475 37.966 14.4448C37.9511 14.507 37.9252 14.5687 37.9084 14.5818C37.8916 14.5949 37.8779 14.6182 37.8779 14.6335C37.8779 14.6488 37.8702 14.6646 37.8608 14.6685C37.8327 14.6803 37.7639 14.8348 37.7639 14.8861C37.7639 15.0348 37.6709 15.3106 37.5919 15.3961C37.5411 15.4511 37.4936 15.6158 37.4879 15.7566C37.4834 15.8681 37.49 15.8967 37.5263 15.9226C37.5641 15.9496 37.958 15.954 40.3955 15.9546C43.429 15.9553 43.79 15.9457 43.9266 15.8603C44.0139 15.8057 44.0843 15.7834 44.4143 15.7059C44.5595 15.6717 44.6707 15.6346 44.6707 15.6203C44.6707 15.6064 44.7246 15.5706 44.7904 15.5409C44.8563 15.5111 44.9698 15.4596 45.0429 15.4263C45.1159 15.393 45.1854 15.3486 45.1973 15.3276C45.2093 15.3065 45.2764 15.2637 45.3465 15.2324C45.4241 15.1978 45.4886 15.1514 45.5112 15.1139C45.5316 15.08 45.5612 15.0523 45.5768 15.0522C45.5925 15.0521 45.6053 15.043 45.6053 15.032C45.6053 15.0209 45.6279 15.0052 45.6556 14.9969C45.7162 14.9787 45.7428 14.9534 45.7877 14.871C45.8065 14.8365 45.8626 14.7803 45.9123 14.7463C45.9621 14.7122 46.0212 14.6465 46.0436 14.6003C46.0661 14.5541 46.1186 14.4917 46.1603 14.4617C46.2076 14.4276 46.2477 14.3726 46.2667 14.3156C46.2835 14.2652 46.3108 14.2088 46.3274 14.1901C46.344 14.1714 46.3576 14.1466 46.3576 14.135C46.3576 14.1233 46.3884 14.086 46.426 14.0519C46.4717 14.0107 46.5107 13.9394 46.5431 13.8382C46.6181 13.6035 46.6359 13.5646 46.7 13.494C46.7601 13.4279 46.7721 13.387 46.8489 12.9874C46.8706 12.8751 46.9108 12.7346 46.9385 12.6752C47.0342 12.4694 47.0507 12.3103 47.0512 11.5896C47.0516 10.9072 47.0328 10.7027 46.9636 10.6375C46.9261 10.6021 46.8135 10.3065 46.8135 10.2435C46.8135 10.194 46.7452 10.063 46.7193 10.0627C46.7004 10.0626 46.5371 9.85371 46.4943 9.77486C46.4758 9.7408 46.4375 9.70295 46.4091 9.69075C46.3808 9.67858 46.3576 9.66047 46.3576 9.65054C46.3576 9.64062 46.3482 9.63249 46.3367 9.63249C46.3252 9.63249 46.2687 9.59114 46.2112 9.5406C46.0979 9.44105 45.9687 9.37214 45.8162 9.32986C45.7629 9.31511 45.7193 9.29513 45.7193 9.28551C45.7193 9.2519 45.57 9.19461 45.4116 9.16747C45.1765 9.12716 39.9297 9.12693 39.8923 9.16721ZM57.1245 9.16932C57.0202 9.18889 56.9591 9.2159 56.8867 9.27429C56.8332 9.31754 56.7703 9.35291 56.7471 9.35291C56.6965 9.35291 56.6062 9.40358 56.5126 9.48451C56.2393 9.72082 56.0909 9.86171 56.0909 9.88493C56.0909 9.89986 56.0807 9.91207 56.0681 9.91207C56.0556 9.91207 56.0454 9.92657 56.0454 9.94431C56.0454 9.96203 56.0031 10.0176 55.9515 10.0678C55.8333 10.1827 55.8294 10.1934 55.7953 10.495C55.752 10.8782 55.8164 11.3817 55.9203 11.4713C55.9681 11.5125 55.9887 11.5448 56.082 11.7238C56.105 11.768 56.2398 11.918 56.3814 12.0571C56.5231 12.1962 56.6977 12.3713 56.7696 12.4463C56.8414 12.5213 56.9523 12.6326 57.016 12.6936C57.0797 12.7547 57.1597 12.8409 57.1938 12.8853C57.2279 12.9297 57.2657 12.9659 57.2778 12.9659C57.3134 12.9659 57.4344 13.1024 57.4352 13.1434C57.4355 13.1641 57.4487 13.1812 57.4643 13.1814C57.4992 13.1819 57.6635 13.3147 57.6645 13.3432C57.6658 13.3768 57.739 13.4476 57.8064 13.4804C57.8409 13.4972 57.8945 13.5518 57.9255 13.6016C57.9565 13.6515 58.0154 13.7111 58.0564 13.734C58.0975 13.757 58.1516 13.8126 58.1767 13.8577C58.2022 13.9036 58.2573 13.9571 58.302 13.9794C58.3895 14.0231 58.4844 14.1362 58.4844 14.1968C58.4844 14.2364 58.5194 14.3054 58.5701 14.3657C58.6081 14.411 58.5443 14.4674 58.4234 14.4952C58.3729 14.5068 57.5487 14.5147 56.4665 14.514L54.5967 14.5127L54.5377 14.5727C54.5052 14.6057 54.4515 14.6859 54.4183 14.751C54.3851 14.816 54.3437 14.8934 54.3264 14.923C54.2827 14.9975 54.2446 15.1197 54.2446 15.1853C54.2446 15.2695 54.1359 15.5467 54.1028 15.5467C54.0279 15.5467 53.9812 15.8948 54.0527 15.9207C54.0725 15.9279 55.4366 15.9338 57.0839 15.9338C59.7587 15.9338 60.0887 15.9302 60.169 15.8999C60.2184 15.8812 60.2645 15.8522 60.2713 15.8353C60.2782 15.8185 60.297 15.8048 60.3132 15.8048C60.3294 15.8048 60.3688 15.7818 60.4008 15.7538C60.4329 15.7258 60.4954 15.6905 60.5397 15.6754C60.5982 15.6554 60.6279 15.6281 60.6478 15.5762C60.674 15.5078 60.7182 15.4487 60.8226 15.3424C60.8934 15.2702 60.969 15.1412 60.969 15.0926C60.969 15.0491 61.0943 14.7935 61.1257 14.7729C61.1689 14.7446 61.1999 14.4893 61.2001 14.1608C61.2004 13.7648 61.1723 13.5911 61.0918 13.4915C61.0619 13.4545 61.0374 13.4143 61.0374 13.402C61.0374 13.3898 61.0233 13.3688 61.006 13.3552C60.9887 13.3417 60.968 13.2999 60.9601 13.2624C60.9513 13.2212 60.9066 13.1598 60.8469 13.107C60.7926 13.059 60.7208 12.9786 60.6873 12.9283C60.6539 12.878 60.619 12.8369 60.6097 12.8369C60.578 12.8368 60.4543 12.7186 60.4215 12.6571C60.4035 12.6232 60.3656 12.5872 60.3372 12.577C60.3089 12.5669 60.242 12.5007 60.1886 12.4301C60.1352 12.3594 60.0795 12.3011 60.0649 12.3004C60.0502 12.2998 60.0044 12.2581 59.963 12.2079C59.9216 12.1576 59.8337 12.0632 59.7677 11.9982C59.4909 11.7254 59.3962 11.6292 59.3962 11.621C59.3962 11.6162 59.2962 11.5162 59.1739 11.3988C59.0517 11.2813 58.9326 11.148 58.9093 11.1024C58.886 11.0569 58.8592 11.0051 58.8498 10.9874C58.822 10.9351 58.8709 10.8653 58.9625 10.8263C59.0395 10.7936 59.1942 10.7897 60.5498 10.7866C61.8945 10.7834 62.0605 10.7793 62.135 10.7474C62.2278 10.7077 62.2232 10.7203 62.2799 10.3529C62.3251 10.0604 62.348 9.97354 62.4159 9.8368C62.4868 9.69402 62.5419 9.47019 62.5419 9.32498C62.5419 9.12013 62.7954 9.13749 59.8472 9.14041C57.9106 9.14235 57.2298 9.14957 57.1245 9.16932ZM49.4305 9.1788C49.3318 9.18878 49.2851 9.20605 49.2355 9.25091C49.1996 9.28336 49.1583 9.3099 49.1437 9.3099C49.1088 9.3099 48.9562 9.44272 48.9562 9.47313C48.9562 9.48619 48.9201 9.53193 48.8759 9.57481C48.7952 9.6532 48.7847 9.68181 48.7035 10.0411C48.6888 10.1062 48.6424 10.2126 48.6004 10.2777C48.5583 10.3427 48.5179 10.4298 48.5106 10.4712C48.4698 10.7007 48.3745 10.9874 48.339 10.9874C48.3303 10.9874 48.3176 11.0043 48.3107 11.025C48.2667 11.1573 48.2215 11.3209 48.1903 11.4605C48.1705 11.5492 48.1463 11.6315 48.1366 11.6433C48.0603 11.7359 47.9878 11.9046 47.961 12.0519C47.9243 12.2535 47.8984 12.3245 47.8225 12.4322C47.7653 12.5134 47.7452 12.5716 47.6901 12.8154C47.6446 13.0169 47.62 13.0872 47.5718 13.154C47.5038 13.2482 47.4581 13.3729 47.428 13.5466C47.4026 13.6926 47.3096 13.9267 47.2653 13.9562C47.2393 13.9734 47.1554 14.2317 47.1554 14.2942C47.1554 14.3787 47.1057 14.5189 47.0508 14.5897C46.9177 14.7609 46.8425 15.2372 46.9073 15.498C46.9435 15.6437 46.9539 15.6578 47.0662 15.7128C47.1215 15.74 47.1895 15.7864 47.2172 15.8159C47.2449 15.8455 47.2962 15.8817 47.3311 15.8964C47.4149 15.9315 52.9901 15.9472 53.0588 15.9125C53.0831 15.9002 53.1239 15.8492 53.1495 15.7991C53.1752 15.749 53.2218 15.6751 53.2531 15.6349C53.2844 15.5947 53.31 15.543 53.31 15.5199C53.31 15.4969 53.3242 15.4282 53.3416 15.3672C53.359 15.3062 53.3865 15.1983 53.4026 15.1273C53.4187 15.0563 53.4712 14.936 53.5191 14.8598C53.616 14.7061 53.6281 14.616 53.562 14.5413L53.5192 14.4929H51.5432C49.605 14.4929 49.566 14.4921 49.5034 14.45C49.4582 14.4197 49.4313 14.375 49.4118 14.2982C49.3877 14.2033 49.3907 14.1586 49.4356 13.9486C49.4941 13.6749 49.5304 13.5962 49.6595 13.463C49.8453 13.2714 49.626 13.2888 51.8529 13.2887L53.8264 13.2885L53.9337 13.2215C54.0528 13.1471 54.0995 13.0669 54.1326 12.8799C54.185 12.5846 54.2333 12.4283 54.2724 12.4283C54.2822 12.4283 54.2902 12.4138 54.2902 12.396C54.2902 12.3783 54.2989 12.3638 54.3096 12.3638C54.3303 12.3638 54.3928 12.1535 54.4163 12.0048C54.4281 11.9297 54.4225 11.9081 54.3824 11.8757C54.3371 11.8392 54.2267 11.8362 52.5015 11.8261L50.6688 11.8154L50.5989 11.7522C50.5336 11.6932 50.529 11.6789 50.529 11.5344C50.529 11.4232 50.5386 11.3722 50.5632 11.353C50.582 11.3383 50.5974 11.3129 50.5974 11.2966C50.5974 11.2803 50.606 11.267 50.6166 11.267C50.6408 11.267 50.6989 11.1547 50.735 11.0382C50.7826 10.8845 50.8449 10.8313 50.9986 10.8133C51.0726 10.8046 51.9703 10.7966 52.9935 10.7956C54.8124 10.7939 54.8552 10.7929 54.9113 10.7512C54.9447 10.7264 54.9753 10.6758 54.9843 10.6304C54.9929 10.5874 55.0402 10.4784 55.0895 10.3881C55.1387 10.2978 55.1791 10.1974 55.1791 10.1651C55.1792 10.0194 55.286 9.68682 55.3589 9.60509C55.4033 9.55524 55.4163 9.5118 55.425 9.38369C55.4325 9.27418 55.4269 9.21416 55.4073 9.19183C55.382 9.16314 55.0391 9.15972 52.4695 9.16252C50.8694 9.16426 49.5019 9.1716 49.4305 9.1788ZM44.0029 10.912C44.0756 10.9534 44.1518 10.9873 44.1722 10.9873C44.1926 10.9874 44.222 11.0019 44.2376 11.0196C44.2533 11.0374 44.2772 11.0519 44.2909 11.0519C44.3046 11.0519 44.3648 11.1025 44.4248 11.1644C44.527 11.2698 44.6024 11.4274 44.6024 11.5358C44.6024 11.5558 44.6187 11.6252 44.6387 11.6899C44.6756 11.8098 44.6732 11.9123 44.6289 12.1165C44.616 12.1756 44.5941 12.3062 44.5802 12.4068C44.5461 12.653 44.4892 12.8366 44.4273 12.9003C44.3992 12.9293 44.3426 13.0297 44.3016 13.1235C44.2496 13.2422 44.2043 13.3103 44.1525 13.3476C44.1116 13.3771 44.0781 13.415 44.0781 13.4319C44.0781 13.4489 44.0191 13.5195 43.947 13.5888C43.8749 13.6582 43.7913 13.7405 43.7611 13.7717C43.731 13.8029 43.672 13.8419 43.6301 13.8584C43.5882 13.8749 43.5419 13.9132 43.5274 13.9434C43.5048 13.9901 43.303 14.1058 43.2441 14.1058C43.2352 14.1058 43.1826 14.1408 43.1272 14.1836C43.0307 14.2583 42.7593 14.3479 42.5337 14.3796C42.493 14.3854 42.4597 14.3973 42.4597 14.4063C42.4597 14.4152 42.413 14.4393 42.3559 14.4599C42.2628 14.4934 42.1872 14.4959 41.6208 14.4838C41.2735 14.4765 40.9172 14.4652 40.829 14.4587C40.6695 14.4471 40.6683 14.4466 40.6068 14.3548C40.5232 14.2302 40.5229 14.0874 40.6057 13.9182C40.6392 13.8498 40.6783 13.7794 40.6926 13.7617C40.7271 13.7189 40.7846 13.5286 40.8193 13.3423C40.8479 13.189 40.8827 13.1061 40.9598 13.0076C41.0015 12.9545 41.0692 12.7054 41.0692 12.6053C41.0692 12.5407 41.1754 12.2945 41.2155 12.2662C41.2329 12.2539 41.2697 12.1426 41.2972 12.0188C41.358 11.746 41.3982 11.6296 41.4742 11.5068C41.506 11.4554 41.5407 11.3755 41.5513 11.3294C41.5619 11.2832 41.5797 11.2061 41.5907 11.158C41.6152 11.0509 41.7193 10.9245 41.8234 10.8755C41.8929 10.8428 42.0057 10.8388 42.8859 10.8379L43.8707 10.8368L44.0029 10.912ZM78.8629 17.6098C78.7062 17.6179 78.5524 17.6345 78.521 17.6466C78.4897 17.6588 78.3717 17.6812 78.2589 17.6964C78.1461 17.7116 77.9958 17.7373 77.9251 17.7536C77.8543 17.77 77.7709 17.7833 77.7398 17.7833C77.6596 17.7833 77.5303 17.8383 77.4645 17.9003C77.4337 17.9294 77.3587 17.974 77.298 17.9995C77.2372 18.0249 77.165 18.0557 77.1376 18.068C77.1101 18.0803 77.0601 18.1313 77.0266 18.1814C76.993 18.2314 76.9323 18.2874 76.8915 18.3057C76.8494 18.3247 76.8119 18.3607 76.8046 18.3892C76.7718 18.5176 76.6661 18.7683 76.6202 18.8264C76.5595 18.9033 76.5326 18.9699 76.4814 19.1705C76.4358 19.3492 76.4086 19.4103 76.3426 19.4823C76.2979 19.5311 76.2562 19.6402 76.2274 19.7834C76.2031 19.9043 76.162 20.0128 76.1176 20.0734C76.0562 20.1574 75.9908 20.2948 75.9908 20.3401C75.9908 20.4182 75.8732 20.7097 75.8197 20.7641C75.7884 20.7959 75.7629 20.8372 75.7629 20.8557C75.7629 20.8743 75.7486 20.9285 75.7312 20.9763C75.7138 21.024 75.6871 21.1144 75.6718 21.1772C75.6565 21.24 75.6091 21.3403 75.5664 21.4001C75.5238 21.4599 75.4834 21.5343 75.4767 21.5655C75.4699 21.5967 75.4547 21.6572 75.4427 21.6999C75.4102 21.816 75.4153 21.8477 75.4791 21.9266L75.5372 21.9985H76.1952C76.5571 21.9985 76.8566 21.9911 76.8608 21.982C76.865 21.9729 76.9212 21.9338 76.9857 21.8952C77.1112 21.82 77.1323 21.7849 77.1757 21.5791C77.1907 21.5082 77.2174 21.4183 77.2351 21.3795C77.2528 21.3406 77.2673 21.297 77.2673 21.2825C77.2673 21.268 77.2906 21.232 77.3191 21.2026C77.3725 21.1474 77.4241 21.0129 77.4819 20.778C77.5001 20.704 77.5388 20.6122 77.5678 20.574C77.6353 20.4852 77.6605 20.4382 77.698 20.3318C77.7147 20.2845 77.7601 20.2216 77.799 20.192L77.8695 20.1382L79.48 20.1325C80.898 20.1273 81.094 20.1306 81.1193 20.1593C81.1351 20.1773 81.1584 20.192 81.171 20.192C81.1837 20.192 81.214 20.2137 81.2385 20.2403C81.2854 20.2913 81.2846 20.3299 81.2333 20.5146C81.2185 20.5678 81.1902 20.6694 81.1704 20.7404C81.1505 20.8114 81.1003 20.9143 81.0586 20.9691C81.0169 21.0239 80.9829 21.0847 80.9829 21.1041C80.9829 21.1926 80.8817 21.5016 80.8273 21.5791C80.7942 21.6265 80.7508 21.699 80.7309 21.7404C80.698 21.8088 80.6979 21.8227 80.7305 21.8948L80.7663 21.974L80.9487 21.9876C81.049 21.9951 82.803 21.9977 84.8466 21.9934C87.6013 21.9877 88.6211 21.9788 88.7901 21.9592C88.9155 21.9447 89.1257 21.9228 89.2574 21.9105C89.5211 21.8858 89.6976 21.8412 89.7584 21.7839C89.7802 21.7633 89.8476 21.7233 89.9083 21.6951C90.108 21.6019 90.3059 21.3815 90.3059 21.2524C90.3059 21.2241 90.3452 21.1313 90.3933 21.046C90.4735 20.9036 90.5001 20.8251 90.5797 20.4967C90.595 20.4336 90.6473 20.3176 90.6961 20.2389C90.746 20.1583 90.7846 20.0675 90.7846 20.0309C90.7846 19.9952 90.7937 19.9363 90.8047 19.9C90.8278 19.8241 90.7936 19.5923 90.7537 19.5542C90.7394 19.5405 90.6766 19.5133 90.6142 19.4937C90.5518 19.474 90.4862 19.4465 90.4683 19.4325C90.4439 19.4134 89.8772 19.4043 88.2072 19.3963L85.9786 19.3855L85.9223 19.3356C85.8388 19.2616 85.8016 19.1161 85.8372 19.0027C85.8651 18.9142 85.9243 18.7939 85.9505 18.7726C85.9752 18.7526 86.0783 18.6116 86.1078 18.5575C86.1411 18.4965 86.2691 18.4285 86.3505 18.4285C86.3805 18.4285 86.4339 18.417 86.4692 18.403C86.5144 18.3851 86.9446 18.372 87.9239 18.3586C90.1724 18.3281 91.0176 18.3085 91.1233 18.2842C91.2518 18.2547 91.3004 18.2059 91.3334 18.0736C91.3481 18.0145 91.3709 17.9419 91.384 17.9124C91.4131 17.8471 91.4091 17.8223 91.3499 17.7037L91.3039 17.6113H88.8119C87.2783 17.6113 86.2977 17.6192 86.2624 17.6319C86.2041 17.6528 85.9708 17.6891 85.4962 17.7513C85.144 17.7974 85.0676 17.8201 84.9606 17.9107C84.8642 17.9921 84.7827 18.0414 84.7443 18.0414C84.7144 18.0414 84.63 18.1209 84.63 18.1492C84.63 18.1872 84.5756 18.2647 84.4994 18.3352C84.4228 18.406 84.3337 18.5876 84.3337 18.6728C84.3337 18.7459 84.269 18.9113 84.2217 18.9592C84.199 18.9822 84.1698 19.0199 84.157 19.0428C84.1289 19.0929 84.0602 19.3419 84.0602 19.3935C84.0602 19.4137 84.0389 19.4685 84.013 19.5154C83.9391 19.6488 83.9655 19.7975 84.0891 19.945C84.1421 20.0083 84.2163 20.0728 84.2539 20.0884C84.3084 20.1109 84.7733 20.1189 86.5334 20.1275L88.7445 20.1382L88.8519 20.1886C89.0048 20.2603 89.0258 20.3361 88.9269 20.4593C88.8751 20.5239 88.8368 20.6335 88.7768 20.8887C88.7525 20.9923 88.7277 21.0337 88.6419 21.1145C88.4425 21.3022 88.6735 21.2891 85.5805 21.2889L82.8496 21.2888L82.7767 21.2245C82.7098 21.1653 82.7042 21.1501 82.7079 21.0363C82.7117 20.9204 82.7623 20.7829 82.8604 20.6221C82.8938 20.5674 82.9082 20.5201 82.979 20.235C83.0236 20.0554 83.0553 19.9769 83.0832 19.9769C83.1127 19.9769 83.194 19.8122 83.194 19.7523C83.194 19.6402 83.3003 19.3105 83.3364 19.3103C83.3458 19.3103 83.3535 19.2957 83.3535 19.278C83.3535 19.2602 83.3631 19.2457 83.3747 19.2457C83.3863 19.2457 83.4141 19.1901 83.4363 19.1221C83.467 19.0281 83.4768 18.9235 83.4771 18.6866C83.4775 18.2973 83.4512 18.2021 83.3049 18.0651C83.2468 18.0107 83.1825 17.9347 83.1619 17.8962C83.1361 17.8482 83.1082 17.8263 83.0726 17.8263C83.044 17.8263 83.011 17.8178 82.9991 17.8074C82.9757 17.787 82.7398 17.7385 82.4645 17.6976C82.3705 17.6836 82.2525 17.6571 82.2024 17.6386C82.1237 17.6097 81.9084 17.6044 80.6295 17.6001C79.8146 17.5974 79.0197 17.6018 78.8629 17.6098ZM47.9988 17.6423C47.9424 17.6577 47.8193 17.6815 47.7253 17.6953C47.1122 17.7848 46.9804 17.8167 46.9024 17.8942C46.8698 17.9265 46.7862 17.9776 46.7166 18.0076C46.5898 18.0623 46.5313 18.1134 46.2343 18.4285C46.1794 18.4868 46.1296 18.5973 46.1296 18.6609C46.1296 18.7331 46.0323 18.9979 45.9868 19.0494C45.9386 19.1039 45.8837 19.244 45.855 19.3855C45.8242 19.5377 45.7697 19.6704 45.7145 19.7277C45.676 19.7677 45.6053 19.9612 45.6053 20.0267C45.6053 20.0955 45.515 20.3283 45.4584 20.4054C45.4241 20.4521 45.3789 20.567 45.3513 20.6778C45.2983 20.8906 45.2382 21.0521 45.2121 21.0522C45.2027 21.0522 45.195 21.0972 45.195 21.1521C45.195 21.2225 45.2194 21.3004 45.2776 21.4156C45.372 21.6025 45.4137 21.6544 45.4693 21.6544C45.491 21.6544 45.5485 21.6907 45.5972 21.7351C45.6467 21.7801 45.7359 21.8314 45.7994 21.8512C45.9072 21.8849 45.9888 21.897 46.5285 21.9593C46.6961 21.9786 47.6514 21.9875 50.1345 21.9928L53.5126 22L53.6628 21.8981C53.7609 21.8315 53.8173 21.7772 53.8256 21.7414C53.8325 21.7113 53.8527 21.6502 53.8704 21.6056C53.8881 21.561 53.9026 21.5022 53.9026 21.475C53.9026 21.4069 53.9706 21.2243 53.996 21.2243C54.0073 21.2243 54.0166 21.2098 54.0166 21.192C54.0166 21.1743 54.026 21.1598 54.0375 21.1598C54.0632 21.1598 54.1186 21.0173 54.1546 20.8587C54.1889 20.7077 54.2419 20.5803 54.2936 20.5248C54.3159 20.5008 54.3517 20.4298 54.3732 20.367C54.4008 20.2866 54.4359 20.2359 54.4919 20.1955L54.5715 20.1382L56.1462 20.1321C57.0122 20.1287 57.7421 20.1309 57.7681 20.1369C57.7941 20.143 57.848 20.1773 57.8878 20.2132C57.9696 20.2869 57.9765 20.3368 57.9279 20.5019C57.9102 20.5621 57.8842 20.6589 57.87 20.7171C57.8559 20.7752 57.809 20.8768 57.7658 20.9429C57.7226 21.0089 57.6771 21.1065 57.6646 21.1598C57.5908 21.4759 57.5439 21.6114 57.5084 21.6114C57.4975 21.6114 57.4654 21.6539 57.4371 21.7059C57.39 21.7922 57.3882 21.8074 57.4162 21.8805C57.4344 21.928 57.4684 21.9683 57.4998 21.9795C57.5715 22.0052 58.7353 22.0035 58.9038 21.9775C59.0752 21.951 59.1164 21.9089 59.1588 21.7172C59.1811 21.6161 59.2186 21.5296 59.2714 21.4571C59.315 21.3974 59.3506 21.3304 59.3506 21.3082C59.3506 21.2259 59.4515 20.8663 59.4977 20.7839C59.5108 20.7604 59.5329 20.7314 59.5469 20.7193C59.5718 20.6977 59.5798 20.6707 59.6619 20.3318C59.6848 20.2372 59.7266 20.121 59.7547 20.0737C59.86 19.8966 59.9193 19.7301 59.9212 19.6057C59.9223 19.5365 59.9985 19.3379 60.0497 19.2708C60.1377 19.1554 60.1599 19.0362 60.1583 18.6866C60.157 18.4196 60.1492 18.3397 60.1189 18.2853C60.098 18.2479 60.0729 18.214 60.0631 18.21C60.0428 18.2017 59.8749 17.983 59.8749 17.9649C59.8749 17.9584 59.8467 17.9258 59.8122 17.8926C59.736 17.8192 59.619 17.7758 59.4076 17.7425C59.1331 17.6994 59.0012 17.6742 58.8813 17.6422C58.7089 17.5962 55.4328 17.5963 55.2609 17.6423C55.1972 17.6594 55.068 17.6843 54.974 17.6978C54.88 17.7112 54.7325 17.7359 54.6464 17.7528C54.5602 17.7696 54.4597 17.7833 54.423 17.7833C54.3442 17.7833 54.2449 17.8286 54.1192 17.9218C54.0255 17.9913 53.9522 18.0286 53.8633 18.0521C53.8355 18.0594 53.7894 18.0962 53.7611 18.1338C53.6891 18.2292 53.6425 18.2703 53.5619 18.3096C53.5206 18.3298 53.4923 18.3605 53.4923 18.3853C53.4923 18.4083 53.4779 18.4588 53.4603 18.4977C53.4427 18.5365 53.4155 18.6092 53.3999 18.6591C53.3843 18.7091 53.3474 18.767 53.3179 18.7879C53.2885 18.8087 53.2644 18.8427 53.2644 18.8633C53.2644 18.8839 53.2503 18.9372 53.2331 18.9819C53.2159 19.0264 53.1891 19.1162 53.1737 19.1812C53.1582 19.2463 53.1056 19.3605 53.0568 19.4352C53.008 19.5098 52.9681 19.5863 52.9681 19.6053C52.9681 19.642 52.9154 19.8227 52.8625 19.9679C52.8449 20.0162 52.8111 20.0753 52.7873 20.0994C52.7392 20.1481 52.6874 20.2886 52.6462 20.4823C52.6271 20.5723 52.5923 20.6445 52.5313 20.7209C52.4832 20.7811 52.4438 20.848 52.4438 20.8695C52.4438 20.9385 52.3683 21.1374 52.3257 21.1805C52.2295 21.2778 52.2499 21.2771 49.6058 21.2842C47.8943 21.2888 47.0721 21.2837 47.0155 21.2682C46.9348 21.2461 46.8135 21.1281 46.8135 21.0717C46.8135 21.0026 46.8994 20.7942 46.9665 20.7004C47.0077 20.6429 47.0414 20.5808 47.0414 20.5625C47.0414 20.5315 47.0806 20.3896 47.1374 20.2149C47.1506 20.1742 47.1854 20.1166 47.2148 20.0867C47.2681 20.0325 47.323 19.8883 47.3491 19.7341C47.3676 19.6252 47.4444 19.4597 47.4985 19.4121C47.5226 19.3909 47.548 19.3472 47.5548 19.315C47.5617 19.2828 47.5824 19.2129 47.6008 19.1597C47.6192 19.1065 47.6343 19.0456 47.6342 19.0244C47.634 18.9813 47.7082 18.8356 47.753 18.791C47.7691 18.7749 47.8072 18.7135 47.8378 18.6543C47.9003 18.5335 47.9195 18.5115 47.9972 18.4723C48.1637 18.3882 48.2856 18.3832 50.4255 18.3711L52.4989 18.3595L52.591 18.2918C52.6417 18.2546 52.7029 18.2139 52.727 18.2014C52.7846 18.1714 52.8569 17.9715 52.8568 17.8425C52.8567 17.7835 52.8396 17.7131 52.8163 17.6758L52.7759 17.6113L50.4386 17.6128C48.5893 17.614 48.08 17.6201 47.9988 17.6423ZM61.6024 17.7027C61.5741 17.7529 61.5354 17.8296 61.5164 17.873C61.4974 17.9164 61.4613 17.9745 61.4362 18.0021C61.3862 18.0569 61.3319 18.212 61.287 18.4285C61.2689 18.5154 61.2277 18.6131 61.1782 18.6866C61.1226 18.7692 61.0867 18.86 61.0592 18.9877C61.0187 19.1756 60.9701 19.3021 60.9024 19.3963C60.859 19.4566 60.8031 19.6223 60.761 19.8156C60.7332 19.943 60.6993 20.0186 60.6192 20.1315C60.5726 20.1971 60.5138 20.3888 60.5134 20.4764C60.5131 20.548 60.4034 20.7725 60.3613 20.7877C60.3445 20.7938 60.3308 20.8134 60.3308 20.8312C60.3308 20.8491 60.3158 20.9085 60.2976 20.9633C60.2793 21.0182 60.252 21.1211 60.237 21.192C60.2219 21.263 60.174 21.3775 60.1306 21.4466C60.0577 21.5624 60.0263 21.6414 59.9965 21.7845C59.9894 21.8186 60.0039 21.8695 60.0348 21.9189L60.0845 21.9985H60.7344C61.3765 21.9985 61.385 21.9979 61.4406 21.9501C61.6692 21.7537 61.6654 21.7605 61.7642 21.3785C61.7899 21.2794 61.8395 21.1581 61.8754 21.1071C61.9122 21.0545 61.9578 20.9419 61.9811 20.8454C62.0523 20.5511 62.0819 20.4749 62.1756 20.3447C62.3418 20.1139 62.2592 20.1275 63.4935 20.1275C64.4182 20.1275 64.5689 20.1319 64.5934 20.1597C64.609 20.1775 64.6315 20.192 64.6434 20.192C64.6706 20.192 64.7302 20.2472 64.7302 20.2724C64.7302 20.2828 64.767 20.3488 64.812 20.4191C64.9106 20.5732 64.9442 20.6621 64.9942 20.9017C65.0196 21.0239 65.0493 21.1023 65.0836 21.1383C65.1552 21.2132 65.1984 21.3175 65.2307 21.4931C65.2757 21.7377 65.3145 21.8068 65.4638 21.9083L65.5965 21.9985H66.2436H66.8907L66.9373 21.905C66.9929 21.7933 66.9776 21.7323 66.8475 21.5463C66.8021 21.4816 66.759 21.3996 66.7517 21.3641C66.7444 21.3286 66.7284 21.2494 66.7161 21.1881C66.7038 21.1268 66.6828 21.0573 66.6694 21.0336C66.6559 21.0099 66.6449 20.9706 66.6449 20.9461C66.6449 20.9217 66.6347 20.9017 66.6221 20.9017C66.6096 20.9017 66.5993 20.8872 66.5993 20.8694C66.5993 20.8517 66.5911 20.8372 66.5809 20.8372C66.5495 20.8372 66.4925 20.6838 66.4545 20.4969C66.4188 20.3218 66.4191 20.3166 66.4655 20.2574C66.5341 20.1699 66.5851 20.1549 66.8742 20.1372C67.1376 20.1211 67.1829 20.1089 67.3858 19.9999C67.4485 19.9663 67.5423 19.917 67.5943 19.8906C67.7006 19.8365 67.7454 19.7541 67.7869 19.5367C67.8005 19.4654 67.848 19.3398 67.8925 19.2576C68.0032 19.0529 68.0337 18.9137 68.0346 18.6085C68.0355 18.3274 68.0137 18.2433 67.9153 18.1487C67.7305 17.9709 67.5591 17.8315 67.4997 17.8107C67.415 17.7811 67.1675 17.7306 66.9413 17.6968C66.8472 17.6828 66.7249 17.6578 66.6694 17.6413C66.5856 17.6164 66.1511 17.6113 64.1111 17.6113H61.6538L61.6024 17.7027ZM70.805 17.6436C70.7423 17.6595 70.6141 17.6836 70.5201 17.6973C70.3765 17.7182 70.0706 17.7728 69.8362 17.8194C69.8049 17.8256 69.7587 17.852 69.7336 17.8781C69.6755 17.9385 69.5742 17.9984 69.5301 17.9984C69.4735 17.9984 69.1973 18.2582 69.1245 18.38C69.087 18.4425 69.0385 18.5057 69.0166 18.5203C68.977 18.5467 68.963 18.5802 68.8886 18.8264C68.8262 19.0327 68.8053 19.0808 68.7499 19.1445C68.6945 19.2083 68.6567 19.317 68.6285 19.4931C68.6081 19.6208 68.5535 19.7452 68.4944 19.7986C68.4709 19.8198 68.4389 19.8904 68.4232 19.9554C68.3454 20.2777 68.294 20.4214 68.2348 20.4819C68.2119 20.5053 68.1876 20.5489 68.1808 20.5787C68.1635 20.6544 68.107 20.8298 68.0629 20.9447C68.0196 21.0578 68.0221 21.3103 68.0674 21.395C68.0836 21.4253 68.1151 21.4858 68.1374 21.5295C68.1655 21.5845 68.2041 21.6188 68.263 21.641C68.3097 21.6587 68.3743 21.7026 68.4065 21.7387C68.5074 21.8518 68.6426 21.8838 69.3347 21.9582C69.6663 21.9938 72.64 22.0097 73.0389 21.978C73.2019 21.965 73.4681 21.9447 73.6304 21.9328C74.0312 21.9036 74.2241 21.8631 74.3414 21.7836C74.3939 21.748 74.4467 21.7189 74.4588 21.7189C74.4709 21.7189 74.4921 21.706 74.506 21.6902C74.5199 21.6744 74.5779 21.6389 74.6349 21.6112C74.7241 21.568 74.7491 21.5397 74.8144 21.4088C74.9247 21.1877 74.9717 21.0965 75.0139 21.0218C75.0345 20.9853 75.0687 20.8829 75.0899 20.7942C75.149 20.5463 75.1713 20.4868 75.2268 20.4286C75.278 20.3749 75.3526 20.1956 75.3526 20.1261C75.3526 20.0502 75.4327 19.8549 75.5053 19.7541C75.5855 19.6426 75.6007 19.5477 75.554 19.4511L75.5276 19.3963H74.0823C72.6534 19.3963 72.6357 19.3968 72.5188 19.4427C72.4538 19.4682 72.388 19.4998 72.3727 19.5128C72.3573 19.5259 72.3175 19.6381 72.2841 19.7621C72.2508 19.8862 72.2077 20.0049 72.1884 20.0258C72.101 20.1207 72.2562 20.1468 72.9135 20.1481C73.3696 20.149 73.434 20.1535 73.4948 20.1886C73.6152 20.258 73.6332 20.3179 73.5834 20.4831C73.5589 20.5645 73.513 20.6551 73.4769 20.6934C73.4419 20.7304 73.4076 20.7851 73.4005 20.8151C73.3685 20.9508 73.2935 21.1071 73.2392 21.1511C73.2065 21.1776 73.1156 21.2198 73.0371 21.2448C72.8966 21.2896 72.8706 21.2902 71.3596 21.2842C70.1746 21.2795 69.8133 21.2719 69.7745 21.2509C69.7468 21.236 69.6981 21.1915 69.6663 21.1522C69.6089 21.0813 69.6088 21.0799 69.6456 20.9751C69.6661 20.917 69.7055 20.8404 69.7333 20.8049C69.7864 20.7371 69.8091 20.6787 69.8712 20.4501C69.9216 20.2645 69.9384 20.2266 69.9994 20.1604C70.0489 20.1067 70.0938 19.9869 70.1245 19.8264C70.1442 19.7238 70.2608 19.4823 70.2907 19.4823C70.304 19.4823 70.3149 19.4635 70.3149 19.4406C70.3149 19.4176 70.3252 19.3928 70.3377 19.3855C70.3502 19.3782 70.3605 19.3449 70.3605 19.3115C70.3605 19.2052 70.4787 18.8801 70.5173 18.8801C70.5365 18.8801 70.5508 18.8549 70.6469 18.6498C70.6963 18.5446 70.7267 18.5086 70.7899 18.4803C71.0056 18.3837 71.0096 18.3835 73.3352 18.3721C75.4603 18.3617 75.5501 18.3596 75.6429 18.3196C75.6961 18.2967 75.7551 18.278 75.774 18.278C75.7929 18.278 75.8084 18.2666 75.8084 18.2528C75.8084 18.2389 75.8232 18.2122 75.8413 18.1934C75.8593 18.1745 75.887 18.1109 75.9028 18.0519C75.9186 17.9929 75.9448 17.9293 75.9611 17.9107C76.0087 17.8562 75.9973 17.7326 75.9388 17.6684L75.8868 17.6113L73.4029 17.613C71.4011 17.6144 70.8968 17.6203 70.805 17.6436ZM58.0916 18.4167C58.3205 18.4694 58.3849 18.517 58.4629 18.6916C58.5233 18.8265 58.526 18.8449 58.5031 18.9604C58.4562 19.1973 58.4002 19.281 58.2451 19.3469C58.1608 19.3826 58.0396 19.386 56.6608 19.3924C55.1935 19.3991 54.9968 19.3918 54.9968 19.3309C54.9968 19.3195 54.984 19.3102 54.9683 19.3101C54.928 19.3098 54.8828 19.208 54.8828 19.1175C54.8828 18.9971 55.0075 18.7088 55.06 18.7077C55.0851 18.7072 55.2247 18.5868 55.225 18.5654C55.2256 18.5294 55.3872 18.4483 55.5048 18.4252C55.7225 18.3822 56.1169 18.3689 57.0255 18.3737C57.7984 18.3779 57.9494 18.384 58.0916 18.4167ZM66.2346 18.4143C66.3121 18.4457 66.4626 18.5681 66.4626 18.5999C66.4626 18.627 66.4143 18.758 66.3694 18.8524C66.3458 18.9021 66.3171 18.9822 66.3057 19.0302C66.2942 19.0783 66.2691 19.1403 66.2498 19.168C66.2118 19.2227 66.0814 19.2939 65.9727 19.3193C65.9352 19.328 65.8972 19.3465 65.8881 19.3603C65.8758 19.3792 65.4902 19.3855 64.3606 19.3855C62.8866 19.3855 62.8477 19.3845 62.7714 19.3421C62.7188 19.313 62.6789 19.266 62.6498 19.1991L62.6064 19.0994L62.6881 18.9874C62.7331 18.9257 62.7698 18.8588 62.7698 18.8385C62.7698 18.7804 62.8403 18.6005 62.8631 18.6005C62.8745 18.6005 62.8838 18.5885 62.8838 18.5737C62.8839 18.5486 63.0192 18.4591 63.1231 18.4154C63.1726 18.3946 64.9885 18.3673 65.7103 18.3764C66.044 18.3807 66.1747 18.3901 66.2346 18.4143ZM81.3362 18.4053C81.5138 18.4402 81.6641 18.5115 81.7025 18.579C81.8173 18.7812 81.8381 18.8475 81.8105 18.9236C81.7955 18.9647 81.7819 19.0274 81.7803 19.0629C81.7764 19.1493 81.7177 19.2389 81.6125 19.3193L81.5257 19.3855L80.007 19.3924C79.1717 19.3962 78.4569 19.3937 78.4185 19.3869C78.38 19.3801 78.3171 19.3474 78.2786 19.3143C78.1833 19.2322 78.1657 19.1297 78.2178 18.9616C78.2531 18.8477 78.2828 18.8063 78.4298 18.6657C78.5239 18.5758 78.6177 18.4902 78.6383 18.4754C78.6755 18.4487 78.827 18.4169 79.0681 18.3851C79.2776 18.3575 81.1791 18.3744 81.3362 18.4053Z" fill="#0061A1"/>
</svg>
