<svg width="112" height="32" viewBox="0 0 112 32" fill="none" xmlns="http://www.w3.org/2000/svg">
<path fill-rule="evenodd" clip-rule="evenodd" d="M29.8707 8.064C24.9847 8.67683 20.3354 11.7706 19.1969 15.1667C19.0137 15.7134 18.9774 16.0197 19.0114 16.7346C19.0478 17.4977 19.1035 17.7163 19.4065 18.2837C20.0052 19.4047 21.0484 20.1419 22.7224 20.6271C23.4194 20.829 23.7799 20.863 25.21 20.8615C27.0867 20.8594 27.9447 20.72 29.7568 20.1225C32.6402 19.1718 35.3639 17.2674 36.6643 15.2928C37.432 14.1274 37.6324 13.5221 37.6411 12.3445C37.6475 11.4762 37.6131 11.2763 37.3675 10.752C36.5876 9.08803 34.6074 8.10382 31.8473 8.0085C31.1862 7.98561 30.2968 8.01059 29.8707 8.064ZM32.944 8.74122C35.6009 9.20447 37.139 10.8924 36.7675 12.9371C36.5643 14.0557 36.0056 15.0007 34.8782 16.1335C34.3204 16.694 33.7881 17.1527 33.6955 17.1527C33.6028 17.1527 33.4833 17.0704 33.43 16.9697C33.3766 16.8691 32.976 15.3993 32.5397 13.7033C32.1034 12.0074 31.673 10.4771 31.5834 10.3025C31.3954 9.93657 31.1883 9.78689 30.7309 9.68644C30.4121 9.6164 30.3937 9.63428 29.8557 10.5355C28.6403 12.5715 24.7244 18.8019 24.5269 19.0139C24.4108 19.1386 24.2003 19.2696 24.0593 19.3049C23.7026 19.3945 22.5761 18.8504 21.9792 18.3C20.0527 16.5243 20.8592 13.5226 23.8719 11.2563C25.763 9.83371 27.8007 9.01748 30.3839 8.64746C31.0285 8.55516 32.1029 8.59446 32.944 8.74122ZM30.2115 13.9908C30.4244 14.8962 30.5974 15.6724 30.5958 15.7154C30.5942 15.7585 29.9305 15.7938 29.121 15.7938C28.3113 15.7938 27.6645 15.7542 27.6837 15.7057C27.7937 15.4277 29.6899 12.3445 29.7509 12.3445C29.7913 12.3445 29.9986 13.0853 30.2115 13.9908ZM65.3491 13.5858L65.0371 13.6526L64.5466 16.6308C64.2769 18.2688 64.0528 19.6678 64.0486 19.7397C64.0431 19.8338 64.2717 19.8703 64.8664 19.8703H65.692L65.8037 19.217C65.8653 18.8578 65.9445 18.3521 65.9799 18.0934C66.0154 17.8347 66.0665 17.5538 66.0936 17.4692C66.1214 17.3822 66.4427 17.871 66.8322 18.5928L67.5218 19.8703H68.5516H69.5813L68.7449 18.5055C68.2848 17.7549 67.9084 17.1258 67.9084 17.1075C67.9084 17.0892 68.0378 17.0467 68.1959 17.013C68.9907 16.8436 69.6898 16.0669 69.7666 15.268C69.8606 14.2884 69.442 13.8204 68.2812 13.6079C67.6229 13.4873 65.8709 13.4741 65.3491 13.5858ZM44.667 13.834C44.4936 14.1129 41.7783 19.0393 41.5272 19.5306L41.3537 19.8703H42.1701H42.9865L43.2964 19.2957L43.6064 18.7213L44.8819 18.7208L46.1574 18.7205L46.2662 19.1125C46.3261 19.3281 46.3753 19.5867 46.3756 19.6874C46.3762 19.8482 46.4913 19.8703 47.324 19.8703C48.1765 19.8703 48.2667 19.8519 48.2207 19.6874C48.1926 19.5867 47.8484 18.176 47.4558 16.5523L46.7421 13.6001L45.7777 13.5994C44.8901 13.5988 44.8015 13.6176 44.667 13.834ZM50.1953 13.7295C50.1723 13.8014 49.9582 15.1066 49.7196 16.63C49.4809 18.1535 49.2604 19.5078 49.2295 19.6397C49.1743 19.8761 49.1853 19.8791 49.9952 19.8488L50.8169 19.818L51.0472 18.3547C51.1739 17.5499 51.3154 16.6562 51.3616 16.3687L51.4457 15.8461L51.6459 16.3687C51.756 16.6562 52.1653 17.5632 52.5555 18.3846L53.2648 19.8777L54.3343 19.8479L55.4039 19.818L55.849 17.0481C56.0939 15.5247 56.3229 14.1233 56.358 13.934L56.4219 13.5898L55.6062 13.6204L54.7906 13.6511L54.5517 15.2189C54.1654 17.7538 54.2095 17.5628 54.0815 17.2572C54.0213 17.1135 53.6211 16.2316 53.1921 15.2973L52.4122 13.5988H51.3247C50.5466 13.5988 50.2252 13.636 50.1953 13.7295ZM58.0815 13.6144C58.0806 13.6346 57.8473 15.0366 57.5629 16.7299C57.2785 18.4232 57.064 19.8268 57.0862 19.849C57.1084 19.8711 57.6827 19.9133 58.3626 19.9426C60.6129 20.0397 61.9042 19.563 62.7508 18.3223C63.208 17.6522 63.4143 16.9693 63.4132 16.1284C63.412 15.0772 62.9685 14.3348 62.0842 13.9039C61.6358 13.6855 61.4055 13.6563 59.8339 13.6191C58.871 13.5964 58.0823 13.5942 58.0815 13.6144ZM71.4573 13.6772C71.4544 13.7203 71.2295 15.1196 70.9572 16.7868L70.4623 19.818L72.493 19.8465C73.61 19.8621 74.5359 19.8621 74.5509 19.8465C74.5657 19.8308 74.6113 19.5475 74.6523 19.217L74.7266 18.616H73.5328H72.339L72.4405 17.9366L72.5421 17.2572H73.6684C74.2879 17.2572 74.8157 17.2219 74.8413 17.1788C74.8668 17.1357 74.921 16.8535 74.9618 16.5516L75.0358 16.0029H73.8942H72.7524L72.8535 15.3757L72.9545 14.7486H74.1944C75.305 14.7486 75.4343 14.7296 75.4354 14.5657C75.436 14.465 75.4657 14.2064 75.5013 13.9908L75.5661 13.5988H73.5142C72.3856 13.5988 71.46 13.6341 71.4573 13.6772ZM77.1865 16.7346L75.4533 19.8703H76.279H77.1048L77.4293 19.2954L77.7537 18.7205H79.0387H80.3236L80.3931 19.1125C80.5337 19.9056 80.4844 19.8703 81.4514 19.8703C82.1411 19.8703 82.3329 19.8382 82.3329 19.7226C82.3329 19.6414 82.0282 18.3362 81.6558 16.822C81.2833 15.308 80.9531 13.9633 80.9221 13.834C80.8685 13.611 80.8152 13.5988 79.8926 13.5988H78.9198L77.1865 16.7346ZM84.1051 13.6736C84.1025 13.7187 83.8759 15.1314 83.6016 16.813L83.1028 19.8703H83.9058H84.7087L84.9842 18.1655C85.1356 17.2279 85.2596 16.3264 85.2596 16.1622C85.2596 15.7469 85.3169 15.8347 85.8843 17.1195C86.1589 17.7413 86.5555 18.6147 86.7655 19.0602L87.1474 19.8703H88.2207H89.294L89.7872 16.813C90.0584 15.1314 90.2795 13.7203 90.2786 13.6772C90.2776 13.6341 89.9291 13.5988 89.5041 13.5988C88.7892 13.5988 88.7274 13.6164 88.6757 13.834C88.6164 14.083 88.2151 16.6733 88.1535 17.2049C88.1173 17.5162 88.1156 17.515 87.9181 17.0522C87.8087 16.7958 87.4066 15.9256 87.0247 15.1185L86.3302 13.6511L85.22 13.6214C84.6094 13.6051 84.1077 13.6286 84.1051 13.6736ZM92.0045 13.7295C91.9811 13.8014 91.7698 15.0831 91.5352 16.5778C91.3005 18.0725 91.0822 19.4247 91.0502 19.5829L90.9918 19.8703H91.828C92.6562 19.8703 92.6649 19.8676 92.7235 19.5829C92.756 19.4247 92.972 18.096 93.2032 16.63C93.4345 15.1641 93.6424 13.8824 93.6652 13.7817C93.7019 13.6194 93.6131 13.5988 92.8768 13.5988C92.3055 13.5988 92.0338 13.6395 92.0045 13.7295ZM67.83 14.9357C68.2979 15.342 67.8835 16.1334 67.1173 16.2968C66.3426 16.4621 66.2512 16.3973 66.3587 15.7597C66.5119 14.8526 66.5432 14.7654 66.7326 14.7217C67.0389 14.6511 67.6363 14.7675 67.83 14.9357ZM61.1932 15.1011C61.7953 15.4125 61.8858 16.4164 61.4041 17.441C61.0606 18.1721 60.3007 18.616 59.3932 18.616H58.9575L59.2443 16.8415C59.4021 15.8655 59.5645 15.0129 59.6054 14.9469C59.7069 14.7827 60.7788 14.8869 61.1932 15.1011ZM79.9719 17.2311L80.0499 17.5708H79.2055H78.3611L78.9607 16.4361L79.5602 15.3015L79.727 16.0964C79.8186 16.5337 79.9288 17.0443 79.9719 17.2311ZM45.5436 15.7216C45.5456 15.8476 45.6336 16.3151 45.7393 16.7607L45.9313 17.5708H45.0998C44.6425 17.5708 44.284 17.5296 44.3032 17.4792C44.3224 17.4288 44.5727 16.9391 44.8596 16.391C45.368 15.4195 45.5364 15.2548 45.5436 15.7216ZM31.0334 17.4401C31.2691 18.5605 31.2023 18.6745 30.0921 19.0461C28.9507 19.4282 27.3854 19.6813 26.412 19.6413C25.72 19.6128 25.6247 19.5844 25.5994 19.3999C25.5836 19.285 25.9042 18.6147 26.3119 17.9105L27.0529 16.63H28.9579H30.863L31.0334 17.4401Z" fill="#D0080F"/>
</svg>
