<svg width="144" height="26" viewBox="0 0 144 26" fill="none" xmlns="http://www.w3.org/2000/svg">
<path fill-rule="evenodd" clip-rule="evenodd" d="M20.871 0.538944C11.5047 1.71372 2.59219 7.64428 0.409753 14.1545C0.058504 15.2025 -0.0110244 15.7897 0.0540959 17.1601C0.123825 18.623 0.230622 19.0419 0.811496 20.1298C1.95922 22.2785 3.95891 23.6917 7.16785 24.6219C8.50412 25.009 9.19519 25.0741 11.9365 25.0713C15.5341 25.0673 17.179 24.8 20.6526 23.6547C26.18 21.8321 31.4012 18.1816 33.8941 14.3964C35.3656 12.1622 35.7499 11.0019 35.7665 8.74451C35.7787 7.08004 35.7128 6.69673 35.2419 5.69167C33.747 2.50197 29.951 0.615285 24.66 0.432547C23.3926 0.388666 21.6877 0.436555 20.871 0.538944ZM26.7623 1.83714C31.8555 2.72519 34.8039 5.96097 34.0918 9.88041C33.7023 12.0248 32.6313 13.8363 30.4701 16.0079C29.4007 17.0823 28.3805 17.9616 28.2029 17.9616C28.0252 17.9616 27.7962 17.8039 27.694 17.6109C27.5916 17.4179 26.8236 14.6003 25.9872 11.3493C25.1509 8.09832 24.326 5.1647 24.154 4.83008C23.7938 4.12858 23.3966 3.84165 22.5198 3.64909C21.9087 3.51484 21.8734 3.54911 20.8421 5.2767C18.5122 9.17972 11.0057 21.123 10.627 21.5295C10.4044 21.7686 10.0011 22.0197 9.73078 22.0874C9.04692 22.2591 6.88753 21.216 5.74321 20.161C2.05019 16.7569 3.59624 11.0029 9.37152 6.65846C12.9966 3.93142 16.9028 2.36672 21.8548 1.65741C23.0905 1.48048 25.1499 1.55582 26.7623 1.83714ZM21.5242 11.9003C21.9323 13.636 22.264 15.1239 22.2609 15.2065C22.2579 15.289 20.9856 15.3567 19.4337 15.3567C17.8817 15.3567 16.6418 15.2808 16.6786 15.1878C16.8894 14.6548 20.5243 8.74451 20.6414 8.74451C20.7187 8.74451 21.116 10.1645 21.5242 11.9003ZM88.8817 11.1241L88.2836 11.2521L87.3433 16.9611C86.8263 20.1011 86.3967 22.7831 86.3887 22.9207C86.3781 23.1013 86.8163 23.1712 87.9564 23.1712H89.5389L89.7531 21.9189C89.8711 21.2302 90.023 20.2608 90.0909 19.7649C90.1589 19.269 90.2568 18.7306 90.3087 18.5683C90.362 18.4016 90.978 19.3385 91.7248 20.7223L93.0466 23.1712H95.0207H96.9947L95.3913 20.5549C94.5093 19.1161 93.7878 17.9101 93.7878 17.875C93.7878 17.8399 94.0358 17.7584 94.3388 17.6939C95.8624 17.3691 97.2027 15.8801 97.3498 14.3487C97.5301 12.4708 96.7276 11.5737 94.5023 11.1664C93.2404 10.9352 89.882 10.9099 88.8817 11.1241ZM49.2348 11.5998C48.9024 12.1344 43.6974 21.5782 43.2161 22.52L42.8835 23.1712H44.4484H46.0135L46.6076 22.0697L47.2017 20.9685L49.6468 20.9677L52.0919 20.9671L52.3005 21.7185C52.4153 22.1319 52.5097 22.6276 52.5103 22.8205C52.5113 23.1287 52.7321 23.1712 54.3282 23.1712C55.9624 23.1712 56.1354 23.1359 56.0472 22.8205C55.9933 22.6276 55.3335 19.9232 54.5809 16.8106L53.2128 11.1514L51.3639 11.1502C49.6626 11.149 49.4927 11.185 49.2348 11.5998ZM59.8324 11.3994C59.7883 11.5373 59.378 14.0393 58.9205 16.9597C58.4629 19.8801 58.0403 22.4763 57.981 22.7292C57.8752 23.1822 57.8962 23.188 59.4489 23.1299L61.024 23.071L61.4654 20.2658C61.7083 18.723 61.9796 17.0098 62.0681 16.4588L62.2294 15.4569L62.6131 16.4588C62.8241 17.0098 63.6088 18.7486 64.3568 20.3231L65.7165 23.1854L67.7667 23.1283L69.8171 23.071L70.6702 17.7612C71.1397 14.8408 71.5787 12.1544 71.646 11.7915L71.7685 11.1317L70.205 11.1904L68.6415 11.2491L68.1834 14.2547C67.4429 19.1139 67.5274 18.7478 67.2822 18.1619C67.1668 17.8864 66.3995 16.1959 65.5772 14.405L64.0821 11.149H61.9974C60.5058 11.149 59.8897 11.2203 59.8324 11.3994ZM74.9499 11.1788C74.9481 11.2175 74.5009 13.9051 73.9557 17.1511C73.4107 20.3971 72.9993 23.0878 73.042 23.1303C73.0845 23.1728 74.1855 23.2535 75.4887 23.3098C79.8025 23.496 82.2779 22.5821 83.9009 20.2037C84.7773 18.9191 85.1726 17.6101 85.1706 15.9981C85.1682 13.983 84.3181 12.5598 82.6229 11.7338C81.7633 11.3151 81.3219 11.2592 78.3092 11.1878C76.4633 11.1443 74.9515 11.1401 74.9499 11.1788ZM100.591 11.2992C100.585 11.3818 100.154 14.0643 99.6322 17.2603L98.6834 23.071L102.576 23.1255C104.717 23.1554 106.492 23.1554 106.521 23.1255C106.55 23.0954 106.637 22.5524 106.715 21.9189L106.858 20.7667H104.57H102.281L102.476 19.4643L102.67 18.1619H104.829C106.017 18.1619 107.029 18.0942 107.078 18.0116C107.127 17.9291 107.231 17.3881 107.309 16.8094L107.451 15.7575H105.262H103.074L103.267 14.5553L103.461 13.353H105.838C107.967 13.353 108.215 13.3166 108.217 13.0024C108.218 12.8094 108.275 12.3137 108.343 11.9003L108.467 11.149H104.534C102.37 11.149 100.596 11.2167 100.591 11.2992ZM111.573 17.1601L108.251 23.1712H109.834H111.417L112.039 22.0691L112.661 20.9671H115.124H117.587L117.72 21.7185C117.99 23.2389 117.895 23.1712 119.749 23.1712C121.071 23.1712 121.439 23.1097 121.439 22.8881C121.439 22.7324 120.855 20.2303 120.141 17.3278C119.427 14.4254 118.794 11.8476 118.734 11.5998C118.632 11.1724 118.53 11.149 116.761 11.149H114.896L111.573 17.1601ZM124.836 11.2924C124.831 11.3788 124.397 14.0868 123.871 17.3103L122.915 23.1712H124.454H125.993L126.521 19.9031C126.812 18.1058 127.049 16.3776 127.049 16.0628C127.049 15.2668 127.159 15.4351 128.247 17.898C128.773 19.09 129.533 20.7641 129.936 21.6183L130.668 23.1712H132.726H134.783L135.729 17.3103C136.248 14.0868 136.672 11.3818 136.67 11.2992C136.669 11.2167 136.001 11.149 135.186 11.149C133.815 11.149 133.697 11.1826 133.598 11.5998C133.484 12.0771 132.715 17.0427 132.597 18.0617C132.527 18.6584 132.524 18.6562 132.145 17.769C131.936 17.2775 131.165 15.6094 130.433 14.0621L129.102 11.2491L126.973 11.1922C125.803 11.161 124.841 11.2061 124.836 11.2924ZM139.979 11.3994C139.934 11.5373 139.529 13.9942 139.079 16.8595C138.629 19.7248 138.211 22.317 138.15 22.6202L138.038 23.1712H139.641C141.228 23.1712 141.245 23.166 141.357 22.6202C141.42 22.317 141.834 19.7699 142.277 16.9597C142.72 14.1495 143.119 11.6926 143.162 11.4996C143.233 11.1884 143.063 11.149 141.651 11.149C140.556 11.149 140.035 11.2269 139.979 11.3994ZM93.6375 13.7117C94.5343 14.4905 93.7401 16.0077 92.2712 16.3209C90.7862 16.6377 90.6109 16.5135 90.8171 15.2912C91.1106 13.5524 91.1707 13.3853 91.5338 13.3015C92.1209 13.1661 93.2662 13.3893 93.6375 13.7117ZM80.915 14.0289C82.0691 14.6258 82.2426 16.5501 81.3193 18.5144C80.6607 19.9158 79.204 20.7667 77.4644 20.7667H76.6292L77.1791 17.365C77.4814 15.4942 77.7928 13.8598 77.8711 13.7331C78.0657 13.4184 80.1205 13.6181 80.915 14.0289ZM116.913 18.1118L117.063 18.763H115.444H113.825L114.975 16.588L116.124 14.413L116.443 15.9368C116.619 16.775 116.83 17.7538 116.913 18.1118ZM50.9153 15.2183C50.9191 15.4597 51.0878 16.356 51.2904 17.2102L51.6585 18.763H50.0645C49.1879 18.763 48.5007 18.6841 48.5375 18.5875C48.5742 18.4909 49.0541 17.5522 49.6041 16.5015C50.5787 14.6392 50.9015 14.3234 50.9153 15.2183ZM23.0997 18.5126C23.5515 20.6603 23.4235 20.8789 21.2954 21.5913C19.1073 22.3236 16.1068 22.8089 14.2407 22.7322C12.9143 22.6775 12.7315 22.6232 12.683 22.2695C12.6528 22.0491 13.2673 20.7641 14.0488 19.4142L15.4694 16.9597H19.1211H22.7731L23.0997 18.5126Z" fill="#D0080F"/>
</svg>
