<svg width="112" height="32" viewBox="0 0 112 32" fill="none" xmlns="http://www.w3.org/2000/svg">
<path fill-rule="evenodd" clip-rule="evenodd" d="M40.8151 13.1241C40.0613 13.2928 39.5868 14.0216 39.7553 14.7521L42.1078 24.9481C42.2763 25.6786 43.024 26.134 43.7779 25.9654L73.9351 19.2201C74.689 19.0515 75.1635 18.3226 74.9949 17.5922L72.6425 7.39614C72.4739 6.66568 71.7262 6.21022 70.9724 6.37883L40.8151 13.1241ZM69.8244 8.40423C70.6165 8.40423 71.2586 9.03647 71.2586 9.81636C71.2586 10.5963 70.6165 11.2285 69.8244 11.2285C69.0323 11.2285 68.3902 10.5963 68.3902 9.81636C68.3902 9.03647 69.0323 8.40423 69.8244 8.40423Z" fill="#792295"/>
<path fill-rule="evenodd" clip-rule="evenodd" d="M40.894 13.4542C40.3276 13.5809 39.9705 14.1294 40.0971 14.6783L42.4496 24.8743C42.5758 25.4212 43.1346 25.7616 43.699 25.6353L73.8562 18.89C74.4226 18.7633 74.7797 18.2148 74.6531 17.666L72.3006 7.46994C72.1745 6.92308 71.6156 6.58268 71.0513 6.70891L40.894 13.4542ZM69.8244 8.06545C70.8157 8.06545 71.6088 8.85505 71.6088 9.81636C71.6088 10.7777 70.8157 11.5673 69.8244 11.5673C68.833 11.5673 68.0399 10.7777 68.0399 9.81636C68.0399 8.85505 68.833 8.06545 69.8244 8.06545ZM39.7553 14.7521C39.5868 14.0216 40.0613 13.2928 40.8151 13.1241L70.9724 6.37883C71.7262 6.21022 72.4739 6.66568 72.6425 7.39614L74.9949 17.5922C75.1635 18.3226 74.689 19.0515 73.9351 19.2201L43.7779 25.9654C43.024 26.134 42.2763 25.6786 42.1078 24.9481L39.7553 14.7521ZM71.2586 9.81636C71.2586 9.03647 70.6165 8.40423 69.8244 8.40423C69.0323 8.40423 68.3902 9.03647 68.3902 9.81636C68.3902 10.5963 69.0323 11.2285 69.8244 11.2285C70.6165 11.2285 71.2586 10.5963 71.2586 9.81636Z" fill="#5A0E7B"/>
<path d="M52.1144 20.0095C51.6674 20.6106 51.1157 20.9846 50.4592 21.1313C49.5045 21.3448 48.6816 21.1478 47.9907 20.5403C47.4471 20.0577 47.0827 19.415 46.8974 18.612C46.6866 17.698 46.762 16.8608 47.1234 16.1004C47.4828 15.361 48.0503 14.9045 48.8261 14.7311C49.5156 14.5769 50.1975 14.6612 50.8716 14.9842L50.6301 15.6149C50.1115 15.4219 49.63 15.3751 49.1858 15.4744C48.5824 15.6093 48.1648 15.9602 47.933 16.5269C47.7237 17.0405 47.7035 17.6629 47.8721 18.3941C48.0393 19.1187 48.3689 19.656 48.861 20.0059C49.3124 20.3306 49.8232 20.4292 50.3934 20.3017C50.8243 20.2053 51.2332 19.9525 51.6199 19.5434L52.1144 20.0095Z" fill="white"/>
<path fill-rule="evenodd" clip-rule="evenodd" d="M52.5749 19.9705L52.3987 20.2073C51.9093 20.8655 51.2886 21.2936 50.5381 21.4614C49.478 21.6985 48.5359 21.4776 47.7551 20.791L47.7538 20.7899C47.1497 20.2536 46.754 19.5457 46.5556 18.6858C46.3302 17.7085 46.4079 16.7946 46.8052 15.9588L46.8064 15.9562C47.2083 15.1294 47.8596 14.5994 48.7472 14.401C49.5209 14.228 50.2852 14.3252 51.027 14.6806L51.3095 14.8159L50.8354 16.0542L50.5044 15.9311C50.0365 15.757 49.6272 15.7235 49.2647 15.8045C48.7759 15.9138 48.4491 16.1861 48.2588 16.6513C48.0829 17.0831 48.0553 17.6323 48.214 18.3203C48.3676 18.9862 48.6607 19.443 49.0684 19.7329L49.07 19.734C49.4351 19.9967 49.8398 20.0777 50.3145 19.9716C50.6585 19.8947 51.0085 19.6882 51.3614 19.3148L51.6054 19.0567L52.5749 19.9705ZM47.933 16.5269C48.1648 15.9602 48.5824 15.6093 49.1858 15.4744C49.6061 15.3804 50.0598 15.4173 50.5468 15.585C50.5744 15.5945 50.6022 15.6045 50.6301 15.6149L50.8716 14.9842C50.1975 14.6612 49.5156 14.5769 48.8261 14.7311C48.0503 14.9045 47.4828 15.361 47.1234 16.1004C46.762 16.8608 46.6866 17.698 46.8974 18.612C47.0827 19.415 47.4471 20.0577 47.9907 20.5403C48.6816 21.1478 49.5045 21.3448 50.4592 21.1313C51.1157 20.9846 51.6674 20.6106 52.1144 20.0095L51.6199 19.5434C51.5651 19.6014 51.5099 19.6562 51.4543 19.7079C51.1169 20.021 50.7633 20.2189 50.3934 20.3017C49.8232 20.4292 49.3124 20.3306 48.861 20.0059C48.3689 19.656 48.0393 19.1187 47.8721 18.3941C47.7035 17.6629 47.7237 17.0405 47.933 16.5269Z" fill="white"/>
<path d="M59.6573 18.5109C59.2102 19.112 58.6585 19.4859 58.0021 19.6327C57.0473 19.8462 56.2245 19.6492 55.5335 19.0417C54.9899 18.5591 54.6255 17.9163 54.4403 17.1134C54.2295 16.1994 54.3048 15.3622 54.6663 14.6017C55.0256 13.8623 55.5932 13.4059 56.3689 13.2324C57.0585 13.0782 57.7403 13.1626 58.4144 13.4855L58.1729 14.1162C57.6543 13.9233 57.1729 13.8764 56.7287 13.9758C56.1253 14.1107 55.7077 14.4615 55.4758 15.0282C55.2666 15.5418 55.2463 16.1642 55.415 16.8954C55.5821 17.62 55.9117 18.1573 56.4038 18.5072C56.8552 18.8319 57.366 18.9305 57.9362 18.803C58.3672 18.7067 58.7761 18.4539 59.1628 18.0448L59.6573 18.5109Z" fill="white"/>
<path fill-rule="evenodd" clip-rule="evenodd" d="M60.1177 18.4718L59.9416 18.7087C59.4521 19.3668 58.8315 19.795 58.081 19.9628C57.0208 20.1998 56.0788 19.9789 55.2979 19.2924L55.2967 19.2913C54.6926 18.755 54.2968 18.0471 54.0985 17.1871C53.873 16.2099 53.9508 15.296 54.348 14.4602L54.3493 14.4576C54.7511 13.6308 55.4025 13.1008 56.29 12.9023C57.0637 12.7293 57.8281 12.8266 58.5699 13.182L58.8524 13.3173L58.3782 14.5556L58.0472 14.4324C57.5794 14.2584 57.17 14.2248 56.8075 14.3059C56.3188 14.4152 55.992 14.6875 55.8016 15.1526C55.6258 15.5844 55.5981 16.1336 55.7568 16.8216C55.9104 17.4876 56.2035 17.9443 56.6113 18.2343L56.6128 18.2354C56.978 18.4981 57.3826 18.5791 57.8573 18.4729C58.2014 18.396 58.5514 18.1895 58.9043 17.8162L59.1483 17.558L60.1177 18.4718ZM55.4758 15.0282C55.7077 14.4615 56.1253 14.1107 56.7287 13.9758C57.149 13.8818 57.6027 13.9186 58.0896 14.0864C58.1173 14.0959 58.1451 14.1058 58.1729 14.1162L58.4144 13.4855C57.7403 13.1626 57.0585 13.0782 56.3689 13.2324C55.5932 13.4059 55.0256 13.8623 54.6663 14.6017C54.3048 15.3622 54.2295 16.1994 54.4403 17.1134C54.6255 17.9163 54.9899 18.5591 55.5335 19.0417C56.2245 19.6492 57.0473 19.8462 58.0021 19.6327C58.6585 19.4859 59.2102 19.112 59.6573 18.5109L59.1628 18.0448C59.108 18.1027 59.0528 18.1575 58.9971 18.2092C58.6598 18.5224 58.3062 18.7203 57.9362 18.803C57.366 18.9305 56.8552 18.8319 56.4038 18.5072C55.9117 18.1573 55.5821 17.62 55.415 16.8954C55.2463 16.1642 55.2666 15.5418 55.4758 15.0282Z" fill="white"/>
<path d="M67.3497 16.8517C66.9027 17.4528 66.3509 17.8267 65.6945 17.9735C64.7398 18.187 63.9169 17.99 63.226 17.3825C62.6824 16.8999 62.318 16.2571 62.1327 15.4541C61.9219 14.5402 61.9972 13.703 62.3587 12.9425C62.7181 12.2031 63.2856 11.7467 64.0614 11.5732C64.7509 11.419 65.4328 11.5034 66.1069 11.8263L65.8654 12.457C65.3468 12.2641 64.8653 12.2172 64.4211 12.3166C63.8177 12.4515 63.4001 12.8023 63.1683 13.369C62.959 13.8826 62.9388 14.505 63.1074 15.2362C63.2745 15.9608 63.6042 16.4981 64.0962 16.848C64.5476 17.1727 65.0585 17.2713 65.6287 17.1438C66.0596 17.0474 66.4685 16.7947 66.8552 16.3856L67.3497 16.8517Z" fill="white"/>
<path fill-rule="evenodd" clip-rule="evenodd" d="M67.8102 16.8126L67.634 17.0495C67.1446 17.7076 66.5239 18.1357 65.7734 18.3036C64.7133 18.5406 63.7712 18.3197 62.9904 17.6332L62.9891 17.6321C62.385 17.0958 61.9892 16.3879 61.7909 15.5279C61.5655 14.5507 61.6432 13.6367 62.0405 12.801L62.0417 12.7984C62.4436 11.9716 63.0949 11.4416 63.9825 11.2431C64.7562 11.0701 65.5205 11.1674 66.2623 11.5227L66.5448 11.6581L66.0706 12.8964L65.7396 12.7732C65.2718 12.5992 64.8624 12.5656 64.5 12.6467C64.0112 12.756 63.6844 13.0283 63.4941 13.4934C63.3182 13.9252 63.2905 14.4744 63.4492 15.1624C63.6028 15.8283 63.896 16.2851 64.3037 16.5751L64.3052 16.5762C64.6704 16.8388 65.0751 16.9199 65.5498 16.8137C65.8938 16.7368 66.2438 16.5303 66.5967 16.157L66.8407 15.8988L67.8102 16.8126ZM63.1683 13.369C63.4001 12.8023 63.8177 12.4515 64.4211 12.3166C64.8414 12.2226 65.2951 12.2594 65.7821 12.4272C65.8097 12.4367 65.8375 12.4466 65.8654 12.457L66.1069 11.8263C65.4328 11.5034 64.7509 11.419 64.0614 11.5732C63.2856 11.7467 62.7181 12.2031 62.3587 12.9425C61.9972 13.703 61.9219 14.5402 62.1327 15.4541C62.318 16.2571 62.6824 16.8999 63.226 17.3825C63.9169 17.99 64.7398 18.187 65.6945 17.9735C66.3509 17.8267 66.9027 17.4528 67.3497 16.8517L66.8552 16.3856C66.8004 16.4435 66.7452 16.4983 66.6895 16.55C66.3522 16.8632 65.9986 17.0611 65.6287 17.1438C65.0585 17.2713 64.5476 17.1727 64.0962 16.848C63.6042 16.4981 63.2745 15.9608 63.1074 15.2362C62.9388 14.505 62.959 13.8826 63.1683 13.369Z" fill="white"/>
<path d="M42.007 8.10547C45.1831 9.89042 48.3592 10.3367 51.0588 10.3367C48.3592 12.1216 46.6122 13.4597 44.8654 16.4346L44.7066 13.4597C42.4618 15.0749 39.7621 15.8186 45.183 20.897L44.7066 21.7897C36.9038 18.7936 34.9981 14.3311 43.9122 10.7825L42.007 8.10547Z" fill="url(#paint0_linear_2793_6926)"/>
<path fill-rule="evenodd" clip-rule="evenodd" d="M61.5408 19.2581L59.7653 11.7898L60.2956 11.6719L62.071 19.1401L61.5408 19.2581ZM53.5967 20.7845L51.8212 13.3161L52.3515 13.1981L54.1269 20.6665L53.5967 20.7845Z" fill="white"/>
<defs>
<linearGradient id="paint0_linear_2793_6926" x1="44.8446" y1="15.5224" x2="46.8305" y2="20.6714" gradientUnits="userSpaceOnUse">
<stop stop-color="#8BE000"/>
<stop offset="1" stop-color="#8BE000" stop-opacity="0"/>
</linearGradient>
</defs>
</svg>
