<svg width="112" height="32" viewBox="0 0 112 32" fill="none" xmlns="http://www.w3.org/2000/svg">
<path fill-rule="evenodd" clip-rule="evenodd" d="M32.1035 22.7384H34.7433L34.7451 19.4462C34.7469 16.3248 34.756 16.1338 34.9201 15.7632C35.2534 15.0107 35.7823 14.6274 36.5776 14.5621C37.2384 14.5077 37.6055 14.6303 38.0899 15.0668C38.7511 15.663 38.7535 15.6785 38.7475 19.4355L38.7422 22.7384H41.4852L41.4497 19.2282C41.419 16.187 41.3943 15.6539 41.2647 15.2384C40.7138 13.4719 39.3516 12.2288 37.5706 11.867C36.9657 11.7442 36.7782 11.7393 36.2668 11.8328C35.9384 11.8929 35.4612 12.0498 35.2064 12.1814L34.7433 12.4207V8H32.1035V22.7384ZM65.228 22.7384H67.8678V21.4086L69.7684 18.8137L69.908 19.0537C69.9847 19.1856 70.4672 20.0682 70.98 21.0149L71.9126 22.7362L73.424 22.7373C74.2554 22.7378 74.9355 22.7228 74.9355 22.7038C74.9355 22.6753 73.2752 19.6634 71.858 17.1209C71.6731 16.7892 71.5393 16.4753 71.5606 16.4232C71.582 16.3711 71.9524 15.8772 72.3838 15.3256C73.6825 13.6651 74.716 12.3331 74.8339 12.1676C74.9397 12.0193 74.8703 12.0116 73.4289 12.0118L71.9126 12.0121L67.9104 17.2002L67.8663 8H65.228V22.7384ZM47.0053 11.7053C45.9098 11.9669 45.2018 12.3687 44.3985 13.1844C43.3435 14.2558 42.8314 15.6048 42.8343 17.305C42.8369 18.813 43.2399 20.0631 44.0438 21.0565C45.5631 22.9339 48.4158 23.4582 50.4753 22.2385L50.8372 22.0241V22.7384H53.4769V12.0116H50.8372V12.4363L50.1347 12.1005C49.0568 11.5853 48.0438 11.4573 47.0053 11.7053ZM24.8655 11.9181C22.339 12.7393 20.7055 15.4425 21.0444 18.242C21.315 20.4779 22.9465 22.3593 25.0568 22.8688C25.7453 23.0351 26.889 23.0331 27.5904 22.8642C28.6712 22.6041 29.9368 21.7835 30.4947 20.9811L30.6793 20.7156L28.7587 18.7431L28.4862 19.1492C27.5466 20.5494 25.5184 20.684 24.4035 19.4201C23.8727 18.8184 23.7158 18.3708 23.7171 17.4622C23.718 16.7678 23.7483 16.612 23.9803 16.1105C24.5918 14.7884 25.8158 14.1917 27.1199 14.5799C27.5179 14.6984 27.7142 14.828 28.1099 15.2331C28.3813 15.5112 28.6287 15.8419 28.6596 15.9681C28.6906 16.0943 28.7428 16.1977 28.7757 16.1977C28.8085 16.1977 29.2591 15.7559 29.7769 15.2158C30.8577 14.0886 30.8408 14.2179 30.0232 13.3309C29.4348 12.6924 28.7133 12.2263 27.912 11.9671C27.0702 11.6948 25.6243 11.6715 24.8655 11.9181ZM55.0097 14.7122L59.4162 14.7587L58.421 16.5465C57.6144 17.9952 55.1724 22.4129 55.0344 22.673C55.0153 22.709 56.9562 22.7384 59.3475 22.7384H63.6953V20.0349H61.5239C60.3296 20.0349 59.3525 20.0099 59.3525 19.9794C59.3525 19.9307 60.3783 18.0584 62.7148 13.843C63.1003 13.1475 63.4796 12.4509 63.5577 12.2951L63.6996 12.0116H55.0097V14.7122ZM49.1888 14.5943C49.7315 14.8566 50.2712 15.4449 50.5656 16.0952C50.8872 16.8051 50.8836 17.7802 50.5569 18.4726C50.2717 19.0773 49.7595 19.6215 49.1878 19.9275C48.8274 20.1203 48.6391 20.1613 48.1123 20.1617C47.0092 20.1624 46.2219 19.6424 45.7578 18.6069C45.5493 18.1416 45.5182 17.9657 45.5167 17.2424C45.5153 16.4777 45.5374 16.3658 45.7957 15.8283C46.4433 14.4811 47.8763 13.96 49.1888 14.5943ZM76.1915 17.7392C76.054 17.777 76.0425 17.972 76.0425 20.2593V22.7384H78.77L78.7248 17.7238L77.5327 17.711C76.877 17.704 76.2734 17.7166 76.1915 17.7392ZM88.5025 20.5982C87.7703 20.9244 87.7126 22.0417 88.4058 22.4745C89.3556 23.0676 90.4142 21.9835 89.8351 21.0108C89.6666 20.7277 89.2251 20.4676 88.9246 20.4743C88.8411 20.4762 88.6512 20.532 88.5025 20.5982ZM89.6031 20.9925C90.3306 21.8191 89.1951 22.982 88.388 22.2369C88.0442 21.9195 87.9789 21.4882 88.2159 21.1001C88.5413 20.5672 89.1847 20.5172 89.6031 20.9925ZM88.6451 21.6046C88.6451 21.9381 88.6771 22.118 88.7303 22.0843C88.7771 22.0547 88.8154 21.9543 88.8154 21.8611C88.8154 21.6227 88.9711 21.6507 89.0864 21.9099C89.1397 22.0298 89.2156 22.1279 89.2549 22.1279C89.3476 22.1279 89.3437 22.0294 89.2448 21.8692C89.1951 21.7888 89.1981 21.7015 89.2526 21.6342C89.3004 21.5753 89.3269 21.4366 89.3116 21.326C89.2891 21.1629 89.2235 21.1199 88.9644 21.098L88.6451 21.0708V21.6046ZM89.1135 21.3866C89.1135 21.4813 89.0464 21.5719 88.9644 21.5881C88.8528 21.6101 88.8154 21.5595 88.8154 21.3866C88.8154 21.2138 88.8528 21.1632 88.9644 21.1852C89.0464 21.2014 89.1135 21.292 89.1135 21.3866Z" fill="#2A7DE3"/>
<path d="M79.2783 12.186C79.2783 13.2457 78.4395 14.1047 77.4049 14.1047C76.3703 14.1047 75.5315 13.2457 75.5315 12.186C75.5315 11.1264 76.3703 10.2674 77.4049 10.2674C78.4395 10.2674 79.2783 11.1264 79.2783 12.186Z" fill="#39D42C"/>
<path d="M82.4289 20.9942C85.7328 17.5756 83.8056 13.7267 82.4289 12.2297L84.3449 10.1802C89.0453 15.6919 86.3034 21.0233 84.3449 23L82.4289 20.9942Z" fill="#39D42C"/>
</svg>
