<svg width="112" height="32" viewBox="0 0 112 32" fill="none" xmlns="http://www.w3.org/2000/svg">
<path fill-rule="evenodd" clip-rule="evenodd" d="M32.8657 10.3403C32.1859 10.4514 31.5511 10.7675 31.028 11.2555C30.455 11.7901 30.1407 12.3525 29.9722 13.1451C29.6607 14.6095 30.2499 15.9465 31.4445 16.4859C32.3455 16.8928 33.8881 16.9414 34.6409 16.5866C34.8568 16.4849 34.8933 16.4042 34.993 15.8066C35.0542 15.44 35.09 15.1259 35.0725 15.1086C35.0548 15.0913 34.8888 15.1488 34.7033 15.2364C33.8575 15.6359 32.6985 15.528 32.1634 15.0002C31.2616 14.1108 31.6259 12.3841 32.8387 11.7988C33.4869 11.486 34.375 11.478 34.9924 11.7794L35.4176 11.9869L35.5149 11.4658C35.6572 10.7046 35.6443 10.6159 35.3759 10.5103C34.7114 10.2487 33.802 10.1871 32.8657 10.3403ZM75.7926 10.3169C75.0152 10.5195 74.4496 11.0139 74.2777 11.6411C74.2268 11.8269 74.2005 12.2165 74.2192 12.507C74.2677 13.2571 74.5328 13.5616 75.5891 14.0804C76.5237 14.5395 76.6969 14.7474 76.4835 15.1545C76.3249 15.4569 76.2074 15.4998 75.5381 15.4998C75.0953 15.4998 74.8928 15.4482 74.4249 15.2159C74.1103 15.0597 73.8398 14.9548 73.8238 14.9828C73.8079 15.0106 73.7677 15.2243 73.7347 15.4574C73.7016 15.6906 73.6537 15.9673 73.6284 16.0725C73.5886 16.237 73.6463 16.2922 74.0427 16.4683C75.0101 16.8979 76.4133 16.9184 77.2155 16.5147C78.0597 16.0899 78.4887 14.8084 78.0805 13.9315C77.8687 13.4765 77.7415 13.3779 76.7273 12.8834C76.0316 12.5441 75.8459 12.4151 75.8013 12.2397C75.7298 11.9589 75.8716 11.6994 76.1546 11.5933C76.4524 11.4816 77.336 11.5815 77.8018 11.7793C78.0088 11.8673 78.1889 11.9392 78.2023 11.9392C78.2585 11.9392 78.4241 10.7522 78.3781 10.6788C78.2081 10.4075 76.4108 10.1558 75.7926 10.3169ZM36.7916 10.383C36.7442 10.4585 36.6445 11.0407 36.0171 14.9064L35.735 16.6443L36.5475 16.6687C37.0129 16.6827 37.3822 16.6578 37.4119 16.6102C37.4406 16.5646 37.5379 16.0653 37.6284 15.5008L37.7928 14.4743L38.4736 14.5249L39.4347 16.6867H40.326C41.0048 16.6867 41.2069 16.6614 41.174 16.5807C41.1502 16.5225 40.8859 15.9435 40.5867 15.2943C40.2662 14.5988 40.0811 14.1012 40.1364 14.0829C40.188 14.066 40.4038 13.9436 40.6159 13.8108C41.5711 13.2133 41.7647 11.6381 40.9731 10.9052C40.5027 10.4697 40.1728 10.3972 38.44 10.3488C37.4945 10.3224 36.8207 10.3364 36.7916 10.383ZM42.5719 10.5459C42.5258 10.6655 42.4876 10.8276 42.487 10.9062C42.4864 10.9848 42.3704 11.7351 42.2292 12.5734C41.8442 14.859 41.891 15.436 42.5139 16.0815C42.9393 16.5223 43.4392 16.7009 44.3845 16.75C45.846 16.8258 46.6813 16.4286 47.192 15.415C47.4312 14.9402 47.5174 14.57 47.8152 12.7386C48.0051 11.5697 48.1606 10.5491 48.1606 10.4708C48.1606 10.3488 48.0571 10.3285 47.4351 10.3285C47.0361 10.3285 46.6892 10.3611 46.6642 10.401C46.6392 10.441 46.4618 11.4233 46.2702 12.584C45.9094 14.7689 45.8569 14.9294 45.3908 15.2727C45.1019 15.4853 44.321 15.4926 44.0006 15.2856C43.5885 15.0192 43.559 14.6695 43.8173 13.1176C44.219 10.7047 44.262 10.411 44.2197 10.3692C44.197 10.3468 43.8358 10.3285 43.4171 10.3285C42.6789 10.3285 42.6532 10.3351 42.5719 10.5459ZM49.0731 10.5616C49.0475 10.6898 49.0014 10.9759 48.9706 11.1974L48.9146 11.6001H50.1276C50.7948 11.6001 51.3406 11.6211 51.3406 11.6468C51.3406 11.6725 50.5802 12.6549 49.6507 13.8298C47.634 16.3792 47.8523 16.0767 47.7881 16.4112L47.7351 16.6867H52.9539L53.0145 16.2071C53.048 15.9434 53.0952 15.6763 53.1197 15.6137C53.1555 15.5213 52.9108 15.4998 51.8276 15.4998C51.0927 15.4998 50.474 15.4712 50.4529 15.4362C50.4317 15.4012 50.9115 14.7432 51.5191 13.9738C53.8802 10.9839 53.8215 11.0654 53.8828 10.6879L53.9411 10.3285H49.1197L49.0731 10.5616ZM56.4556 10.4344C56.4356 10.4928 56.3402 11.0745 56.2436 11.7273C56.1471 12.38 55.9335 13.7343 55.769 14.7368C55.6045 15.7393 55.469 16.5881 55.468 16.6231C55.4643 16.7463 58.6566 16.6918 59.2279 16.5588C60.7358 16.2082 61.5918 15.269 61.8402 13.6931C61.9297 13.1257 61.9232 12.956 61.791 12.4033C61.6609 11.8586 61.5783 11.7013 61.2186 11.3131C60.6969 10.7501 60.1994 10.5296 59.1938 10.416C58.0859 10.2908 56.5013 10.3015 56.4556 10.4344ZM63.1625 10.4344C63.1197 10.5699 62.9749 11.4195 62.8195 12.4479C62.7525 12.8908 62.5789 13.9903 62.4339 14.8911C62.2887 15.7919 62.17 16.5644 62.17 16.6078C62.17 16.6543 63.0311 16.6867 64.2676 16.6867H66.3653L66.4225 16.2416C66.454 15.9969 66.4989 15.7297 66.5224 15.6482C66.5615 15.5117 66.4637 15.4998 65.3018 15.4998H64.0387L64.0957 15.0547C64.1271 14.81 64.1751 14.4857 64.2023 14.3341L64.2519 14.0586H66.3736L66.4205 13.7619C66.4463 13.5987 66.4884 13.3317 66.5142 13.1685L66.5611 12.8717H64.4684L64.5274 12.3573C64.6203 11.5478 64.5277 11.6001 65.8661 11.6001H67.0514L67.1461 11.0633C67.1982 10.7681 67.2409 10.482 67.2409 10.4275C67.2409 10.2798 63.2092 10.2867 63.1625 10.4344ZM68.3341 10.389C68.2598 10.519 68.1907 10.9106 67.7612 13.6347C67.5224 15.1501 67.3112 16.4568 67.2919 16.5383C67.2594 16.6763 67.3963 16.6867 69.2593 16.6867H71.2618L71.3093 16.4959C71.3354 16.391 71.3832 16.1049 71.4156 15.8601L71.4745 15.415H69.1957L69.2546 15.0547C69.7674 11.9172 69.9226 10.9155 69.9342 10.6676L69.9482 10.3709L69.1603 10.3466C68.7268 10.3332 68.3551 10.3523 68.3341 10.389ZM79.6159 10.392C79.6152 10.427 79.4979 11.1423 79.3553 11.9816C79.0326 13.8806 78.9536 14.9303 79.1002 15.3687C79.1597 15.5462 79.3484 15.8444 79.5196 16.0314C79.9826 16.537 80.4401 16.702 81.5081 16.7488C82.2772 16.7826 82.4804 16.7624 82.8833 16.6121C84.0243 16.1865 84.4009 15.5461 84.7336 13.4652C84.8566 12.6958 85.0127 11.7325 85.0805 11.3246C85.2606 10.2417 85.313 10.3285 84.4784 10.3285C84.0793 10.3285 83.7293 10.3661 83.7005 10.4121C83.6717 10.4581 83.5538 11.0781 83.4384 11.7898C83.0516 14.1778 82.9591 14.6236 82.796 14.8882C82.549 15.2887 82.2569 15.4378 81.7288 15.4332C81.1435 15.428 80.8507 15.247 80.7337 14.818C80.6438 14.489 80.675 14.2299 81.1484 11.3663C81.2352 10.8414 81.2872 10.3931 81.2639 10.3702C81.1948 10.3019 79.6174 10.3229 79.6159 10.392ZM86.2806 10.4226C86.2562 10.4874 86.0787 11.5323 85.8863 12.7446C85.6938 13.9569 85.4815 15.2921 85.4146 15.7117C85.3476 16.1314 85.2922 16.5225 85.2913 16.5807C85.2902 16.6585 85.5182 16.6867 86.1493 16.6867H87.0087L87.0124 16.4535C87.0145 16.3254 87.0826 15.8389 87.1639 15.3726L87.3116 14.5249L87.9971 14.4773L88.2925 15.1793C88.4551 15.5654 88.6781 16.0625 88.7882 16.284L88.9885 16.6867H89.8465C90.3184 16.6867 90.7045 16.668 90.7045 16.6453C90.7045 16.6226 90.4531 16.0603 90.1458 15.3957C89.8386 14.7311 89.5872 14.1585 89.5872 14.123C89.5872 14.0876 89.6393 14.0586 89.7032 14.0586C89.9586 14.0586 90.5363 13.5372 90.7588 13.1056C91.0698 12.5026 91.0802 11.8822 90.7889 11.3034C90.6101 10.9482 90.495 10.8398 90.0781 10.6343C89.5945 10.3958 89.5356 10.3878 87.9529 10.3469C86.6133 10.3123 86.3171 10.3257 86.2806 10.4226ZM23.0426 13.998L20.4857 16.4747L20.2221 18.1576C20.0772 19.0832 19.979 19.8606 20.0038 19.8851C20.0708 19.9512 27.4551 12.7677 27.4218 12.669C27.4 12.6048 25.6675 11.5038 25.611 11.5183C25.6047 11.52 24.4489 12.6358 23.0426 13.998ZM39.6296 11.7889C39.7699 11.919 39.8237 12.0651 39.8237 12.3166C39.8237 12.9623 39.3711 13.2956 38.4943 13.2956C37.9407 13.2956 37.9574 13.3445 38.1477 12.2783C38.2185 11.882 38.2765 11.5429 38.2766 11.5248C38.2766 11.5067 38.5374 11.5183 38.8561 11.5505C39.2706 11.5924 39.4907 11.6602 39.6296 11.7889ZM89.077 11.6878C89.1555 11.7292 89.2687 11.8798 89.3286 12.0223C89.4686 12.3555 89.3068 12.8175 88.9612 13.072C88.6633 13.2914 87.5243 13.3923 87.5245 13.1992C87.5248 12.9861 87.7745 11.6812 87.8328 11.5881C87.8974 11.4851 88.8353 11.5602 89.077 11.6878ZM59.4064 11.8053C59.8329 12.0228 60.0539 12.4129 60.0929 13.0171C60.1599 14.0561 59.8002 14.8416 59.0969 15.1917C58.6764 15.4011 57.5017 15.5775 57.4181 15.4439C57.3936 15.4047 57.4633 14.8386 57.5728 14.1858C57.6825 13.533 57.8193 12.6791 57.8769 12.2882L57.9817 11.5774L58.5654 11.6257C58.8863 11.6522 59.2648 11.733 59.4064 11.8053ZM80.1294 18.4719C80.0266 18.6144 79.9643 18.7527 79.991 18.779C80.0794 18.8663 80.2808 18.7384 80.4719 18.4737C80.6564 18.2181 80.6568 18.2126 80.4884 18.2126C80.3939 18.2126 80.2323 18.3293 80.1294 18.4719ZM49.8503 20.4242C49.7171 21.2209 49.6287 21.8933 49.6541 21.9183C49.6794 21.9433 49.7555 21.9428 49.8232 21.9172C49.907 21.8855 49.9963 21.5449 50.104 20.8471C50.1909 20.2841 50.286 19.8234 50.3152 19.8234C50.3445 19.8234 50.7059 20.3231 51.1183 20.9337C51.5308 21.5444 51.8887 22.0238 51.9138 21.9991C51.9623 21.9513 52.3712 19.4595 52.3717 19.2088C52.3722 18.9916 52.1242 19.0274 52.0785 19.2511C52.057 19.3561 51.9688 19.8425 51.8825 20.332L51.7256 21.2222L50.953 20.1021C50.528 19.4861 50.1606 18.9805 50.1365 18.9788C50.1124 18.9771 49.9836 19.6275 49.8503 20.4242ZM53.4709 19.0438C53.3412 19.059 53.1409 19.1845 53.0197 19.3266C52.6341 19.7786 52.7498 20.1082 53.4494 20.5496C53.9922 20.8921 54.139 21.1024 54.006 21.3474C53.8042 21.7194 53.3658 21.7835 52.8585 21.5153L52.531 21.3422L52.5589 21.5344C52.6324 22.0402 53.861 22.0962 54.2386 21.6111C54.3668 21.4464 54.3798 20.9715 54.2622 20.7547C54.2145 20.6669 53.9616 20.4691 53.7001 20.3153C53.1653 20.0004 53.0357 19.7445 53.2775 19.4809C53.4522 19.2906 54.076 19.2491 54.2457 19.4165C54.3258 19.4956 54.3717 19.4956 54.4519 19.4165C54.528 19.3414 54.5299 19.2899 54.4588 19.2198C54.342 19.1046 53.7908 19.0064 53.4709 19.0438ZM58.412 19.0624C57.718 19.2138 57.2309 19.839 57.2309 20.5784C57.2309 21.4332 57.7179 21.943 58.5344 21.9426C59.0777 21.9425 59.4853 21.7292 59.8043 21.2785C60.0272 20.9634 60.0643 20.8341 60.0643 20.3733C60.0643 19.9627 60.0224 19.7806 59.8871 19.6017C59.5208 19.1179 59.0117 18.9317 58.412 19.0624ZM74.5193 19.0655C74.0556 19.143 73.7669 19.3799 73.4874 19.9125C73.2081 20.4445 73.2173 20.9166 73.5162 21.3937C73.9475 22.082 75.1312 22.1422 75.7181 21.5058C76.2056 20.9771 76.3213 20.2227 76.0011 19.6606C75.7124 19.1542 75.206 18.9507 74.5193 19.0655ZM77.8554 19.0566C77.4084 19.1287 77.2067 19.2428 76.883 19.6064C76.5861 19.94 76.4789 20.3425 76.5493 20.8599C76.6488 21.5922 77.1863 21.97 78.0591 21.9215C78.7107 21.8853 78.7992 21.7995 78.8851 21.1207C78.9183 20.8588 78.9662 20.5914 78.9914 20.5264C79.0284 20.4314 78.9299 20.4132 78.4894 20.4337C77.8951 20.4613 77.7411 20.6124 78.2636 20.655C78.6127 20.6836 78.6263 20.7155 78.5311 21.284C78.4842 21.5631 78.4432 21.6065 78.1799 21.6552C78.0159 21.6856 77.7289 21.6652 77.5422 21.61C76.6791 21.355 76.6337 20.0523 77.4686 19.501C77.7153 19.3381 77.8546 19.3082 78.2421 19.3348C78.5021 19.3527 78.7826 19.3977 78.8652 19.4349C78.9823 19.4874 79.0157 19.4632 79.0157 19.3254C79.0157 19.152 78.935 19.1139 78.3925 19.0307C78.2862 19.0145 78.0445 19.0261 77.8554 19.0566ZM81.2503 19.0404C80.9094 19.0958 80.6487 19.3888 80.6487 19.7166C80.6487 20.1169 80.7655 20.2931 81.1962 20.5421C81.7832 20.8813 81.896 21.0397 81.768 21.3444C81.7095 21.4839 81.5867 21.6215 81.4952 21.6501C81.2908 21.7141 80.6675 21.6175 80.601 21.5115C80.5139 21.3724 80.2909 21.4272 80.3208 21.5804C80.3622 21.7925 80.7171 21.9401 81.1888 21.9415C81.6735 21.943 81.9771 21.7732 82.0972 21.4333C82.2434 21.0195 82.103 20.7454 81.5547 20.3744C80.9074 19.9364 80.8331 19.8194 81.0218 19.5352C81.143 19.3528 81.2339 19.3147 81.548 19.3147C81.7569 19.3147 81.9516 19.3529 81.9808 19.3995C82.0621 19.5291 82.2816 19.5003 82.2816 19.3601C82.2816 19.1426 81.7106 18.9656 81.2503 19.0404ZM87.2236 19.0314C87.1291 19.051 86.9677 19.0846 86.865 19.1061C86.5813 19.1654 86.1625 19.5502 85.9642 19.9336C85.6098 20.6189 85.8987 21.5584 86.5461 21.8252C86.8814 21.9634 87.6364 21.9803 87.8739 21.855C88.0774 21.7476 88.1041 21.4765 87.9037 21.5524C86.6814 22.0151 85.752 21.0933 86.3246 19.9862C86.5782 19.4962 86.9394 19.3008 87.5244 19.3376C87.7844 19.354 88.0649 19.3977 88.1476 19.4349C88.264 19.4872 88.298 19.4634 88.298 19.3295C88.298 19.2344 88.2302 19.1383 88.1476 19.1159C87.8619 19.0386 87.3949 18.9959 87.2236 19.0314ZM42.4021 19.1876C42.4021 19.2815 42.5018 19.3147 42.7838 19.3147C42.9938 19.3147 43.1828 19.3433 43.2038 19.3783C43.2249 19.4133 43.1546 19.976 43.0476 20.6288C42.9406 21.2815 42.8698 21.8442 42.8905 21.8792C42.9111 21.9142 42.9806 21.9428 43.045 21.9428C43.177 21.9428 43.2049 21.8339 43.3918 20.5864C43.5983 19.2077 43.544 19.3147 44.0368 19.3147C44.36 19.3147 44.4649 19.2836 44.4649 19.1876C44.4649 19.0816 44.293 19.0604 43.4335 19.0604C42.574 19.0604 42.4021 19.0816 42.4021 19.1876ZM44.7326 20.2685C44.6241 20.9329 44.5146 21.5815 44.4894 21.7097C44.4514 21.9024 44.4736 21.9428 44.6183 21.9428C44.7678 21.9428 44.8078 21.8568 44.8946 21.3494L44.9961 20.7559H45.2881C45.5633 20.7559 45.5973 20.7898 45.883 21.3494C46.1052 21.7848 46.2314 21.9428 46.3568 21.9428C46.4508 21.9428 46.5276 21.9195 46.5276 21.8909C46.5276 21.8624 46.3922 21.5918 46.2267 21.2895C45.9328 20.753 45.9101 20.5864 46.1309 20.5864C46.2832 20.5864 46.5799 20.2451 46.6402 20.0007C46.7131 19.7052 46.4894 19.2437 46.2253 19.1447C46.1018 19.0983 45.7598 19.0604 45.4654 19.0604H44.93L44.7326 20.2685ZM47.5683 20.464C47.1244 21.2331 46.7843 21.8852 46.8126 21.913C46.9209 22.0199 47.1286 21.8525 47.3009 21.5194L47.4802 21.1725L48.7043 21.2222L48.8003 21.5606C48.89 21.877 49.192 22.1 49.192 21.8499C49.192 21.6535 48.4813 19.0604 48.4281 19.0629C48.3992 19.0644 48.0122 19.6949 47.5683 20.464ZM55.2083 19.264C55.2083 19.4577 54.9171 21.2626 54.8202 21.6691C54.7893 21.7988 54.82 21.879 54.914 21.9146C55.1038 21.9865 55.1848 21.8295 55.2518 21.2599L55.3085 20.778L55.86 20.7343C56.5158 20.6824 56.7914 20.5259 56.9238 20.1304C57.0022 19.8962 56.9959 19.7773 56.8927 19.5334C56.7349 19.1609 56.4946 19.0604 55.7613 19.0604C55.2348 19.0604 55.2083 19.0702 55.2083 19.264ZM60.8418 19.1664C60.8232 19.2247 60.7248 19.8064 60.6229 20.4592C60.5211 21.112 60.4221 21.6952 60.4029 21.7553C60.3545 21.9065 60.6241 21.9935 60.7109 21.8547C60.7498 21.7927 60.808 21.518 60.8402 21.2443L60.8987 20.7468L61.212 20.7725C61.5065 20.7968 61.5422 20.8329 61.8047 21.3706C62.0117 21.7943 62.1287 21.9428 62.2559 21.9428C62.4853 21.9428 62.4776 21.9024 62.1201 21.2386L61.8125 20.6671L62.0702 20.5784C62.3407 20.4854 62.5997 20.0755 62.5997 19.7405C62.5997 19.639 62.4867 19.4445 62.3485 19.3082C62.1179 19.0808 62.047 19.0604 61.4864 19.0604C61.0728 19.0604 60.8645 19.0947 60.8418 19.1664ZM62.9435 19.1876C62.9435 19.2839 63.0493 19.3147 63.38 19.3147C63.8109 19.3147 63.816 19.3178 63.7677 19.5479C63.7407 19.676 63.6594 20.1625 63.587 20.6288C63.5146 21.095 63.4338 21.5815 63.4075 21.7097C63.3675 21.9044 63.3891 21.9428 63.5384 21.9428C63.6366 21.9428 63.717 21.9246 63.717 21.9023C63.717 21.8267 64.0633 19.6976 64.1068 19.5055C64.1445 19.3389 64.2043 19.3147 64.5781 19.3147C64.9014 19.3147 65.0063 19.2836 65.0063 19.1876C65.0063 19.0816 64.8344 19.0604 63.9749 19.0604C63.1154 19.0604 62.9435 19.0816 62.9435 19.1876ZM65.2705 20.2685C65.1646 20.9329 65.057 21.5815 65.0313 21.7097L64.9848 21.9428H65.769C66.496 21.9428 66.5533 21.9304 66.5533 21.7732C66.5533 21.6211 66.496 21.6037 65.9946 21.6037C65.3799 21.6037 65.4004 21.629 65.4901 20.9835L65.5443 20.5939L66.0634 20.5689C66.7622 20.5353 66.8545 20.332 66.171 20.332C65.6175 20.332 65.5789 20.2859 65.6743 19.7386L65.7408 19.3571L66.3337 19.3147C66.6987 19.2886 66.9402 19.2317 66.962 19.1664C66.9885 19.0869 66.8055 19.0604 66.2301 19.0604H65.4629L65.2705 20.2685ZM68.3582 19.1517C68.3582 19.2019 68.4987 19.5656 68.6705 19.96C68.9461 20.5927 68.9764 20.7307 68.9285 21.1332C68.8985 21.384 68.8507 21.6494 68.8221 21.7229C68.7722 21.8511 69.0004 22.0158 69.0966 21.9209C69.1204 21.8974 69.1807 21.62 69.2305 21.3045C69.3097 20.8025 69.3876 20.6397 69.8542 20.0016C70.5592 19.0373 70.5469 19.0604 70.3535 19.0604C70.2478 19.0604 70.0283 19.2854 69.7334 19.6962C69.4823 20.0459 69.2491 20.332 69.2152 20.332C69.1812 20.332 69.0422 20.0464 68.9062 19.6972C68.7296 19.2436 68.6161 19.0622 68.5086 19.0614C68.4259 19.0609 68.3582 19.1014 68.3582 19.1517ZM71.9671 19.124C71.9667 19.159 71.8703 19.7407 71.7531 20.4168C71.6359 21.0929 71.5395 21.7143 71.5391 21.7977C71.5383 21.9338 71.6156 21.9469 72.2903 21.9249C72.8905 21.9053 73.0423 21.8747 73.0423 21.7732C73.0423 21.6751 72.9082 21.6403 72.4539 21.6208C71.896 21.5969 71.8679 21.5859 71.9122 21.4089C71.938 21.3062 72.0203 20.8216 72.0953 20.332C72.1702 19.8425 72.2503 19.3561 72.2733 19.2511C72.3058 19.1027 72.2765 19.0604 72.1415 19.0604C72.0461 19.0604 71.9676 19.089 71.9671 19.124ZM79.8677 19.0816C79.8637 19.0932 79.7542 19.7264 79.6244 20.4885C79.4388 21.5789 79.412 21.8833 79.4988 21.9161C79.674 21.9824 79.7889 21.8667 79.7929 21.6199C79.7949 21.4944 79.8846 20.8672 79.9923 20.2261C80.1792 19.113 80.181 19.0604 80.0316 19.0604C79.9455 19.0604 79.8718 19.07 79.8677 19.0816ZM82.6254 19.1876C82.6254 19.2815 82.7251 19.3147 83.0071 19.3147C83.2171 19.3147 83.4055 19.3433 83.4259 19.3783C83.4462 19.4133 83.378 19.9893 83.2741 20.6583C83.1173 21.6677 83.1052 21.8823 83.2028 21.9192C83.2675 21.9437 83.3391 21.9453 83.3619 21.9228C83.393 21.8921 83.8287 19.4818 83.8287 19.3403C83.8287 19.3263 84.0221 19.3147 84.2584 19.3147C84.5831 19.3147 84.6882 19.2836 84.6882 19.1876C84.6882 19.0816 84.5163 19.0604 83.6568 19.0604C82.7973 19.0604 82.6254 19.0816 82.6254 19.1876ZM84.9518 20.3532C84.8413 21.0643 84.7329 21.6935 84.7107 21.7514C84.6713 21.8539 84.914 22.0026 84.9932 21.9245C85.039 21.8793 85.4608 19.4322 85.4614 19.2088C85.4615 19.1224 85.3972 19.0604 85.3072 19.0604C85.1739 19.0604 85.1249 19.2386 84.9518 20.3532ZM89.6738 19.4207C89.5622 19.6188 89.1888 20.25 88.8442 20.8232C88.3275 21.6822 88.2418 21.8746 88.3561 21.9179C88.4996 21.9722 88.5751 21.8963 88.8311 21.4405C88.9731 21.1879 88.9962 21.1798 89.5819 21.1798H90.1863L90.2837 21.5613C90.3585 21.8541 90.421 21.9428 90.5528 21.9428C90.6735 21.9428 90.7132 21.8988 90.6864 21.7944C90.2216 19.9845 89.9644 19.0606 89.9253 19.0605C89.8986 19.0605 89.7854 19.2226 89.6738 19.4207ZM46.1501 19.5281C46.5469 19.9195 46.2254 20.3899 45.5034 20.4742L45.0465 20.5275L45.1093 19.9847C45.1438 19.6861 45.1892 19.4133 45.2103 19.3783C45.2313 19.3433 45.4027 19.3147 45.5911 19.3147C45.8426 19.3147 45.9913 19.3715 46.1501 19.5281ZM56.4429 19.4905C56.6933 19.6847 56.7167 19.7977 56.5716 20.1119C56.462 20.3491 56.1047 20.5016 55.6584 20.5016H55.3606L55.4195 20.0989C55.5326 19.3258 55.5393 19.3147 55.8936 19.3147C56.0901 19.3147 56.3051 19.3835 56.4429 19.4905ZM59.3151 19.4471C59.7632 19.7567 59.8775 20.3729 59.599 20.9778C59.3307 21.5606 58.7805 21.8013 58.1706 21.6028C57.9281 21.5238 57.8187 21.4196 57.6942 21.1493C57.6053 20.9563 57.5326 20.7029 57.5326 20.5864C57.5326 20.2691 57.8198 19.7072 58.0883 19.4988C58.3758 19.2756 59.0272 19.2482 59.3151 19.4471ZM62.1415 19.5318C62.4398 19.9343 62.1568 20.3703 61.5377 20.4618C61.0643 20.5319 60.944 20.468 60.9989 20.1756C61.0221 20.0519 61.0657 19.8029 61.0957 19.6224L61.1503 19.2943L61.5886 19.3358C61.8773 19.3631 62.0661 19.4301 62.1415 19.5318ZM75.3872 19.4471C75.8381 19.7585 75.9496 20.3728 75.6668 20.9873C75.3277 21.7242 74.4314 21.9142 73.926 21.3564C73.7256 21.135 73.6869 21.0165 73.6869 20.6233C73.6869 19.7991 74.0978 19.3147 74.7967 19.3147C75.0192 19.3147 75.2805 19.3733 75.3872 19.4471ZM48.4984 20.2963C48.5573 20.5563 48.581 20.7933 48.551 20.823C48.4681 20.9047 47.8192 20.9132 47.7691 20.8332C47.7183 20.752 48.2313 19.8234 48.327 19.8234C48.3622 19.8234 48.4393 20.0362 48.4984 20.2963ZM89.9828 20.3374C90.0407 20.5909 90.0689 20.8174 90.0453 20.8407C89.9763 20.9091 89.2434 20.8933 89.2434 20.8234C89.2434 20.666 89.7187 19.8242 89.7937 19.8489C89.8398 19.8641 89.9249 20.0838 89.9828 20.3374Z" fill="#144A79"/>
<path d="M21.2897 9L21.0609 11.2569L23.3596 12.6111L24.951 11.2569L21.2897 9Z" fill="#3999CC"/>
</svg>
