<svg width="137" height="24" viewBox="0 0 137 24" fill="none" xmlns="http://www.w3.org/2000/svg">
<path fill-rule="evenodd" clip-rule="evenodd" d="M25.4371 2.47431C24.135 2.6795 22.919 3.26312 21.9171 4.16399C20.8195 5.15094 20.2174 6.18922 19.8946 7.65243C19.298 10.356 20.4265 12.8243 22.7147 13.8202C24.4407 14.5714 27.3955 14.6611 28.8375 14.0061C29.2511 13.8183 29.3209 13.6693 29.512 12.5661C29.6293 11.8893 29.6977 11.3094 29.6642 11.2774C29.6304 11.2454 29.3123 11.3515 28.9571 11.5134C27.3369 12.2508 25.1169 12.0518 24.0919 11.0773C22.3646 9.43523 23.0623 6.2476 25.3854 5.16706C26.627 4.58954 28.3282 4.57483 29.5109 5.13122L30.3253 5.51435L30.5117 4.55229C30.7841 3.14699 30.7594 2.98328 30.2455 2.78827C28.9725 2.30528 27.2306 2.19165 25.4371 2.47431ZM107.663 2.43111C106.174 2.80517 105.091 3.71794 104.762 4.87595C104.664 5.21887 104.614 5.93818 104.649 6.47438C104.742 7.85918 105.25 8.42136 107.274 9.3792C109.064 10.2269 109.395 10.6106 108.987 11.3622C108.683 11.9205 108.458 11.9996 107.176 11.9996C106.328 11.9996 105.94 11.9043 105.043 11.4755C104.441 11.1872 103.923 10.9934 103.892 11.0451C103.862 11.0966 103.785 11.491 103.721 11.9214C103.658 12.3518 103.566 12.8628 103.518 13.0569C103.442 13.3607 103.552 13.4625 104.311 13.7876C106.164 14.5806 108.852 14.6187 110.389 13.8734C112.006 13.0891 112.828 10.7232 112.046 9.10422C111.64 8.26423 111.396 8.08236 109.454 7.16929C108.121 6.54294 107.765 6.30473 107.68 5.98107C107.543 5.46255 107.815 4.98348 108.357 4.78768C108.927 4.5814 110.62 4.76577 111.512 5.13106C111.908 5.29352 112.253 5.42624 112.279 5.42624C112.387 5.42624 112.704 3.23479 112.616 3.09941C112.29 2.59842 108.847 2.13375 107.663 2.43111ZM32.9571 2.55319C32.8664 2.69264 32.6754 3.76739 31.4736 10.9041L30.9333 14.1125L32.4896 14.1576C33.381 14.1834 34.0885 14.1374 34.1454 14.0496C34.2002 13.9654 34.3868 13.0437 34.56 12.0015L34.8749 10.1063L36.1789 10.1998L38.02 14.1908H39.7272C41.0275 14.1908 41.4147 14.1441 41.3517 13.9951C41.3061 13.8876 40.7998 12.8188 40.2266 11.6203C39.6127 10.3363 39.2582 9.41755 39.3641 9.3839C39.4628 9.3526 39.8762 9.1266 40.2826 8.8815C42.1123 7.77842 42.483 4.87032 40.9668 3.51729C40.0657 2.7133 39.4339 2.57949 36.1147 2.49012C34.3035 2.44144 33.0129 2.46711 32.9571 2.55319ZM44.0292 2.854C43.941 3.07484 43.8679 3.37408 43.8667 3.51917C43.8656 3.66425 43.6433 5.04936 43.3728 6.59709C42.6353 10.8166 42.725 11.8818 43.9183 13.0735C44.733 13.8873 45.6907 14.2171 47.5013 14.3077C50.3009 14.4476 51.9007 13.7144 52.8792 11.8431C53.3373 10.9665 53.5024 10.283 54.0727 6.90197C54.4366 4.74401 54.7344 2.85995 54.7344 2.71534C54.7344 2.49012 54.5362 2.45255 53.3447 2.45255C52.5803 2.45255 51.9159 2.51281 51.868 2.58653C51.8201 2.66024 51.4804 4.47388 51.1133 6.61665C50.4222 10.6502 50.3216 10.9465 49.4288 11.5804C48.8755 11.9729 47.3796 11.9863 46.7659 11.6041C45.9767 11.1124 45.92 10.4668 46.4149 7.60172C47.1842 3.14714 47.2667 2.60484 47.1855 2.52784C47.1421 2.48636 46.4503 2.45255 45.6482 2.45255C44.2342 2.45255 44.185 2.46476 44.0292 2.854ZM56.4823 2.88296C56.4332 3.1196 56.345 3.64782 56.2859 4.05678L56.1787 4.8002H58.5021C59.7802 4.8002 60.8257 4.83901 60.8257 4.88644C60.8257 4.93386 59.3691 6.74749 57.5888 8.91656C53.7257 13.6231 54.1438 13.0647 54.0209 13.6821L53.9195 14.1908H63.9159L64.0321 13.3054C64.0961 12.8185 64.1867 12.3255 64.2334 12.2098C64.3021 12.0394 63.8334 11.9996 61.7585 11.9996C60.3508 11.9996 59.1658 11.9469 59.1253 11.8823C59.0848 11.8176 60.0037 10.6028 61.1675 9.18247C65.6903 3.66253 65.5778 3.81309 65.6952 3.11616L65.8068 2.45255H56.5715L56.4823 2.88296ZM70.6234 2.64819C70.5851 2.75587 70.4024 3.82984 70.2173 5.03497C70.0324 6.24009 69.6233 8.74033 69.3082 10.5911C68.9931 12.4418 68.7336 14.0088 68.7317 14.0734C68.7246 14.3008 74.8393 14.2002 75.9338 13.9548C78.8221 13.3074 80.4618 11.5736 80.9376 8.66427C81.109 7.61675 81.0966 7.30342 80.8434 6.28297C80.5942 5.2774 80.436 4.98707 79.747 4.27041C78.7477 3.23103 77.7946 2.82395 75.8684 2.61423C73.7463 2.38307 70.711 2.40279 70.6234 2.64819ZM83.4705 2.64819C83.3885 2.89829 83.1111 4.46684 82.8134 6.3653C82.685 7.18306 82.3526 9.21284 82.0747 10.8759C81.7966 12.5388 81.5693 13.9651 81.5693 14.0452C81.5693 14.131 83.2187 14.1908 85.5873 14.1908H89.6053L89.7149 13.3691C89.7753 12.9173 89.8613 12.4241 89.9062 12.2735C89.9811 12.0216 89.7938 11.9996 87.5683 11.9996H85.1487L85.258 11.178C85.3181 10.7261 85.41 10.1275 85.4622 9.84764L85.5572 9.33898H89.6212L89.7111 8.7912C89.7605 8.48992 89.8412 7.99691 89.8906 7.69563L89.9805 7.14785H85.9719L86.0848 6.19815C86.2628 4.70364 86.0855 4.8002 88.6491 4.8002H90.9195L91.101 3.80918C91.2009 3.26421 91.2825 2.73599 91.2825 2.63536C91.2825 2.36272 83.5598 2.3754 83.4705 2.64819ZM93.3766 2.5643C93.2342 2.80439 93.1019 3.52731 92.2792 8.55643C91.8217 11.354 91.4172 13.7663 91.3803 13.9169C91.3181 14.1717 91.5802 14.1908 95.1489 14.1908H98.9845L99.0755 13.8386C99.1256 13.6449 99.2171 13.1167 99.2792 12.6648L99.392 11.8431H95.0269L95.1399 11.178C96.1221 5.38555 96.4194 3.53638 96.4416 3.07859L96.4684 2.53081L94.9591 2.48605C94.1289 2.46132 93.4168 2.49653 93.3766 2.5643ZM114.987 2.56994C114.986 2.63442 114.761 3.95505 114.488 5.50449C113.869 9.01031 113.718 10.9482 113.999 11.7575C114.113 12.0853 114.474 12.6359 114.802 12.981C115.689 13.9144 116.565 14.2191 118.611 14.3055C120.084 14.3678 120.474 14.3305 121.245 14.0531C123.431 13.2674 124.152 12.0851 124.79 8.24341C125.025 6.82309 125.324 5.04467 125.454 4.29154C125.799 2.29245 125.9 2.45255 124.301 2.45255C123.536 2.45255 122.866 2.52205 122.811 2.60703C122.756 2.69186 122.53 3.83641 122.309 5.15031C121.568 9.55903 121.391 10.3821 121.078 10.8706C120.605 11.6099 120.046 11.8852 119.034 11.8766C117.913 11.8671 117.352 11.5329 117.128 10.7408C116.956 10.1336 117.015 9.65513 117.922 4.36855C118.088 3.39944 118.188 2.57182 118.143 2.52956C118.011 2.40357 114.99 2.44223 114.987 2.56994ZM127.753 2.62628C127.706 2.74601 127.366 4.67499 126.998 6.91308C126.629 9.15117 126.222 11.6162 126.094 12.3909C125.966 13.1656 125.86 13.8876 125.858 13.9951C125.856 14.1388 126.293 14.1908 127.501 14.1908H129.148L129.155 13.7604C129.159 13.5237 129.289 12.6257 129.445 11.7649L129.728 10.1998L131.041 10.112L131.607 11.4079C131.918 12.1208 132.345 13.0384 132.556 13.4474L132.94 14.1908H134.583C135.487 14.1908 136.227 14.1563 136.227 14.1144C136.227 14.0725 135.745 13.0343 135.157 11.8075C134.568 10.5806 134.087 9.52335 134.087 9.45793C134.087 9.39251 134.187 9.33898 134.309 9.33898C134.798 9.33898 135.905 8.37629 136.331 7.57966C136.927 6.46625 136.947 5.32091 136.389 4.25242C136.046 3.59664 135.826 3.39662 135.027 3.01708C134.101 2.57682 133.988 2.56211 130.956 2.48652C128.39 2.42266 127.823 2.44739 127.753 2.62628ZM6.62104 9.22708L1.72325 13.7995L1.21849 16.9064C0.940922 18.6152 0.75275 20.0503 0.800328 20.0956C0.928576 20.2177 15.0732 6.95581 15.0093 6.77348C14.9677 6.655 11.649 4.62241 11.5409 4.64917C11.5287 4.6523 9.31473 6.71228 6.62104 9.22708ZM38.3934 5.14875C38.6621 5.38883 38.7651 5.65866 38.7651 6.12302C38.7651 7.315 37.8982 7.93039 36.2186 7.93039C35.1582 7.93039 35.1902 8.0207 35.5548 6.05228C35.6903 5.32059 35.8014 4.69456 35.8016 4.66122C35.8016 4.62773 36.3013 4.64917 36.9117 4.70864C37.7056 4.78596 38.1274 4.91116 38.3934 5.14875ZM133.109 4.96203C133.26 5.03856 133.477 5.31653 133.591 5.57962C133.859 6.1947 133.55 7.04768 132.888 7.51752C132.317 7.92257 130.135 8.10882 130.136 7.75244C130.136 7.35898 130.614 4.94998 130.726 4.77798C130.85 4.58782 132.647 4.72648 133.109 4.96203ZM76.2757 5.17896C77.0926 5.58056 77.5159 6.30081 77.5906 7.4161C77.7191 9.33428 77.0299 10.7845 75.6829 11.4309C74.8774 11.8175 72.6272 12.1432 72.467 11.8963C72.4201 11.824 72.5536 10.7789 72.7635 9.57375C72.9736 8.36862 73.2356 6.7921 73.346 6.07043L73.5466 4.75826L74.6646 4.84747C75.2794 4.89645 76.0044 5.04561 76.2757 5.17896ZM115.97 17.4866C115.773 17.7497 115.654 18.0049 115.705 18.0536C115.875 18.2146 116.26 17.9786 116.627 17.4899C116.98 17.018 116.981 17.008 116.658 17.008C116.477 17.008 116.168 17.2233 115.97 17.4866ZM57.971 21.0908C57.7159 22.5617 57.5466 23.803 57.5952 23.8492C57.6437 23.8953 57.7894 23.8944 57.919 23.8471C58.0795 23.7886 58.2507 23.1599 58.457 21.8715C58.6235 20.8321 58.8055 19.9816 58.8615 19.9816C58.9177 19.9816 59.6099 20.9041 60.3998 22.0314C61.1899 23.1589 61.8756 24.044 61.9237 23.9983C62.0165 23.91 62.7998 19.3099 62.8008 18.8469C62.8017 18.446 62.3267 18.5122 62.2391 18.9252C62.1979 19.119 62.029 20.0169 61.8637 20.9207L61.5631 22.5641L60.0833 20.4962C59.2691 19.3589 58.5653 18.4256 58.5193 18.4225C58.473 18.4192 58.2264 19.6199 57.971 21.0908ZM64.9063 18.5424C64.6579 18.5704 64.2741 18.8022 64.042 19.0645C63.3033 19.899 63.525 20.5074 64.865 21.3223C65.9048 21.9546 66.186 22.3429 65.9313 22.7952C65.5447 23.482 64.7049 23.6003 63.7331 23.1053L63.1059 22.7857L63.1594 23.1405C63.3001 24.0742 65.6534 24.1777 66.3768 23.282C66.6222 22.978 66.6473 22.1012 66.4219 21.7011C66.3307 21.5389 65.8462 21.1738 65.3452 20.8897C64.3209 20.3084 64.0726 19.8361 64.5359 19.3493C64.8704 18.998 66.0653 18.9214 66.3903 19.2304C66.5439 19.3764 66.6318 19.3764 66.7854 19.2304C66.9311 19.0919 66.9347 18.9967 66.7986 18.8673C66.5748 18.6546 65.5191 18.4734 64.9063 18.5424ZM74.3708 18.5768C73.0416 18.8562 72.1084 20.0104 72.1084 21.3755C72.1084 22.9536 73.0414 23.8947 74.6054 23.8941C75.646 23.8938 76.4269 23.5001 77.0378 22.668C77.4647 22.0862 77.5358 21.8475 77.5358 20.9969C77.5358 20.2388 77.4556 19.9026 77.1964 19.5724C76.4949 18.6792 75.5196 18.3355 74.3708 18.5768ZM105.224 18.5824C104.336 18.7255 103.783 19.1629 103.248 20.1461C102.713 21.1282 102.73 21.9998 103.303 22.8807C104.129 24.1514 106.396 24.2625 107.521 23.0876C108.454 22.1116 108.676 20.7188 108.063 19.6811C107.51 18.7461 106.54 18.3705 105.224 18.5824ZM111.615 18.566C110.758 18.6992 110.372 18.9097 109.752 19.581C109.183 20.1968 108.978 20.9399 109.113 21.8953C109.303 23.2471 110.333 23.9446 112.005 23.8551C113.253 23.7883 113.422 23.6299 113.587 22.3767C113.651 21.8932 113.742 21.3995 113.791 21.2794C113.861 21.1041 113.673 21.0705 112.829 21.1084C111.691 21.1594 111.396 21.4383 112.397 21.517C113.065 21.5697 113.091 21.6286 112.909 22.6781C112.819 23.1934 112.741 23.2735 112.236 23.3635C111.922 23.4195 111.372 23.382 111.015 23.2801C109.361 22.8091 109.274 20.4042 110.874 19.3864C111.346 19.0858 111.613 19.0305 112.355 19.0797C112.853 19.1127 113.391 19.1958 113.549 19.2644C113.773 19.3614 113.837 19.3166 113.837 19.0623C113.837 18.7422 113.682 18.6718 112.643 18.5183C112.44 18.4882 111.977 18.5097 111.615 18.566ZM118.117 18.5361C117.465 18.6383 116.965 19.1794 116.965 19.7844C116.965 20.5235 117.189 20.8489 118.014 21.3085C119.138 21.9347 119.354 22.2271 119.109 22.7896C118.997 23.0472 118.762 23.3012 118.587 23.3541C118.195 23.4721 117.001 23.2939 116.874 23.0982C116.707 22.8414 116.28 22.9425 116.337 23.2253C116.416 23.6169 117.096 23.8894 118 23.892C118.928 23.8949 119.51 23.5812 119.74 22.9538C120.02 22.1898 119.751 21.6838 118.701 20.999C117.461 20.1903 117.318 19.9743 117.68 19.4497C117.912 19.1129 118.086 19.0426 118.688 19.0426C119.088 19.0426 119.461 19.113 119.517 19.1991C119.672 19.4384 120.093 19.3852 120.093 19.1263C120.093 18.7249 118.999 18.3981 118.117 18.5361ZM129.559 18.5195C129.378 18.5557 129.069 18.6177 128.872 18.6574C128.329 18.7668 127.527 19.4772 127.147 20.1851C126.468 21.4503 127.022 23.1848 128.262 23.6773C128.904 23.9324 130.35 23.9637 130.805 23.7324C131.195 23.5341 131.246 23.0336 130.862 23.1737C128.521 24.0279 126.741 22.3262 127.837 20.2823C128.323 19.3775 129.015 19.0169 130.136 19.0848C130.634 19.115 131.171 19.1958 131.329 19.2644C131.552 19.3609 131.617 19.3171 131.617 19.0698C131.617 18.8944 131.488 18.7169 131.329 18.6756C130.782 18.5328 129.887 18.4539 129.559 18.5195ZM43.7041 18.8078C43.7041 18.9812 43.8951 19.0426 44.4352 19.0426C44.8374 19.0426 45.1994 19.0953 45.2398 19.16C45.2801 19.2246 45.1454 20.2634 44.9405 21.4685C44.7355 22.6736 44.6 23.7124 44.6395 23.777C44.679 23.8416 44.8122 23.8944 44.9355 23.8944C45.1884 23.8944 45.2417 23.6933 45.5998 21.3902C45.9953 18.8451 45.8914 19.0426 46.8352 19.0426C47.4544 19.0426 47.6552 18.9851 47.6552 18.8078C47.6552 18.6122 47.326 18.5731 45.6797 18.5731C44.0333 18.5731 43.7041 18.6122 43.7041 18.8078ZM48.1681 20.8033C47.9603 22.0299 47.7506 23.2273 47.7022 23.464C47.6294 23.8199 47.672 23.8944 47.9491 23.8944C48.2356 23.8944 48.3121 23.7357 48.4784 22.7988L48.6728 21.7032H49.2321C49.7594 21.7032 49.8244 21.7657 50.3716 22.7988C50.7974 23.6026 51.0391 23.8944 51.2793 23.8944C51.4592 23.8944 51.6064 23.8513 51.6064 23.7986C51.6064 23.746 51.3471 23.2464 51.03 22.6883C50.4671 21.6978 50.4237 21.3902 50.8466 21.3902C51.1382 21.3902 51.7066 20.7601 51.8221 20.3091C51.9617 19.7635 51.5333 18.9114 51.0274 18.7286C50.7908 18.643 50.1357 18.5731 49.5717 18.5731H48.5462L48.1681 20.8033ZM53.5999 21.1642C52.7496 22.5842 52.0981 23.7881 52.1523 23.8394C52.3597 24.0368 52.7577 23.7277 53.0876 23.1128L53.4312 22.4723L55.7758 22.5641L55.9597 23.1888C56.1316 23.7729 56.71 24.1846 56.71 23.7228C56.71 23.3604 55.3486 18.5731 55.2469 18.5777C55.1914 18.5804 54.4502 19.7444 53.5999 21.1642ZM68.2341 18.9488C68.2341 19.3065 67.6764 22.6387 67.4908 23.3892C67.4316 23.6285 67.4903 23.7767 67.6705 23.8424C68.0341 23.975 68.1892 23.6853 68.3175 22.6337L68.4261 21.7439L69.4826 21.6633C70.7387 21.5676 71.2667 21.2786 71.5202 20.5484C71.6703 20.1161 71.6583 19.8965 71.4606 19.4462C71.1583 18.7585 70.698 18.5731 69.2936 18.5731C68.285 18.5731 68.2341 18.5911 68.2341 18.9488ZM79.0251 18.7687C78.9895 18.8764 78.801 19.9503 78.6059 21.1555C78.4108 22.3606 78.2212 23.4374 78.1845 23.5482C78.0918 23.8274 78.6081 23.988 78.7745 23.7318C78.8489 23.6172 78.9604 23.1101 79.0221 22.6049L79.1342 21.6863L79.7343 21.7339C80.2983 21.7787 80.3668 21.8454 80.8696 22.8379C81.266 23.6203 81.4903 23.8944 81.7339 23.8944C82.1733 23.8944 82.1585 23.8199 81.4738 22.5943L80.8846 21.5392L81.3782 21.3755C81.8962 21.2038 82.3924 20.4471 82.3924 19.8286C82.3924 19.6412 82.176 19.2822 81.9112 19.0305C81.4695 18.6108 81.3337 18.5731 80.2598 18.5731C79.4676 18.5731 79.0687 18.6363 79.0251 18.7687ZM83.051 18.8078C83.051 18.9856 83.2536 19.0426 83.8871 19.0426C84.7124 19.0426 84.7221 19.0482 84.6296 19.473C84.5779 19.7096 84.4222 20.6077 84.2836 21.4685C84.145 22.3293 83.9902 23.2273 83.9398 23.464C83.8631 23.8235 83.9044 23.8944 84.1904 23.8944C84.3786 23.8944 84.5327 23.8607 84.5327 23.8196C84.5327 23.6801 85.196 19.7494 85.2793 19.3947C85.3515 19.0872 85.466 19.0426 86.1821 19.0426C86.8013 19.0426 87.0021 18.9851 87.0021 18.8078C87.0021 18.6122 86.6729 18.5731 85.0266 18.5731C83.3802 18.5731 83.051 18.6122 83.051 18.8078ZM87.5082 20.8033C87.3054 22.0299 87.0993 23.2273 87.0502 23.464L86.961 23.8944H88.4632C89.8557 23.8944 89.9655 23.8715 89.9655 23.5814C89.9655 23.3004 89.8557 23.2683 88.8954 23.2683C87.7178 23.2683 87.7571 23.3151 87.929 22.1233L88.0327 21.4042L89.0271 21.358C90.3655 21.296 90.5424 20.9207 89.2332 20.9207C88.173 20.9207 88.0991 20.8356 88.2818 19.8251L88.4091 19.1208L89.5449 19.0426C90.2441 18.9944 90.7065 18.8892 90.7483 18.7687C90.7992 18.622 90.4485 18.5731 89.3465 18.5731H87.8768L87.5082 20.8033ZM93.4228 18.7416C93.4228 18.8343 93.6919 19.5057 94.021 20.2338C94.5488 21.402 94.6069 21.6566 94.5151 22.3997C94.4578 22.8628 94.3661 23.3527 94.3114 23.4884C94.2158 23.7252 94.6529 24.0291 94.8371 23.854C94.8827 23.8107 94.9983 23.2986 95.0936 22.716C95.2454 21.7892 95.3945 21.4887 96.2883 20.3106C97.6388 18.5305 97.6153 18.5731 97.2447 18.5731C97.0422 18.5731 96.6219 18.9884 96.0569 19.7469C95.576 20.3925 95.1293 20.9207 95.0643 20.9207C94.9993 20.9207 94.7329 20.3934 94.4724 19.7488C94.1341 18.9113 93.9168 18.5763 93.7109 18.5749C93.5525 18.574 93.4228 18.6488 93.4228 18.7416ZM100.336 18.6904C100.335 18.7551 100.15 19.829 99.9257 21.0772C99.7011 22.3254 99.5166 23.4726 99.5158 23.6266C99.5143 23.8778 99.6623 23.9019 100.955 23.8614C102.104 23.8252 102.395 23.7687 102.395 23.5814C102.395 23.4001 102.138 23.336 101.268 23.3C100.199 23.2558 100.145 23.2355 100.23 22.9087C100.28 22.7192 100.438 21.8245 100.581 20.9207C100.725 20.0169 100.878 19.119 100.922 18.9252C100.984 18.6511 100.928 18.5731 100.67 18.5731C100.487 18.5731 100.337 18.6258 100.336 18.6904ZM115.469 18.6122C115.461 18.6336 115.252 19.8026 115.003 21.2096C114.648 23.2226 114.596 23.7845 114.762 23.8451C115.098 23.9675 115.318 23.7538 115.326 23.2982C115.33 23.0666 115.501 21.9087 115.708 20.7251C116.066 18.6701 116.069 18.5731 115.783 18.5731C115.618 18.5731 115.477 18.5907 115.469 18.6122ZM120.752 18.8078C120.752 18.9812 120.943 19.0426 121.483 19.0426C121.885 19.0426 122.246 19.0953 122.285 19.16C122.324 19.2246 122.193 20.2879 121.994 21.5229C121.694 23.3865 121.671 23.7826 121.858 23.8509C121.981 23.8961 122.119 23.8991 122.162 23.8575C122.222 23.8008 123.056 19.3511 123.056 19.0898C123.056 19.0639 123.427 19.0426 123.88 19.0426C124.502 19.0426 124.703 18.9851 124.703 18.8078C124.703 18.6122 124.373 18.5731 122.727 18.5731C121.081 18.5731 120.752 18.6122 120.752 18.8078ZM125.208 20.9598C124.996 22.2725 124.788 23.4341 124.746 23.541C124.67 23.7304 125.135 24.0049 125.287 23.8606C125.375 23.7772 126.183 19.2595 126.184 18.8469C126.184 18.6875 126.061 18.5731 125.888 18.5731C125.633 18.5731 125.539 18.902 125.208 20.9598ZM134.253 19.2382C134.039 19.604 133.324 20.7692 132.663 21.8274C131.674 23.4133 131.51 23.7685 131.729 23.8484C132.003 23.9487 132.148 23.8086 132.638 22.9671C132.91 22.5007 132.955 22.4858 134.077 22.4858H135.234L135.421 23.1901C135.564 23.7307 135.684 23.8944 135.936 23.8944C136.168 23.8944 136.244 23.8132 136.192 23.6205C135.302 20.2792 134.809 18.5734 134.734 18.5732C134.683 18.5732 134.466 18.8725 134.253 19.2382ZM50.8833 19.4365C51.6434 20.1591 51.0275 21.0274 49.6445 21.1832L48.7695 21.2816L48.8896 20.2795C48.9557 19.7283 49.0427 19.2246 49.0831 19.16C49.1234 19.0953 49.4517 19.0426 49.8126 19.0426C50.2943 19.0426 50.5791 19.1474 50.8833 19.4365ZM70.5991 19.367C71.0786 19.7256 71.1236 19.9342 70.8455 20.5142C70.6356 20.9522 69.9513 21.2337 69.0963 21.2337H68.526L68.6388 20.4903C68.8555 19.0631 68.8683 19.0426 69.5469 19.0426C69.9233 19.0426 70.3352 19.1695 70.5991 19.367ZM76.1007 19.2869C76.9591 19.8585 77.1781 20.9961 76.6445 22.1128C76.1307 23.1888 75.0767 23.6332 73.9085 23.2666C73.4441 23.1209 73.2343 22.9284 72.9959 22.4295C72.8257 22.0731 72.6864 21.6054 72.6864 21.3902C72.6864 20.8046 73.2365 19.7671 73.7508 19.3824C74.3016 18.9704 75.5494 18.9197 76.1007 19.2869ZM81.5146 19.4432C82.0861 20.1864 81.5439 20.9913 80.3581 21.1603C79.4513 21.2896 79.221 21.1717 79.326 20.6319C79.3705 20.4034 79.4539 19.9438 79.5116 19.6106L79.6161 19.0049L80.4557 19.0816C81.0086 19.1319 81.3703 19.2556 81.5146 19.4432ZM106.887 19.2869C107.75 19.8619 107.964 20.996 107.422 22.1304C106.773 23.4909 105.056 23.8416 104.088 22.8118C103.704 22.4032 103.63 22.1844 103.63 21.4583C103.63 19.9367 104.417 19.0426 105.756 19.0426C106.182 19.0426 106.682 19.1507 106.887 19.2869ZM55.3814 20.8547C55.4943 21.3347 55.5398 21.7723 55.4821 21.827C55.3234 21.9779 54.0805 21.9936 53.9845 21.846C53.8872 21.696 54.8699 19.9816 55.0531 19.9816C55.1206 19.9816 55.2683 20.3745 55.3814 20.8547ZM134.844 20.9306C134.955 21.3985 135.009 21.8167 134.964 21.8598C134.832 21.9861 133.428 21.9569 133.428 21.8278C133.428 21.5372 134.339 19.9832 134.482 20.0287C134.571 20.0568 134.734 20.4624 134.844 20.9306Z" fill="#144A79"/>
<path d="M3.26347 0L2.82515 4.16667L7.22822 6.66667L10.2765 4.16667L3.26347 0Z" fill="#3999CC"/>
</svg>
