<svg width="112" height="32" viewBox="0 0 112 32" fill="none" xmlns="http://www.w3.org/2000/svg">
<path fill-rule="evenodd" clip-rule="evenodd" d="M66.1586 18.0921C66.1586 22.019 62.9592 25.2023 59.0125 25.2023C55.0658 25.2023 51.8663 22.019 51.8663 18.0921C51.8663 14.1653 55.0658 10.9819 59.0125 10.9819C62.9592 10.9819 66.1586 14.1653 66.1586 18.0921ZM59.0125 24.0647C62.3277 24.0647 65.0153 21.3907 65.0153 18.0921C65.0153 14.7936 62.3277 12.1196 59.0125 12.1196C55.6972 12.1196 53.0097 14.7936 53.0097 18.0921C53.0097 21.3907 55.6972 24.0647 59.0125 24.0647Z" fill="#00ACB6"/>
<path fill-rule="evenodd" clip-rule="evenodd" d="M62.7271 14.1102C62.7271 18.037 59.5277 21.2204 55.581 21.2204C51.6343 21.2204 48.4348 18.037 48.4348 14.1102C48.4348 10.1833 51.6343 7 55.581 7C59.5277 7 62.7271 10.1833 62.7271 14.1102Z" fill="#00ACB6"/>
<path fill-rule="evenodd" clip-rule="evenodd" d="M65.0134 25.0601V10.9819H71.445C72.2653 10.9819 73.4554 11.2356 74.4681 12.0169C75.5334 12.8387 76.3044 14.1721 76.3044 16.1013C76.3044 18.0325 75.5289 19.3435 74.4222 20.1126C73.4017 20.8218 72.2189 20.9889 71.4047 20.9362H71.1591V25.0601H65.0134ZM70.0157 19.7986H71.445C72.6836 19.8934 75.161 19.2866 75.161 16.1013C75.161 12.9159 72.6836 12.1196 71.445 12.1196H66.1568V23.9225H70.0157V19.7986Z" fill="#00ACB6"/>
<path fill-rule="evenodd" clip-rule="evenodd" d="M61.0105 21.0782V7H67.442C68.2624 7 69.4525 7.25371 70.4652 8.03494C71.5305 8.8568 73.3019 10.5551 74.5882 12.1193C74.5882 14.0505 71.526 15.3616 70.4193 16.1307C69.3988 16.8399 68.216 17.007 67.4018 16.9543H67.1562V21.0782H61.0105Z" fill="#00ACB6"/>
<path d="M66.1559 12.1206V23.9235H70.0148V19.7996H71.444C72.6827 19.8944 75.16 19.2877 75.16 16.1023C75.16 12.9169 72.6827 12.1206 71.444 12.1206H66.1559Z" fill="white"/>
<ellipse cx="59.0117" cy="18.0932" rx="6.00277" ry="5.97256" fill="white"/>
<path d="M35 7L48.5777 7L53.0083 11.4083V24.9177H38.5731L35 21.3626V7Z" fill="#00ACB6"/>
<path d="M39.3737 12.2159H44.0044V24.0224H39.3737V12.2159Z" fill="white"/>
<path d="M47.4774 12.2159H52.1081V24.0224H47.4774V12.2159Z" fill="white"/>
<path d="M44.0044 16.2474H47.7668V20.2789H44.0044V16.2474Z" fill="white"/>
<path d="M35.9006 7.89648H40.3866L43.5702 11.0641H39.0842L35.9006 7.89648Z" fill="white"/>
<path d="M44.0044 7.89648H48.4904L51.674 11.0641H47.188L44.0044 7.89648Z" fill="white"/>
<path d="M59.0094 14.9639C59.8433 14.9639 60.6431 15.2848 61.2328 15.8561C61.8225 16.4274 62.1537 17.2022 62.1537 18.0101C62.1537 19.0506 61.5682 19.9022 60.9512 20.5132C60.6429 20.815 60.3065 21.0888 59.9464 21.3309L59.7976 21.4291L59.7277 21.4741L59.596 21.5553L59.4786 21.6247L59.3333 21.7066C59.2346 21.761 59.123 21.7897 59.0094 21.7897C58.8959 21.7897 58.7843 21.761 58.6856 21.7066L58.5402 21.6247L58.3585 21.5164L58.2915 21.4741L58.1482 21.3817C57.7597 21.1269 57.3978 20.836 57.0676 20.5132C56.4507 19.9015 55.8651 19.0506 55.8651 18.0101C55.8651 17.2022 56.1964 16.4274 56.7861 15.8561C57.3757 15.2848 58.1755 14.9639 59.0094 14.9639ZM59.0094 16.9947C58.8718 16.9947 58.7355 17.021 58.6083 17.072C58.4812 17.123 58.3656 17.1978 58.2683 17.2921C58.171 17.3864 58.0938 17.4984 58.0411 17.6216C57.9884 17.7447 57.9613 17.8768 57.9613 18.0101C57.9613 18.1435 57.9884 18.2755 58.0411 18.3987C58.0938 18.5219 58.171 18.6339 58.2683 18.7281C58.3656 18.8224 58.4812 18.8972 58.6083 18.9483C58.7355 18.9993 58.8718 19.0256 59.0094 19.0256C59.2874 19.0256 59.554 18.9186 59.7505 18.7281C59.9471 18.5377 60.0575 18.2794 60.0575 18.0101C60.0575 17.7408 59.9471 17.4826 59.7505 17.2921C59.554 17.1017 59.2874 16.9947 59.0094 16.9947Z" fill="#E53A16"/>
</svg>
