<svg width="112" height="32" viewBox="0 0 112 32" fill="none" xmlns="http://www.w3.org/2000/svg">
<path fill-rule="evenodd" clip-rule="evenodd" d="M51.3468 10.0723C48.0051 10.5972 46.5618 12.4861 46.5765 16.3158C46.584 18.2987 47.0854 19.9439 48.021 21.0557C48.398 21.5038 49.5007 22.1018 50.4853 22.3924C51.5362 22.7024 54.1325 22.7057 55.1377 22.3984C56.6973 21.9215 57.5674 21.2999 58.113 20.273C58.7281 19.1154 58.9251 18.177 58.9312 16.377C58.9434 12.825 57.7683 10.9788 55.0189 10.2294C54.2162 10.0107 52.2695 9.92745 51.3468 10.0723ZM64.5221 10.38C61.862 10.9567 60.4673 12.9767 60.4735 16.2435C60.4789 19.0663 61.3952 20.908 63.2592 21.8434L64.0861 22.2584L67.3637 22.2964L70.6414 22.3343V21.3468V20.3592L68.1601 20.3585C65.5016 20.3578 64.9424 20.2741 64.2859 19.7784C63.6261 19.2804 63.3773 18.5583 63.3135 16.9568C63.2263 14.7628 63.568 13.5243 64.4649 12.7851C65.1173 12.2474 65.7074 12.1498 68.3063 12.1498H70.6414V11.1695V10.1893L67.9764 10.199C66.1879 10.2056 65.0517 10.265 64.5221 10.38ZM75.6739 14.3211C74.7015 16.5976 73.5344 19.3302 73.0802 20.3938L72.2545 22.3275L73.6127 22.293L74.9709 22.2584L75.4787 20.9106L75.9865 19.5628L78.7523 19.5299L81.518 19.497L81.7263 20.0201C81.8408 20.3076 82.1005 20.9428 82.3033 21.4314L82.6721 22.3197H84.0616H85.4512L84.9568 21.125C84.4915 20.001 84.1524 19.2213 81.8794 14.049C81.3759 12.9033 80.7955 11.58 80.5896 11.1083L80.2153 10.2506L78.8285 10.2164L77.4417 10.1823L75.6739 14.3211ZM29.6142 13.507C31.052 14.9948 32.2284 16.2545 32.2284 16.3064C32.2284 16.3584 31.106 17.581 29.734 19.0233L27.2394 21.6458L29.9178 21.6808L32.596 21.716L35.2668 19.012L37.9376 16.3082L35.2131 13.5551L32.4887 10.8019H29.7443H27L29.6142 13.507ZM34.3727 10.8733C34.3727 10.9125 35.5169 12.1276 36.9152 13.5734C38.3135 15.0194 39.4748 16.2517 39.4958 16.3121C39.5167 16.3724 38.3746 17.6247 36.9577 19.0951L34.3815 21.7683L37.0421 21.8021L39.7027 21.8361L42.411 19.1088L45.1191 16.3816L42.411 13.5918L39.7027 10.8021L37.0377 10.8019C35.5719 10.8019 34.3727 10.834 34.3727 10.8733ZM54.0244 12.177C54.3305 12.2679 54.7547 12.5518 55.1036 12.8992C55.9165 13.7087 56.1223 14.4371 56.1198 16.4996C56.1181 17.9051 56.084 18.1678 55.8302 18.7329C55.4825 19.5069 54.6645 20.2931 54.0209 20.4718C53.1702 20.7079 51.9047 20.6352 51.2061 20.31C50.1709 19.8279 49.6614 18.934 49.442 17.2145C49.1205 14.6953 49.947 12.6709 51.4935 12.1898C52.1099 11.9981 53.3999 11.9916 54.0244 12.177ZM78.9208 13.0994C79.3273 14.0536 80.413 16.7558 80.4961 17.0203L80.5828 17.296H78.7365C77.7211 17.296 76.8904 17.2759 76.8904 17.2514C76.8904 17.2103 78.2132 13.7487 78.5239 12.9768C78.5984 12.7916 78.6743 12.6399 78.6923 12.6399C78.7103 12.6399 78.8131 12.8467 78.9208 13.0994Z" fill="#51177D"/>
<path fill-rule="evenodd" clip-rule="evenodd" d="M29.6142 13.5063C31.052 14.9941 32.2284 16.2538 32.2284 16.3058C32.2284 16.3577 31.106 17.5803 29.734 19.0226L27.2394 21.6451L29.9178 21.6802L32.596 21.7153L35.2668 19.0113L37.9376 16.3075L35.2131 13.5544L32.4887 10.8013H29.7443H27L29.6142 13.5063Z" fill="#DB973F"/>
</svg>
