<svg width="69" height="16" viewBox="0 0 69 16" fill="none" xmlns="http://www.w3.org/2000/svg">
<g id="Group 8031">
<path id="image 80 (Traced)" fill-rule="evenodd" clip-rule="evenodd" d="M27.6163 0.601144C23.6401 1.22572 21.9228 3.47326 21.9403 8.03001C21.9492 10.3894 22.5457 12.3469 23.659 13.6698C24.1076 14.203 25.4196 14.9146 26.5912 15.2603C27.8417 15.6292 30.9309 15.6331 32.1269 15.2674C33.9826 14.7 35.0179 13.9604 35.6671 12.7385C36.399 11.3612 36.6334 10.2446 36.6407 8.1029C36.6551 3.87652 35.257 1.67972 31.9855 0.78805C31.0304 0.52781 28.7141 0.428817 27.6163 0.601144ZM43.293 0.967229C40.1279 1.65347 38.4683 4.05701 38.4758 7.94399C38.4822 11.3028 39.5724 13.4942 41.7904 14.6072L42.7742 15.101L46.6741 15.1461L50.5741 15.1912V14.0163V12.8412L47.6218 12.8403C44.4585 12.8394 43.7931 12.7398 43.012 12.1501C42.2269 11.5575 41.9309 10.6983 41.8549 8.79279C41.7511 6.18223 42.1578 4.70856 43.225 3.82899C44.0012 3.18925 44.7033 3.07306 47.7957 3.07306H50.5741V1.90672V0.740376L47.4031 0.751893C45.2751 0.759766 43.9232 0.830475 43.293 0.967229ZM56.5621 5.65665C55.4051 8.36533 54.0164 11.6168 53.4759 12.8823L52.4934 15.1832L54.1095 15.1421L55.7257 15.101L56.3298 13.4972L56.934 11.8935L60.225 11.8544L63.5158 11.8152L63.7636 12.4376C63.8998 12.7798 64.2089 13.5356 64.4502 14.1168L64.889 15.1738H66.5423H68.1957L67.6075 13.7524C67.0537 12.4149 66.6503 11.4872 63.9457 5.33284C63.3467 3.96968 62.6561 2.39512 62.4111 1.83382L61.9657 0.813272L60.3156 0.772596L58.6656 0.732065L56.5621 5.65665ZM1.75746 4.688C3.46833 6.45822 4.86809 7.95711 4.86809 8.01893C4.86809 8.08074 3.53248 9.53546 1.90004 11.2516L-1.06815 14.372L2.11873 14.4137L5.30547 14.4555L8.48331 11.2382L11.6612 8.02097L8.41945 4.74515L5.17775 1.46934H1.91229H-1.35303L1.75746 4.688ZM7.41946 1.55419C7.41946 1.60084 8.78087 3.04667 10.4447 4.76702C12.1084 6.48752 13.4903 7.95376 13.5152 8.02563C13.5401 8.09736 12.1812 9.58751 10.4952 11.337L7.42996 14.5178L10.5957 14.558L13.7614 14.5984L16.9839 11.3534L20.2062 8.1083L16.9839 4.78889L13.7614 1.46948L10.5904 1.46934C8.84633 1.46934 7.41946 1.50754 7.41946 1.55419ZM30.8023 3.10542C31.1665 3.2136 31.6712 3.5514 32.0863 3.96473C33.0536 4.92798 33.2984 5.79471 33.2955 8.2487C33.2934 9.92108 33.2529 10.2337 32.9508 10.9061C32.5372 11.827 31.5639 12.7624 30.798 12.9751C29.7858 13.2561 28.2801 13.1695 27.4489 12.7826C26.2171 12.209 25.6109 11.1453 25.3498 9.0994C24.9672 6.1019 25.9507 3.69311 27.7908 3.12073C28.5243 2.89257 30.0592 2.88484 30.8023 3.10542ZM60.4254 4.20295C60.9092 5.33838 62.2009 8.55355 62.2999 8.86831L62.403 9.19635H60.2062C58.998 9.19635 58.0095 9.17244 58.0095 9.14328C58.0095 9.09444 59.5835 4.97551 59.9532 4.05716C60.0418 3.83672 60.1321 3.65623 60.1535 3.65623C60.175 3.65623 60.2973 3.90233 60.4254 4.20295Z" fill="#51177D"/>
<path id="image 80 (Traced)_2" fill-rule="evenodd" clip-rule="evenodd" d="M1.75746 4.68735C3.46833 6.45757 4.86809 7.95646 4.86809 8.01828C4.86809 8.08009 3.53248 9.53481 1.90004 11.2509L-1.06815 14.3713L2.11873 14.413L5.30547 14.4549L8.48331 11.2375L11.6612 8.02032L8.41945 4.7445L5.17775 1.46869H1.91229H-1.35303L1.75746 4.68735Z" fill="#DB973F"/>
</g>
</svg>
