<svg width="112" height="32" viewBox="0 0 112 32" fill="none" xmlns="http://www.w3.org/2000/svg">
<path d="M23.5734 12.3465L26.7229 17.6934L21.4735 23.2312L21.4464 23.3204C21.4137 23.4282 21.4178 23.544 21.4582 23.649C21.4707 23.6814 21.4864 23.7122 21.5049 23.7409L21.6627 23.895C21.6648 23.8963 21.6669 23.8976 21.669 23.8988C21.765 23.9555 21.8772 23.9775 21.9872 23.9613C22.0972 23.9451 22.1985 23.8915 22.2746 23.8094L30.1432 15.3277C30.2091 15.2568 30.2531 15.1678 30.2697 15.0719C30.2864 14.9759 30.2749 14.8771 30.2369 14.7876C30.1988 14.6981 30.1357 14.622 30.0555 14.5684C29.9752 14.5149 29.8812 14.4864 29.7852 14.4865H26.5168L28.2882 8.64705C28.321 8.53918 28.3168 8.42321 28.2762 8.31809C28.2357 8.21297 28.1612 8.12491 28.0649 8.06829V8.0673C27.9689 8.01082 27.8569 7.98895 27.747 8.00526L27.7436 8.00578L27.4163 8.20418L23.5734 12.3465Z" fill="url(#paint0_linear_2793_6721)"/>
<path d="M22.0234 21.4178C22.0439 21.4081 22.0628 21.3946 22.0797 21.3769L25.405 17.7313C25.537 17.5927 25.534 17.37 25.3973 17.2361L23.2498 13.47C23.1131 13.3361 22.8936 13.339 22.7616 13.4777L21.0895 15.2148L21.9353 16.7475L21.1653 17.4802H23.2177L22.0234 21.4178Z" fill="url(#paint1_linear_2793_6721)"/>
<path d="M21.0612 17.4802L20.2513 16.0124L19.4646 16.8954C19.4481 16.9912 19.4596 17.0898 19.4976 17.1791C19.5356 17.2685 19.5987 17.3447 19.679 17.3982C19.7592 17.4518 19.8532 17.4802 19.9493 17.4802H21.0612Z" fill="url(#paint2_linear_2793_6721)"/>
<path d="M36.2336 18.8613V12.2988H39.178C40.5008 12.2988 41.1621 12.8855 41.1621 14.0589C41.1621 14.8524 40.6472 15.5096 39.6174 16.0304L41.6694 18.8705H40.1565L38.186 16.0075V15.4514C39.3336 15.2523 39.9073 14.8004 39.9073 14.0957C39.9073 13.6116 39.6386 13.3696 39.101 13.3696H37.4567V18.8613H36.2336Z" fill="black"/>
<path d="M41.7149 17.3678C41.7149 16.4088 42.4035 15.9293 43.7805 15.9293C44.1037 15.9293 44.4268 15.96 44.7499 16.0213V15.6582C44.7499 15.2262 44.4434 15.0102 43.8304 15.0102C43.3109 15.0102 42.7341 15.0868 42.1 15.24V14.2749C42.7341 14.1217 43.3109 14.0452 43.8304 14.0452C45.2437 14.0452 45.9503 14.5752 45.9503 15.6352V18.8705H45.2527L44.8269 18.4385C44.4132 18.7265 43.9572 18.8705 43.4589 18.8705C42.2963 18.8705 41.7149 18.3696 41.7149 17.3678ZM44.7499 16.8485C44.4479 16.7872 44.1248 16.7565 43.7805 16.7565C43.2037 16.7565 42.9153 16.9557 42.9153 17.354C42.9153 17.7829 43.1569 17.9974 43.6401 17.9974C44.0387 17.9974 44.4087 17.8717 44.7499 17.6205V16.8485Z" fill="black"/>
<path d="M46.3355 14.0452H47.6084L48.8088 17.5194L49.9821 14.0452H51.2323L49.2573 19.013C48.907 19.8892 48.3468 20.5127 47.5767 20.8834L46.9969 20.0516C47.5284 19.8157 47.9149 19.4312 48.1565 18.8981L46.3355 14.0452Z" fill="black"/>
<path d="M52.5914 16.4395C52.5914 17.4474 52.9765 17.9514 53.7465 17.9514C54.5166 17.9514 54.9017 17.4474 54.9017 16.4395C54.9017 15.456 54.5166 14.9643 53.7465 14.9643C52.9765 14.9643 52.5914 15.456 52.5914 16.4395ZM51.391 16.4578C51.391 14.8402 52.1762 14.0314 53.7465 14.0314C55.3169 14.0314 56.1021 14.8402 56.1021 16.4578C56.1021 18.0724 55.3169 18.8797 53.7465 18.8797C52.1822 18.8797 51.3971 18.0724 51.391 16.4578Z" fill="black"/>
<path d="M60.6821 14.0452C62.1256 14.0452 62.8474 14.7927 62.8474 16.2878C62.8474 16.4869 62.8338 16.6861 62.8066 16.8852H59.6493C59.6493 17.5654 60.1415 17.9054 61.126 17.9054C61.6062 17.9054 62.0863 17.8595 62.5665 17.7676V18.7327C62.1467 18.8246 61.6364 18.8705 61.0354 18.8705C59.3111 18.8705 58.4489 18.0479 58.4489 16.4027C58.4489 14.831 59.1933 14.0452 60.6821 14.0452ZM59.6493 16.0396H61.6787V16.0029C61.6787 15.335 61.3465 15.001 60.6821 15.001C60.0479 15.001 59.7036 15.3472 59.6493 16.0396Z" fill="black"/>
<path d="M63.5632 18.8705V14.0452H64.4919L64.6414 14.7529C65.0974 14.2811 65.6168 14.0452 66.1996 14.0452C67.326 14.0452 67.8892 14.6395 67.8892 15.8282V18.8705H66.6888V15.8282C66.6888 15.2952 66.4276 15.0286 65.9052 15.0286C65.5156 15.0286 65.1351 15.1864 64.7637 15.502V18.8705H63.5632Z" fill="black"/>
<path d="M68.7727 13.2639H69.6606L69.8418 14.0452H71.0377V15.0102H69.9732V17.2299C69.9732 17.6803 70.1649 17.9054 70.5484 17.9054H71.0377V18.8705H69.9686C69.1714 18.8705 68.7727 18.437 68.7727 17.57V13.2639Z" fill="black"/>
<path d="M71.672 18.8705V14.0452H72.6006L72.7501 14.661C73.1669 14.2504 73.6078 14.0452 74.0728 14.0452V15.0286C73.6259 15.0286 73.2258 15.217 72.8724 15.5939V18.8705H71.672Z" fill="black"/>
<path d="M76.5735 14.0452C78.017 14.0452 78.7388 14.7927 78.7388 16.2878C78.7388 16.4869 78.7252 16.6861 78.698 16.8852H75.5407C75.5407 17.5654 76.0329 17.9054 77.0174 17.9054C77.4976 17.9054 77.9777 17.8595 78.4579 17.7676V18.7327C78.0381 18.8246 77.5278 18.8705 76.9268 18.8705C75.2025 18.8705 74.3403 18.0479 74.3403 16.4027C74.3403 14.831 75.0847 14.0452 76.5735 14.0452ZM75.5407 16.0396H77.5701V16.0029C77.5701 15.335 77.2379 15.001 76.5735 15.001C75.9393 15.001 75.595 15.3472 75.5407 16.0396Z" fill="black"/>
<path d="M82.4987 15.1389C82.3024 15.0654 82.0231 15.0286 81.6607 15.0286C80.8302 15.0286 80.415 15.4928 80.415 16.4211C80.415 17.3187 80.7728 17.7676 81.4885 17.7676C81.8328 17.7676 82.1695 17.6849 82.4987 17.5194V15.1389ZM83.6991 18.5029C83.6991 19.9122 82.8641 20.6168 81.1941 20.6168C80.6082 20.6168 80.0888 20.5402 79.6358 20.3871V19.422C80.0979 19.5752 80.6203 19.6518 81.2032 19.6518C82.0669 19.6518 82.4987 19.2841 82.4987 18.5488C82.1424 18.702 81.7588 18.7786 81.3481 18.7786C79.9348 18.7786 79.2282 17.9958 79.2282 16.4303C79.2282 14.8402 80.0511 14.0452 81.6969 14.0452C82.2496 14.0452 82.917 14.111 83.6991 14.2428V18.5029Z" fill="black"/>
<path d="M84.4241 17.3678C84.4241 16.4088 85.1126 15.9293 86.4897 15.9293C86.8128 15.9293 87.1359 15.96 87.4591 16.0213V15.6582C87.4591 15.2262 87.1525 15.0102 86.5395 15.0102C86.0201 15.0102 85.4433 15.0868 84.8091 15.24V14.2749C85.4433 14.1217 86.0201 14.0452 86.5395 14.0452C87.9528 14.0452 88.6595 14.5752 88.6595 15.6352V18.8705H87.9619L87.5361 18.4385C87.1223 18.7265 86.6663 18.8705 86.1681 18.8705C85.0054 18.8705 84.4241 18.3696 84.4241 17.3678ZM87.4591 16.8485C87.1571 16.7872 86.8339 16.7565 86.4897 16.7565C85.9129 16.7565 85.6245 16.9557 85.6245 17.354C85.6245 17.7829 85.8661 17.9974 86.3492 17.9974C86.7479 17.9974 87.1178 17.8717 87.4591 17.6205V16.8485Z" fill="black"/>
<path d="M89.6109 18.6407V17.6297C90.1394 17.8442 90.7494 17.9514 91.441 17.9514C91.9574 17.9514 92.2156 17.7829 92.2156 17.4459C92.2156 17.1242 92.0419 16.9634 91.6946 16.9634H90.834C89.8676 16.9634 89.3844 16.4808 89.3844 15.5157C89.3844 14.5047 90.0896 13.9992 91.4999 13.9992C92.0978 13.9992 92.661 14.0911 93.1895 14.2749V15.286C92.661 15.0715 92.0872 14.9643 91.4681 14.9643C90.8189 14.9643 90.4942 15.1328 90.4942 15.4698C90.4942 15.7915 90.683 15.9523 91.0605 15.9523H91.8305C92.8875 15.9523 93.416 16.4349 93.416 17.3999C93.416 18.411 92.7425 18.9165 91.3957 18.9165C90.7343 18.9165 90.1394 18.8246 89.6109 18.6407Z" fill="black"/>
<defs>
<linearGradient id="paint0_linear_2793_6721" x1="25.8509" y1="8" x2="25.8509" y2="23.9665" gradientUnits="userSpaceOnUse">
<stop stop-color="#2A84A6"/>
<stop offset="1" stop-color="#1D5E77"/>
</linearGradient>
<linearGradient id="paint1_linear_2793_6721" x1="22.4796" y1="13.3716" x2="22.4796" y2="21.4178" gradientUnits="userSpaceOnUse">
<stop stop-color="#0015CE"/>
<stop offset="1" stop-color="#05138A"/>
</linearGradient>
<linearGradient id="paint2_linear_2793_6721" x1="22.4796" y1="13.3716" x2="22.4796" y2="21.4178" gradientUnits="userSpaceOnUse">
<stop stop-color="#0015CE"/>
<stop offset="1" stop-color="#05138A"/>
</linearGradient>
</defs>
</svg>
