<svg width="112" height="32" viewBox="0 0 112 32" fill="none" xmlns="http://www.w3.org/2000/svg">
<path fill-rule="evenodd" clip-rule="evenodd" d="M32.9688 4.68338L27.6978 8.35595L27.6949 9.63549C27.6926 10.612 27.7268 10.9015 27.8392 10.8578C28.0271 10.7846 36.0666 5.37035 36.2718 5.17872C36.4551 5.00771 38.3913 0.951529 38.2664 1.00044C38.2518 1.00621 35.8679 2.66348 32.9688 4.68338ZM35.3524 7.60168C33.7643 8.7075 31.3911 10.3552 30.0785 11.2633L27.6919 12.9144L27.6914 16.7635C27.691 21.0594 27.6888 21.0713 26.8496 21.5877C25.6931 22.2993 23.2895 22.1671 22.4088 21.3437C21.8735 20.8433 21.8605 20.7537 21.7992 17.1361L21.7403 13.6594L20.4734 13.6259L19.2064 13.5924V17.2289C19.2064 21.4435 19.2452 21.6645 20.1421 22.5614C21.432 23.8514 24.0402 24.4008 26.573 23.9162C28.2276 23.5997 29.3828 22.8772 29.9706 21.7913C30.213 21.3433 30.2287 21.1323 30.2847 17.5486L30.3436 13.7772L33.3489 11.744L36.3542 9.71068L36.9884 8.38517C37.7214 6.85272 38.2997 5.58531 38.2644 5.58873C38.2509 5.59003 36.9405 6.49585 35.3524 7.60168ZM34.7964 12.7567L31.4708 15.0736L31.467 19.4048L31.4632 23.7359H32.7596H34.056V21.7324V19.7289L35.5587 19.7291L37.0613 19.7292L38.4166 21.7299L39.772 23.7306L41.2746 23.7333C42.101 23.7347 42.7772 23.7113 42.7772 23.6811C42.7772 23.6509 42.1156 22.736 41.3069 21.6481C40.4983 20.5601 39.8354 19.6365 39.8337 19.5956C39.8322 19.5547 40.0588 19.4637 40.3374 19.3936C41.7098 19.048 42.5379 17.821 42.3878 16.3556C42.2735 15.2404 41.6647 14.414 40.6156 13.95C40.1613 13.7492 39.7222 13.6841 38.4647 13.6314C37.5955 13.5949 36.8845 13.5257 36.8845 13.4775C36.8845 13.4293 37.2 12.7214 37.5858 11.9042C37.9714 11.087 38.2498 10.4232 38.2045 10.4291C38.1591 10.4351 36.6255 11.4825 34.7964 12.7567ZM84.0688 13.5982C81.3802 14.3031 79.9013 16.1374 79.9013 18.7671C79.9013 21.8702 82.1214 23.8621 85.794 24.054C89.9583 24.2717 92.6295 22.167 92.6295 18.6682C92.6295 15.3032 90.2893 13.3521 86.276 13.3712C85.338 13.3757 84.6465 13.4468 84.0688 13.5982ZM43.6906 13.6682C43.642 13.7174 43.6022 16.0027 43.6022 18.7468V23.7359H47.7646C51.1707 23.7359 52.0382 23.7029 52.5386 23.5543C53.8851 23.1544 54.6427 21.7235 54.3154 20.198C54.1532 19.4418 53.6811 18.8862 52.9011 18.5337L52.3128 18.2678L52.6422 18.1001C53.1396 17.8468 53.5142 17.4734 53.6939 17.0515C54.0474 16.2219 53.7809 14.9384 53.1311 14.341C52.4693 13.7324 52.0912 13.6821 47.786 13.6286C45.5822 13.6013 43.7392 13.6191 43.6906 13.6682ZM56.92 18.5497C55.5586 21.2719 54.4448 23.5524 54.4448 23.6175C54.4448 23.6903 54.9789 23.7348 55.8296 23.7332L57.2144 23.7305L57.6268 22.7931L58.0393 21.8557L60.7092 21.8529L63.379 21.8502L63.8214 22.7931L64.2638 23.7359H65.7128H67.1618L64.8165 18.9923C63.5266 16.3833 62.3915 14.1029 62.2938 13.9246L62.1163 13.6005H60.7558H59.3952L56.92 18.5497ZM67.7623 18.6682V23.7359H69.0061H70.25L70.2141 20.1352C70.1794 16.638 70.1844 16.5423 70.3924 16.8058C70.5102 16.955 71.9421 18.5717 73.5745 20.3982L76.5424 23.7193L77.8683 23.7275L79.1941 23.7359V18.6682V13.6005H77.9518H76.7094L76.7438 17.2024L76.7781 20.8043L76.4246 20.4082C76.2301 20.1904 74.7752 18.5695 73.1914 16.8063L70.3118 13.6005H69.037H67.7623V18.6682ZM87.9271 15.5083C89.206 16.0938 89.9385 17.2324 89.9451 18.6445C89.9523 20.2011 89.3595 21.2412 88.1282 21.8321C86.0445 22.832 83.7708 22.1539 82.8942 20.2712C82.5568 19.5464 82.5124 18.2948 82.7951 17.4655C83.4507 15.5413 85.9321 14.5949 87.9271 15.5083ZM39.2659 15.6293C39.69 15.9073 39.8892 16.5433 39.7162 17.0675C39.4739 17.8016 39.3035 17.8432 36.5351 17.8432H34.056V16.5938V15.3445L36.5068 15.3858C38.5762 15.4207 39.0056 15.4587 39.2659 15.6293ZM51.0964 15.7579C51.5589 16.296 51.4182 17.2094 50.8317 17.4767C50.6544 17.5574 49.7126 17.6075 48.3698 17.6075H46.195V16.4809V15.3542L48.5036 15.3908L50.8122 15.4272L51.0964 15.7579ZM61.9118 18.7124C62.2127 19.3524 62.4589 19.9226 62.4589 19.9793C62.4589 20.036 61.6589 20.0824 60.6813 20.0824C59.7036 20.0824 58.9212 20.0387 58.9429 19.9852C58.9645 19.9317 59.3775 19.0352 59.8607 17.9928L60.7391 16.0977L61.0519 16.8231C61.224 17.2221 61.6109 18.0723 61.9118 18.7124ZM51.1002 19.4953C51.5564 19.6543 51.7538 19.9978 51.7538 20.6326C51.7538 21.2339 51.4974 21.6938 51.0722 21.8555C50.9093 21.9174 49.7452 21.9681 48.4855 21.9681H46.195V20.6717V19.3753H48.4756C49.7299 19.3753 50.9109 19.4293 51.1002 19.4953Z" fill="#606163"/>
<path fill-rule="evenodd" clip-rule="evenodd" d="M34.8033 12.7579L31.4776 15.0748L31.4739 19.4059L31.4701 23.7371H32.7665H34.0629V21.7336V19.73L35.5656 19.7303L37.0682 19.7304L38.4235 21.7311L39.7789 23.7318L41.2815 23.7345C42.1079 23.7359 42.7842 23.7125 42.7842 23.6823C42.7842 23.6521 42.1225 22.7372 41.3138 21.6493C40.5052 20.5613 39.8423 19.6376 39.8406 19.5967C39.8391 19.5559 40.0657 19.4649 40.3443 19.3947C41.7168 19.0492 42.5448 17.8222 42.3948 16.3568C42.2805 15.2415 41.6716 14.4151 40.6225 13.9511C40.1683 13.7503 39.7291 13.6853 38.4716 13.6326C37.6024 13.596 36.8914 13.5269 36.8914 13.4787C36.8914 13.4305 37.2069 12.7225 37.5927 11.9053C37.9783 11.0881 38.2567 10.4243 38.2114 10.4302C38.166 10.4362 36.6324 11.4836 34.8033 12.7579ZM39.2728 15.6305C39.697 15.9085 39.8961 16.5444 39.7231 17.0686C39.4808 17.8028 39.3104 17.8444 36.542 17.8444H34.0629V16.595V15.3456L36.5137 15.387C38.5831 15.4218 39.0125 15.4598 39.2728 15.6305Z" fill="#24272A"/>
<path fill-rule="evenodd" clip-rule="evenodd" d="M35.3526 7.61258C33.7645 8.71842 31.3912 10.3661 30.0786 11.2742L27.692 12.9254L27.6915 16.7745C27.691 21.0705 27.6889 21.0824 26.8497 21.5987C25.6932 22.3103 23.2895 22.1782 22.4088 21.3547C21.8735 20.8543 21.8605 20.7647 21.7992 17.1471L21.7403 13.6703L20.4734 13.6369L19.2064 13.6034V17.2399C19.2064 21.4545 19.2452 21.6755 20.1421 22.5724C21.432 23.8624 24.0402 24.4119 26.5731 23.9273C28.2276 23.6107 29.3829 22.8883 29.9707 21.8023C30.2131 21.3544 30.2288 21.1433 30.2848 17.5596L30.3437 13.7882L33.349 11.755L36.3543 9.7216L36.9885 8.39608C37.7216 6.86361 38.2999 5.5962 38.2645 5.59962C38.2511 5.60091 36.9407 6.50675 35.3526 7.61258Z" fill="#D3313A"/>
</svg>
