<svg width="81" height="33" viewBox="0 0 81 33" fill="none" xmlns="http://www.w3.org/2000/svg">
<g id="Group 8032">
<path id="image 81 (Traced)" fill-rule="evenodd" clip-rule="evenodd" d="M15.4435 4.0206L9.68994 8.0294L9.68672 9.42609C9.68428 10.492 9.72159 10.808 9.84431 10.7603C10.0494 10.6804 18.8249 4.77047 19.0489 4.56129C19.249 4.37463 21.3624 -0.0529083 21.2261 0.000478915C21.2101 0.00678247 18.6081 1.81577 15.4435 4.0206ZM18.0454 7.20608C16.3119 8.41315 13.7214 10.2117 12.2885 11.2029L9.68351 13.0052L9.68299 17.2067C9.68248 21.8959 9.68016 21.9089 8.76409 22.4725C7.50171 23.2493 4.87801 23.1051 3.91666 22.2062C3.33236 21.66 3.3182 21.5622 3.25131 17.6134L3.18699 13.8184L1.80407 13.7818L0.421143 13.7453V17.7147C0.421143 22.3152 0.463466 22.5564 1.44245 23.5354C2.85046 24.9435 5.69747 25.5432 8.46216 25.0143C10.2682 24.6687 11.5292 23.8801 12.1708 22.6948C12.4355 22.2058 12.4526 21.9754 12.5137 18.0636L12.578 13.947L15.8584 11.7277L19.1388 9.50817L19.8311 8.06131C20.6312 6.38855 21.2625 5.00511 21.2239 5.00884C21.2092 5.01026 19.7788 5.99902 18.0454 7.20608ZM17.4384 12.8331L13.8083 15.3621L13.8042 20.0898L13.8001 24.8174H15.2152H16.6303V22.6305V20.4435L18.2705 20.4438L19.9107 20.4439L21.3901 22.6278L22.8695 24.8116L24.5097 24.8146C25.4118 24.8162 26.1499 24.7906 26.1499 24.7576C26.1499 24.7247 25.4277 23.726 24.545 22.5385C23.6623 21.3509 22.9387 20.3427 22.9369 20.298C22.9353 20.2534 23.1826 20.1541 23.4867 20.0776C24.9848 19.7004 25.8887 18.3611 25.7249 16.7615C25.6001 15.5441 24.9355 14.6421 23.7903 14.1356C23.2946 13.9164 22.8152 13.8454 21.4426 13.7879C20.4938 13.748 19.7177 13.6725 19.7177 13.6199C19.7177 13.5673 20.0621 12.7945 20.4832 11.9025C20.9041 11.0105 21.2079 10.2859 21.1585 10.2924C21.109 10.2989 19.435 11.4422 17.4384 12.8331ZM71.2219 13.7516C68.2871 14.521 66.6728 16.5232 66.6728 19.3937C66.6728 22.7809 69.0962 24.9552 73.105 25.1646C77.6506 25.4023 80.5663 23.1049 80.5663 19.2857C80.5663 15.6127 78.0118 13.483 73.6311 13.5038C72.6073 13.5087 71.8525 13.5863 71.2219 13.7516ZM27.1469 13.828C27.0939 13.8817 27.0504 16.3762 27.0504 19.3716V24.8174H31.5939C35.3118 24.8174 36.2588 24.7814 36.805 24.6192C38.2748 24.1827 39.1017 22.6208 38.7444 20.9557C38.5674 20.1302 38.0521 19.5237 37.2007 19.139L36.5585 18.8487L36.9181 18.6657C37.461 18.3892 37.8699 17.9816 38.0661 17.521C38.4519 16.6155 38.161 15.2146 37.4517 14.5625C36.7294 13.8981 36.3167 13.8432 31.6173 13.7848C29.2117 13.755 27.1999 13.7744 27.1469 13.828ZM41.5875 19.1565C40.1015 22.1279 38.8857 24.6171 38.8857 24.6881C38.8857 24.7677 39.4687 24.8163 40.3973 24.8145L41.9088 24.8115L42.3591 23.7883L42.8093 22.7651L45.7236 22.7621L48.6378 22.7591L49.1207 23.7883L49.6037 24.8174H51.1853H52.767L50.207 19.6395C48.799 16.7917 47.5599 14.3025 47.4532 14.1078L47.2595 13.7541H45.7744H44.2894L41.5875 19.1565ZM53.4225 19.2857V24.8174H54.7802H56.1379L56.0988 20.8871C56.0608 17.0697 56.0663 16.9653 56.2934 17.2529C56.4219 17.4158 57.9849 19.1804 59.7668 21.1741L63.0064 24.7993L64.4537 24.8083L65.9009 24.8174V19.2857V13.7541H64.5449H63.1887L63.2263 17.6858L63.2637 21.6174L62.8778 21.185C62.6655 20.9473 61.0774 19.1781 59.3486 17.2534L56.2054 13.7541H54.8139H53.4225V19.2857ZM75.4334 15.8365C76.8293 16.4757 77.629 17.7185 77.6362 19.2599C77.6441 20.959 76.997 22.0943 75.6529 22.7393C73.3785 23.8307 70.8966 23.0907 69.9397 21.0356C69.5714 20.2444 69.523 18.8782 69.8315 17.9729C70.5472 15.8726 73.2557 14.8396 75.4334 15.8365ZM22.3171 15.9687C22.7801 16.2721 22.9975 16.9663 22.8087 17.5385C22.5442 18.3398 22.3582 18.3852 19.3363 18.3852H16.6303V17.0215V15.6577L19.3054 15.7029C21.5643 15.741 22.0329 15.7824 22.3171 15.9687ZM35.2308 16.109C35.7356 16.6964 35.582 17.6934 34.9418 17.9852C34.7482 18.0733 33.7202 18.128 32.2545 18.128H29.8806V16.8982V15.6684L32.4006 15.7083L34.9205 15.748L35.2308 16.109ZM47.0363 19.334C47.3647 20.0327 47.6335 20.655 47.6335 20.7169C47.6335 20.7788 46.7602 20.8295 45.6931 20.8295C44.6259 20.8295 43.772 20.7817 43.7956 20.7233C43.8192 20.6649 44.27 19.6863 44.7974 18.5485L45.7563 16.4799L46.0977 17.2717C46.2855 17.7073 46.7079 18.6353 47.0363 19.334ZM35.2349 20.1886C35.7329 20.3621 35.9484 20.7371 35.9484 21.43C35.9484 22.0863 35.6684 22.5884 35.2043 22.7649C35.0265 22.8325 33.7559 22.8878 32.3808 22.8878H29.8806V21.4727V20.0576H32.37C33.7392 20.0576 35.0283 20.1165 35.2349 20.1886Z" fill="#606163"/>
<path id="image 81 (Traced)_2" fill-rule="evenodd" clip-rule="evenodd" d="M17.446 12.8344L13.8159 15.3635L13.8117 20.0912L13.8076 24.8189H15.2227H16.6378V22.6319V20.4449L18.278 20.4452L19.9183 20.4453L21.3977 22.6292L22.8771 24.8131L24.5173 24.816C25.4194 24.8176 26.1575 24.792 26.1575 24.759C26.1575 24.7261 25.4353 23.7274 24.5526 22.5399C23.6699 21.3523 22.9463 20.3441 22.9445 20.2994C22.9428 20.2548 23.1902 20.1555 23.4943 20.0789C24.9924 19.7018 25.8963 18.3624 25.7325 16.7629C25.6077 15.5455 24.9431 14.6434 23.7979 14.137C23.3021 13.9177 22.8228 13.8467 21.4502 13.7892C20.5014 13.7493 19.7253 13.6738 19.7253 13.6212C19.7253 13.5686 20.0697 12.7958 20.4907 11.9038C20.9117 11.0118 21.2155 10.2873 21.1661 10.2937C21.1166 10.3002 19.4425 11.4435 17.446 12.8344ZM22.3247 15.97C22.7877 16.2735 23.0051 16.9677 22.8162 17.5399C22.5518 18.3412 22.3657 18.3866 19.3439 18.3866H16.6378V17.0228V15.6591L19.313 15.7042C21.5719 15.7423 22.0405 15.7837 22.3247 15.97Z" fill="#24272A"/>
<path id="image 81 (Traced)_3" fill-rule="evenodd" clip-rule="evenodd" d="M18.0455 7.21777C16.312 8.42485 13.7215 10.2234 12.2887 11.2146L9.68359 13.017L9.68307 17.2185C9.68256 21.9078 9.68024 21.9207 8.76416 22.4843C7.50177 23.2611 4.87805 23.1169 3.91669 22.218C3.33238 21.6718 3.31823 21.5741 3.25133 17.6252L3.18701 13.8301L1.80408 13.7936L0.421143 13.7571V17.7265C0.421143 22.327 0.463467 22.5682 1.44246 23.5472C2.85048 24.9554 5.69752 25.5551 8.46223 25.0261C10.2683 24.6806 11.5293 23.892 12.1709 22.7066C12.4356 22.2177 12.4527 21.9873 12.5138 18.0754L12.5781 13.9588L15.8586 11.7394L19.139 9.51988L19.8312 8.07301C20.6314 6.40023 21.2627 5.01678 21.2241 5.02052C21.2094 5.02193 19.779 6.0107 18.0455 7.21777Z" fill="#D3313A"/>
</g>
</svg>
