<svg width="112" height="32" viewBox="0 0 112 32" fill="none" xmlns="http://www.w3.org/2000/svg">
<g clip-path="url(#clip0_2548_4513)">
<path fill-rule="evenodd" clip-rule="evenodd" d="M28.0381 8H84.4215V24H28.0381V8Z" fill="url(#paint0_linear_2548_4513)"/>
<path fill-rule="evenodd" clip-rule="evenodd" d="M79.6543 18.5432V18.4659C79.9176 18.4579 80.1245 18.2259 80.1245 17.9539C80.1245 17.6765 79.9176 17.4499 79.6543 17.4339V17.3672C79.974 17.3725 80.2158 17.6285 80.2158 17.9459C80.2158 18.2739 79.974 18.5272 79.6543 18.5432Z" fill="white"/>
<path fill-rule="evenodd" clip-rule="evenodd" d="M79.655 18.0084C79.7087 18.0244 79.7302 18.0618 79.7464 18.1284C79.7625 18.2111 79.7759 18.2724 79.8001 18.2938H79.8834C79.878 18.2724 79.8592 18.2351 79.8377 18.1284C79.8216 18.0298 79.784 17.9791 79.7249 17.9711V17.9631C79.8001 17.9471 79.8538 17.8938 79.8538 17.8058C79.8538 17.7444 79.8296 17.6991 79.8001 17.6671C79.7625 17.6458 79.7168 17.6298 79.655 17.6218V17.6911C79.7383 17.7151 79.7678 17.7578 79.7678 17.8084C79.7678 17.8751 79.7141 17.9151 79.655 17.9284V18.0084ZM79.655 17.3711V17.4378H79.6335C79.4051 17.4378 79.2171 17.5898 79.1553 17.7978V17.5951C79.2708 17.4591 79.4347 17.3711 79.6335 17.3711H79.655Z" fill="white"/>
<path fill-rule="evenodd" clip-rule="evenodd" d="M79.655 17.623H79.604C79.5341 17.623 79.4884 17.631 79.4266 17.639V18.2924H79.5099V17.999H79.5959C79.6174 17.999 79.6416 18.007 79.655 18.007V17.9324C79.6416 17.9324 79.6174 17.9404 79.5959 17.9404H79.5099V17.6924C79.5314 17.6924 79.5583 17.6844 79.5878 17.6844C79.6174 17.6844 79.6416 17.6924 79.655 17.6924V17.623ZM79.655 18.4684V18.5457H79.6335C79.4347 18.5457 79.2708 18.455 79.1553 18.311V18.1057C79.2224 18.3164 79.4051 18.4657 79.6335 18.4657H79.655V18.4684Z" fill="white"/>
<path fill-rule="evenodd" clip-rule="evenodd" d="M79.1547 17.5937C79.0795 17.6924 79.0338 17.8204 79.0338 17.9457C79.0338 18.0817 79.0795 18.2097 79.1547 18.3084V18.1058C79.1386 18.0524 79.1305 18.0018 79.1305 17.9484C79.1305 17.8951 79.1386 17.8524 79.1547 17.7991V17.5937ZM51.4681 14.6764H50.6863L49.9609 18.4124H47.9512L48.8593 13.7431H51.6481C54.3483 13.7431 55.294 14.7964 55.0388 16.0844L54.5847 18.4151H52.575L53.0371 16.0844C53.1903 15.3084 52.7577 14.6764 51.4681 14.6764ZM79.6544 13.5938H76.7152C76.3202 13.5938 75.8501 13.6844 75.7668 14.1271L75.662 14.6684H78.6711C78.8377 14.6684 79.0043 14.6444 79.1547 14.5991C79.3885 14.5164 79.5712 14.3751 79.6168 14.1351L79.6544 13.9404L79.7216 13.5938H79.6544ZM79.1305 14.9457C78.964 14.9911 78.784 15.0124 78.6093 15.0124H76.8898C77.1692 15.2764 77.2525 15.6604 77.1692 16.0817C77.0107 16.8631 76.3498 17.5111 75.1058 17.5111C73.8538 17.5111 73.4454 16.8631 73.5959 16.0817C73.741 15.3671 74.2864 14.7804 75.31 14.6684V14.6604L75.4175 14.1271C75.4551 13.9164 75.5465 13.7511 75.6754 13.6231C73.0962 13.6764 71.7958 14.7591 71.5271 16.0844C71.2638 17.4391 72.2015 18.5457 74.9017 18.5457C75.9548 18.5457 76.8012 18.3698 77.4702 18.0871C78.3729 17.6978 78.9237 17.0844 79.152 16.3884C79.1896 16.2897 79.2138 16.1831 79.2353 16.0871C79.3106 15.6951 79.2891 15.3351 79.152 15.0098C79.1467 14.9858 79.1386 14.9697 79.1305 14.9457ZM63.6873 18.4124L64.5954 13.7431H66.6024L66.2397 15.6071H68.8646L69.2273 13.7431H71.2262L70.3181 18.4124H68.3084L68.6712 16.5511H66.057L65.6862 18.4124H63.6873ZM59.3805 17.4818H60.6782L61.0462 15.6098H63.0505L62.5051 18.4151H59.1924C56.4923 18.4151 55.5465 17.3697 55.8045 16.0844C56.0543 14.7991 57.4111 13.7431 60.1005 13.7431H63.4213L63.2386 14.6764H59.9259C58.6363 14.6764 58.0183 15.3057 57.8652 16.0817C57.7228 16.8497 58.0855 17.4818 59.3805 17.4818ZM44.9018 13.7431C44.6035 13.7431 44.3188 13.7591 44.0501 13.7884C41.9141 13.9857 40.8233 14.9377 40.595 16.0844L40.1409 18.4151H42.1506L42.4246 17.0098H45.0442L44.7728 18.4151H46.7744L47.6906 13.7457H44.9018V13.7431ZM45.2242 16.0844H42.5993C42.7202 15.4604 43.193 14.9271 44.0474 14.7457C44.2543 14.7004 44.4746 14.6791 44.7164 14.6791H45.4955L45.2242 16.0844ZM37.747 13.7431H33.1232L32.207 18.4124H36.8389C38.5423 18.4124 39.4531 18.0604 39.6573 17.0151C39.7325 16.6338 39.4692 16.1484 38.8325 16.0817C39.4907 16.0204 39.9448 15.5457 40.0227 15.1484C40.2081 14.1724 39.4665 13.7431 37.747 13.7431ZM37.5939 17.0071C37.5321 17.3244 37.199 17.4791 36.7315 17.4791H34.3967L34.5794 16.5484H36.9222C37.387 16.5511 37.653 16.7004 37.5939 17.0071ZM37.9566 15.1404C37.8948 15.4498 37.5697 15.6071 37.0915 15.6071H34.7594L34.9475 14.6764H37.2822C37.7524 14.6764 38.0184 14.8258 37.9566 15.1404Z" fill="white"/>
</g>
<defs>
<linearGradient id="paint0_linear_2548_4513" x1="28.962" y1="9.89787" x2="83.4484" y2="22.2749" gradientUnits="userSpaceOnUse">
<stop stop-color="#52CA8A"/>
<stop offset="1" stop-color="#3385CB"/>
</linearGradient>
<clipPath id="clip0_2548_4513">
<rect width="56.4211" height="16" fill="white" transform="translate(28 8)"/>
</clipPath>
</defs>
</svg>
