<svg width="112" height="32" viewBox="0 0 112 32" fill="none" xmlns="http://www.w3.org/2000/svg">
<g clip-path="url(#clip0_2548_4511)">
<path d="M40.2404 23.9922C40.1501 23.9832 39.8638 23.9554 39.6042 23.9305C39.0173 23.8742 38.3299 23.7572 37.7614 23.6167C37.1788 23.4728 36.094 23.1108 36.0374 23.0415C36.0046 23.0012 35.9949 21.0448 36.0024 15.9596L36.0128 8.93334L36.3411 8.80027C37.0056 8.53096 38.3015 8.23793 39.44 8.09951C39.7448 8.06246 40.3912 8.02101 40.8766 8.00741C43.4241 7.93602 44.8915 8.37559 45.9771 9.53524C46.2722 9.85046 46.3618 9.98188 46.5537 10.3806C46.8501 10.9964 46.9135 11.2612 46.9401 11.9937C46.975 12.9572 46.8611 13.5752 46.5272 14.2324C46.3192 14.642 45.8671 15.1229 45.4591 15.3688L45.1778 15.5384L45.4181 15.609C45.5502 15.6479 45.8245 15.7663 46.0277 15.8723C46.3261 16.028 46.4729 16.1416 46.791 16.4631C47.6273 17.3082 48.0268 18.3066 48.0272 19.5524C48.0275 20.334 47.9296 20.7934 47.6315 21.412C47.4402 21.8087 47.3497 21.9414 47.0554 22.2558C46.3808 22.9763 45.5566 23.43 44.3859 23.725C43.6004 23.9229 43.0115 23.9808 41.6359 23.9954C40.9587 24.0026 40.3307 24.0011 40.2404 23.9922ZM42.3337 21.177C43.3271 21.0891 43.9032 20.8929 44.3087 20.5045C44.7243 20.1065 44.899 19.7041 44.899 19.1452C44.899 18.5286 44.7151 18.0701 44.3179 17.6962C44.0483 17.4425 43.7598 17.2911 43.3063 17.1654C43.0193 17.0858 42.8423 17.0755 41.3691 17.0529L39.7479 17.028L39.7345 16.9318C39.7255 16.8678 39.923 16.4775 40.3257 15.7635C40.6583 15.1739 40.9723 14.6236 41.0236 14.5407L41.1167 14.39L41.7252 14.3682C42.2315 14.35 42.3901 14.3279 42.6693 14.2364C43.4502 13.9805 43.8709 13.4007 43.8724 12.5783C43.8732 12.1261 43.7498 11.7975 43.4617 11.4844C43.1865 11.1854 42.8922 11.0179 42.3747 10.8658C42.0767 10.7782 41.9648 10.7693 41.1639 10.7696C40.2395 10.7699 39.9224 10.8093 39.2451 11.0078L38.9475 11.0951V15.9897V20.8844L39.163 20.9499C39.9077 21.1764 41.2518 21.2727 42.3337 21.177ZM54.8729 23.9318C53.9744 23.8217 53.2189 23.5979 52.5164 23.2337C50.3349 22.1027 49.2908 19.7294 49.2908 15.9014C49.2908 13.027 49.8659 11.0738 51.0947 9.77488C51.8376 8.98961 52.6526 8.52314 53.7647 8.24675C54.5611 8.04882 54.9147 8.01526 56.1863 8.01692C57.6194 8.0188 58.5099 8.11343 59.7572 8.39635C60.2511 8.50838 60.3319 8.54495 60.3319 8.65662C60.3319 8.69387 60.0426 9.23816 59.6891 9.86616L59.0464 11.008L58.8375 10.9868C58.7225 10.9751 58.3791 10.9224 58.0744 10.8696C57.5973 10.787 57.372 10.7734 56.4531 10.7715C55.462 10.7694 55.3611 10.7761 55.0371 10.8657C53.4106 11.3155 52.6038 12.5665 52.4063 14.945C52.3494 15.6313 52.3814 16.9086 52.4715 17.5447C52.8085 19.9237 53.7949 21.0303 55.7516 21.2246C56.5213 21.301 57.4179 21.1677 58.1873 20.8625L58.4848 20.7444V18.8971V17.0498L56.7096 17.0389L54.9345 17.028L54.9222 16.9205C54.9134 16.8439 55.0956 16.4828 55.5537 15.6687C55.9079 15.0394 56.2256 14.4917 56.2599 14.4515C56.318 14.3834 56.4928 14.3785 58.8319 14.3785C60.7291 14.3785 61.3536 14.3907 61.3908 14.4285C61.4285 14.4668 61.4399 15.452 61.4394 18.6115C61.4391 20.8846 61.4238 22.7685 61.4054 22.7979C61.3643 22.8638 60.281 23.2642 59.6136 23.4601C59.0378 23.6292 58.3918 23.775 57.7871 23.8722C57.2845 23.9531 55.3667 23.9923 54.8729 23.9318ZM64.1353 23.7805C64.1203 23.7652 64.108 20.2829 64.108 16.042C64.108 8.46133 64.1093 8.33054 64.1874 8.28807C64.2377 8.26069 64.7851 8.24488 65.6826 8.24488C66.915 8.24488 67.1067 8.25337 67.1629 8.31045C67.2203 8.36884 67.2274 8.70449 67.2274 11.3772V14.3785H69.9487C72.7624 14.3785 72.7714 14.379 72.7666 14.5433C72.7654 14.5789 72.4447 15.1713 72.0537 15.8597L71.3428 17.1115L69.2851 17.1223L67.2274 17.1331V20.4207C67.2274 22.922 67.2156 23.7202 67.1781 23.7583C67.1416 23.7954 66.7446 23.8084 65.6458 23.8084C64.8301 23.8084 64.1504 23.7959 64.1353 23.7805ZM73.1242 23.7805C73.1091 23.7652 73.0968 20.2829 73.0968 16.042C73.0968 8.46133 73.0981 8.33054 73.1762 8.28807C73.2844 8.22921 76.0286 8.22921 76.1368 8.28807C76.2149 8.33054 76.2162 8.46089 76.2162 16.0038C76.2162 20.2237 76.205 23.7061 76.1913 23.7424C76.1692 23.8009 75.9957 23.8084 74.659 23.8084C73.8299 23.8084 73.1392 23.7959 73.1242 23.7805Z" fill="#21336E"/>
</g>
<defs>
<clipPath id="clip0_2548_4511">
<rect width="40.2162" height="16" fill="white" transform="translate(36 8)"/>
</clipPath>
</defs>
</svg>
