<svg width="112" height="32" viewBox="0 0 112 32" fill="none" xmlns="http://www.w3.org/2000/svg">
<g clip-path="url(#clip0_2548_4504)">
<path fill-rule="evenodd" clip-rule="evenodd" d="M24.0052 16.4961C24.0052 16.4961 24.071 16.0562 23.5536 16.0562H19.7907C19.2639 16.0562 19.3485 15.6162 19.3485 15.6162L19.5084 14.7457C19.5272 14.6116 19.5975 14.4898 19.7044 14.4061C19.8114 14.3223 19.9468 14.283 20.0823 14.2964H24.3814C24.7577 14.2964 24.833 13.8565 24.833 13.8565L24.9929 13.1357C24.9929 13.1357 25.0682 12.6864 24.5414 12.6864H18.0315C17.8974 12.6728 17.7632 12.7108 17.6565 12.7927C17.5498 12.8745 17.4786 12.9939 17.4576 13.1264L16.0089 20.5491C16.0089 20.5491 15.9242 20.9797 16.4511 20.9797H17.8998C18.2761 20.9797 18.3419 20.5491 18.3419 20.5491L18.8217 18.1248C18.8405 17.9924 18.9093 17.8722 19.0143 17.7886C19.1192 17.7051 19.2522 17.6646 19.3861 17.6755H23.4125C23.7888 17.6755 23.864 17.2356 23.864 17.2356L24.0052 16.4961V16.4961ZM55.0494 19.3697C54.5226 19.3697 54.6072 18.9204 54.6072 18.9204L54.7765 17.9844C54.7975 17.852 54.8687 17.7325 54.9754 17.6507C55.0822 17.5689 55.2163 17.5309 55.3504 17.5445H59.6025C59.9788 17.5445 60.0541 17.1045 60.0541 17.1045L60.1858 16.3651C60.1858 16.3651 60.261 15.9158 59.7436 15.9158H55.7173C55.1999 15.9158 55.2751 15.4852 55.2751 15.4852L55.4162 14.7363C55.435 14.6022 55.5053 14.4805 55.6122 14.3967C55.7192 14.313 55.8546 14.2737 55.9901 14.2871H60.4962C60.8725 14.2871 60.9478 13.8471 60.9478 13.8471L61.1077 13.1264C61.1077 13.1264 61.1829 12.6771 60.6561 12.6771H53.9675C53.8335 12.6635 53.6993 12.7015 53.5925 12.7833C53.4858 12.8651 53.4146 12.9846 53.3937 13.117L51.9449 20.5398C51.9449 20.5398 51.8603 20.9704 52.3871 20.9704H59.4708C59.8471 20.9704 59.913 20.5398 59.913 20.5398L60.0729 19.8097C60.0729 19.8097 60.1481 19.3604 59.6213 19.3604L55.0494 19.3697ZM67.1754 15.9813C67.039 15.9704 66.9036 16.0119 66.7969 16.0972C66.6902 16.1824 66.6203 16.3051 66.6016 16.4399L66.4699 17.1794C66.4699 17.1794 66.3852 17.6193 66.912 17.6193H68.2479C68.2479 17.6193 68.643 17.6193 68.5489 18.0312L68.436 18.649C68.436 18.649 68.3702 19.1825 68.0315 19.2761C67.3025 19.4758 66.5485 19.5704 65.7925 19.5569C64.4285 19.5569 62.7163 18.9953 62.7163 17.142C62.7163 15.2886 65.1434 14.0998 66.912 14.0998C67.7715 14.1007 68.6166 14.3198 69.3673 14.7363C69.4448 14.7975 69.5382 14.8353 69.6366 14.8452C69.7349 14.8552 69.8341 14.8369 69.9224 14.7925L71.1641 14.0062C71.1641 14.0062 71.6909 13.7535 71.2958 13.4633C71.2958 13.4633 70.1105 12.5273 67.1942 12.5273C64.278 12.5273 60.6091 13.8846 60.2798 17.2917C60.2798 17.2917 59.6872 21.1669 65.595 21.2324C66.9941 21.2091 68.3847 21.011 69.7342 20.6427C69.7342 20.6427 70.4492 20.4555 70.5432 19.8846L71.1829 16.5523C71.2013 16.4841 71.2021 16.4124 71.1853 16.3438C71.1686 16.2752 71.1348 16.2119 71.087 16.1597C71.0392 16.1076 70.979 16.0681 70.912 16.0451C70.8449 16.0221 70.7731 16.0163 70.7032 16.0281L67.1754 15.9813ZM45.5385 20.9797C45.1434 20.9797 45.0117 20.5491 45.0117 20.5491L42.0202 13.1264C42.0202 13.1264 41.8132 12.6864 42.2554 12.6864H44.0616C44.2068 12.6852 44.3489 12.7286 44.4685 12.8106C44.588 12.8927 44.6792 13.0095 44.7295 13.1451L46.611 18.0406C46.611 18.0406 46.7521 18.5086 47.0908 18.0406L50.5809 13.1264C50.6741 13.0019 50.7927 12.8984 50.9289 12.8226C51.065 12.7468 51.2157 12.7004 51.3711 12.6864H52.8574C52.8574 12.6864 53.4783 12.6864 53.1303 13.1357L47.5423 20.5585C47.4503 20.6827 47.3316 20.7849 47.1949 20.8578C47.0583 20.9306 46.907 20.9723 46.7521 20.9797H45.5385ZM81.9826 20.5398L78.9816 13.1264C78.9343 12.997 78.8488 12.8849 78.7363 12.8047C78.6238 12.7246 78.4896 12.6801 78.3513 12.6771H77.2883C76.9852 12.7223 76.7117 12.8835 76.5263 13.1264L70.6091 20.5491C70.214 21.0359 70.8631 20.9797 70.8631 20.9797H72.4812C72.6321 20.9734 72.7794 20.9309 72.9104 20.856C73.0414 20.781 73.1523 20.6758 73.2337 20.5491L74.0051 19.5289C74.0791 19.4215 74.1771 19.3327 74.2913 19.2694C74.4056 19.2061 74.533 19.1699 74.6637 19.1638H78.4266C78.5566 19.167 78.6824 19.21 78.7868 19.2871C78.8912 19.3642 78.9691 19.4715 79.0098 19.5944L79.3673 20.5304C79.4033 20.6464 79.4738 20.7488 79.5696 20.824C79.6653 20.8993 79.7818 20.9438 79.9035 20.9516H81.6909C81.6909 20.9516 82.1801 21.0265 81.992 20.5398H81.9826ZM77.7399 17.6006H76.0465C75.4727 17.6006 75.7267 17.2356 75.7267 17.2356L76.9402 15.5601C77.467 14.83 77.6458 15.5601 77.6458 15.5601L78.2008 17.2356C78.3513 17.6661 77.7681 17.6006 77.7681 17.6006H77.7399ZM38.7276 12.6864C38.456 12.7532 38.2144 12.9079 38.0409 13.1264L32.6505 19.8752C32.617 19.9422 32.5653 19.9987 32.5013 20.0381C32.4373 20.0775 32.3636 20.0984 32.2883 20.0984C32.213 20.0984 32.1393 20.0775 32.0753 20.0381C32.0113 19.9987 31.9596 19.9422 31.9261 19.8752L30.7596 18.0031C30.4021 17.4509 31.1641 17.1981 31.1641 17.1981C31.7339 17.0679 32.2461 16.7578 32.6242 16.3141C33.0023 15.8705 33.2261 15.317 33.262 14.7363C33.262 12.5179 29.3109 12.7051 29.3109 12.7051H25.849C25.7149 12.6915 25.5807 12.7296 25.474 12.8114C25.3673 12.8932 25.2961 13.0126 25.2751 13.1451L23.8264 20.5679C23.8264 20.5679 23.7417 20.9984 24.2686 20.9984H25.7079C26.0936 20.9984 26.1594 20.5679 26.1594 20.5679L26.6392 18.078C26.658 17.9438 26.7282 17.8221 26.8352 17.7384C26.9422 17.6546 27.0776 17.6153 27.2131 17.6287H27.627C27.9656 17.6287 28.1538 18.0499 28.1538 18.0499L29.5837 20.5585C29.6385 20.6802 29.7249 20.7851 29.834 20.8625C29.9432 20.9398 30.0711 20.9867 30.2046 20.9984H33.9675C34.1185 20.9921 34.2657 20.9496 34.3967 20.8747C34.5277 20.7997 34.6386 20.6945 34.7201 20.5679L35.4915 19.5476C35.5655 19.4403 35.6634 19.3514 35.7777 19.2881C35.8919 19.2248 36.0194 19.1886 36.15 19.1825H39.913C40.0429 19.1857 40.1688 19.2287 40.2732 19.3058C40.3776 19.3829 40.4555 19.4902 40.4962 19.6131L40.8537 20.5491C40.8891 20.6637 40.9582 20.7651 41.0521 20.8402C41.146 20.9153 41.2604 20.9607 41.3805 20.9704H43.1209C43.1209 20.9704 43.6571 21.0265 43.4689 20.5398L40.468 13.1264C40.4206 12.997 40.3351 12.8849 40.2227 12.8047C40.1102 12.7246 39.976 12.6801 39.8377 12.6771H38.7276V12.6864ZM39.2544 17.6006H37.5329C36.9591 17.6006 37.2036 17.2356 37.2036 17.2356L38.4172 15.5601C38.944 14.83 39.1227 15.5601 39.1227 15.5601L39.6778 17.2356C39.8377 17.6661 39.2544 17.6006 39.2544 17.6006ZM29.0099 16.0374H27.6176C27.1002 16.0374 27.1754 15.5975 27.1754 15.5975L27.3636 14.6615C27.3823 14.5291 27.4512 14.4088 27.5561 14.3253C27.6611 14.2418 27.7941 14.2013 27.928 14.2122H29.1133C29.1133 14.2122 30.4021 14.1373 30.7032 14.5679C30.77 14.6489 30.8154 14.7454 30.8351 14.8484C30.8549 14.9514 30.8483 15.0577 30.8161 15.1576C30.7314 15.5601 30.3363 15.9813 29.0099 16.0094V16.0374ZM41.4275 10H40.2987C40.0526 10.0324 39.8295 10.1603 39.6778 10.3557L38.8499 11.4134C38.5489 11.7972 39.0851 11.8066 39.0851 11.8066H40.1952C40.3179 11.7928 40.4368 11.7552 40.5449 11.6958C40.6531 11.6363 40.7484 11.5563 40.8255 11.4602L41.6439 10.3931C41.9638 10.0562 41.4275 10 41.4275 10Z" fill="#231F20"/>
<path fill-rule="evenodd" clip-rule="evenodd" d="M87.2607 21.7377C91.5034 20.6238 95.9531 18.9296 95.9907 16.421C95.9907 16.421 96.574 13.1917 87.5241 11.4413C87.5241 11.4413 85.859 11.1043 85.5204 11.4413C85.1817 11.7782 86.4611 12.2275 86.4611 12.2275C88.8882 13.1636 91.5881 14.6612 91.6634 16.5333C91.6634 16.5333 92.256 18.864 86.4987 21.1105C86.4987 21.1105 85.304 21.5318 85.4545 21.8781C85.605 22.2244 86.7715 21.8219 87.2325 21.719" fill="#493394"/>
<path fill-rule="evenodd" clip-rule="evenodd" d="M86.2347 20.7365C88.6901 19.8005 91.0231 18.4245 91.0325 16.6741C91.0325 16.6741 91.4088 14.568 86.3288 12.5462C86.1689 12.49 85.5104 12.2748 85.1999 12.6024C84.8895 12.93 85.6985 13.3793 85.6985 13.3793C86.2281 13.7329 86.6717 14.1995 86.9972 14.7451C87.3226 15.2908 87.5217 15.9018 87.58 16.5337C87.58 17.6757 86.6392 18.696 85.4539 19.5665C85.4539 19.5665 84.3062 20.306 84.579 20.7459C84.8519 21.1858 85.8114 20.8863 86.263 20.7459" fill="#E04097"/>
</g>
<defs>
<clipPath id="clip0_2548_4504">
<rect width="80" height="12" fill="white" transform="translate(16 10)"/>
</clipPath>
</defs>
</svg>
