<svg width="112" height="32" viewBox="0 0 112 32" fill="none" xmlns="http://www.w3.org/2000/svg">
<g clip-path="url(#clip0_2548_4504)">
<path fill-rule="evenodd" clip-rule="evenodd" d="M13.6209 16.6615C13.6209 16.6615 13.7083 16.0749 13.0219 16.0749H8.02967C7.33076 16.0749 7.44308 15.4883 7.44308 15.4883L7.65525 14.3276C7.68016 14.1487 7.77335 13.9865 7.91528 13.8748C8.0572 13.7631 8.23685 13.7107 8.41656 13.7285H14.1201C14.6194 13.7285 14.7192 13.142 14.7192 13.142L14.9314 12.181C14.9314 12.181 15.0312 11.5819 14.3323 11.5819H5.69581C5.51797 11.5638 5.33994 11.6145 5.19833 11.7236C5.05672 11.8327 4.96231 11.9919 4.9345 12.1685L3.01251 22.0655C3.01251 22.0655 2.90018 22.6396 3.59909 22.6396H5.52109C6.02031 22.6396 6.10767 22.0655 6.10767 22.0655L6.74417 18.8331C6.76905 18.6566 6.86044 18.4962 6.99964 18.3849C7.13884 18.2735 7.31533 18.2195 7.493 18.234H12.8347C13.3339 18.234 13.4337 17.6474 13.4337 17.6474L13.6209 16.6615V16.6615ZM54.8066 20.493C54.1077 20.493 54.22 19.8939 54.22 19.8939L54.4446 18.6459C54.4724 18.4693 54.5669 18.3101 54.7085 18.2009C54.8501 18.0918 55.0281 18.0411 55.2059 18.0593H60.8471C61.3464 18.0593 61.4462 17.4727 61.4462 17.4727L61.6209 16.4867C61.6209 16.4867 61.7208 15.8877 61.0343 15.8877H55.6927C55.0063 15.8877 55.1061 15.3136 55.1061 15.3136L55.2933 14.3151C55.3182 14.1363 55.4114 13.974 55.5533 13.8623C55.6953 13.7506 55.8749 13.6982 56.0546 13.7161H62.0328C62.532 13.7161 62.6318 13.1295 62.6318 13.1295L62.844 12.1685C62.844 12.1685 62.9439 11.5694 62.2449 11.5694H53.3713C53.1935 11.5513 53.0154 11.602 52.8738 11.7111C52.7322 11.8202 52.6378 11.9794 52.61 12.156L50.688 22.053C50.688 22.053 50.5757 22.6271 51.2746 22.6271H60.6724C61.1716 22.6271 61.259 22.053 61.259 22.053L61.4712 21.0796C61.4712 21.0796 61.571 20.4805 60.8721 20.4805L54.8066 20.493ZM70.8939 15.975C70.713 15.9606 70.5333 16.0159 70.3918 16.1296C70.2502 16.2432 70.1575 16.4068 70.1326 16.5866L69.9579 17.5725C69.9579 17.5725 69.8456 18.1591 70.5445 18.1591H72.3167C72.3167 18.1591 72.8409 18.1591 72.7161 18.7083L72.5663 19.532C72.5663 19.532 72.479 20.2434 72.0297 20.3682C71.0626 20.6344 70.0622 20.7605 69.0593 20.7426C67.2496 20.7426 64.9782 19.9938 64.9782 17.5226C64.9782 15.0515 68.1981 13.4665 70.5445 13.4665C71.6848 13.4676 72.806 13.7597 73.8019 14.3151C73.9046 14.3967 74.0286 14.447 74.1591 14.4603C74.2896 14.4736 74.4212 14.4492 74.5382 14.39L76.1857 13.3417C76.1857 13.3417 76.8846 13.0047 76.3604 12.6178C76.3604 12.6178 74.7878 11.3697 70.9189 11.3697C67.0499 11.3697 62.1825 13.1794 61.7457 17.7223C61.7457 17.7223 60.9595 22.8892 68.7972 22.9766C70.6534 22.9455 72.4983 22.6813 74.2886 22.1903C74.2886 22.1903 75.2371 21.9407 75.362 21.1794L76.2106 16.7363C76.235 16.6454 76.236 16.5499 76.2138 16.4584C76.1916 16.367 76.1467 16.2826 76.0833 16.213C76.02 16.1434 75.9401 16.0909 75.8511 16.0602C75.7622 16.0295 75.6669 16.0217 75.5741 16.0374L70.8939 15.975ZM42.1888 22.6396C41.6646 22.6396 41.4899 22.0655 41.4899 22.0655L37.5211 12.1685C37.5211 12.1685 37.2465 11.5819 37.8331 11.5819H40.2293C40.422 11.5802 40.6105 11.6381 40.7691 11.7475C40.9277 11.857 41.0487 12.0127 41.1155 12.1934L43.6116 18.7207C43.6116 18.7207 43.7988 19.3448 44.2481 18.7207L48.8783 12.1685C49.002 12.0025 49.1593 11.8645 49.34 11.7634C49.5206 11.6624 49.7205 11.6005 49.9267 11.5819H51.8986C51.8986 11.5819 52.7223 11.5819 52.2605 12.181L44.8471 22.078C44.7251 22.2436 44.5676 22.3799 44.3863 22.477C44.205 22.5742 44.0043 22.6297 43.7988 22.6396H42.1888ZM90.5382 22.053L86.557 12.1685C86.4941 11.996 86.3807 11.8466 86.2315 11.7397C86.0823 11.6328 85.9043 11.5734 85.7208 11.5694H84.3105C83.9083 11.6297 83.5456 11.8447 83.2995 12.1685L75.4493 22.0655C74.9251 22.7145 75.7863 22.6396 75.7863 22.6396H77.9329C78.1332 22.6312 78.3285 22.5746 78.5023 22.4746C78.6761 22.3747 78.8233 22.2344 78.9314 22.0655L79.9548 20.7051C80.0529 20.562 80.1829 20.4436 80.3344 20.3592C80.486 20.2747 80.6551 20.2265 80.8284 20.2184H85.8206C85.993 20.2226 86.16 20.28 86.2985 20.3828C86.437 20.4856 86.5404 20.6287 86.5944 20.7925L87.0687 22.0406C87.1164 22.1952 87.2099 22.3318 87.337 22.432C87.464 22.5323 87.6185 22.5917 87.78 22.6022H90.1513C90.1513 22.6022 90.8003 22.702 90.5507 22.053H90.5382ZM84.9095 18.1342H82.663C81.9017 18.1342 82.2387 17.6474 82.2387 17.6474L83.8487 15.4134C84.5476 14.4399 84.7847 15.4134 84.7847 15.4134L85.5211 17.6474C85.7208 18.2215 84.947 18.1342 84.947 18.1342H84.9095ZM33.1529 11.5819C32.7925 11.6709 32.472 11.8773 32.2418 12.1685L25.0905 21.1669C25.046 21.2563 24.9775 21.3316 24.8926 21.3841C24.8077 21.4367 24.7099 21.4646 24.61 21.4646C24.5102 21.4646 24.4123 21.4367 24.3274 21.3841C24.2425 21.3316 24.174 21.2563 24.1295 21.1669L22.5819 18.6708C22.1077 17.9345 23.1186 17.5975 23.1186 17.5975C23.8745 17.4239 24.5541 17.0105 25.0557 16.4189C25.5573 15.8273 25.8541 15.0893 25.9017 14.3151C25.9017 11.3573 20.6599 11.6069 20.6599 11.6069H16.0671C15.8893 11.5887 15.7112 11.6394 15.5696 11.7485C15.428 11.8576 15.3336 12.0169 15.3058 12.1934L13.3838 22.0905C13.3838 22.0905 13.2715 22.6646 13.9704 22.6646H15.8799C16.3916 22.6646 16.479 22.0905 16.479 22.0905L17.1155 18.7707C17.1404 18.5918 17.2336 18.4295 17.3755 18.3178C17.5174 18.2062 17.6971 18.1538 17.8768 18.1716H18.4259C18.8752 18.1716 19.1248 18.7332 19.1248 18.7332L21.0219 22.078C21.0945 22.2403 21.2092 22.3802 21.354 22.4833C21.4988 22.5864 21.6685 22.649 21.8456 22.6646H26.8378C27.0381 22.6561 27.2334 22.5995 27.4072 22.4996C27.581 22.3997 27.7281 22.2593 27.8362 22.0905L28.8596 20.7301C28.9577 20.587 29.0877 20.4686 29.2393 20.3841C29.3909 20.2997 29.5599 20.2515 29.7333 20.2434H34.7254C34.8979 20.2476 35.0648 20.305 35.2033 20.4078C35.3419 20.5105 35.4452 20.6537 35.4992 20.8175L35.9735 22.0655C36.0204 22.2183 36.1121 22.3535 36.2367 22.4536C36.3613 22.5538 36.5131 22.6142 36.6724 22.6271H38.9813C38.9813 22.6271 39.6927 22.702 39.4431 22.053L35.4618 12.1685C35.399 11.996 35.2855 11.8466 35.1363 11.7397C34.9871 11.6328 34.8091 11.5734 34.6256 11.5694H33.1529V11.5819ZM33.8518 18.1342H31.5679C30.8066 18.1342 31.1311 17.6474 31.1311 17.6474L32.741 15.4134C33.44 14.4399 33.6771 15.4134 33.6771 15.4134L34.4134 17.6474C34.6256 18.2215 33.8518 18.1342 33.8518 18.1342ZM20.2606 16.0499H18.4134C17.727 16.0499 17.8269 15.4633 17.8269 15.4633L18.0765 14.2153C18.1013 14.0388 18.1927 13.8784 18.3319 13.7671C18.4711 13.6557 18.6476 13.6017 18.8253 13.6162H20.3978C20.3978 13.6162 22.1077 13.5164 22.507 14.0905C22.5958 14.1986 22.6559 14.3272 22.6821 14.4645C22.7083 14.6019 22.6996 14.7436 22.6568 14.8768C22.5445 15.4134 22.0203 15.975 20.2606 16.0125V16.0499ZM36.7348 8H35.2371C34.9108 8.04325 34.6147 8.21371 34.4134 8.47426L33.3152 9.88456C32.9158 10.3963 33.6272 10.4087 33.6272 10.4087H35.0999C35.2627 10.3904 35.4204 10.3402 35.5639 10.261C35.7074 10.1818 35.8338 10.0751 35.9361 9.94696L37.0219 8.52418C37.4462 8.07488 36.7348 8 36.7348 8Z" fill="#231F20"/>
<path fill-rule="evenodd" clip-rule="evenodd" d="M97.5396 23.6504C103.168 22.1652 109.072 19.9063 109.122 16.5615C109.122 16.5615 109.895 12.2557 97.8891 9.92186C97.8891 9.92186 95.68 9.47256 95.2307 9.92186C94.7814 10.3712 96.4788 10.9702 96.4788 10.9702C99.6988 12.2183 103.281 14.2151 103.381 16.7112C103.381 16.7112 104.167 19.8189 96.5287 22.8142C96.5287 22.8142 94.9437 23.3758 95.1434 23.8376C95.3431 24.2994 96.8906 23.7627 97.5022 23.6254" fill="#493394"/>
<path fill-rule="evenodd" clip-rule="evenodd" d="M96.179 22.3152C99.4364 21.0672 102.532 19.2325 102.544 16.8987C102.544 16.8987 103.043 14.0906 96.3038 11.3948C96.0916 11.3199 95.218 11.0328 94.8061 11.4697C94.3942 11.9065 95.4676 12.5055 95.4676 12.5055C96.1701 12.977 96.7587 13.5991 97.1905 14.3267C97.6223 15.0543 97.8864 15.869 97.9637 16.7115C97.9637 18.2341 96.7156 19.5945 95.1431 20.7552C95.1431 20.7552 93.6205 21.7411 93.9824 22.3277C94.3443 22.9143 95.6173 22.5149 96.2164 22.3277" fill="#E04097"/>
</g>
<defs>
<clipPath id="clip0_2548_4504">
<rect width="106.134" height="16" fill="white" transform="translate(3 8)"/>
</clipPath>
</defs>
</svg>
