<svg width="112" height="32" viewBox="0 0 112 32" fill="none" xmlns="http://www.w3.org/2000/svg">
<path d="M60.1719 15.843V23.6782H61.9298H63.6877V23.1418C63.6877 22.6578 63.689 22.6055 63.6983 22.6055C63.7135 22.6055 63.738 22.6333 63.7983 22.7186C64.0691 23.1044 64.4504 23.4158 64.9007 23.6174C65.2384 23.7687 65.6184 23.8837 65.9806 23.9431C66.2309 23.9845 66.307 23.9903 66.6341 23.9935C66.9499 23.9961 67.0936 23.9909 67.322 23.9683C68.4112 23.8611 69.3388 23.4436 70.093 22.7218C70.7471 22.0956 71.2358 21.3183 71.4914 20.4956C71.6099 20.1144 71.6834 19.7234 71.7198 19.284C71.731 19.1444 71.735 18.6908 71.7264 18.5338C71.6549 17.2536 71.2007 16.1674 70.336 15.2097C69.6599 14.4614 68.8118 13.98 67.8325 13.7887C67.4895 13.7221 67.2121 13.6956 66.7764 13.6898C66.4679 13.6859 66.4024 13.6898 66.1574 13.7241C65.5244 13.8126 64.855 14.0523 64.373 14.3632C64.1638 14.4976 64.0095 14.621 63.8241 14.8006C63.7513 14.8711 63.691 14.9286 63.6897 14.9286C63.689 14.9286 63.6877 13.3712 63.6877 11.4682V8.00775H61.9298H60.1719V15.843ZM66.0614 16.6604C66.5348 16.694 66.9241 16.8271 67.2452 17.0656C67.381 17.1664 67.5544 17.3473 67.6789 17.5179C67.9338 17.8662 68.0775 18.2869 68.0967 18.7386C68.1219 19.3557 67.9596 19.8727 67.6054 20.3037C67.3459 20.6191 67.0135 20.831 66.6023 20.9441C66.115 21.0779 65.4727 21.0688 65.002 20.9208C64.6809 20.82 64.4279 20.6675 64.1935 20.4336C63.8545 20.0943 63.6566 19.6814 63.5904 19.1774C63.5758 19.0636 63.5738 18.6992 63.5871 18.5926C63.6493 18.1047 63.83 17.706 64.1532 17.3473C64.512 16.9493 64.998 16.7186 65.588 16.6675C65.6336 16.6636 65.6813 16.6591 65.6939 16.6578C65.7495 16.6533 65.9766 16.6546 66.0614 16.6604Z" fill="#2596BE"/>
<path d="M77.9904 13.6953C76.4615 13.7528 75.1989 14.2498 74.2362 15.1712C73.5562 15.8226 73.1311 16.6084 72.9318 17.5829C72.7954 18.2491 72.7709 19.0465 72.865 19.7561C73.0331 21.0181 73.5754 22.0029 74.501 22.7273C75.4042 23.4336 76.5066 23.8504 77.7778 23.9654C78.2572 24.0094 78.7399 24.0113 79.1815 23.9719C80.0608 23.8937 80.8937 23.6469 81.6704 23.2346C82.1584 22.9754 82.5338 22.6679 82.8595 22.2601C82.9277 22.1748 83.0774 21.9577 83.133 21.862C83.3164 21.5499 83.4621 21.199 83.5647 20.8236C83.5832 20.7577 83.5978 20.7027 83.5978 20.7015C83.5978 20.7002 82.8364 20.6995 81.9061 20.6995H80.2144L80.1879 20.7409C79.9608 21.0918 79.6933 21.3166 79.349 21.4478C79.0769 21.5512 78.8187 21.59 78.4472 21.5829C78.0731 21.5758 77.7785 21.5247 77.5031 21.4187C76.7641 21.1351 76.3583 20.4895 76.3298 19.5506L76.3258 19.4136H80.0277H83.7302V19.1079C83.7302 18.7971 83.7249 18.6485 83.707 18.4249C83.623 17.3994 83.3296 16.5121 82.8331 15.7819C82.6549 15.5202 82.4934 15.3263 82.2636 15.0982C81.7856 14.6226 81.2367 14.2814 80.5633 14.041C79.8357 13.7813 78.9299 13.6598 77.9904 13.6953ZM78.7578 15.9331C79.1557 15.9874 79.504 16.1328 79.8138 16.3738C79.9012 16.4423 80.0429 16.5787 80.1045 16.6543C80.2389 16.8191 80.3501 17.0233 80.4124 17.221C80.4309 17.2785 80.466 17.4129 80.466 17.4246C80.466 17.4278 79.5483 17.4297 78.4267 17.4297C76.5847 17.4297 76.3874 17.4284 76.3874 17.4194C76.3874 17.4142 76.3967 17.3742 76.4079 17.3309C76.494 16.9981 76.637 16.7376 76.8542 16.5192C77.1885 16.1832 77.6818 15.9725 78.2479 15.9247C78.3525 15.9157 78.667 15.9208 78.7578 15.9331Z" fill="#2596BE"/>
<path d="M35.5152 13.7004C34.9325 13.7217 34.3922 13.8496 33.9096 14.0816C33.4368 14.3084 33.0078 14.6567 32.6337 15.1162C32.5701 15.1944 32.5582 15.206 32.5416 15.206H32.5224V14.6018V13.9976H30.7612H29V18.8377V23.6777H30.7612H32.5224L32.5244 20.9876C32.5271 18.165 32.5257 18.2625 32.5562 18.0235C32.6032 17.6538 32.7078 17.312 32.872 16.9915C32.9462 16.8474 32.9932 16.7815 33.0879 16.6884C33.211 16.5682 33.3415 16.4913 33.5209 16.4338C33.695 16.3782 33.8374 16.3595 34.0883 16.3595C34.2863 16.3595 34.3572 16.3653 34.4955 16.3931C34.7432 16.4422 34.9325 16.5365 35.0888 16.6884C35.1821 16.7802 35.2298 16.8467 35.3007 16.9844C35.4827 17.3391 35.5893 17.7036 35.6311 18.1172C35.6536 18.3414 35.6542 18.4441 35.6542 21.0651V23.6777H37.4121H39.1694L39.1727 21.1207C39.174 19.3844 39.1773 18.5443 39.182 18.5049C39.1859 18.4726 39.1926 18.4028 39.1965 18.3498C39.231 17.8884 39.3442 17.4651 39.5355 17.0813C39.7348 16.6813 40.0891 16.4777 40.6631 16.4331C40.7982 16.4228 41.0332 16.4286 41.1478 16.4461C41.4298 16.4881 41.6364 16.5831 41.7947 16.744C41.8675 16.8183 41.9152 16.8868 41.9728 16.9999C42.1198 17.2868 42.2197 17.6092 42.2687 17.9491C42.3065 18.2167 42.3045 18.0312 42.3065 20.9753L42.3085 23.6777H44.0664H45.8243L45.8223 20.406C45.8203 16.8338 45.823 17.0962 45.7846 16.7666C45.6925 15.9866 45.4654 15.3333 45.1006 14.7989C44.8318 14.406 44.4709 14.1262 44.0002 13.9466C43.5983 13.7928 43.1712 13.7172 42.623 13.701C41.9337 13.681 41.3616 13.7895 40.7479 14.0564C40.0268 14.3698 39.4832 14.8448 39.1131 15.4852C39.0952 15.5168 39.0787 15.542 39.0767 15.542C39.0747 15.542 39.0694 15.5349 39.0654 15.5265C39.0515 15.4962 38.9323 15.3049 38.882 15.2319C38.5781 14.7911 38.2073 14.4467 37.7763 14.2044C37.6737 14.1469 37.4439 14.0383 37.3254 13.9918C36.9447 13.8432 36.5468 13.752 36.1084 13.7133C36.0349 13.7068 35.6979 13.6932 35.6609 13.6952C35.6516 13.6958 35.586 13.6978 35.5152 13.7004Z" fill="#2596BE"/>
<path d="M51.7142 13.7017C50.6886 13.7379 49.8086 14.0281 49.0591 14.5773C48.3804 15.0749 47.7666 15.8433 47.4071 16.6452C47.2615 16.9702 47.1429 17.336 47.0701 17.6875C46.9337 18.3395 46.9158 19.0652 47.0204 19.7308C47.1555 20.5941 47.4958 21.3799 48.0401 22.0869C48.6989 22.9431 49.502 23.5111 50.4462 23.7896C50.8177 23.8995 51.1964 23.9641 51.6215 23.9893C51.7877 23.9996 52.1757 23.9977 52.2379 23.9867C52.267 23.9815 52.3246 23.9757 52.3663 23.9731C52.9748 23.9395 53.7065 23.7108 54.1673 23.4103C54.4586 23.221 54.691 22.9929 54.8963 22.695C54.9532 22.6116 54.9612 22.6032 54.979 22.6032H54.9982L55.0002 23.1408L55.0016 23.6791H56.7595H58.5174V18.8391V13.999H56.7595H55.0016V14.4772C55.0016 14.7402 54.9989 14.9554 54.9963 14.9554C54.9936 14.9554 54.9684 14.9302 54.9406 14.8985C54.8744 14.8248 54.6831 14.642 54.6076 14.5799C54.3249 14.3479 54.013 14.1696 53.631 14.0216C53.2205 13.862 52.8186 13.7657 52.3928 13.7244C52.3365 13.7192 52.2736 13.7114 52.2538 13.7082C52.2015 13.6992 51.8929 13.6953 51.7142 13.7017ZM53.1907 16.671C53.7468 16.7337 54.1812 16.9386 54.5063 17.2908C54.9254 17.745 55.1293 18.2962 55.1121 18.9263C55.0995 19.3754 54.9936 19.7431 54.7797 20.0836C54.6877 20.229 54.6003 20.3363 54.4652 20.4681C54.1819 20.7454 53.8382 20.9147 53.3992 20.9935C53.0748 21.0517 52.6669 21.0542 52.3432 21C51.6923 20.8914 51.1984 20.5547 50.8733 20.0003C50.6753 19.6617 50.5733 19.2326 50.5879 18.7971C50.6071 18.2226 50.8018 17.7457 51.1898 17.3218C51.4387 17.051 51.7691 16.8533 52.1492 16.7492C52.2995 16.7079 52.4796 16.6769 52.6643 16.6614C52.7663 16.653 53.0814 16.6588 53.1907 16.671Z" fill="#2596BE"/>
</svg>
