<svg width="112" height="32" viewBox="0 0 112 32" fill="none" xmlns="http://www.w3.org/2000/svg">
<path d="M31.1502 10.6959C30.6485 10.4666 30.1373 10.2991 29.5984 10.1875H24V10.4286C24.5665 10.4475 25.0935 10.6893 25.4792 11.0875C25.6419 11.2554 25.7797 11.4515 25.8846 11.6704V21.3302C25.5521 22.0498 24.8243 22.4926 24.0436 22.4504V22.705H29.0031V22.4504C28.2224 22.4926 27.4945 22.0498 27.1621 21.3302V16.5503C28.4155 17.1618 29.8657 17.2021 31.1502 16.6614C32.3514 16.1753 33.1398 14.9934 33.1398 13.6785C33.1398 12.3636 32.3514 11.1818 31.1502 10.6959ZM31.1865 14.1461C31.0359 15.137 30.4562 16.0069 29.6069 16.5162C28.7901 16.7204 27.9296 16.6411 27.1621 16.2908V10.8993C28.2599 10.6471 29.411 10.8266 30.3841 11.4017C31.0425 12.1478 31.3371 13.1552 31.1865 14.1461Z" fill="#1D1D1B"/>
<path d="M57.5113 16.6441C57.861 16.2884 57.861 15.7116 57.5113 15.3559C57.1615 15.0002 56.5944 15.0002 56.2446 15.3559C55.8949 15.7116 55.8949 16.2884 56.2446 16.6441C56.5944 16.9998 57.1615 16.9998 57.5113 16.6441Z" fill="#1D1D1B"/>
<path d="M51.607 16.6441C51.9568 16.2884 51.9568 15.7116 51.607 15.3559C51.2572 15.0002 50.6901 15.0002 50.3403 15.3559C49.9906 15.7116 49.9906 16.2884 50.3403 16.6441C50.6901 16.9998 51.2572 16.9998 51.607 16.6441Z" fill="#1D1D1B"/>
<path d="M44.9241 21.1708C43.7516 19.5489 42.5793 17.9269 41.407 16.3048C41.9185 16.1748 42.4006 15.9925 42.8714 15.7514C43.9178 15.2016 44.5285 14.0582 44.4121 12.8663C44.2959 11.6743 43.4763 10.6753 42.3443 10.3451C41.795 10.159 41.2441 10.0456 40.6668 10H35.0684V10.2411C35.6349 10.26 36.1618 10.5018 36.5476 10.9C36.7105 11.0679 36.8482 11.264 36.9531 11.4829V21.1427C36.6205 21.8623 35.8926 22.3051 35.1121 22.2629V22.5175H40.0714V22.2629C39.2909 22.3051 38.5631 21.8623 38.2305 21.1427V16.3628C38.7746 16.4802 39.3139 16.5309 39.8698 16.5168C41.3155 18.517 42.7613 20.5172 44.207 22.5175H46.7458V22.2652C45.9875 22.2665 45.289 21.8469 44.9241 21.1708ZM38.2305 16.1033V10.7118C39.3283 10.4596 40.4794 10.6391 41.4525 11.2142C42.4082 11.7383 42.9319 12.8212 42.7565 13.9111C42.5812 15.0009 41.7455 15.8576 40.6755 16.0446C39.8783 16.2739 39.0372 16.2941 38.2305 16.1033Z" fill="#1D1D1B"/>
<path d="M58.1481 19.4212C57.3756 21.2593 55.5676 22.4678 53.5493 22.4954C51.5312 22.5229 49.6899 21.364 48.8662 19.5479V11.4371C48.5127 10.7228 47.7875 10.2597 46.9814 10.2337V10H52.0844V10.2337C51.4037 10.2556 50.7728 10.5903 50.3794 11.1381V19.3566C50.94 20.7824 52.3404 21.7145 53.8915 21.6943C55.4426 21.6742 56.8176 20.7059 57.3398 19.2661V11.1381C56.9464 10.5901 56.3155 10.2556 55.6348 10.2337V10H60.0326V10.2337C59.2268 10.2597 58.5015 10.7226 58.1479 11.4371V19.4212H58.1481Z" fill="#1D1D1B"/>
<path d="M88.5002 19.4138C88.6141 19.4668 88.728 19.5199 88.842 19.5729C88.5297 20.6416 88.0217 21.6406 87.3449 22.5175H78.3192V22.2629C79.0997 22.3051 79.8275 21.8623 80.1601 21.1427V11.4829C79.8067 10.7458 79.0812 10.268 78.2754 10.2411V10H87.3449C88.0217 10.877 88.5297 11.8759 88.842 12.9445C88.728 12.9977 88.6141 13.0507 88.5002 13.1038C88.1431 12.0855 87.4693 11.213 86.5806 10.6193H82.4073C82.1416 10.8136 81.929 11.0736 81.7899 11.3748V15.7959H85.6811C86.3885 15.4579 86.8239 14.7174 86.7824 13.9236H87.0326V18.0237H86.7824C86.8239 17.2297 86.3885 16.4894 85.6811 16.1513H81.7899V21.1427C81.929 21.444 82.1416 21.704 82.4073 21.8983H86.5806C87.4693 21.3043 88.1431 20.4321 88.5002 19.4134V19.4138Z" fill="#1D1D1B"/>
<path d="M73.8043 11.1743C74.3128 10.6585 74.9761 10.33 75.689 10.2411V10H71.3937V10.2411C72.0743 10.2637 72.7053 10.609 73.0987 11.1743V19.4113C70.4914 16.2743 67.8842 13.137 65.2772 10H62.6045V10.2411C63.4103 10.2678 64.1356 10.7456 64.4892 11.4827V21.1431C64.1566 21.8625 63.4288 22.3055 62.6483 22.2633V22.5178H67.0794V22.2633C66.2989 22.3055 65.571 21.8627 65.2385 21.1431V12.5065C68.0939 15.9422 70.9493 19.3779 73.8045 22.8137V11.1743H73.8043Z" fill="#1D1D1B"/>
</svg>
