<svg width="112" height="32" viewBox="0 0 112 32" fill="none" xmlns="http://www.w3.org/2000/svg">
<path d="M79.9702 11.8094C80.6241 15.5713 70.423 20.4979 57.183 22.813C43.9445 25.1281 32.6824 23.9533 32.0296 20.1898C31.3773 16.4274 41.581 11.5023 54.8195 9.18781C68.0585 6.87168 79.3185 8.04642 79.9702 11.8094Z" fill="#034EA2"/>
<path d="M67.51 17.3942L67.442 13.4824H68.6707V18.4127H66.9041L65.6781 14.3665H65.6518L65.7198 18.4127H64.499V13.4824H66.342L67.4826 17.3942H67.51Z" fill="white"/>
<path d="M45.1769 13.9441L44.4972 18.4646H43.1572L44.0774 13.4824H46.2848L47.2008 18.4646H45.8661L45.2048 13.9441H45.1769Z" fill="white"/>
<path d="M50.3213 18.4646L49.4913 13.9854H49.4644L49.4333 18.4646H48.1904L48.3001 13.4824H50.325L50.9378 17.2909H50.9642L51.5774 13.4824H53.6013L53.7089 18.4646H52.4686L52.4359 13.9854H52.4101L51.5806 18.4646H50.3213Z" fill="white"/>
<path d="M41.0671 17.0591C41.1156 17.1798 41.1009 17.335 41.0782 17.4287C41.0365 17.5944 40.9247 17.7632 40.5946 17.7632C40.2835 17.7632 40.0947 17.5843 40.0947 17.3106V16.8283H38.7638L38.7627 17.2143C38.7627 18.3249 39.6338 18.66 40.5672 18.66C41.4647 18.66 42.204 18.3519 42.3216 17.5218C42.3817 17.0914 42.3369 16.8098 42.3163 16.7034C42.107 15.6605 40.2234 15.3492 40.0831 14.7658C40.0594 14.6657 40.0662 14.5598 40.0778 14.5032C40.1121 14.3444 40.2207 14.1691 40.5313 14.1691C40.8214 14.1691 40.9927 14.3491 40.9927 14.6213C40.9927 14.7128 40.9927 14.9288 40.9927 14.9288H42.2304V14.5789C42.2304 13.4936 41.2601 13.3242 40.5572 13.3242C39.6744 13.3242 38.9531 13.617 38.8212 14.428C38.7854 14.652 38.7801 14.8515 38.8323 15.1014C39.049 16.1195 40.8119 16.4143 41.0671 17.0591Z" fill="white"/>
<path d="M57.2041 17.05C57.2532 17.1696 57.2374 17.3205 57.2152 17.4142C57.1746 17.5794 57.0639 17.7456 56.7359 17.7456C56.429 17.7456 56.2418 17.5666 56.2418 17.2993L56.2407 16.8213H54.9235L54.9219 17.2019C54.9219 18.3015 55.7851 18.6334 56.709 18.6334C57.597 18.6334 58.3294 18.3295 58.4449 17.5068C58.505 17.0796 58.4623 16.8017 58.4407 16.6974C58.2324 15.664 56.3678 15.3559 56.2291 14.7783C56.2054 14.6788 56.2122 14.5739 56.2244 14.5205C56.2597 14.3606 56.3662 14.1896 56.6736 14.1896C56.961 14.1896 57.1287 14.3654 57.1287 14.6354C57.1287 14.7259 57.1287 14.9398 57.1287 14.9398H58.3569V14.5935C58.3569 13.5199 57.3945 13.3516 56.6984 13.3516C55.8257 13.3516 55.1101 13.6406 54.9809 14.4458C54.9451 14.6666 54.9414 14.8625 54.9925 15.1113C55.2061 16.1187 56.9515 16.4115 57.2041 17.05Z" fill="white"/>
<path d="M61.3732 17.7194C61.7176 17.7194 61.8252 17.4801 61.8489 17.3578C61.8589 17.3038 61.8615 17.2318 61.8605 17.1672V13.4805H63.1155V17.0545C63.1182 17.146 63.1092 17.3345 63.105 17.3816C63.0169 18.3118 62.2845 18.6135 61.3727 18.6135C60.4599 18.6135 59.7269 18.3118 59.6399 17.3816C59.6357 17.3345 59.6267 17.146 59.6294 17.0545V13.4805H60.8834V17.1672C60.8834 17.2318 60.8855 17.3043 60.895 17.3578C60.9219 17.4801 61.0263 17.7194 61.3732 17.7194Z" fill="white"/>
<path d="M71.7254 17.6667C72.0851 17.6667 72.2106 17.4385 72.2338 17.3056C72.2427 17.2484 72.2454 17.1791 72.2448 17.1161V16.3929H71.7354V15.6655H73.4951V17.0028C73.4941 17.096 73.492 17.1648 73.4772 17.331C73.3944 18.2374 72.6113 18.5608 71.7318 18.5608C70.8506 18.5608 70.0686 18.2374 69.9847 17.331C69.9705 17.1648 69.9684 17.096 69.9668 17.0028L69.9679 14.9048C69.9679 14.8164 69.9789 14.6597 69.9884 14.5766C70.0986 13.6453 70.8506 13.3457 71.7318 13.3457C72.6119 13.3457 73.3823 13.6438 73.4735 14.5766C73.4899 14.7354 73.4846 14.9048 73.4846 14.9048V15.071H72.2332V14.792C72.2343 14.7926 72.2317 14.6734 72.2169 14.6025C72.1958 14.4924 72.1004 14.2393 71.7223 14.2393C71.3605 14.2393 71.2545 14.4786 71.2282 14.6025C71.2129 14.6681 71.2071 14.7571 71.2071 14.8376V17.1161C71.206 17.1791 71.2097 17.2484 71.2197 17.3056C71.2413 17.439 71.3663 17.6667 71.7254 17.6667Z" fill="white"/>
</svg>
