<svg width="112" height="32" viewBox="0 0 112 32" fill="none" xmlns="http://www.w3.org/2000/svg">
<path d="M80.0986 8.89489V10.6729H81.8587C82.6273 10.6729 83.1325 11.1511 83.42 11.4602C83.6504 11.7148 88.7192 17.3839 88.8409 17.533C88.9625 17.6821 88.9626 17.6839 88.9626 17.7784V20.5877C88.9622 20.7165 88.9492 20.8449 88.9237 20.9712C88.8877 21.0528 88.834 21.1256 88.7666 21.1847C88.6991 21.2438 88.6194 21.2876 88.5331 21.3132C88.3667 21.3338 88.1993 21.3442 88.0316 21.3441L86.2698 21.342V23.12H96.1528V21.342H94.2931C94.1266 21.3428 93.9602 21.3324 93.7952 21.3107C93.709 21.2854 93.6294 21.2416 93.5623 21.1826C93.4951 21.1236 93.4419 21.0507 93.4064 20.9691C93.3805 20.8428 93.367 20.7144 93.3661 20.5856V17.7781C93.3551 17.6858 93.3787 17.5927 93.4323 17.5163L98.9158 11.3455C99.419 10.7928 99.6809 10.6726 100.341 10.6726H102.16V8.89453H94.0148V10.669H95.2442C95.3101 10.6651 95.3757 10.68 95.4333 10.7118C95.4909 10.7436 95.538 10.791 95.569 10.8484C95.6001 10.9059 95.6137 10.9709 95.6084 11.0358C95.6031 11.1007 95.579 11.1627 95.539 11.2145C95.5133 11.2508 92.129 15.1763 92.0866 15.2145C92.0443 15.2527 92.0168 15.2435 91.9855 15.2017C91.9541 15.1599 88.6105 11.2145 88.6105 11.2145C88.3745 10.929 88.559 10.669 88.8355 10.669H90.0336V8.89454L80.0986 8.89489Z" fill="#0F0F0F"/>
<path d="M55.8594 8.89453V10.6726H57.4369C58.576 10.6726 58.6537 11.2983 58.6537 11.8438V20.1655C58.6537 20.6637 58.683 21.3473 57.9567 21.3473H56.0102V23.1236H64.3215V21.3473H62.294C61.4848 21.3473 61.4479 20.982 61.4387 20.2056V13.0764L72.8535 23.1236H75.7566L75.6036 11.7763C75.6184 10.9472 75.67 10.6708 76.5399 10.6708H78.359V8.89453H69.8803V10.6708H71.7422C72.5975 10.6708 72.7409 10.9963 72.752 11.7763L72.8535 17.7145L62.9445 8.89453H55.8594Z" fill="#0F0F0F"/>
<path d="M18.4326 8C16.6466 8 14.6172 8.33091 12.903 9.09091C11.3031 9.79636 10 10.929 10 12.8072C9.99758 13.7908 10.3768 14.738 11.0598 15.4546C11.5225 15.8764 12.2691 16.5927 14.2192 17.0146C15.091 17.1964 16.9545 17.4891 18.8106 17.6818C20.6667 17.8745 22.4657 18.0455 23.203 18.2401C23.7891 18.3873 24.7751 18.5874 24.7751 19.6783C24.7751 20.7692 23.7375 21.0964 23.5569 21.1673C23.3763 21.2382 22.1301 21.8018 19.8924 21.8018C18.4099 21.7612 16.9408 21.512 15.5296 21.0618C14.6946 20.7673 13.8193 20.38 13.0028 19.3963C12.6731 18.9331 12.4902 18.3839 12.4772 17.8182H10.4496V23.4183H12.7022V22.6602C12.7018 22.6039 12.7166 22.5486 12.7452 22.4999C12.7737 22.4511 12.8149 22.4108 12.8645 22.383C12.914 22.3553 12.9703 22.341 13.0273 22.3418C13.0843 22.3426 13.1401 22.3583 13.1889 22.3874C14.25 22.8429 15.3537 23.1948 16.4843 23.4382C17.6677 23.6818 18.4327 23.8583 19.9036 23.8583C21.4557 23.8874 23.0025 23.672 24.4857 23.2202C25.4706 22.9538 26.3947 22.5038 27.208 21.8945C27.6655 21.5479 28.0352 21.1014 28.2882 20.59C28.5412 20.0787 28.6705 19.5164 28.666 18.9474C28.6738 17.8664 28.251 16.8255 27.4884 16.049C27.0644 15.6432 26.5731 15.3118 26.0358 15.0692C25.4583 14.8118 24.8587 14.6055 24.2441 14.4528C23.0755 14.1709 20.4511 13.8182 19.1958 13.6946C17.8798 13.5601 15.596 13.3726 14.6836 13.0945C14.4071 13.009 13.843 12.7456 13.843 12.1001C13.843 11.6401 14.1011 11.251 14.6098 10.9364C15.419 10.4364 17.0521 10.1253 18.7552 10.1253C20.4037 10.1057 22.0388 10.4207 23.5587 11.0508C23.967 11.2263 24.3509 11.4525 24.7013 11.7237C25.2725 12.205 25.668 12.8576 25.8274 13.5817H27.6468V8.70739H25.6193V9.27273C25.6193 9.45454 25.435 9.69463 25.0664 9.49645C24.1521 9.02736 21.5827 8.01273 18.4326 8Z" fill="#0F0F0F"/>
<path d="M42.8333 8C39.639 8 36.2474 9.09078 34.3304 10.809C33.5997 11.4653 33.0163 12.2653 32.6179 13.1574C32.2194 14.0496 32.0148 15.0141 32.0171 15.989C32.0057 16.9679 32.2061 17.9379 32.605 18.8343C33.004 19.7307 33.5922 20.5329 34.3304 21.1871C36.3948 23.018 39.4915 24 42.8333 24C46.1805 24 49.3435 23.029 51.3581 21.1871C52.0744 20.5175 52.6459 19.7117 53.038 18.8183C53.4302 17.9249 53.6348 16.9625 53.6398 15.989C53.6496 15.0165 53.4515 14.0528 53.0584 13.1609C52.6652 12.2691 52.0859 11.469 51.3581 10.8129C49.196 8.87831 46.3667 8 42.8333 8ZM42.8333 10.0799C44.5806 10.0799 46.2634 10.7001 47.397 11.8001C48.4937 12.8655 49.0667 14.371 49.0667 15.9819C49.0667 17.6692 48.5453 19.0364 47.397 20.1637C46.2487 21.291 44.6046 21.8945 42.8333 21.8945C41.0749 21.8945 39.3956 21.2783 38.262 20.1637C37.7198 19.6088 37.2942 18.9537 37.0095 18.2361C36.7248 17.5184 36.5867 16.7524 36.6031 15.9819C36.6031 14.3783 37.169 12.8673 38.262 11.8001C39.3956 10.6946 41.0859 10.0799 42.8333 10.0799Z" fill="#0F0F0F"/>
</svg>
