<svg width="112" height="32" viewBox="0 0 112 32" fill="none" xmlns="http://www.w3.org/2000/svg">
<path d="M72.7178 11.0784V12.31H73.937C74.4694 12.31 74.8193 12.6413 75.0185 12.8554C75.1781 13.0317 78.6893 16.9588 78.7736 17.0621C78.8579 17.1654 78.8579 17.1666 78.8579 17.2321V19.1781C78.8576 19.2673 78.8486 19.3563 78.831 19.4438C78.806 19.5003 78.7689 19.5507 78.7221 19.5916C78.6754 19.6325 78.6202 19.6629 78.5604 19.6807C78.4452 19.6949 78.3291 19.7021 78.213 19.7021L76.9926 19.7006V20.9323H83.8387V19.7006H82.5504C82.4351 19.7011 82.3198 19.6939 82.2055 19.6789C82.1458 19.6614 82.0907 19.6311 82.0441 19.5902C81.9976 19.5493 81.9607 19.4988 81.9362 19.4423C81.9182 19.3548 81.9088 19.2658 81.9082 19.1766V17.2318C81.9007 17.1679 81.917 17.1034 81.9541 17.0505L85.7526 12.7759C86.1012 12.3931 86.2825 12.3098 86.7396 12.3098H87.9997V11.0781H82.3576V12.3073H83.2092C83.2549 12.3046 83.3003 12.3149 83.3402 12.3369C83.3801 12.359 83.4127 12.3918 83.4342 12.4316C83.4557 12.4714 83.4652 12.5165 83.4615 12.5614C83.4579 12.6064 83.4412 12.6493 83.4135 12.6852C83.3956 12.7104 81.0513 15.4295 81.022 15.456C80.9926 15.4825 80.9736 15.4761 80.9519 15.4472C80.9302 15.4182 78.614 12.6852 78.614 12.6852C78.4506 12.4874 78.5783 12.3073 78.7699 12.3073H79.5998V11.0781L72.7178 11.0784Z" fill="#0F0F0F"/>
<path d="M55.9268 11.0781V12.3098H57.0195C57.8086 12.3098 57.8624 12.7432 57.8624 13.1211V18.8856C57.8624 19.2307 57.8827 19.7043 57.3796 19.7043H56.0312V20.9347H61.7886V19.7043H60.3841C59.8235 19.7043 59.7979 19.4512 59.7916 18.9134V13.9749L67.6988 20.9347H69.7097L69.6037 13.0743C69.614 12.5 69.6497 12.3086 70.2523 12.3086H71.5124V11.0781H65.6392V12.3086H66.9289C67.5214 12.3086 67.6208 12.534 67.6284 13.0743L67.6988 17.1878L60.8347 11.0781H55.9268Z" fill="#0F0F0F"/>
<path d="M30.0015 10.4585C28.7643 10.4585 27.3585 10.6877 26.1711 11.2142C25.0629 11.7028 24.1602 12.4874 24.1602 13.7885C24.1585 14.4698 24.4212 15.126 24.8943 15.6223C25.2148 15.9145 25.732 16.4108 27.0828 16.703C27.6868 16.8289 28.9776 17.0317 30.2634 17.1652C31.5491 17.2987 32.7953 17.4171 33.306 17.5519C33.712 17.6539 34.395 17.7924 34.395 18.5481C34.395 19.3038 33.6763 19.5304 33.5511 19.5796C33.426 19.6287 32.5628 20.0192 31.0127 20.0192C29.9857 19.991 28.9681 19.8184 27.9906 19.5065C27.4122 19.3025 26.8058 19.0342 26.2402 18.3528C26.0119 18.032 25.8852 17.6515 25.8761 17.2596H24.4716V21.1389H26.032V20.6137C26.0317 20.5747 26.042 20.5364 26.0618 20.5027C26.0815 20.4689 26.11 20.441 26.1444 20.4217C26.1787 20.4025 26.2177 20.3926 26.2572 20.3932C26.2967 20.3937 26.3353 20.4046 26.3691 20.4248C27.1042 20.7403 27.8687 20.9841 28.6519 21.1527C29.4716 21.3214 30.0016 21.4437 31.0205 21.4437C32.0956 21.4638 33.1671 21.3146 34.1945 21.0016C34.8768 20.8171 35.5169 20.5054 36.0803 20.0834C36.3972 19.8433 36.6533 19.5339 36.8285 19.1797C37.0038 18.8255 37.0934 18.436 37.0903 18.0419C37.0957 17.293 36.8027 16.572 36.2745 16.0341C35.9808 15.753 35.6405 15.5234 35.2683 15.3554C34.8682 15.1771 34.4529 15.0342 34.0272 14.9284C33.2177 14.7332 31.3997 14.4888 30.5302 14.4032C29.6186 14.31 28.0365 14.1802 27.4045 13.9875C27.213 13.9283 26.8222 13.7458 26.8222 13.2987C26.8222 12.98 27.001 12.7105 27.3534 12.4926C27.9139 12.1462 29.0452 11.9307 30.225 11.9307C31.3669 11.9171 32.4995 12.1353 33.5524 12.5718C33.8352 12.6934 34.1012 12.85 34.3439 13.0379C34.7395 13.3713 35.0135 13.8234 35.1239 14.325H36.3843V10.9485H34.9798V11.3401C34.9798 11.4661 34.8521 11.6324 34.5968 11.4951C33.9635 11.1702 32.1836 10.4673 30.0015 10.4585Z" fill="#0F0F0F"/>
<path d="M46.9039 10.4585C44.6912 10.4585 42.3418 11.2141 41.0139 12.4043C40.5077 12.8589 40.1036 13.4131 39.8276 14.0311C39.5516 14.6491 39.4099 15.3172 39.4115 15.9925C39.4036 16.6706 39.5424 17.3426 39.8188 17.9635C40.0951 18.5845 40.5026 19.1401 41.0139 19.5933C42.444 20.8616 44.5891 21.5418 46.9039 21.5418C49.2226 21.5418 51.4136 20.8692 52.8091 19.5933C53.3053 19.1295 53.7012 18.5713 53.9728 17.9524C54.2445 17.3336 54.3863 16.6669 54.3897 15.9925C54.3965 15.3189 54.2593 14.6513 53.987 14.0335C53.7146 13.4157 53.3133 12.8615 52.8091 12.407C51.3114 11.0669 49.3516 10.4585 46.9039 10.4585ZM46.9039 11.8993C48.1143 11.8993 49.28 12.3289 50.0653 13.0908C50.825 13.8289 51.2219 14.8717 51.2219 15.9876C51.2219 17.1564 50.8607 18.1035 50.0653 18.8844C49.2698 19.6653 48.1309 20.0834 46.9039 20.0834C45.6859 20.0834 44.5226 19.6565 43.7374 18.8844C43.3618 18.5 43.067 18.0462 42.8698 17.5491C42.6726 17.052 42.5769 16.5213 42.5882 15.9876C42.5882 14.8768 42.9802 13.8301 43.7374 13.0908C44.5226 12.3251 45.6935 11.8993 46.9039 11.8993Z" fill="#0F0F0F"/>
</svg>
