<svg width="112" height="32" viewBox="0 0 112 32" fill="none" xmlns="http://www.w3.org/2000/svg">
<path d="M78.4238 11.9927C78.5159 11.9927 78.5927 11.985 78.5927 11.8775C78.5927 11.7854 78.5006 11.7777 78.4315 11.7777H78.2856V11.9927H78.4238ZM78.2856 12.415H78.1628V11.6702H78.4468C78.6234 11.6702 78.7156 11.7317 78.7156 11.8852C78.7156 12.0234 78.6311 12.0772 78.5236 12.0848L78.7309 12.415H78.5927L78.4008 12.1002H78.2856V12.415ZM78.4161 11.4783C78.1244 11.4783 77.9017 11.7086 77.9017 12.0311C77.9017 12.3382 78.1014 12.5839 78.4161 12.5839C78.7002 12.5839 78.9305 12.3612 78.9305 12.0311C78.9305 11.701 78.7079 11.4783 78.4161 11.4783ZM78.4161 12.7067C78.0323 12.7067 77.7559 12.415 77.7559 12.0311C77.7559 11.6242 78.063 11.3555 78.4161 11.3555C78.7693 11.3555 79.0764 11.6242 79.0764 12.0311C79.0764 12.438 78.7693 12.7067 78.4161 12.7067Z" fill="#003DA6"/>
<path d="M44.9193 8.79847C44.95 8.76776 45.0959 8.71401 45.2187 8.71401H62.7542C62.8771 8.71401 63.023 8.76776 63.0537 8.79847C63.0537 8.79847 64.8272 10.6718 66.4471 12.3839H68.7734C69.2111 12.2764 69.618 12.2764 69.8483 12.2764C69.902 12.2764 69.9481 12.2764 69.9942 12.2764C68.6659 10.8023 67.4606 9.46641 67.4606 9.46641C67.2686 9.25144 66.9078 9.14395 66.6468 9.14395H64.3588C63.8828 8.63724 63.5681 8.3071 63.5681 8.3071C63.3761 8.10749 63.0153 8 62.7542 8H45.2187C44.9577 8 44.5968 8.10749 44.4049 8.3071L40.5508 12.3839H41.5258C43.1458 10.6718 44.9193 8.79847 44.9193 8.79847Z" fill="#003DA6"/>
<path d="M69.4331 17.8501C69.0953 17.9807 68.7421 18.0344 68.4504 18.0344C67.7671 18.0344 67.2297 17.8117 66.8842 17.4355C65.1644 19.2474 63.0608 21.4816 63.0608 21.4816C63.0301 21.5123 62.8842 21.5661 62.7613 21.5661H45.2182C45.0953 21.5661 44.9494 21.5046 44.9187 21.4816C44.9187 21.4816 43.245 19.7081 41.6635 18.0344C41.4408 18.0344 40.9648 17.9346 40.5963 17.781C40.5886 17.8194 40.5809 17.8655 40.5732 17.9116L44.412 21.9653C44.604 22.1649 44.9648 22.2724 45.2258 22.2724H47.1375L48.4043 23.6774C48.5963 23.8924 48.9571 23.9998 49.2258 23.9998H64.435C64.6961 23.9998 65.0646 23.8924 65.2565 23.6774L70.4466 17.9192H69.4562C69.4562 17.9269 69.4408 17.8732 69.4331 17.8501Z" fill="#003DA6"/>
<path d="M36.8728 13.1352C36.8805 12.8896 36.7961 12.736 36.6579 12.6362C36.5197 12.5364 36.3277 12.498 36.1128 12.498C35.798 12.498 35.3911 12.5901 35.3911 12.9894C35.3911 13.45 36.297 13.473 36.8882 13.6803C37.94 14.0565 38.2932 14.6324 38.2932 15.3464C38.2932 16.8051 36.8805 17.4884 35.5677 17.4884C34.178 17.4884 32.9266 16.8512 33.0034 15.3157H34.8076C34.8076 15.6458 34.8844 15.8454 35.0379 15.999C35.1991 16.1372 35.4218 16.1525 35.7212 16.1525C36.0821 16.1525 36.535 15.9683 36.535 15.569C36.535 15.1314 35.9131 15.07 35.0763 14.7936C34.3393 14.5479 33.6252 14.1564 33.6252 13.1506C33.6252 11.784 34.9458 11.1621 36.1665 11.1621C37.4563 11.1621 38.6156 11.6458 38.5773 13.1352H36.8728Z" fill="#003DA6"/>
<path d="M42.1245 14.8497C42.1245 14.4197 42.0093 14.0742 41.518 14.0742C40.7733 14.0742 40.6351 15.1414 40.6351 15.533C40.6351 15.6942 40.6965 16.2547 41.2416 16.2547C41.9172 16.247 42.1245 15.4178 42.1245 14.8497ZM39.4834 12.961H41.1111L41.0113 13.46H41.0266C41.3184 13.0531 41.6869 12.8535 42.2013 12.8535C43.4374 12.8535 43.7982 13.8746 43.7982 14.6577C43.7982 15.9629 43.1456 17.4677 41.6562 17.4677C41.1725 17.4677 40.6965 17.4063 40.3356 16.8228L39.9364 18.7806H38.2627L39.4834 12.961Z" fill="#003DA6"/>
<path d="M44.6882 12.9589H46.3158L46.1699 13.6422H46.1853C46.4847 13.1739 47.0298 12.8438 47.4674 12.8438C47.7438 12.8438 47.9051 12.8591 48.0586 12.9128L47.7438 14.3946C47.5442 14.3178 47.3139 14.2871 47.0989 14.2871C46.3849 14.2871 46.0317 14.5942 45.8398 15.5155L45.4559 17.3505H43.7822L44.6882 12.9589Z" fill="#003DA6"/>
<path d="M50.1931 12.4833H48.5194L48.7651 11.3086H50.4388L50.1931 12.4833ZM48.4273 12.9593H50.101L49.1874 17.3585H47.5137L48.4273 12.9593Z" fill="#003DA6"/>
<path d="M50.5464 12.961H52.1664L52.0359 13.5215H52.0512C52.3737 13.1222 52.8804 12.8535 53.4178 12.8535C54.1856 12.8535 54.8459 13.176 54.8459 14.0359C54.8459 14.2278 54.7921 14.5503 54.7307 14.8727L54.2009 17.3526H52.5272L52.9495 15.341C53.0033 15.0877 53.0877 14.7883 53.0877 14.6117C53.0877 14.3353 52.8881 14.1894 52.6117 14.1894C52.0819 14.1894 51.8977 14.5733 51.7979 15.0263L51.3065 17.3526H49.6328L50.5464 12.961Z" fill="#003DA6"/>
<path d="M56.6887 15.3159C56.6887 15.7075 56.8807 16.0223 57.2645 16.0223C58.063 16.0223 58.1935 15.0549 58.1935 14.7631C58.1935 14.4944 58.1705 14.0798 57.564 14.0798C56.9114 14.0722 56.6887 14.7938 56.6887 15.3159ZM59.4373 16.5904C59.1839 17.8265 58.9536 18.886 56.8269 18.886C56.3125 18.886 54.7386 18.8246 54.7924 17.4196H56.4507C56.4507 17.5885 56.4891 17.7036 56.5889 17.8034C56.6734 17.8725 56.8116 17.8956 56.9805 17.8956C57.4872 17.8956 57.6177 17.504 57.7021 17.1201L57.802 16.6518H57.7866C57.5332 16.9359 57.1417 17.0894 56.7348 17.0894C55.683 17.0894 55.015 16.4215 55.015 15.3773C55.015 14.1259 55.7597 12.8438 57.134 12.8438C57.6791 12.8438 58.1782 13.005 58.4392 13.5194H58.4545L58.562 12.9512H60.182L59.4373 16.5904Z" fill="#003DA6"/>
<path d="M65.6251 17.3582H63.8823L63.7979 14.7862H63.7825L62.6462 17.3582H60.9111L60.4658 12.959H62.1165L62.247 15.4388H62.2624L63.3372 12.959H64.9418L65.0416 15.4388H65.057L66.1395 12.959H67.9207L65.6251 17.3582Z" fill="#003DA6"/>
<path d="M69.2336 16.4752C69.8017 16.4752 70.0321 16.0606 70.1319 15.408C69.8632 15.5462 69.5484 15.577 69.2413 15.6C68.9649 15.623 68.6962 15.7689 68.6962 16.0914C68.6962 16.3985 68.9649 16.4752 69.2336 16.4752ZM67.606 14.2871C67.867 13.1201 68.7729 12.8438 69.8478 12.8438C70.6463 12.8438 71.9822 12.9436 71.9822 14.0107C71.9822 14.694 71.4447 16.6672 71.4447 16.9589C71.4754 17.2967 71.4447 17.1432 71.5138 17.3505H69.8708C69.8324 17.2123 69.8017 17.0741 69.8094 16.9282H69.7941C69.4946 17.2814 68.9265 17.458 68.4428 17.458C67.6904 17.458 67.0225 17.1278 67.0225 16.291C67.0225 15.1317 67.89 14.8169 69.1491 14.7247C69.6251 14.694 70.3775 14.7555 70.3775 14.218C70.3775 13.9109 70.1088 13.8342 69.8555 13.8342C69.5177 13.8342 69.2797 13.9493 69.1875 14.2795H67.606V14.2871Z" fill="#003DA6"/>
<path d="M73.2641 11.3086H74.9378L73.6864 17.3585H72.0127L73.2641 11.3086Z" fill="#003DA6"/>
<path d="M75.5903 11.3086H77.2717L76.0126 17.3585H74.3389L75.5903 11.3086Z" fill="#003DA6"/>
</svg>
