<svg width="112" height="32" viewBox="0 0 112 32" fill="none" xmlns="http://www.w3.org/2000/svg">
<path d="M92.4978 8C94.6142 8 96 9.36151 96 11.4426V20.5579C96 22.6406 94.6144 24 92.4978 24H19.5025C17.3856 24 16 22.6406 16 20.5579V11.4426C16 9.36151 17.3856 8 19.5025 8H92.4978ZM50.9759 16.4248C50.9759 18.4768 52.6545 20.149 54.7421 20.149C56.8405 20.149 58.5615 18.4869 58.5615 16.406C58.5615 14.354 56.8701 12.6734 54.7843 12.6734C52.6859 12.6736 50.9759 14.3439 50.9759 16.4248ZM46.8108 19.418L48.4601 15.1444L49.0506 19.4886C49.1014 19.8674 49.3775 20.0185 49.7129 20.0185H50.5588L49.4178 12.8039H48.1357L46.2314 17.706L44.3276 12.8039H43.035L41.8943 20.0185H43.2793L43.9402 15.0654L45.4371 18.8971C45.5806 19.2477 45.7938 19.4178 46.1499 19.4178L46.8108 19.418ZM33.7574 15.1047C33.7574 13.6833 32.7497 12.8039 31.3556 12.8039H28.9016V19.4672C28.9016 19.8489 29.0741 20.0182 29.462 20.0182H30.2761V17.3554H31.2233L32.3933 19.608C32.5455 19.9083 32.7497 20.0182 33.0951 20.0182H34.1961L32.5156 17.0963C33.2491 16.746 33.7574 16.0357 33.7574 15.1047ZM75.83 12.8039V19.4672C75.83 19.8489 76.0031 20.0182 76.3885 20.0182H77.1623V15.0052L80.3507 19.5176C80.6047 19.878 80.8484 20.0185 81.2255 20.0185H82.0104V12.8039H80.6753V17.907L77.1328 12.8039H75.83ZM59.4971 12.8039V19.4672C59.4971 19.8489 59.6702 20.0182 60.0581 20.0182H60.8322V15.0052L64.0189 19.5176C64.2729 19.878 64.518 20.0185 64.894 20.0185H65.6781V12.8039H64.3436V17.907L60.801 12.8039H59.4971ZM39.8461 19.5274C39.9684 19.8571 40.1725 20.0182 40.5076 20.0182H41.4967L38.6654 12.8039H37.2707L34.4595 20.0185H35.8956L36.4654 18.4274H39.4384L39.8461 19.5274ZM88.1808 19.5274C88.3034 19.8571 88.5061 20.0182 88.841 20.0182H89.8298L87.0001 12.8036H85.6043L82.7934 20.0182H84.2295L84.8006 18.4272H87.772L88.1808 19.5274ZM52.462 16.4166C52.462 15.115 53.489 14.0439 54.7631 14.0439C56.0366 14.0439 57.0738 15.115 57.0738 16.4166C57.0738 17.7163 56.0366 18.7772 54.7631 18.7772C53.489 18.7772 52.462 17.716 52.462 16.4166ZM68.5793 14.0935V19.4672C68.5793 19.8489 68.7524 20.0182 69.1403 20.0182H70.0262V14.0935H72.0523V12.8039H66.5535V13.5443C66.5535 13.9234 66.726 14.0935 67.1134 14.0935H68.5793ZM24.5532 14.0935V19.4672C24.5532 19.8489 24.7263 20.0182 25.1139 20.0182H25.9998V14.0935H28.0264V12.8039H22.5266V13.5443C22.5266 13.9234 22.6997 14.0935 23.0873 14.0935H24.5532ZM74.4337 12.8039H72.9895V19.4672C72.9895 19.8489 73.1626 20.0182 73.548 20.0182H74.4339L74.4337 12.8039ZM30.2761 14.0439H31.2338C31.7526 14.0439 32.3428 14.2837 32.3428 15.0944C32.3428 15.8859 31.7523 16.1265 31.2338 16.1265H30.2761V14.0439ZM86.2865 14.3542L87.3137 17.1671H85.2578L86.2865 14.3542ZM37.952 14.3542L38.9812 17.1671H36.925L37.952 14.3542Z" fill="#00529A"/>
<path d="M50.9757 16.4252C50.9757 18.4773 52.6542 20.1495 54.7419 20.1495C56.8403 20.1495 58.5613 18.4873 58.5613 16.4065C58.5613 14.3545 56.8698 12.6738 54.7841 12.6738C52.6857 12.6741 50.9757 14.3444 50.9757 16.4252ZM46.8106 19.4185L48.4599 15.1448L49.0504 19.489C49.1012 19.8679 49.3772 20.019 49.7127 20.019H50.5585L49.4176 12.8043H48.1355L46.2311 17.7065L44.3273 12.8043H43.0348L41.8941 20.019H43.2791L43.94 15.0659L45.4369 18.8976C45.5804 19.2481 45.7936 19.4182 46.1497 19.4182L46.8106 19.4185ZM33.7572 15.1052C33.7572 13.6837 32.7495 12.8043 31.3553 12.8043H28.9014V19.4676C28.9014 19.8494 29.0739 20.0187 29.4618 20.0187H30.2759V17.3559H31.2231L32.3931 19.6084C32.5452 19.9088 32.7495 20.0187 33.0949 20.0187H34.1958L32.5154 17.0968C33.2489 16.7465 33.7572 16.0361 33.7572 15.1052ZM75.8298 12.8043V19.4676C75.8298 19.8494 76.0029 20.0187 76.3883 20.0187H77.1621V15.0056L80.3504 19.5181C80.6044 19.8784 80.8482 20.019 81.2253 20.019H82.0102V12.8043H80.6751V17.9075L77.1326 12.8043H75.8298ZM59.4969 12.8043V19.4676C59.4969 19.8494 59.67 20.0187 60.0579 20.0187H60.832V15.0056L64.0187 19.5181C64.2727 19.8784 64.5178 20.019 64.8938 20.019H65.6778V12.8043H64.3433V17.9075L60.8008 12.8043H59.4969ZM39.8459 19.5279C39.9682 19.8576 40.1722 20.0187 40.5074 20.0187H41.4965L38.6652 12.8043H37.2705L34.4593 20.019H35.8954L36.4652 18.4279H39.4382L39.8459 19.5279ZM88.1806 19.5279C88.3032 19.8576 88.5058 20.0187 88.8407 20.0187H89.8296L86.9999 12.8041H85.6041L82.7931 20.0187H84.2292L84.8004 18.4276H87.7718L88.1806 19.5279ZM52.4618 16.4171C52.4618 15.1155 53.4888 14.0443 54.7628 14.0443C56.0363 14.0443 57.0736 15.1155 57.0736 16.4171C57.0736 17.7168 56.0363 18.7776 54.7628 18.7776C53.4888 18.7776 52.4618 17.7165 52.4618 16.4171ZM68.5791 14.094V19.4676C68.5791 19.8494 68.7522 20.0187 69.14 20.0187H70.0259V14.094H72.052V12.8043H66.5533V13.5448C66.5533 13.9239 66.7258 14.094 67.1131 14.094H68.5791ZM24.553 14.094V19.4676C24.553 19.8494 24.7261 20.0187 25.1137 20.0187H25.9996V14.094H28.0262V12.8043H22.5264V13.5448C22.5264 13.9239 22.6995 14.094 23.087 14.094H24.553ZM74.4334 12.8043H72.9893V19.4676C72.9893 19.8494 73.1624 20.0187 73.5478 20.0187H74.4337L74.4334 12.8043ZM30.2759 14.0443H31.2336C31.7523 14.0443 32.3426 14.2842 32.3426 15.0949C32.3426 15.8863 31.7521 16.127 31.2336 16.127H30.2759V14.0443ZM86.2862 14.3547L87.3135 17.1676H85.2576L86.2862 14.3547ZM37.9518 14.3547L38.981 17.1676H36.9248L37.9518 14.3547Z" fill="white"/>
</svg>
