<svg width="112" height="32" viewBox="0 0 112 32" fill="none" xmlns="http://www.w3.org/2000/svg">
<g clip-path="url(#clip0_2548_4506)">
<path d="M61.6047 16.5152C61.6047 14.9351 60.93 13.5391 58.6483 13.5391C57.4776 13.5391 56.5477 13.8736 56.0435 14.1664L56.4131 15.434C56.8773 15.142 57.6179 14.9016 58.3171 14.9016C59.4722 14.9 59.6615 15.5551 59.6615 15.9763V16.0777C57.1399 16.0736 55.5459 16.947 55.5459 18.7259C55.5459 19.8128 56.3552 20.8318 57.7697 20.8318C58.6328 20.8318 59.3621 20.4826 59.7977 19.9314H59.8401C59.8401 19.9314 60.1273 21.1361 61.7156 20.6756C61.6348 20.171 61.6047 19.6394 61.6047 18.9933V16.5152ZM59.7235 18.1836C59.7235 18.3112 59.7129 18.4437 59.6754 18.5574C59.5301 19.044 59.0293 19.4513 58.406 19.4513C57.8798 19.4513 57.467 19.1528 57.467 18.5271C57.467 17.5702 58.521 17.3069 59.7235 17.3134" fill="#0071CE"/>
<path d="M23 11.3887C23 11.3887 24.647 18.1441 24.9089 19.2384C25.2173 20.5175 25.7695 20.9902 27.3636 20.6754L28.3931 16.4863C28.6533 15.4485 28.8303 14.7042 28.9984 13.6468H29.0269C29.1436 14.7149 29.3116 15.4485 29.5246 16.4896C29.5246 16.4896 29.9447 18.3927 30.1625 19.3897C30.3746 20.3867 30.9717 21.0156 32.5356 20.6754L34.9862 11.3887H33.0079L32.1669 15.4059C31.9441 16.5697 31.7418 17.4866 31.5844 18.553H31.5558C31.4139 17.498 31.2336 16.6188 31.0019 15.4787L30.1307 11.3887H28.0668L27.1368 15.3741C26.8716 16.591 26.6237 17.5667 26.4678 18.5997H26.4409C26.2802 17.6305 26.0624 16.3964 25.8315 15.2252C25.8315 15.2252 25.2793 12.3717 25.0843 11.3887" fill="#0071CE"/>
<path d="M40.4989 16.5152C40.4989 14.9351 39.8225 13.5391 37.5408 13.5391C36.3735 13.5391 35.4419 13.8736 34.9377 14.1664L35.3073 15.434C35.7698 15.142 36.5097 14.9016 37.2113 14.9016C38.3664 14.9 38.5557 15.5551 38.5557 15.9763V16.0777C36.0341 16.0736 34.4385 16.947 34.4385 18.7259C34.4385 19.8128 35.251 20.8318 36.659 20.8318C37.5302 20.8318 38.253 20.4826 38.6887 19.9314H38.7327C38.7327 19.9314 39.0215 21.1361 40.6081 20.6756C40.5266 20.171 40.4989 19.6394 40.4989 18.9933V16.5152ZM38.6161 18.1836C38.6161 18.3112 38.6055 18.4437 38.5696 18.5574C38.4227 19.044 37.9218 19.4513 37.2969 19.4513C36.774 19.4513 36.3596 19.1528 36.3596 18.5271C36.3596 17.5702 37.4136 17.3069 38.6161 17.3134" fill="#0071CE"/>
<path d="M41.5254 11.3887V20.6721H43.4082V18.7035V11.3887H41.5254Z" fill="#0071CE"/>
<path d="M67.3838 11.3887V18.2382C67.3838 19.1836 67.5608 19.8428 67.9417 20.2468C68.2762 20.6009 68.8236 20.8316 69.4754 20.8316C70.0351 20.8316 70.5824 20.7236 70.841 20.6296L70.8182 19.155C70.6248 19.2 70.4038 19.2384 70.1003 19.2384C69.4575 19.2384 69.2454 18.8303 69.2454 17.9814V15.3593H70.8851V13.5854H69.2454V11.3887" fill="#0071CE"/>
<path d="M62.5166 13.7003V20.6758H64.463V17.1034C64.463 16.9112 64.4752 16.7452 64.5055 16.5914C64.6506 15.8382 65.2208 15.3614 66.0423 15.3614C66.2716 15.3614 66.4274 15.3867 66.6004 15.4137V13.585C66.4551 13.5588 66.3564 13.5449 66.1778 13.5449C65.4493 13.5449 64.6237 14.0086 64.2754 15.0187H64.2273V13.7003" fill="#0071CE"/>
<path d="M44.502 13.7003V20.6758H46.3986V16.5816C46.3986 16.3894 46.4198 16.1931 46.4875 16.0156C46.6417 15.601 47.0243 15.1209 47.6386 15.1209C48.4021 15.1209 48.7627 15.767 48.7627 16.6994V20.6758H50.6545V16.5325C50.6545 16.3518 50.6798 16.1301 50.7328 15.9698C50.8846 15.4996 51.299 15.1209 51.8717 15.1209C52.6434 15.1209 53.017 15.7531 53.017 16.8523V20.6758H54.9071V16.5628C54.9071 14.402 53.8107 13.5449 52.5658 13.5449C52.0185 13.5449 51.5829 13.6799 51.1913 13.922C50.8601 14.1256 50.5697 14.4127 50.3094 14.7881H50.2809C49.9815 14.0373 49.2783 13.5449 48.3597 13.5449C47.1817 13.5449 46.6466 14.1411 46.3317 14.6449H46.3031V13.7003" fill="#0071CE"/>
<path d="M81.0714 13.3864C81.4434 13.3864 81.7566 13.1917 81.7974 12.9414L82.1661 8.75406C82.1661 8.33941 81.6791 8 81.0714 8C80.4603 8 79.9766 8.33941 79.9766 8.75406L80.3486 12.9414C80.3877 13.1917 80.6993 13.3864 81.0714 13.3864Z" fill="#FFC220"/>
<path d="M78.8089 14.697C78.9933 14.3699 78.9827 14.0068 78.7836 13.8448L75.3411 11.4314C74.983 11.222 74.447 11.4714 74.1402 11.9998C73.8343 12.5273 73.8963 13.1194 74.2471 13.3247L78.0584 15.0962C78.3023 15.1878 78.6213 15.0176 78.8089 14.6938" fill="#FFC220"/>
<path d="M83.3328 14.6925C83.5277 15.0164 83.8467 15.1865 84.0841 15.0998L87.8954 13.3235C88.2495 13.1141 88.3025 12.5277 88.0031 12.0002C87.6972 11.4719 87.158 11.224 86.8007 11.4293L83.3573 13.8403C83.1664 14.0047 83.1525 14.3695 83.3368 14.6958" fill="#FFC220"/>
<path d="M81.0714 18.6172C81.4434 18.6172 81.7566 18.8118 81.7974 19.0621L82.1661 23.2495C82.1661 23.6641 81.6791 24.0003 81.0714 24.0003C80.4603 24.0003 79.9766 23.6641 79.9766 23.2495L80.3486 19.0621C80.3877 18.8118 80.6993 18.6172 81.0714 18.6172Z" fill="#FFC220"/>
<path d="M83.3328 17.3104C83.5277 16.9857 83.8467 16.8123 84.0841 16.9063L87.8954 18.6794C88.2495 18.8847 88.3025 19.476 88.0031 20.0044C87.6972 20.5286 87.158 20.778 86.8007 20.5728L83.3573 18.1585C83.1664 17.9957 83.1525 17.6326 83.3368 17.3104" fill="#FFC220"/>
<path d="M78.8089 17.3069C78.9933 17.6332 78.9827 17.9955 78.7836 18.1591L75.3411 20.5693C74.983 20.7786 74.447 20.5284 74.1402 20.0041C73.8343 19.4766 73.8963 18.8845 74.2471 18.6792L78.0584 16.9061C78.3023 16.8129 78.6213 16.9846 78.8089 17.3069Z" fill="#FFC220"/>
<path d="M89.0106 20.2047H89.0579C89.1223 20.2047 89.1484 20.2252 89.1558 20.2767C89.1696 20.334 89.177 20.3724 89.1909 20.3888H89.3132C89.3026 20.3765 89.2887 20.3454 89.2814 20.2734C89.2675 20.2113 89.2357 20.1761 89.1909 20.1639V20.1524C89.2528 20.1385 89.2887 20.0968 89.2887 20.0453C89.2887 19.9986 89.2675 19.9651 89.2463 19.9439C89.2055 19.9242 89.1664 19.9087 89.0799 19.9087C89.0032 19.9087 88.9469 19.9152 88.9021 19.9259V20.3888H89.0106V20.2047ZM89.0138 19.9937L89.0693 19.9864C89.1346 19.9864 89.1696 20.0166 89.1696 20.0592C89.1696 20.1066 89.1223 20.1287 89.062 20.1287H89.0138V19.9937ZM89.0832 19.6797C88.8156 19.6797 88.6035 19.8891 88.6035 20.1459C88.6035 20.4092 88.8156 20.6186 89.0832 20.6186C89.354 20.6186 89.5596 20.4092 89.5596 20.1459C89.5596 19.8891 89.354 19.6797 89.0832 19.6797ZM89.0832 19.7737C89.2887 19.7737 89.4413 19.9406 89.4413 20.1459C89.4413 20.3528 89.2887 20.5245 89.0832 20.5213C88.8776 20.5213 88.7218 20.3528 88.7218 20.1459C88.7218 19.9406 88.8776 19.7737 89.0799 19.7737" fill="#FFC220"/>
</g>
<defs>
<clipPath id="clip0_2548_4506">
<rect width="66.56" height="16" fill="white" transform="translate(23 8)"/>
</clipPath>
</defs>
</svg>
