<svg width="32" height="32" viewBox="0 0 32 32" fill="none" xmlns="http://www.w3.org/2000/svg">
<path d="M32 15.3845C32 9.55335 24.8373 4.80019 16.0008 4.80019C7.16482 4.80019 0.00196015 9.55335 0.00196015 15.3845C0.00196015 15.5349 0 15.9512 0 16.0041C0 22.1899 6.26077 27.2002 15.9986 27.2002C25.7968 27.2002 32 22.1913 32 16.0053V15.3845Z" fill="#002F6D"/>
<path d="M31.3871 15.3789C31.3871 20.8761 24.4995 25.3325 16.0034 25.3325C7.50691 25.3325 0.620117 20.8761 0.620117 15.3789C0.620117 9.88116 7.50691 5.42461 16.0034 5.42461C24.4995 5.42461 31.3871 9.88116 31.3871 15.3789Z" fill="#FFE900"/>
<path d="M10.8955 12.2385C10.8872 12.2542 10.7338 12.4148 10.8332 12.5438C11.0762 12.8575 11.8257 13.0373 12.584 12.8654C13.0356 12.7628 13.6139 12.2971 14.1748 11.8474C14.7823 11.3591 15.3852 10.8703 15.9912 10.6759C16.6327 10.4694 17.0438 10.5579 17.3153 10.6411C17.6134 10.7309 17.9635 10.9293 18.5224 11.3534C19.575 12.1537 23.8081 15.8903 24.5391 16.5366C25.128 16.2673 27.7452 15.1277 31.3025 14.3346C30.9937 12.4165 29.8397 10.6619 28.0904 9.22488C25.6525 10.2606 22.6725 10.8011 19.7585 9.36183C19.7437 9.35557 18.1664 8.60057 16.6107 8.63777C14.299 8.69191 13.2977 9.70403 12.2373 10.7755L10.8955 12.2385Z" fill="white"/>
<path d="M24.3677 16.9435C24.3183 16.8989 19.3906 12.5384 18.2748 11.6898C17.6287 11.1998 17.2692 11.0747 16.892 11.0262C16.6957 11.0005 16.4241 11.0374 16.2346 11.0898C15.7154 11.2327 15.0364 11.6919 14.4336 12.1753C13.8093 12.6781 13.2211 13.1516 12.6748 13.2753C11.9775 13.4334 11.1255 13.2467 10.7368 12.9809C10.5789 12.8739 10.4682 12.7501 10.4149 12.6242C10.2715 12.2874 10.5365 12.0182 10.5798 11.9731L11.9395 10.4856C12.0972 10.3261 12.2566 10.1665 12.4196 10.0092C11.9807 10.067 11.5754 10.1803 11.1807 10.2915C10.6881 10.4317 10.2142 10.5648 9.73487 10.5646C9.53464 10.5646 8.46218 10.3868 8.25879 10.3309C7.02831 9.99018 5.94831 9.6585 4.33502 8.89694C2.40239 10.3522 1.1095 12.1719 0.736328 14.1764C1.01375 14.2508 1.46156 14.3854 1.64927 14.4277C6.02355 15.4114 7.38625 16.4249 7.63322 16.6361C7.90085 16.3354 8.28668 16.1446 8.7176 16.1446C9.20188 16.1452 9.63792 16.3912 9.90284 16.7712C10.1536 16.5713 10.499 16.4002 10.9456 16.4004C11.1484 16.4004 11.359 16.4383 11.5715 16.5114C12.0646 16.6826 12.3193 17.0149 12.4517 17.3155C12.6171 17.24 12.8208 17.1843 13.0604 17.1849C13.2959 17.1849 13.5409 17.2392 13.7879 17.3474C14.5943 17.6973 14.7201 18.4987 14.6467 19.1029C14.7043 19.0959 14.762 19.0934 14.8207 19.0934C15.7769 19.0939 16.5544 19.88 16.5544 20.8478C16.5544 21.1471 16.4787 21.4288 16.3473 21.6757C16.6072 21.8237 17.2706 22.1586 17.8529 22.084C18.318 22.0243 18.4946 21.8638 18.5581 21.7733C18.6013 21.7112 18.6472 21.6386 18.6042 21.5864L17.3701 20.1996C17.3701 20.1996 17.1669 20.0052 17.2341 19.93C17.3038 19.8529 17.4289 19.9634 17.518 20.0389C18.1463 20.5694 18.9131 21.3704 18.9131 21.3704C18.926 21.3787 18.9771 21.48 19.2605 21.5314C19.5049 21.5756 19.9367 21.5501 20.2362 21.3019C20.3116 21.2389 20.3871 21.1601 20.4501 21.0797C20.4455 21.0831 20.4411 21.0888 20.4366 21.0908C20.7521 20.6821 20.4014 20.2689 20.4014 20.2689L18.9603 18.6323C18.9603 18.6323 18.7545 18.4397 18.8243 18.3621C18.8872 18.2948 19.0197 18.3962 19.1099 18.4722C19.5664 18.8581 20.2112 19.5126 20.8286 20.1245C20.9489 20.2141 21.4924 20.5533 22.211 20.0757C22.6478 19.7867 22.7353 19.4309 22.7229 19.1627C22.6926 18.8077 22.4185 18.5544 22.4185 18.5544L20.4501 16.553C20.4501 16.553 20.2424 16.3732 20.3161 16.2823C20.3757 16.2061 20.5112 16.3162 20.5994 16.3912C21.2266 16.9217 22.9242 18.4957 22.9242 18.4957C22.9479 18.513 23.5345 18.9353 24.2593 18.4687C24.5185 18.3011 24.684 18.0484 24.6981 17.7551C24.7229 17.2458 24.3677 16.9435 24.3677 16.9435Z" fill="white"/>
<path d="M14.8204 19.4802C14.5152 19.4765 14.1811 19.66 14.1374 19.6333C14.1135 19.617 14.1562 19.4932 14.1848 19.4218C14.2141 19.3504 14.6161 18.1272 13.6363 17.7025C12.8865 17.3767 12.4286 17.7431 12.2709 17.9086C12.2295 17.9522 12.2111 17.9485 12.2064 17.8932C12.1913 17.6731 12.0939 17.0772 11.4465 16.8778C10.5219 16.591 9.92727 17.2441 9.77634 17.4796C9.70895 16.9466 9.26311 16.5327 8.71715 16.5321C8.12415 16.5315 7.64333 17.0175 7.64258 17.6173C7.64243 18.2169 8.12295 18.7031 8.71625 18.7031C9.00423 18.704 9.26582 18.5873 9.45836 18.4002C9.46439 18.4056 9.4668 18.4159 9.46364 18.4367C9.41855 18.7052 9.33548 19.6812 10.3457 20.0783C10.751 20.2372 11.0955 20.1191 11.381 19.9165C11.4665 19.8556 11.4801 19.8811 11.468 19.9624C11.4314 20.2135 11.4777 20.7506 12.2225 21.0559C12.7893 21.2886 13.1246 21.0501 13.3443 20.8449C13.4399 20.7564 13.4661 20.7711 13.4709 20.9074C13.4979 21.634 14.0945 22.2105 14.8189 22.2109C15.565 22.2114 16.1696 21.6011 16.1704 20.847C16.171 20.0922 15.5664 19.4886 14.8204 19.4802Z" fill="white"/>
<path d="M14.8205 22.1137C14.1442 22.1129 13.5944 21.5819 13.5697 20.9045C13.5676 20.8461 13.5619 20.6918 13.4328 20.6918C13.3796 20.6918 13.3336 20.724 13.2804 20.7723C13.1317 20.912 12.9422 21.0535 12.6657 21.0535C12.5399 21.0535 12.4041 21.0242 12.2604 20.9646C11.546 20.6723 11.5364 20.1759 11.5656 19.9764C11.5733 19.9231 11.5759 19.868 11.5398 19.8245L11.4963 19.7849H11.4515C11.415 19.7849 11.3779 19.8 11.3271 19.8363C11.1202 19.9827 10.9224 20.0541 10.7208 20.0541C10.6101 20.0541 10.4965 20.0316 10.3822 19.9874C9.44209 19.617 9.51643 18.7193 9.56226 18.449C9.5692 18.3944 9.55563 18.3519 9.52125 18.3237L9.45476 18.2683L9.39264 18.3287C9.20945 18.5074 8.96957 18.6049 8.71762 18.6049C8.1792 18.6044 7.7409 18.1616 7.7412 17.6173C7.74165 17.072 8.18026 16.6299 8.71913 16.6305C9.20568 16.6305 9.62016 17.0008 9.68243 17.4924L9.7156 17.7576L9.85959 17.5334C9.87587 17.5069 10.2703 16.9035 10.996 16.9042C11.1338 16.9042 11.2764 16.9267 11.4198 16.9715C11.998 17.1501 12.096 17.6804 12.1113 17.9013C12.1215 18.0303 12.2121 18.0361 12.2298 18.0361C12.2797 18.0361 12.3166 18.0044 12.3426 17.9763C12.4517 17.8612 12.6895 17.6698 13.0616 17.6698C13.2315 17.6701 13.4127 17.7108 13.5999 17.7924C14.519 18.1912 14.1021 19.3724 14.0971 19.3849C14.018 19.5807 14.0151 19.667 14.0893 19.717L14.1256 19.7341H14.152C14.1936 19.7341 14.2452 19.7161 14.3302 19.687C14.4554 19.6432 14.6443 19.5772 14.8207 19.5777H14.8211C15.5132 19.5856 16.0759 20.155 16.0754 20.8469C16.0745 21.5459 15.5117 22.1137 14.8205 22.1137ZM24.558 16.421C23.0405 15.081 19.5327 11.9968 18.5828 11.2753C18.0399 10.8627 17.6697 10.6446 17.3448 10.5465C17.1986 10.502 16.9968 10.4512 16.7367 10.4509C16.4947 10.4509 16.2354 10.4951 15.9645 10.5824C15.3507 10.7788 14.739 11.2706 14.1473 11.7461L14.1169 11.7705C13.5656 12.2135 12.996 12.6719 12.5651 12.7692C12.3771 12.812 12.1836 12.8343 11.9903 12.8343C11.5079 12.8335 11.0741 12.6929 10.9114 12.4829C10.8846 12.4483 10.9019 12.392 10.9646 12.3114L10.9728 12.3005L12.3079 10.8453C13.3539 9.78756 14.3417 8.78901 16.6152 8.73594C16.6531 8.73503 16.6913 8.73442 16.729 8.73442C18.1441 8.73533 19.5589 9.37612 19.7176 9.45039C21.0448 10.1047 22.4145 10.4375 23.7916 10.4387C25.2266 10.4392 26.707 10.0799 28.2639 9.35477C28.0901 9.2067 27.9088 9.06305 27.7228 8.92168C26.3553 9.52145 25.0523 9.82461 23.7956 9.824C22.5116 9.82294 21.2283 9.51108 19.9829 8.89652C19.9173 8.8648 18.355 8.11986 16.7298 8.11894C16.6873 8.11894 16.6437 8.11986 16.6013 8.12032C14.6915 8.16546 13.6155 8.85169 12.8923 9.45252C12.1886 9.4696 11.5816 9.64147 11.0415 9.79396C10.5596 9.92938 10.1433 10.0471 9.73731 10.0466C9.57025 10.0466 9.26915 10.0312 9.24201 10.0303C8.77522 10.0158 6.42373 9.43239 4.55277 8.71627C4.36174 8.85291 4.17794 8.99412 3.99897 9.13792C5.95331 9.94844 8.33179 10.5752 9.08235 10.6245C9.29102 10.6382 9.51371 10.6621 9.73641 10.6626C10.2331 10.6626 10.7282 10.5215 11.2083 10.386C11.4914 10.3053 11.8043 10.2179 12.1327 10.1542C12.0451 10.2411 11.9576 10.3295 11.87 10.4189L10.513 11.903C10.406 12.0119 10.1747 12.303 10.3273 12.6613C10.3881 12.8059 10.5114 12.9441 10.6837 13.0618C11.0073 13.2819 11.5861 13.4307 12.1238 13.4311C12.3276 13.4311 12.5206 13.4107 12.6982 13.3703C13.2668 13.2411 13.8633 12.7608 14.4952 12.2527C14.9988 11.8479 15.7142 11.3342 16.2619 11.1834C16.4147 11.1411 16.6024 11.1152 16.7538 11.1152C16.7989 11.1155 16.8412 11.1169 16.8812 11.1225C17.2429 11.169 17.5928 11.2936 18.2175 11.7677C19.3307 12.6138 24.2589 16.9736 24.3068 17.0168C24.3106 17.0197 24.6244 17.2939 24.6025 17.7495C24.5909 18.0034 24.4513 18.2293 24.209 18.386C23.9987 18.5205 23.7815 18.5895 23.562 18.5895C23.2326 18.5887 23.006 18.4326 22.9913 18.422C22.9732 18.4071 21.2849 16.8413 20.6638 16.3155C20.5646 16.2325 20.4687 16.1579 20.3712 16.1579C20.3193 16.1575 20.2733 16.1799 20.2422 16.2194C20.1445 16.3411 20.254 16.5097 20.3829 16.6206L22.3555 18.6256C22.3579 18.6281 22.6008 18.8586 22.6277 19.1661C22.643 19.4985 22.4862 19.7762 22.1595 19.9932C21.9267 20.1478 21.6909 20.2267 21.4604 20.2267C21.1576 20.2267 20.945 20.087 20.8981 20.0541L20.615 19.7721C20.098 19.2574 19.5641 18.7255 19.1734 18.3955C19.0781 18.3154 18.9762 18.2416 18.8791 18.2416C18.8316 18.2416 18.7882 18.2596 18.755 18.2949C18.7102 18.345 18.6795 18.4352 18.7904 18.5844C18.836 18.6459 18.8898 18.6968 18.8898 18.6968L20.3294 20.3313C20.3413 20.3459 20.626 20.688 20.3615 21.0293L20.311 21.0942C20.2679 21.1427 20.2213 21.1869 20.1771 21.2245C19.9318 21.4285 19.6037 21.4505 19.474 21.4505C19.4042 21.4505 19.3373 21.4442 19.2789 21.4338C19.1372 21.4079 19.0418 21.3678 18.9958 21.3124L18.9782 21.2946C18.8996 21.212 18.1741 20.4632 17.5738 19.9565C17.4947 19.8894 17.3962 19.8046 17.294 19.8046C17.2438 19.8046 17.1986 19.8245 17.1642 19.8634C17.0452 19.9952 17.2239 20.1916 17.2994 20.2639L18.527 21.6328C18.5255 21.6453 18.5098 21.6737 18.4801 21.717C18.4361 21.778 18.2873 21.9285 17.8419 21.9857C17.7888 21.9923 17.7337 21.9953 17.6794 21.9953C17.2201 21.9953 16.7306 21.7699 16.478 21.6344C16.5927 21.3888 16.6523 21.1189 16.6523 20.8473C16.6531 19.8255 15.8325 18.9947 14.8222 18.9937C14.8008 18.9937 14.7779 18.9947 14.756 18.9954C14.7892 18.5288 14.724 17.6455 13.8275 17.2564C13.5697 17.1434 13.3122 17.086 13.062 17.086C12.8663 17.086 12.6782 17.1199 12.5006 17.1886C12.3151 16.8237 12.0066 16.5578 11.6042 16.4188C11.3821 16.3411 11.1609 16.3019 10.9473 16.3019C10.5743 16.3019 10.2305 16.4126 9.92382 16.6333C9.63026 16.2642 9.18638 16.0451 8.71913 16.0451C8.31053 16.0451 7.91716 16.2107 7.62586 16.5024C7.24395 16.2075 5.72821 15.2336 1.67191 14.3022C1.47545 14.2572 1.02464 14.1264 0.748265 14.0446C0.702429 14.2667 0.6676 14.4913 0.644531 14.7179C0.644531 14.7179 1.39283 14.8991 1.53998 14.9323C5.68373 15.8633 7.05292 16.8314 7.28451 17.0142C7.20625 17.2045 7.16539 17.4101 7.16494 17.6173C7.16449 18.4826 7.86062 19.188 8.71732 19.1889C8.81351 19.1889 8.90865 19.1807 9.00243 19.163C9.13135 19.8 9.54341 20.2831 10.1737 20.5308C10.3574 20.6026 10.544 20.6392 10.7267 20.6392C10.8448 20.6396 10.964 20.6245 11.0803 20.5946C11.1965 20.8937 11.4587 21.2661 12.0439 21.5064C12.2488 21.5901 12.4541 21.6339 12.6537 21.6339C12.8166 21.6339 12.9761 21.6052 13.1279 21.5481C13.4085 22.2392 14.0757 22.6973 14.8201 22.6973C15.3131 22.6977 15.7867 22.4946 16.1321 22.135C16.4275 22.3014 17.052 22.6016 17.6821 22.603C17.7638 22.603 17.8406 22.5972 17.9168 22.5875C18.543 22.5074 18.8346 22.2602 18.9684 22.0675C18.9923 22.0341 19.0142 21.9982 19.0327 21.9615C19.1808 22.004 19.3433 22.0391 19.5294 22.0395C19.8713 22.0395 20.1994 21.9218 20.5314 21.6775C20.8573 21.4392 21.089 21.0985 21.1222 20.8078C21.1228 20.804 21.1238 20.7995 21.1243 20.7952C21.2337 20.8182 21.3465 20.8303 21.4593 20.8303C21.8112 20.8303 22.1572 20.7189 22.4882 20.4999C23.1266 20.0766 23.2375 19.5235 23.227 19.1619C23.3389 19.1856 23.453 19.1978 23.5662 19.1978C23.897 19.1978 24.2215 19.0968 24.5309 18.8974C24.9264 18.6416 25.1644 18.25 25.2003 17.7941C25.2255 17.4842 25.1494 17.1717 24.988 16.9032C26.0573 16.4371 28.5018 15.5351 31.3801 14.8792C31.3628 14.6536 31.3307 14.4306 31.2909 14.2087C27.808 14.9904 25.2092 16.1279 24.558 16.421Z" fill="#002F6D"/>
</svg>
