<svg width="32" height="32" viewBox="0 0 32 32" fill="none" xmlns="http://www.w3.org/2000/svg">
<path d="M10.3724 24.552C10.6279 24.4383 10.8867 24.3336 11.148 24.2355C11.443 24.1246 11.7404 24.0204 12.0417 23.9296C12.4169 23.8166 12.7951 23.7144 13.1785 23.633C13.6958 23.523 14.2189 23.4421 14.7452 23.3909C14.4477 24.3241 14.1222 25.2482 13.7692 26.1619C13.7838 26.3402 13.7931 26.519 13.7972 26.6979C14.5227 26.5544 15.2605 26.4821 16 26.482C16.7539 26.482 17.49 26.5573 18.2027 26.6979C18.2069 26.519 18.2162 26.3402 18.2307 26.1619C17.8777 25.2482 17.5522 24.3241 17.2547 23.3909C17.7816 23.442 18.3046 23.5233 18.8215 23.633C19.2048 23.7144 19.583 23.8166 19.9581 23.9296C20.2596 24.0204 20.557 24.1246 20.852 24.2355C21.1134 24.3338 21.3724 24.4384 21.6279 24.5521C23.4749 25.3733 25.1203 26.5879 26.4491 28.111C29.8466 25.1771 32 20.8414 32 16C32 7.1635 24.8365 0 16 0C7.1635 0 0 7.1635 0 16C0 20.8414 2.15338 25.177 5.55088 28.111C6.8798 26.5878 8.52529 25.3732 10.3724 24.552" fill="#A5DBE8"/>
<path d="M21.628 24.5524L22.6213 27.9677L22.903 27.981C23.0859 27.981 23.2145 28.0291 23.2145 28.212C23.2145 28.516 23.2303 28.8576 23.2594 29.1559C23.5069 29.366 23.8083 29.603 24.0368 29.8332C24.8924 29.3349 25.7 28.7585 26.4493 28.1112C25.1204 26.5881 23.475 25.3735 21.628 24.5524V24.5524ZM19.6859 24.5182L20.8521 24.2357C20.5571 24.1249 20.2598 24.0206 19.9583 23.9299C19.5831 23.8169 19.2049 23.7146 18.8216 23.6332C18.3043 23.5232 17.7813 23.4424 17.2549 23.3911C17.5524 24.3244 17.8779 25.2484 18.2309 26.1621C18.2163 26.3405 18.207 26.5192 18.2029 26.6981C19.0293 26.8611 19.8418 27.1444 20.593 27.4766L19.6859 24.5182" fill="#525353"/>
<path d="M7.96289 29.8329C8.14864 29.9412 8.33627 30.0468 8.52702 30.1477C8.59377 29.8271 8.70052 29.3828 8.73277 29.0529C8.48527 29.2631 8.19139 29.6027 7.96289 29.8329ZM20.5729 27.4468C19.8128 27.1102 19.0178 26.8589 18.2023 26.6978C17.4768 26.5544 16.739 26.4821 15.9995 26.4819C15.2455 26.4819 14.5095 26.5572 13.7968 26.6978C12.9705 26.8607 12.1084 27.1078 11.3574 27.4399L11.2775 27.9376H20.7218L20.5729 27.4468" fill="black"/>
<path d="M8.70391 29.148C8.73316 28.8497 8.75428 28.5839 8.75428 28.2797C8.75428 28.097 8.87966 27.9799 9.06253 27.9799L9.36241 27.9694L10.3723 24.5522C8.5252 25.3735 6.87971 26.5881 5.55078 28.1112C6.30007 28.7585 7.10768 29.3349 7.96328 29.8332C8.19177 29.6028 8.42999 29.3822 8.67728 29.172" fill="#525353"/>
<path d="M23.3817 29.7558C23.4464 30.0808 23.4611 30.1456 23.4728 30.1479C23.663 30.0469 23.8511 29.9419 24.0369 29.8332C23.806 29.6002 23.5653 29.3771 23.3154 29.1646L23.3817 29.7558" fill="black"/>
<path d="M20.5732 27.4467L20.722 27.9375H22.6538L21.6277 24.552C21.3722 24.4388 21.1135 24.3332 20.8518 24.2354L19.6855 24.5179L20.5732 27.4467Z" fill="#AA9678"/>
<path d="M9.37988 28.6216C9.39001 28.6145 9.40026 28.6073 9.41026 28.6001H9.38126C9.38101 28.6072 9.38026 28.6145 9.37988 28.6216Z" fill="#C4B6A1"/>
<path d="M22.619 28.6001H22.5898L22.6202 28.6216C22.62 28.6145 22.6192 28.6072 22.619 28.6001Z" fill="#AA9678"/>
<path d="M22.5856 28.5503L15.9863 28.5578L16.0001 31.9998C18.4561 31.9998 20.7821 31.4449 22.8617 30.4559C22.726 29.8594 22.7123 29.2169 22.6902 28.5917C22.6802 28.5844 22.5856 28.5503 22.5856 28.5503" fill="#AA9678"/>
<path d="M15.9897 28.5725C15.9897 28.5725 9.35405 28.5641 9.34392 28.5712C9.32192 29.1966 9.19292 29.9386 9.13867 30.4564C11.2183 31.4454 13.5443 32.0002 16.0003 32.0002L16.004 28.5836L15.9897 28.5725Z" fill="#C4B6A1"/>
<path d="M20.9492 26.0198L20.9526 26.0302L20.9492 26.0198C20.9492 26.0198 20.7869 25.8912 20.5811 25.6543C20.7869 25.8912 20.9492 26.0198 20.9492 26.0198Z" fill="#AA9678"/>
<path d="M25.8379 11.5435V11.5442V11.5435ZM26.4818 16.1501L26.4819 16.1453L26.4818 16.1501Z" fill="white"/>
<path d="M26.4646 15.8963C26.4651 15.9005 26.4664 15.9043 26.4669 15.9085C26.4672 15.9111 26.468 15.9135 26.4684 15.916V15.917C26.476 15.9781 26.4789 16.042 26.4802 16.1064C26.4805 16.1183 26.4825 16.1294 26.4825 16.1411L26.4826 16.1455L26.4825 16.1503C26.4824 16.163 26.4802 16.1749 26.4801 16.1875C26.4793 16.2496 26.4754 16.3116 26.4685 16.3733V16.3742L26.4667 16.3833C26.4662 16.3881 26.4647 16.3925 26.4641 16.3973C26.4557 16.461 26.4437 16.5242 26.4282 16.5866L26.428 16.5875V16.5876L26.4302 16.5851L26.4311 16.5823V16.5824L26.8499 16.144L26.4277 15.7021L26.4279 15.703C26.4436 15.7646 26.4556 15.8294 26.4646 15.8963Z" fill="#676A6A"/>
<path d="M26.4633 16.3971C26.4645 16.3889 26.4666 16.3815 26.4677 16.3731C26.4751 16.3131 26.4778 16.2505 26.4793 16.1874C26.4795 16.1731 26.4817 16.1597 26.4817 16.1454C26.4817 16.132 26.4797 16.1195 26.4795 16.1062C26.4787 16.043 26.4748 15.9797 26.4676 15.9169C26.4666 15.9096 26.4647 15.9032 26.4638 15.8961C26.4553 15.831 26.4431 15.7665 26.4271 15.7029C26.4216 15.6814 26.414 15.6622 26.4076 15.6415C26.3697 15.5162 26.3181 15.4056 26.2568 15.3137C26.2334 15.2788 26.2078 15.2454 26.1801 15.2137C26.1548 15.1858 26.1271 15.16 26.0973 15.1369C26.0863 15.1285 26.0747 15.1226 26.0635 15.1154C26.029 15.0927 25.9917 15.0747 25.9525 15.0617C25.9155 15.0494 25.8768 15.0428 25.8378 15.042C25.7986 15.042 25.7606 15.0502 25.7232 15.0617C25.684 15.0746 25.6466 15.0926 25.6121 15.1154C25.6011 15.1226 25.5893 15.1284 25.5785 15.1367C25.527 15.1769 25.4817 15.2244 25.4442 15.2779C25.4354 15.2896 25.427 15.3016 25.4188 15.3139C25.3576 15.4057 25.3058 15.5164 25.2681 15.6416L25.2633 15.6566C25.2466 15.7141 25.2336 15.7746 25.2227 15.8367C25.2195 15.8557 25.2151 15.874 25.2125 15.8935C25.2025 15.963 25.1973 16.0355 25.1961 16.1097C25.196 16.12 25.1943 16.1297 25.1943 16.14H25.1968C25.1968 16.7495 25.4852 17.2435 25.8408 17.2435C25.9021 17.2435 25.961 17.2275 26.0171 17.2001C26.0507 17.1836 26.0825 17.1635 26.1118 17.1402C26.124 17.1305 26.1353 17.1187 26.147 17.1077C26.1753 17.0812 26.2023 17.0512 26.228 17.0179C26.2457 16.9945 26.2632 16.9711 26.2795 16.945C26.2898 16.9284 26.2993 16.9104 26.309 16.8926C26.327 16.8594 26.344 16.8247 26.3593 16.788C26.3651 16.7747 26.371 16.7619 26.3762 16.7482C26.3958 16.6971 26.413 16.6431 26.4275 16.5865C26.4428 16.5261 26.4543 16.4626 26.4633 16.3971V16.3971ZM25.861 15.9985C25.7276 15.9985 25.6195 15.8131 25.6195 15.5846C25.6195 15.3562 25.7276 15.1709 25.861 15.1709C25.9943 15.1709 26.1023 15.3562 26.1023 15.5846C26.1023 15.8131 25.9943 15.9985 25.861 15.9985Z" fill="black"/>
<path d="M25.8616 15.1709C25.7282 15.1709 25.6201 15.3563 25.6201 15.5846C25.6201 15.8131 25.7282 15.9985 25.8616 15.9985C25.995 15.9985 26.103 15.8131 26.103 15.5846C26.103 15.3563 25.995 15.1709 25.8616 15.1709" fill="white"/>
<path d="M25.2687 15.6417C25.3064 15.5165 25.3582 15.4059 25.4194 15.314C25.4277 15.3015 25.4361 15.2899 25.4448 15.278C25.4822 15.2245 25.5275 15.1769 25.5791 15.1369C25.5899 15.1285 25.6017 15.1227 25.6127 15.1155C25.6472 15.0927 25.6845 15.0747 25.7238 15.0619C25.7611 15.0501 25.7992 15.0421 25.8384 15.0421C25.8777 15.0421 25.9158 15.0501 25.9531 15.0619C25.9922 15.0748 26.0296 15.0928 26.0641 15.1155C26.0753 15.1227 26.0869 15.1286 26.0979 15.137C26.1267 15.159 26.1542 15.185 26.1807 15.2139C26.2084 15.2455 26.234 15.2789 26.2574 15.3139C26.3187 15.4057 26.3703 15.5164 26.4082 15.6416V15.6419L25.8384 13.0322L25.2686 15.6417H25.2687" fill="#909393"/>
<path d="M18.287 16.121C18.2862 16.0685 18.2829 16.0166 18.277 15.9656C18.2769 15.965 18.2766 15.9643 18.2766 15.9635C18.2707 15.9136 18.2623 15.8641 18.2515 15.815L18.2505 15.8113C18.2398 15.7634 18.2267 15.7161 18.2114 15.6695L18.2101 15.6664C18.1949 15.6202 18.1773 15.5748 18.1574 15.5304C18.1571 15.5295 18.1565 15.5286 18.1561 15.5276C17.9973 15.1743 17.7092 14.8951 17.351 14.7476L17.3466 14.746C17.2595 14.7104 17.1692 14.6832 17.0769 14.6646C17.0745 14.6643 17.0722 14.6641 17.0699 14.6636C16.9746 14.6448 16.8778 14.6353 16.7807 14.6353C16.6834 14.6353 16.5887 14.6453 16.4966 14.6629L16.4869 14.6644C16.3952 14.6826 16.3069 14.7094 16.222 14.7434L16.2153 14.746C16.1294 14.7808 16.047 14.8236 15.9691 14.8736C15.8912 14.9239 15.8181 14.981 15.7509 15.0441L15.7493 15.0493L15.7436 15.0505C15.6359 15.153 15.5437 15.2706 15.47 15.3998L15.4672 15.4044C15.4447 15.444 15.4244 15.4853 15.4056 15.5273C15.4036 15.5318 15.4011 15.536 15.3992 15.5405C15.3821 15.5794 15.3674 15.6196 15.3536 15.6601C15.351 15.6681 15.3475 15.6756 15.345 15.6835C15.333 15.7214 15.3232 15.7603 15.314 15.7991C15.3116 15.8104 15.308 15.8211 15.3056 15.8323C15.2976 15.8708 15.2921 15.9101 15.287 15.9496C15.2855 15.9618 15.2829 15.9734 15.2816 15.9855C15.2659 16.1352 15.2728 16.2864 15.3021 16.434C15.3024 16.4359 15.3025 16.438 15.303 16.44C15.3219 16.5341 15.3496 16.6249 15.3852 16.7118C15.3857 16.713 15.386 16.7143 15.3866 16.7154C15.4587 16.8898 15.5629 17.0492 15.6936 17.1854C15.7961 17.2923 15.9141 17.3839 16.0439 17.4571L16.0458 17.4583C16.0863 17.481 16.1281 17.5015 16.1708 17.5205C16.1743 17.522 16.1776 17.524 16.1813 17.5255C16.2208 17.5428 16.2616 17.5576 16.3028 17.5715C16.3098 17.5739 16.3165 17.5769 16.3235 17.5791C16.3615 17.5913 16.4007 17.601 16.44 17.61C16.4506 17.6125 16.4609 17.616 16.4716 17.6183C16.5098 17.6261 16.549 17.6315 16.5885 17.6366C16.6004 17.638 16.6121 17.6408 16.6242 17.642C16.9763 17.6791 17.3301 17.5908 17.6235 17.3928C17.784 17.2843 17.9222 17.1461 18.0307 16.9856C18.1989 16.7367 18.2885 16.4431 18.2883 16.1428C18.2883 16.1391 18.2877 16.1358 18.2877 16.1324C18.2876 16.1285 18.2871 16.1249 18.287 16.121V16.121ZM16.7807 15.9444C16.7064 15.9444 16.6327 15.9297 16.564 15.9012C16.4953 15.8728 16.4329 15.8311 16.3803 15.7785C16.3277 15.7259 16.286 15.6634 16.2576 15.5947C16.2291 15.526 16.2145 15.4524 16.2145 15.378C16.2145 15.3036 16.2292 15.23 16.2576 15.1613C16.2861 15.0926 16.3278 15.0302 16.3804 14.9776C16.433 14.925 16.4954 14.8833 16.5642 14.8548C16.6329 14.8264 16.7065 14.8117 16.7809 14.8118C16.9311 14.8118 17.0751 14.8715 17.1813 14.9777C17.2875 15.0839 17.3471 15.2279 17.3471 15.3781C17.3471 15.5283 17.2874 15.6724 17.1812 15.7786C17.075 15.8847 16.9309 15.9444 16.7807 15.9444V15.9444Z" fill="black"/>
<path d="M16.7811 14.8115C16.6309 14.8115 16.4869 14.8712 16.3807 14.9774C16.2745 15.0836 16.2148 15.2276 16.2148 15.3778C16.2148 15.528 16.2745 15.672 16.3807 15.7782C16.4869 15.8844 16.6309 15.944 16.7811 15.944C16.9313 15.944 17.0753 15.8844 17.1815 15.7782C17.2877 15.672 17.3473 15.528 17.3473 15.3778C17.3473 15.2276 17.2877 15.0836 17.1815 14.9774C17.0753 14.8712 16.9313 14.8115 16.7811 14.8115" fill="white"/>
<path d="M15.7437 15.0505L15.7494 15.0492L15.751 15.0441L16.7892 11.8688V11.1257L16.7891 11.1173C16.2031 10.996 15.6063 10.9345 15.0079 10.9336C14.8047 10.9336 14.6032 10.9422 14.403 10.9558C14.3739 10.9578 14.3446 10.9596 14.3154 10.9618C13.2732 11.041 12.247 11.3126 11.2967 11.7463C10.4819 12.1185 9.72473 12.6086 9.04411 13.1897V13.1898L9.04298 13.1908C8.86088 13.3468 8.68447 13.5093 8.51411 13.678C8.48211 13.7092 8.44961 13.7402 8.41798 13.772C8.25694 13.9344 8.10116 14.1019 7.95086 14.2743C7.91823 14.312 7.88611 14.3503 7.85386 14.3883C7.70218 14.5663 7.55619 14.749 7.41611 14.9362C7.40448 14.952 7.39361 14.9685 7.38211 14.9842C7.24923 15.1657 7.12184 15.3511 7.00011 15.5402C6.97623 15.5771 6.95173 15.6135 6.92836 15.6507C6.82961 15.8073 6.73773 15.9682 6.64648 16.1295H11.3761L15.7437 15.0505Z" fill="#BBBCBD"/>
<path d="M19.7364 14.6931C19.7461 14.5692 19.7539 14.4454 19.7603 14.3214C19.7689 14.1537 19.7748 13.9857 19.7781 13.8178C19.7806 13.6874 19.7802 13.5569 19.7796 13.4266C19.7796 13.3889 19.7804 13.3513 19.7801 13.3136C19.7762 12.9769 19.7638 12.6404 19.7429 12.3044L19.7401 12.3026L19.7388 12.3002C19.6139 12.2284 19.4887 12.1569 19.3634 12.0857L19.3547 12.0807L19.2568 12.0253L19.2551 12.0243L19.1872 11.9863L19.1738 11.9788C19.1574 11.9697 19.141 11.9608 19.1244 11.9519C18.907 11.8391 18.6852 11.7349 18.4596 11.6396C17.9217 11.4124 17.1972 11.2133 16.7891 11.1172V11.8687L17.8182 15.0491L17.8193 15.0517C17.9256 15.1529 18.0169 15.2693 18.0902 15.3976V15.3977C18.1142 15.4397 18.1362 15.4831 18.1561 15.5274C18.1566 15.5284 18.1571 15.5293 18.1573 15.5302C18.1772 15.5744 18.1947 15.6198 18.2101 15.6662L18.2113 15.6693C18.2266 15.7157 18.2397 15.7629 18.2504 15.8111L18.2514 15.8148C18.2622 15.8634 18.2706 15.9131 18.2766 15.9633C18.2766 15.9641 18.2768 15.9648 18.2769 15.9654C18.2828 16.0164 18.2862 16.0683 18.2869 16.1208L18.2908 16.1293H19.5509C19.6355 15.6669 19.6963 15.2004 19.7331 14.7317C19.7339 14.7188 19.7354 14.7059 19.7364 14.6931" fill="#E3DDDB"/>
<path d="M21.3859 13.5688C21.3847 13.5707 21.3838 13.573 21.3828 13.5749L21.3859 13.569" fill="#FCB03F"/>
<path d="M15.751 15.0439C15.8187 14.9804 15.892 14.9232 15.9701 14.873C16.0477 14.8231 16.1298 14.7805 16.2154 14.7458C16.2176 14.7448 16.22 14.7442 16.2221 14.7432C16.3078 14.7087 16.3964 14.6823 16.487 14.6642L16.4967 14.6627C16.5903 14.6445 16.6855 14.6352 16.7808 14.635C16.8798 14.635 16.9764 14.645 17.07 14.6634C17.0724 14.6639 17.0746 14.664 17.077 14.6644C17.1708 14.6832 17.2626 14.711 17.3511 14.7474C17.5247 14.819 17.6835 14.9222 17.8195 15.0517L17.8183 15.049L16.7892 11.8687L15.751 15.0439" fill="#909393"/>
<path d="M15.3858 16.7115C15.3498 16.6238 15.3222 16.5328 15.3035 16.4398C15.303 16.4378 15.3029 16.4357 15.3027 16.4338C15.2734 16.2862 15.2665 16.135 15.2822 15.9853C15.2834 15.9732 15.286 15.9615 15.2875 15.9494C15.2927 15.9099 15.2982 15.8705 15.3062 15.832C15.3085 15.8209 15.3122 15.8102 15.3145 15.7989C15.3238 15.76 15.3335 15.7212 15.3455 15.6833C15.3482 15.6754 15.3514 15.6679 15.3542 15.6599C15.3679 15.6194 15.3827 15.5792 15.3998 15.5403C15.4017 15.5358 15.4042 15.5315 15.4062 15.527C15.4249 15.485 15.4453 15.4438 15.4678 15.4042L15.4705 15.3995C15.5443 15.2704 15.6364 15.1528 15.7442 15.0503L11.3765 16.1293H11.3682L15.6942 17.1852C15.5634 17.049 15.4593 16.8896 15.3872 16.7152C15.3865 16.714 15.3863 16.7128 15.3858 16.7115" fill="#676A6A"/>
<path d="M25.2131 15.8937C25.2158 15.8742 25.2199 15.856 25.2233 15.837C25.2342 15.7748 25.2472 15.7143 25.2639 15.6568C25.2658 15.6503 25.2666 15.643 25.2686 15.6366L25.8384 13.0271L25.8383 11.5392C25.3727 11.1546 24.8741 10.9443 24.3549 10.9443C23.6989 10.9443 23.0873 11.3066 22.6299 11.754C22.1294 12.2436 21.7427 12.8596 21.4299 13.4812C21.4156 13.5098 21.4008 13.5373 21.3866 13.5661C21.4829 13.6496 21.5783 13.7342 21.6724 13.8203C21.8851 14.0156 22.0942 14.2149 22.2994 14.418C22.3952 14.5125 22.4892 14.609 22.5834 14.7051C22.6834 14.807 22.7836 14.9086 22.8821 15.0121C23.0622 15.2013 23.2398 15.3929 23.4148 15.5868C23.565 15.7525 23.7136 15.9196 23.8604 16.0882L23.8607 16.0885C23.8853 16.1142 23.9026 16.1327 23.9092 16.1402H25.1944C25.1944 16.1298 25.1966 16.1203 25.1967 16.11C25.1979 16.0357 25.2031 15.9632 25.2131 15.8937V15.8937ZM21.3864 13.573L21.3851 13.5691L21.3828 13.5733L21.3884 13.5788C21.3878 13.5769 21.3872 13.5749 21.3864 13.573" fill="#E3DDDB"/>
<path d="M5.87183 17.7716L5.88333 17.7428C6.05591 17.295 6.25492 16.8579 6.47933 16.4337C6.51408 16.3677 6.54808 16.3015 6.58408 16.2361C6.60395 16.2 6.62645 16.1655 6.6467 16.1295C6.73795 15.9682 6.82983 15.8073 6.92858 15.6507C6.95195 15.6133 6.97645 15.5771 7.00033 15.5402C7.12206 15.3511 7.24945 15.1657 7.38233 14.9842C7.39383 14.9685 7.4047 14.952 7.41633 14.9362C7.55641 14.749 7.7024 14.5663 7.85408 14.3883C7.88633 14.3503 7.91833 14.3121 7.95108 14.2743C8.10138 14.1019 8.25716 13.9344 8.4182 13.772C8.44995 13.7402 8.48233 13.7092 8.51433 13.678C8.68469 13.5093 8.8611 13.3468 9.0432 13.1908L9.04433 13.1897C9.7632 10.7817 12.0845 9.30195 14.6871 9.30195C15.7346 9.30195 16.7763 9.60383 17.6691 10.15C18.5848 10.7101 19.2092 11.2573 19.694 12.214L19.7012 12.2283C19.7135 12.2526 19.7272 12.2758 19.7392 12.3003L19.7405 12.3027L19.7433 12.3046C20.1504 12.5565 20.5382 12.8383 20.9035 13.1477C21.0263 13.2514 21.1469 13.3578 21.265 13.467C21.304 13.5027 21.3441 13.5367 21.3826 13.5731C21.3833 13.5716 21.384 13.5701 21.3848 13.5687C21.3852 13.5677 21.3857 13.5667 21.3862 13.5657C21.3995 13.5386 21.4125 13.511 21.4258 13.4842C21.7926 11.1696 22.9578 9.90746 24.1621 9.90746C25.0698 9.90746 25.7297 10.4487 26.2281 11.9057L26.2332 11.9213L26.2345 11.9231C26.3814 12.0834 26.5186 12.2524 26.6453 12.4291L26.6451 12.429C26.6477 12.4325 26.6505 12.4357 26.6531 12.4393L26.653 12.4392L26.6531 12.4393C26.6602 12.4605 26.6663 12.4822 26.6732 12.5033V12.5032L26.6545 12.4273C25.1563 7.99208 20.9613 4.79883 16.0203 4.79883C9.82283 4.79883 4.79883 9.82283 4.79883 16.0203C4.79883 17.2421 4.99408 18.4183 5.35658 19.5128L5.35808 19.5065C5.48552 18.9161 5.65726 18.3362 5.87183 17.7716" fill="#525353"/>
<path d="M26.8223 16.1446L26.4309 16.5825V16.5823L26.43 16.5852C26.4151 16.6428 26.3969 16.6966 26.3768 16.7485C26.3715 16.7621 26.3656 16.775 26.3599 16.7882C26.3449 16.8239 26.3281 16.8588 26.3095 16.8928C26.2999 16.9106 26.2904 16.9286 26.28 16.9452C26.2638 16.9712 26.2463 16.9948 26.2285 17.0181C26.204 17.0502 26.1769 17.0803 26.1475 17.108C26.1359 17.1188 26.1246 17.1307 26.1124 17.1405C26.0831 17.1638 26.0513 17.1838 26.0176 17.2003C25.9615 17.2277 25.9026 17.2437 25.8414 17.2437C25.4858 17.2437 25.1974 16.7497 25.1974 16.1402H23.9053L23.906 16.1412C24.1488 16.4218 24.3877 16.7057 24.6228 16.9927C24.8487 17.2687 25.0718 17.547 25.292 17.8276L25.3245 17.8687C25.5333 18.1352 25.7401 18.4031 25.945 18.6725L26.0048 18.7505C26.2225 19.037 26.4388 19.3247 26.6536 19.6133C27.0318 18.4939 27.2304 17.3217 27.2421 16.1402L26.8789 16.1265L26.8223 16.1446" fill="white"/>
<path d="M14.3152 10.9619C14.3444 10.9597 14.3737 10.9579 14.4028 10.9559C14.6041 10.9417 14.8059 10.9342 15.0077 10.9337C15.6162 10.9337 16.2107 10.9988 16.7889 11.1174H16.7891C17.1972 11.2136 17.9217 11.4127 18.4596 11.6398C18.6852 11.7351 18.907 11.8393 19.1244 11.9522L19.1738 11.9791L19.1872 11.9866C19.2073 11.9978 19.2293 12.0099 19.2551 12.0246L19.2568 12.0256L19.3547 12.0809L19.3634 12.0859C19.5017 12.1643 19.6547 12.2522 19.7132 12.2857L19.7282 12.2943L19.7388 12.3004C19.7268 12.2759 19.7131 12.2527 19.7008 12.2284L19.6936 12.2141C19.2088 11.2574 18.4626 10.4369 17.5468 9.87681C16.6541 9.33068 15.6123 9.02881 14.5647 9.02881C11.9622 9.02881 9.76282 10.7818 9.04395 13.1898C9.72457 12.6087 10.4817 12.1186 11.2966 11.7464C12.2468 11.3127 13.2731 11.0411 14.3152 10.9619" fill="black"/>
<path d="M26.6528 12.4393L26.6526 12.4392L26.6528 12.4393C26.6501 12.4357 26.6474 12.4325 26.6448 12.429L26.645 12.4291C26.5183 12.2524 26.3811 12.0834 26.2341 11.9231L26.2305 11.9187C26.1679 11.8507 26.1033 11.7846 26.0366 11.7206C26.012 11.697 25.9865 11.6763 25.9616 11.6537C25.9205 11.6163 25.8796 11.5777 25.8379 11.5435V13.0321L26.4078 15.6418V15.6417C26.414 15.662 26.4215 15.681 26.427 15.702L26.8218 16.1443L26.8256 16.14H27.2388C27.2393 16.1017 27.2416 16.064 27.2416 16.0256V16.025C27.2414 14.8282 27.0494 13.6392 26.6729 12.5032V12.5033C26.666 12.4822 26.6599 12.4605 26.6528 12.4393" fill="#BBBCBD"/>
<path d="M22.6293 11.7536C23.0867 11.3062 23.6983 10.944 24.3543 10.944C24.8734 10.944 25.3721 11.1542 25.8377 11.5388L25.8378 11.5433V11.5441V11.5433C25.8796 11.5776 25.9204 11.6162 25.9616 11.6536C25.9864 11.6762 26.0119 11.6968 26.0366 11.7205C26.1032 11.7845 26.1678 11.8506 26.2304 11.9186L26.2341 11.923C26.2338 11.9224 26.2334 11.9219 26.2329 11.9215L26.2328 11.9213L26.2277 11.9056C25.7293 10.4486 24.9252 9.50195 24.0177 9.50195C22.8133 9.50195 21.7922 11.1695 21.4254 13.4841L21.4293 13.4808C21.7421 12.8592 22.1288 12.2432 22.6293 11.7536V11.7536ZM21.0019 25.9793C21.0019 25.9793 20.8398 25.8508 20.6339 25.614C20.5382 25.5044 20.4489 25.3893 20.3666 25.2693C20.3403 25.2311 20.3143 25.1913 20.2884 25.1503C20.2106 25.0272 20.1484 24.8773 20.0799 24.7292C20.0007 24.5577 20.0004 24.4436 19.9549 24.2838C19.9215 24.1662 19.8949 24.0467 19.8753 23.926C19.8437 23.7306 19.8311 23.5327 19.8374 23.335C19.8409 23.2208 19.8527 23.1027 19.8698 22.9825C19.8868 22.863 19.9101 22.7446 19.9394 22.6276C20.0302 22.2647 20.1871 21.8782 20.4318 21.4702L20.4941 21.3305C20.5741 21.1972 20.5918 21.2031 20.6678 21.0747C21.7383 19.2681 22.3158 17.902 22.0333 15.7985C22.0023 15.583 21.9672 15.3681 21.9278 15.154C21.9032 15.3092 21.8772 15.4641 21.8497 15.6188C21.8391 15.6668 21.8099 15.719 21.7989 15.7516C21.3339 17.1278 20.6019 18.1402 19.5487 19.2833C19.4021 19.4419 19.2536 19.5988 19.1034 19.754C18.8352 20.0313 18.5641 20.3059 18.2903 20.5777C18.1763 20.6911 18.0601 20.8061 17.9418 20.9233C17.8332 21.0308 17.6981 21.2607 17.5368 21.4301C17.4373 21.7087 17.3242 22.023 17.2286 22.3535C17.1854 22.3371 17.1443 22.3225 17.1004 22.3055C15.0544 21.5141 13.6846 20.4567 13.6846 20.4567C13.6846 20.4567 14.7386 21.8291 16.5143 23.1173C16.6776 23.2356 16.8469 23.3453 17.0217 23.4458C16.9484 24.6053 17.4599 25.7185 19.7688 26.0505C20.1592 26.1066 20.5589 26.104 20.9616 26.0586C20.9576 26.0466 20.9841 26.0468 20.9819 26.0402C20.9797 26.0335 21.0034 26.0157 21.0034 26.0157" fill="black"/>
<path d="M19.767 22.9948C21.8168 23.3255 24.8504 23.2713 27.9997 21.7968C28.0755 21.7613 28.1592 21.8548 28.235 21.8175C28.235 21.8175 26.0827 24.0159 23.5122 25.2588C23.437 25.295 23.3629 25.3337 23.287 25.3682C23.0387 25.4817 22.786 25.5805 22.5324 25.6718C22.035 25.8505 21.531 25.9862 21.0307 26.0488C21.0077 26.0518 20.9847 26.0562 20.9617 26.0587C20.9585 26.0492 20.9554 26.0398 20.9523 26.0303L20.9489 26.0199C20.9489 26.0199 20.7867 25.8913 20.5808 25.6544C20.4849 25.545 20.3957 25.4299 20.3135 25.3098C20.1988 25.1432 20.0984 24.9671 20.0134 24.7835C19.9416 24.6285 19.8819 24.4682 19.835 24.3039C19.7468 23.9956 19.7071 23.6755 19.7174 23.355C19.7217 23.237 19.7325 23.1193 19.7498 23.0025L19.767 22.9948" fill="#9F2254"/>
<path d="M18.2981 20.6613C18.572 20.3895 18.8431 20.1149 19.1114 19.8376C19.2615 19.6823 19.4099 19.5255 19.5566 19.3669C20.6097 18.2238 21.3829 17.1541 21.848 15.7778C21.8589 15.7452 21.8699 15.7022 21.8805 15.6538L21.8855 15.6314C21.8964 15.5801 21.907 15.5229 21.9176 15.4586C21.9219 15.4142 22.061 15.3247 22.0649 15.2831C21.9482 14.6838 21.6795 14.0538 21.3861 13.5728C21.3868 13.5748 21.3875 13.5767 21.3881 13.5787L21.3825 13.5732C21.344 13.5368 21.3039 13.5028 21.2649 13.4671C21.1468 13.358 21.0262 13.2515 20.9034 13.1478C20.5381 12.8384 20.1503 12.5566 19.7432 12.3047C19.7637 12.6414 19.7769 12.9778 19.7804 13.3138C19.7809 13.3516 19.7799 13.3892 19.7799 13.4268C19.7805 13.5572 19.7809 13.6877 19.7784 13.8181C19.7751 13.986 19.7692 14.1539 19.7606 14.3217C19.7542 14.4457 19.7464 14.5694 19.7367 14.6933C19.7357 14.7062 19.7342 14.7191 19.7334 14.7319C19.6966 15.2006 19.6358 15.6671 19.5512 16.1296L19.4032 16.8294C19.0941 18.0827 18.4662 19.2194 17.95 20.3932C17.8131 20.7044 17.6832 21.0192 17.5694 21.3398L17.5371 21.4303C17.6726 21.2873 17.8102 21.1462 17.9496 21.0069C18.068 20.8898 18.1842 20.7747 18.2981 20.6613" fill="#FCB03F"/>
<path d="M11.5252 27.4019C12.2763 27.0696 12.9714 26.861 13.7977 26.6981C13.7936 26.5192 13.7842 26.3405 13.7697 26.1621C14.1227 25.2484 14.4481 24.3243 14.7457 23.3911C14.2193 23.4424 13.6962 23.5232 13.1789 23.6332C12.7956 23.7146 12.4173 23.8169 12.0422 23.9299C11.7408 24.0206 11.4434 24.1249 11.1484 24.2357L12.3148 24.5182L11.3763 27.464L11.5252 27.4019" fill="#525353"/>
<path d="M25.9447 18.6724C25.7398 18.403 25.533 18.1351 25.3242 17.8687L25.2917 17.8275C25.0688 17.5435 24.8429 17.2618 24.6141 16.9824C24.3818 16.6988 24.1456 16.4184 23.9057 16.1412C23.8906 16.1235 23.8755 16.1057 23.8601 16.0882C23.6625 15.8611 23.4618 15.6367 23.2581 15.415C23.1339 15.2795 23.0085 15.1452 22.8817 15.012C22.783 14.9089 22.6835 14.8066 22.5831 14.705C22.4889 14.6089 22.3949 14.5124 22.2991 14.4179C22.0938 14.2149 21.8848 14.0156 21.6721 13.8203C21.5779 13.7342 21.4826 13.6494 21.3861 13.5659C21.3856 13.5669 21.3851 13.5679 21.3847 13.5689C21.5875 14.1517 21.8189 14.7417 21.9347 15.3494C21.9649 15.5075 21.9897 15.6613 22.01 15.8115C22.2925 17.9149 21.6185 19.2883 20.5481 21.0949C20.4698 21.227 20.391 21.3588 20.312 21.4904C20.0672 21.8987 19.9105 22.285 19.8196 22.6479C19.7903 22.7649 19.7671 22.8834 19.75 23.0028C21.8491 23.3415 25.0056 23.4047 28.2352 21.8178C28.2352 21.8178 27.6019 20.8869 26.6489 19.6073C26.4355 19.3206 26.2207 19.035 26.0045 18.7504C25.9847 18.7243 25.9646 18.6983 25.9447 18.6724" fill="#DF0067"/>
<path d="M11.2639 27.9901L12.3139 24.5179L11.1475 24.2354C10.8863 24.3335 10.6274 24.4381 10.3719 24.5519L9.33203 27.9901L10.4929 28.0082L11.2639 27.9901" fill="#AA9678"/>
<path d="M12.0028 26.4879C12.1053 26.5273 12.2095 26.5628 12.3135 26.5992C13.5048 27.0172 14.7583 27.2305 16.0208 27.23C17.457 27.2308 18.8799 26.9551 20.2118 26.4178C20.2803 26.3903 20.3474 26.36 20.4151 26.3311C20.525 26.2845 20.6342 26.2361 20.7425 26.186C20.8393 26.141 20.936 26.0964 21.0313 26.0488C21.0083 26.0518 20.9853 26.0561 20.9623 26.0586C20.5596 26.104 20.1599 26.1066 19.7695 26.0505C17.4606 25.7185 16.9491 24.6054 17.0224 23.4459C16.8476 23.3454 16.6783 23.2357 16.515 23.1174C14.7393 21.8291 13.6853 20.4568 13.6853 20.4568C13.6853 20.4568 15.0551 21.5141 17.1012 22.3055C17.145 22.3225 17.1861 22.3371 17.2293 22.3535C17.3249 22.023 17.438 21.7088 17.5375 21.4301L17.5698 21.3396C17.6836 21.019 17.8135 20.7043 17.9504 20.393C18.4666 19.2193 19.0945 18.0825 19.4037 16.8293L19.5516 16.1294H18.2889L18.2888 16.1295L18.2889 16.132L18.2884 16.1323C18.2884 16.1356 18.2889 16.139 18.2889 16.1426C18.2892 16.443 18.1995 16.7366 18.0314 16.9855C17.8675 17.2276 17.6372 17.4172 17.3681 17.5315C17.1338 17.6307 16.878 17.6687 16.6249 17.6419C16.6128 17.6406 16.6011 17.638 16.5891 17.6365C16.5496 17.6314 16.5104 17.626 16.4723 17.6181C16.4615 17.6158 16.4513 17.6124 16.4406 17.6099C16.4014 17.6009 16.3621 17.5911 16.3241 17.579C16.3171 17.5766 16.3104 17.5738 16.3034 17.5714C16.2623 17.5575 16.2214 17.5426 16.1819 17.5254C16.1783 17.5239 16.1749 17.522 16.1714 17.5204C16.1288 17.5016 16.0871 17.4808 16.0464 17.4581L16.0445 17.457C15.9151 17.384 15.7971 17.2925 15.6943 17.1853L11.3683 16.1294H6.64702C6.62677 16.1654 6.60427 16.1999 6.5844 16.236C6.5484 16.3014 6.5144 16.3678 6.47965 16.4336C6.36363 16.6528 6.25441 16.8755 6.15215 17.1014C6.05653 17.3126 5.967 17.5265 5.88365 17.7428L5.87215 17.7715C5.65758 18.3361 5.48584 18.916 5.3584 19.5064C6.10165 21.7734 7.54777 23.7214 9.43815 25.0944C9.49315 25.1343 9.55115 25.1698 9.6069 25.2088C9.92679 25.4334 10.2582 25.6411 10.5998 25.8311C11.0516 26.0825 11.5204 26.3019 12.0028 26.4879" fill="white"/>
<path d="M23.3223 29.1716C23.2921 28.8716 23.2764 28.5702 23.2753 28.2686C23.2753 28.1808 23.2405 28.0966 23.1784 28.0345C23.1163 27.9724 23.0321 27.9375 22.9443 27.9375H9.05534C8.96753 27.9375 8.88333 27.9724 8.82124 28.0345C8.75915 28.0966 8.72425 28.1808 8.72422 28.2686C8.72422 28.5726 8.70634 28.8734 8.67722 29.1716C8.64484 29.4994 8.59481 29.8252 8.52734 30.1476C8.72872 30.2541 8.93172 30.3577 9.13822 30.456C9.27632 29.8534 9.35717 29.2391 9.37972 28.6212C9.38009 28.6141 9.38084 28.6069 9.38109 28.5997H22.6186C22.6188 28.6069 22.6196 28.6141 22.6198 28.6212C22.6425 29.2391 22.7234 29.8534 22.8615 30.456C23.0673 30.3575 23.2709 30.2547 23.4723 30.1476C23.4049 29.8252 23.3548 29.4994 23.3223 29.1716" fill="#8B7460"/>
</svg>
