<svg width="32" height="32" viewBox="0 0 32 32" fill="none" xmlns="http://www.w3.org/2000/svg">
<path d="M21.0265 31.9462C20.8495 32.0361 20.6714 31.9929 20.4861 31.9624C16.8496 31.3632 13.2127 30.7661 9.57554 30.1711C6.57285 29.6794 3.5722 29.1824 0.569509 28.7069C0.0803178 28.6305 -0.0517018 28.4984 0.0168669 28.0544C0.665711 23.8202 1.28692 19.5823 1.9153 15.3454C2.19366 13.4696 2.4792 11.5956 2.74426 9.71889C2.81488 9.21736 3.06664 8.90997 3.63975 8.76257C4.7174 8.49293 5.7797 8.17834 6.85326 7.89432C6.96618 7.87499 7.06973 7.82595 7.15016 7.75371C7.23059 7.68147 7.28409 7.58944 7.30357 7.48986C7.77945 5.92775 8.42011 4.42136 9.44659 3.06687C10.6614 1.46341 12.1576 0.213184 14.4889 0.0109546C15.3251 -0.0600506 15.9801 0.218576 16.5419 0.71741C16.6893 0.847736 16.8111 0.974466 17.0454 0.975365C18.5161 0.984353 19.3993 1.77619 20.0983 2.78195C20.3041 3.09119 20.4755 3.41718 20.61 3.75536C20.7246 4.025 20.8812 4.06993 21.1841 3.99533C21.6252 3.88747 22.0509 3.59806 22.5442 3.85242C22.36 3.87849 22.3754 4.00072 22.358 4.12206C22.2311 5.03704 22.2556 5.95921 22.1768 6.87779C22.0438 8.35901 22.0161 9.84382 21.9537 11.3331C21.8923 12.7595 21.789 14.1832 21.7316 15.6105C21.6508 17.6274 21.4615 19.6407 21.3448 21.6567C21.2537 23.2314 21.2598 24.8115 21.1104 26.3808C21.0316 27.2104 21.0705 28.0409 20.9538 28.8705C20.831 29.7531 20.8597 30.6519 20.831 31.5444C20.8239 31.6999 20.7512 31.895 21.0265 31.9462ZM5.84827 22.4809C5.58321 23.2746 5.40207 24.0413 5.06229 24.7504C4.84328 25.2079 5.02545 25.4335 5.36932 25.6699C7.14903 26.8833 9.14059 27.4091 11.3901 27.0846C12.4473 26.9478 13.4092 26.4716 14.0898 25.7481C15.28 24.4691 15.7273 22.9618 15.3916 21.3305C15.1624 20.2259 14.4777 19.3531 13.4952 18.6125C12.7277 18.0364 11.9038 17.5286 11.1301 16.9605C10.2428 16.3098 10.4618 14.8879 11.8107 14.6164C12.915 14.3894 14.0738 14.4889 15.1071 14.8996C15.5021 15.0533 15.6014 14.9697 15.716 14.6578C16.0681 13.6988 16.4324 12.7425 16.8274 11.796C16.9482 11.5093 16.9298 11.3952 16.5747 11.2963C15.403 10.9762 14.166 10.8842 12.9497 11.0266C11.3123 11.1992 9.85698 11.6945 8.68108 12.7002C7.58193 13.6395 6.9771 14.8007 6.79902 16.1642C6.62607 17.489 6.91057 18.6565 7.98004 19.6138C8.67596 20.2366 9.48753 20.7624 10.1742 21.3934C10.8906 22.0549 11.0759 22.9969 10.2408 23.6053C9.74338 23.9649 9.18665 23.9145 8.62172 23.7959C7.59626 23.5793 6.73762 23.0768 5.84827 22.4809ZM15.2176 1.29894C15.0467 1.11918 14.8379 1.13265 14.6373 1.13175C13.6139 1.13175 12.7655 1.51016 12.0235 2.09258C10.7105 3.1217 9.90508 4.44023 9.28694 5.85944C9.08226 6.33221 8.80082 6.78881 8.75681 7.35235C9.45068 7.1645 10.0719 6.94429 10.7177 6.83733C11.346 6.73307 11.6029 6.45984 11.7339 5.92146C12.1044 4.40698 12.8392 3.04531 14.1696 1.98203C14.4889 1.73126 14.8635 1.53082 15.2176 1.30253V1.29894ZM13.0091 6.21267L16.4621 5.27882C16.6668 5.22399 16.6309 5.0721 16.6248 4.94357C16.588 4.18588 16.5388 3.43179 16.3065 2.69657C16.1899 2.32536 16.022 2.27863 15.6741 2.48715C14.2014 3.36348 13.486 4.65955 13.0091 6.21267ZM17.7004 2.13392C17.4292 2.1501 17.5418 2.33795 17.5766 2.453C17.7839 3.14463 17.8807 3.85822 17.8642 4.57326C17.8642 4.8429 17.9665 4.87526 18.2254 4.79706C18.5928 4.68471 18.9623 4.57057 19.3399 4.48788C19.5927 4.43215 19.5671 4.30812 19.5057 4.15712C19.2683 3.56391 18.9602 3.00486 18.4496 2.55006C18.2425 2.35944 17.9852 2.21652 17.7004 2.13392V2.13392Z" fill="white"/>
<path d="M21.0263 31.9462C20.751 31.895 20.8216 31.6999 20.8287 31.5489C20.8574 30.6564 20.8287 29.7576 20.9515 28.875C21.0682 28.0454 21.0293 27.2149 21.1081 26.3853C21.2575 24.816 21.2514 23.2395 21.3425 21.6612C21.4592 19.6452 21.6495 17.6319 21.7293 15.615C21.7867 14.1877 21.89 12.764 21.9514 11.3376C22.0139 9.85192 22.0415 8.36351 22.1745 6.88228C22.2564 5.96371 22.2288 5.04155 22.3557 4.12657C22.3731 4.00434 22.3557 3.8821 22.5419 3.85693C23.0782 4.30633 23.6677 4.70989 24.1374 5.20513C24.6491 5.74441 25.2826 5.87474 26.0144 5.89002C26.5547 5.9008 27.0951 5.95293 27.6355 5.9745C27.9425 5.98618 28.052 6.15427 28.0888 6.37447C28.3089 7.69391 28.5166 9.01604 28.7377 10.3355C29.015 11.992 29.3005 13.6476 29.583 15.3031C29.8443 16.8275 30.1053 18.3519 30.3659 19.8762C30.6873 21.7673 31.0069 23.6587 31.3249 25.5504C31.5428 26.8401 31.7475 28.1317 31.985 29.4152C32.0535 29.7837 31.8826 29.896 31.5142 29.9644C29.0867 30.4138 26.6632 30.8757 24.2377 31.3341L21.0263 31.9462Z" fill="white"/>
</svg>
