<svg width="32" height="32" viewBox="0 0 32 32" fill="none" xmlns="http://www.w3.org/2000/svg">
<path fill-rule="evenodd" clip-rule="evenodd" d="M19.784 4.81039C17.259 4.96781 14.9324 5.88889 13.009 7.49251C12.8655 7.61213 12.6662 7.78796 12.5661 7.88323L12.384 8.05645L12.3019 8.02417C11.9433 7.88318 11.3614 7.70374 10.9606 7.6106C8.95408 7.14426 6.77118 7.41416 4.91091 8.35864C3.58756 9.03052 2.44249 10.0284 1.59151 11.2515C0.809601 12.3753 0.281516 13.7181 0.087214 15.0768C0.0143396 15.5864 -0.000893914 15.814 3.94701e-05 16.38C0.00169491 17.374 0.132351 18.2061 0.431457 19.1273C1.42234 22.1792 3.95694 24.4673 7.09247 25.1406C7.40893 25.2086 7.87023 25.2777 8.23087 25.3114C8.5382 25.34 9.40475 25.3399 9.71019 25.3112C10.5925 25.2282 11.4609 25.028 12.2041 24.7362C12.2901 24.7024 12.366 24.6748 12.3728 24.6748C12.3796 24.6748 12.4582 24.7429 12.5473 24.8261C15.0022 27.118 18.3589 28.2318 21.6945 27.8612C24.7637 27.5202 27.5483 25.986 29.475 23.5742C31.6 20.9143 32.4445 17.4363 31.7757 14.0994C31.5708 13.0769 31.2596 12.1721 30.7824 11.2112C28.9864 7.59469 25.4676 5.19818 21.4215 4.8358C21.0504 4.80255 20.137 4.78838 19.784 4.81039ZM21.2623 7.44366C22.3763 7.54959 23.3787 7.83406 24.389 8.33096C25.3071 8.78252 26.0567 9.31904 26.7757 10.0392C28.2637 11.5297 29.1683 13.4751 29.3563 15.5893C29.3883 15.9488 29.3927 16.707 29.3649 17.0404C29.3251 17.517 29.2597 17.9452 29.1614 18.3733C28.6455 20.6202 27.276 22.587 25.345 23.8541C22.6731 25.6072 19.2677 25.8027 16.4104 24.3672C13.7131 23.012 11.8902 20.4082 11.5338 17.4014C11.5036 17.1467 11.4713 16.6761 11.4713 16.4904V16.3624H10.1681H8.86487V16.5608C8.86487 16.8019 8.89142 17.2329 8.92751 17.5776C9.10244 19.2485 9.67034 20.9315 10.5427 22.3641C10.5947 22.4495 10.6249 22.5163 10.6156 22.525C10.5989 22.5406 10.3851 22.5919 10.1417 22.6389C9.37465 22.7869 8.47249 22.7776 7.67172 22.6136C6.16268 22.3044 4.79575 21.4355 3.8621 20.192C2.46019 18.3248 2.19303 15.8319 3.16666 13.7027C3.37558 13.2458 3.67539 12.76 3.99769 12.3559C4.19756 12.1053 4.71643 11.586 4.96402 11.3887C5.95533 10.5989 7.15024 10.1177 8.4018 10.0042C8.7129 9.97599 9.507 9.99073 9.78944 10.0299C12.1302 10.3551 14.0527 11.8563 14.9112 14.0292C15.1793 14.7079 15.3457 15.5246 15.3457 16.1617V16.3624H16.6509H17.9561L17.9443 16.0938C17.8595 14.1752 17.2723 12.4942 16.1646 10.999C15.8294 10.5466 15.2885 9.95957 14.9076 9.63498C14.811 9.55265 14.7314 9.47641 14.7306 9.46555C14.7299 9.4547 14.8097 9.38337 14.9079 9.30705C16.3656 8.17445 18.0899 7.5261 19.9356 7.41661C20.2671 7.39694 20.9086 7.41002 21.2623 7.44366Z" fill="white"/>
</svg>
