<svg width="32" height="28" viewBox="0 0 32 28" fill="none" xmlns="http://www.w3.org/2000/svg">
<path d="M5.91555 8.41208C5.817 8.20077 5.75519 8.0521 5.68086 7.91095C4.97176 6.55623 4.24763 5.20986 3.55273 3.84763C2.82191 2.41272 3.47672 0.789899 4.95923 0.339718C5.25166 0.252268 5.5552 0.207537 5.86043 0.206916C13.7382 0.199678 21.6171 0.198287 29.497 0.202741C31.4974 0.202741 32.5999 2.04022 31.6603 3.81004C27.7158 11.2368 23.768 18.6624 19.8169 26.0869C19.3358 26.994 18.6351 27.5486 17.5727 27.5477C16.5103 27.5469 15.8053 26.999 15.3284 26.0878C14.5667 24.6353 13.795 23.1879 13.0274 21.738C12.9573 21.606 12.8838 21.4757 12.7718 21.2711C12.6583 21.454 12.5747 21.5726 12.5071 21.6995C11.9132 22.8137 11.311 23.9296 10.7297 25.0529C10.4107 25.6702 9.96635 26.0644 9.23303 26.0594C8.51809 26.0535 8.08544 25.661 7.77057 25.0638C5.26492 20.3186 2.7537 15.5766 0.236919 10.8375C-0.338545 9.75845 0.220214 8.76705 0.99446 8.53152C1.23566 8.46885 1.48453 8.44073 1.73363 8.44799C2.94385 8.43964 4.15575 8.44799 5.36598 8.44298C5.52551 8.44298 5.68587 8.42628 5.91555 8.41208ZM12.8128 8.33357C11.1014 8.33357 9.38838 8.32939 7.68037 8.33357C6.65221 8.33357 6.19786 9.08527 6.67811 9.99147C8.34854 13.1447 10.0234 16.2971 11.7028 19.4486C11.9266 19.8712 12.2173 20.1611 12.7309 20.1677C13.2629 20.1753 13.5661 19.8788 13.7975 19.4419C15.4802 16.2776 17.1662 13.1149 18.8556 9.95389C19.3525 9.02012 18.9291 8.33357 17.8616 8.33273C16.179 8.33162 14.496 8.3319 12.8128 8.33357V8.33357Z" fill="white"/>
</svg>
