<svg width="29" height="32" viewBox="0 0 29 32" fill="none" xmlns="http://www.w3.org/2000/svg">
<path fill-rule="evenodd" clip-rule="evenodd" d="M23.0161 0H5.38957C2.62033 0 0.378573 2.26373 0.400551 5.01099V21.7143C0.400551 24.4835 2.64231 26.7253 5.41155 26.7253H9.91223L19.3849 32L17.231 26.7253H23.0161C25.7854 26.7253 28.0271 24.4835 28.0271 21.7143V5.01099C28.0271 2.24175 25.7854 0 23.0161 0ZM4.46659 3.86813C3.8512 3.91209 3.38965 4.13187 3.08196 4.54944C2.77427 4.94505 2.66439 5.45054 2.73032 6.02198C4.02702 14.2638 5.23581 19.8242 6.35669 22.7033C6.79626 23.7582 7.30175 24.2638 7.89517 24.2199C8.81823 24.1539 9.91713 22.8792 11.2138 20.3957C11.8952 18.989 12.9501 16.8792 14.3787 14.0659C15.5654 18.2197 17.1918 21.3407 19.2358 23.4286C19.8073 24.022 20.4007 24.2857 20.972 24.2418C21.4776 24.1978 21.8731 23.9341 22.1369 23.4505C22.3567 23.033 22.4446 22.5494 22.4007 22C22.2688 20 22.4667 17.2088 23.0161 13.6264C23.5874 9.93408 24.2908 7.27472 25.1479 5.69231C25.3238 5.36264 25.3896 5.03296 25.3677 4.63736C25.3238 4.13186 25.104 3.71428 24.6864 3.38462C24.2689 3.05495 23.8072 2.9011 23.3018 2.94505C22.6644 2.98901 22.1809 3.2967 21.8512 3.91209C20.4886 6.3956 19.5215 10.4176 18.9502 16C18.115 13.8901 17.4116 11.4066 16.8622 8.48351C16.6205 7.18682 16.0271 6.57143 15.06 6.63737C14.4007 6.68131 13.8512 7.12088 13.4117 7.95604L8.59846 17.1209C7.80725 13.9341 7.05999 10.044 6.37867 5.45054C6.22483 4.3077 5.58746 3.78021 4.46659 3.86813Z" fill="white"/>
</svg>
